<svg xmlns="http://www.w3.org/2000/svg" width="150" height="150" viewBox="0 0 150 150">
  <g id="Grupo_904383" data-name="Grupo 904383" transform="translate(-1085.822 -2267)">
    <g id="Trazado_630131" data-name="Trazado 630131" transform="translate(1085.822 2267)" fill="#fff">
      <path d="M 75 148.5 C 65.07689666748047 148.5 55.45141983032227 146.556884765625 46.39094161987305 142.7246246337891 C 42.03607940673828 140.8826751708984 37.83572006225586 138.602783203125 33.90650177001953 135.9482421875 C 30.01421928405762 133.3186798095703 26.35404014587402 130.2987365722656 23.02766036987305 126.9723434448242 C 19.70125961303711 123.6459579467773 16.68132019042969 119.9857788085938 14.05175971984863 116.0934982299805 C 11.39721965789795 112.1642837524414 9.11732006072998 107.9639205932617 7.27538013458252 103.6090621948242 C 3.443120002746582 94.54857635498047 1.5 84.92310333251953 1.5 75 C 1.5 65.07689666748047 3.443120002746582 55.45141983032227 7.27538013458252 46.39094161987305 C 9.11732006072998 42.03607940673828 11.39721965789795 37.83572006225586 14.05175971984863 33.90650177001953 C 16.68132019042969 30.01421928405762 19.70125961303711 26.35404014587402 23.02766036987305 23.02766036987305 C 26.35404014587402 19.70125961303711 30.01421928405762 16.68132019042969 33.90650177001953 14.05175971984863 C 37.83572006225586 11.39721965789795 42.03607940673828 9.11732006072998 46.39094161987305 7.27538013458252 C 55.45141983032227 3.443120002746582 65.07689666748047 1.5 75 1.5 C 84.92310333251953 1.5 94.54857635498047 3.443120002746582 103.6090621948242 7.27538013458252 C 107.9639205932617 9.11732006072998 112.1642837524414 11.39721965789795 116.0934982299805 14.05175971984863 C 119.9857788085938 16.68132019042969 123.6459579467773 19.70125961303711 126.9723434448242 23.02766036987305 C 130.2987365722656 26.35404014587402 133.3186798095703 30.01421928405762 135.9482421875 33.90650177001953 C 138.602783203125 37.83572006225586 140.8826751708984 42.03607940673828 142.7246246337891 46.39094161987305 C 146.556884765625 55.45141983032227 148.5 65.07689666748047 148.5 75 C 148.5 84.92310333251953 146.556884765625 94.54857635498047 142.7246246337891 103.6090621948242 C 140.8826751708984 107.9639205932617 138.602783203125 112.1642837524414 135.9482421875 116.0934982299805 C 133.3186798095703 119.9857788085938 130.2987365722656 123.6459579467773 126.9723434448242 126.9723434448242 C 123.6459579467773 130.2987365722656 119.9857788085938 133.3186798095703 116.0934982299805 135.9482421875 C 112.1642837524414 138.602783203125 107.9639205932617 140.8826751708984 103.6090621948242 142.7246246337891 C 94.54857635498047 146.556884765625 84.92310333251953 148.5 75 148.5 Z" stroke="none"/>
      <path d="M 75 3 C 65.27873992919922 3 55.84986877441406 4.90325927734375 46.97528076171875 8.656890869140625 C 42.70963287353516 10.46110534667969 38.59517669677734 12.69439697265625 34.7462158203125 15.29469299316406 C 30.93304443359375 17.87081909179688 27.34721374511719 20.82940673828125 24.08830261230469 24.08830261230469 C 20.82940673828125 27.34721374511719 17.87081909179688 30.93304443359375 15.29469299316406 34.7462158203125 C 12.69439697265625 38.59517669677734 10.46110534667969 42.70963287353516 8.656890869140625 46.97528076171875 C 4.90325927734375 55.84986877441406 3 65.27873992919922 3 75 C 3 84.72126007080078 4.90325927734375 94.15013122558594 8.656890869140625 103.0247192382812 C 10.46110534667969 107.2903747558594 12.69439697265625 111.4048309326172 15.29469299316406 115.2537841796875 C 17.87081909179688 119.0669555664062 20.82940673828125 122.6527862548828 24.08830261230469 125.9116973876953 C 27.34721374511719 129.1705932617188 30.93304443359375 132.1291809082031 34.7462158203125 134.7053070068359 C 38.59517669677734 137.3056030273438 42.70963287353516 139.5388946533203 46.97528076171875 141.3431091308594 C 55.84986877441406 145.0967407226562 65.27873992919922 147 75 147 C 84.72126007080078 147 94.15013122558594 145.0967407226562 103.0247192382812 141.3431091308594 C 107.2903747558594 139.5388946533203 111.4048309326172 137.3056030273438 115.2537841796875 134.7053070068359 C 119.0669555664062 132.1291809082031 122.6527862548828 129.1705932617188 125.9116973876953 125.9116973876953 C 129.1705932617188 122.6527862548828 132.1291809082031 119.0669555664062 134.7053070068359 115.2537841796875 C 137.3056030273438 111.4048309326172 139.5388946533203 107.2903747558594 141.3431091308594 103.0247192382812 C 145.0967407226562 94.15013122558594 147 84.72126007080078 147 75 C 147 65.27873992919922 145.0967407226562 55.84986877441406 141.3431091308594 46.97528076171875 C 139.5388946533203 42.70963287353516 137.3056030273438 38.59517669677734 134.7053070068359 34.7462158203125 C 132.1291809082031 30.93304443359375 129.1705932617188 27.34721374511719 125.9116973876953 24.08830261230469 C 122.6527862548828 20.82940673828125 119.0669555664062 17.87081909179688 115.2537841796875 15.29469299316406 C 111.4048309326172 12.69439697265625 107.2903747558594 10.46110534667969 103.0247192382812 8.656890869140625 C 94.15013122558594 4.90325927734375 84.72126007080078 3 75 3 M 75 0 C 116.4213485717773 0 150 33.57865142822266 150 75 C 150 116.4213485717773 116.4213485717773 150 75 150 C 33.57865142822266 150 0 116.4213485717773 0 75 C 0 33.57865142822266 33.57865142822266 0 75 0 Z" stroke="none" fill="#21cbae"/>
    </g>
    <g id="Grupo_902306" data-name="Grupo 902306" transform="translate(1764.306 2248.307)">
      <g id="Grupo_902308" data-name="Grupo 902308" transform="translate(-651.483 45.692)">
        <g id="Grupo_902307" data-name="Grupo 902307" transform="translate(0)">
          <g id="Grupo_902306-2" data-name="Grupo 902306">
            <path id="Trazado_630132" data-name="Trazado 630132" d="M-402.822,338.44l4.165-5.765a45.149,45.149,0,0,1-44.726,38.588.408.408,0,0,0-.407.409q-.392,1.645-1.889.858l-8.166-7.134a1.141,1.141,0,0,1,.013-1.729l8.168-6.905q1.491-.761,1.875.871v.754a.408.408,0,0,0,.407.407A33.117,33.117,0,0,0-411.072,331.4l4.8,7A2.108,2.108,0,0,0-402.822,338.44Z" transform="translate(491.027 -278.11)" fill="#ef3c79"/>
            <path id="Trazado_630134" data-name="Trazado 630134" d="M-482.6,184.607v8.713a.408.408,0,0,1-.409.408H-485.6c-3.988,0-6.187,5.211-3.359,8.039l1.854,1.854a.408.408,0,0,1,0,.578l-6.159,6.159a.405.405,0,0,1-.576,0l-1.841-1.843a4.814,4.814,0,0,0-8.052,3.331v2.611a.408.408,0,0,1-.407.407h-8.711a.406.406,0,0,1-.407-.407v-2.595c0-4-5.217-6.183-8.041-3.359l-1.854,1.854a.405.405,0,0,1-.576,0l-6.157-6.159a.408.408,0,0,1,0-.578l1.841-1.843a4.812,4.812,0,0,0-3.331-8.05h-2.609a.408.408,0,0,1-.407-.408v-8.713a.408.408,0,0,1,.407-.407h2.595c3.988,0,6.185-5.213,3.357-8.041l-1.852-1.854a.408.408,0,0,1,0-.578l6.157-6.159a.409.409,0,0,1,.576,0l1.843,1.843a4.813,4.813,0,0,0,8.052-3.331V163.47a.407.407,0,0,1,.407-.408h8.711a.408.408,0,0,1,.407.408v2.593c0,4,5.217,6.183,8.041,3.359l1.852-1.854a.409.409,0,0,1,.576,0l6.159,6.159a.408.408,0,0,1,0,.578l-1.841,1.843a4.814,4.814,0,0,0,3.331,8.052h2.608A.408.408,0,0,1-482.6,184.607Zm-10.787-3.956a.414.414,0,0,0-.537-.427l-2.434.774a.408.408,0,0,0-.267.511.408.408,0,0,0,.513.265l1.179-.373-3.055,3.891a2.227,2.227,0,0,0-1.041-.257,2.212,2.212,0,0,0-1.33.442l-4.424-4.137a2.228,2.228,0,0,0,.354-1.207,2.245,2.245,0,0,0-2.24-2.244,2.246,2.246,0,0,0-2.242,2.244,2.23,2.23,0,0,0,.321,1.149l-4.8,4.234a2.233,2.233,0,0,0-1.384-.481,2.244,2.244,0,0,0-2.24,2.244,2.232,2.232,0,0,0,.261,1.048l-4.187,3.315a2.226,2.226,0,0,0-1.472-.556,2.244,2.244,0,0,0-2.242,2.244,2.244,2.244,0,0,0,1.833,2.2v3.844h-.94a.408.408,0,0,0-.409.408.408.408,0,0,0,.409.407h26.082a.408.408,0,0,0,.409-.407.408.408,0,0,0-.409-.408h-.94v-9.9a2.244,2.244,0,0,0,1.834-2.2,2.233,2.233,0,0,0-.561-1.481l3.012-3.835-.112,1.128a.4.4,0,0,0,.4.448.41.41,0,0,0,.407-.367Z" transform="translate(556.234 -141.17)" fill="#0b5999" stroke="#010101" stroke-width="1"/>
            <path id="Trazado_630135" data-name="Trazado 630135" d="M-451.461,244.887a.414.414,0,0,1,.537.427l-.252,2.52a.41.41,0,0,1-.407.367.4.4,0,0,1-.4-.448l.112-1.128-3.012,3.835a2.233,2.233,0,0,1,.561,1.481,2.244,2.244,0,0,1-1.833,2.2v9.9h.94a.408.408,0,0,1,.409.408.408.408,0,0,1-.409.407H-481.3a.408.408,0,0,1-.409-.407.408.408,0,0,1,.409-.408h.94V260.2a2.244,2.244,0,0,1-1.834-2.2,2.244,2.244,0,0,1,2.242-2.244,2.226,2.226,0,0,1,1.472.556l4.187-3.315a2.232,2.232,0,0,1-.261-1.048,2.244,2.244,0,0,1,2.24-2.244,2.233,2.233,0,0,1,1.384.481l4.8-4.234a2.23,2.23,0,0,1-.321-1.149,2.246,2.246,0,0,1,2.242-2.244,2.245,2.245,0,0,1,2.24,2.244A2.228,2.228,0,0,1-462.32,246l4.424,4.137a2.212,2.212,0,0,1,1.33-.442,2.227,2.227,0,0,1,1.041.257l3.055-3.891-1.179.373a.408.408,0,0,1-.513-.265.408.408,0,0,1,.267-.511Zm-3.68,7.054a1.427,1.427,0,0,0-1.427-1.429,1.427,1.427,0,0,0-1.425,1.429,1.426,1.426,0,0,0,1.425,1.427A1.427,1.427,0,0,0-455.141,251.942Zm-1.833,12.1v-9.9a2.244,2.244,0,0,1-1.834-2.2,2.223,2.223,0,0,1,.354-1.207l-4.422-4.137a2.227,2.227,0,0,1-.923.4v17.039Zm-7.191-17.819a1.428,1.428,0,0,0,1.384-1.425,1.429,1.429,0,0,0-1.425-1.429,1.43,1.43,0,0,0-1.427,1.429,1.428,1.428,0,0,0,1.384,1.425.336.336,0,0,1,.043,0A.281.281,0,0,1-464.165,246.221Zm-.449,17.819V247a2.23,2.23,0,0,1-.976-.442l-4.8,4.232a2.237,2.237,0,0,1,.321,1.151,2.248,2.248,0,0,1-1.834,2.2v9.893Zm-6.273-12.1a1.427,1.427,0,0,0-1.427-1.429,1.427,1.427,0,0,0-1.425,1.429,1.426,1.426,0,0,0,1.425,1.427A1.427,1.427,0,0,0-470.887,251.942Zm-1.833,12.1v-9.9a2.237,2.237,0,0,1-1.065-.517l-4.187,3.316a2.233,2.233,0,0,1,.261,1.048,2.243,2.243,0,0,1-1.834,2.2v3.844Zm-5.806-6.047a1.427,1.427,0,0,0-1.425-1.429,1.427,1.427,0,0,0-1.427,1.429,1.427,1.427,0,0,0,1.427,1.427A1.426,1.426,0,0,0-478.527,257.992Z" transform="translate(513.77 -205.833)"/>
            <path id="Trazado_630136" data-name="Trazado 630136" d="M-580.208,58a1.265,1.265,0,0,1-.108,2.052L-589.572,66c-1.072.418-1.96,0-1.951-1.065a.407.407,0,0,0-.408-.408A33.213,33.213,0,0,0-613.737,72.5a31.43,31.43,0,0,0-10.5,19.234L-628.5,86.15a2.062,2.062,0,0,0-3.294-.1l-5.045,5.792c2.263-22.769,21.353-39.787,44.913-39.787a.4.4,0,0,0,.408-.407,1.258,1.258,0,0,1,2.059-1.093Z" transform="translate(639.575 -49.383)" fill="#00b798"/>
            <path id="Trazado_630137" data-name="Trazado 630137" d="M-351.019,285.232a1.427,1.427,0,0,1,1.427,1.429,1.427,1.427,0,0,1-1.427,1.427,1.426,1.426,0,0,1-1.425-1.427A1.427,1.427,0,0,1-351.019,285.232Z" transform="translate(408.222 -240.552)" fill="#fecb2f"/>
            <path id="Trazado_630138" data-name="Trazado 630138" d="M-348.554,59.872a.612.612,0,0,1,.612.612.612.612,0,0,1-.612.612.611.611,0,0,1-.61-.612A.611.611,0,0,1-348.554,59.872Z" transform="translate(405.554 -57.227)"/>
            <path id="Trazado_630139" data-name="Trazado 630139" d="M-376.749,271.789v9.9h-6.825V264.645a2.227,2.227,0,0,0,.923-.4l4.422,4.137a2.223,2.223,0,0,0-.354,1.207A2.244,2.244,0,0,0-376.749,271.789Z" transform="translate(433.545 -223.477)" fill="#fecb2f"/>
            <path id="Trazado_630140" data-name="Trazado 630140" d="M-390.552,248.351a1.428,1.428,0,0,1-1.384,1.425.281.281,0,0,0-.041,0,.333.333,0,0,0-.043,0,1.428,1.428,0,0,1-1.384-1.425,1.43,1.43,0,0,1,1.427-1.429A1.429,1.429,0,0,1-390.552,248.351Z" transform="translate(441.542 -209.388)" fill="#21cbae"/>
            <path id="Trazado_630141" data-name="Trazado 630141" d="M-419.743,264.474v17.039h-7.291V271.62a2.248,2.248,0,0,0,1.834-2.2,2.237,2.237,0,0,0-.321-1.151l4.8-4.232A2.23,2.23,0,0,0-419.743,264.474Z" transform="translate(468.899 -223.306)" fill="#ef3c79"/>
            <path id="Trazado_630142" data-name="Trazado 630142" d="M-435.439,285.232a1.427,1.427,0,0,1,1.427,1.429,1.427,1.427,0,0,1-1.427,1.427,1.427,1.427,0,0,1-1.425-1.427A1.427,1.427,0,0,1-435.439,285.232Z" transform="translate(476.896 -240.552)" fill="#ef3c79"/>
            <path id="Trazado_630144" data-name="Trazado 630144" d="M-461.169,302.449v9.9h-6.825V308.5a2.243,2.243,0,0,0,1.833-2.2,2.232,2.232,0,0,0-.261-1.048l4.187-3.316A2.237,2.237,0,0,0-461.169,302.449Z" transform="translate(502.219 -254.137)" fill="#21cbae"/>
            <path id="Trazado_630145" data-name="Trazado 630145" d="M-442.127,540.334a.483.483,0,0,1-.011.1c-.4-.076-.8-.157-1.2-.244a.612.612,0,0,1,.6-.472A.612.612,0,0,1-442.127,540.334Z" transform="translate(482.159 -447.574)" fill="#00b798"/>
            <path id="Trazado_630146" data-name="Trazado 630146" d="M-442.212,542.5a.606.606,0,0,1-.6.507.611.611,0,0,1-.612-.612.574.574,0,0,1,.017-.14C-443.012,542.34-442.613,542.42-442.212,542.5Z" transform="translate(482.232 -449.632)"/>
            <path id="Trazado_630147" data-name="Trazado 630147" d="M-609.968,342.4a.4.4,0,0,1,.31.382c-21.141-5.26-35.147-23.522-34.938-44.24a.407.407,0,0,0-.4-.407,1.421,1.421,0,0,1-.983-.671,1.807,1.807,0,0,0,.994.541.408.408,0,0,1,.407.408A45.078,45.078,0,0,0-609.968,342.4Z" transform="translate(647.01 -250.501)" fill="#00b798"/>
            <path id="Trazado_630148" data-name="Trazado 630148" d="M-476.4,317.672a1.427,1.427,0,0,1,1.425,1.429,1.426,1.426,0,0,1-1.425,1.427,1.427,1.427,0,0,1-1.427-1.427A1.427,1.427,0,0,1-476.4,317.672Z" transform="translate(510.216 -266.941)" fill="#21cbae"/>
            <path id="Trazado_630149" data-name="Trazado 630149" d="M-569.589,291.769q.747,1.477-.89,1.837l-.755-.007a.4.4,0,0,0-.412.4c0,.1,0,.2,0,.3,0-.185-.006-.369-.006-.556a.408.408,0,0,1,.409-.408h.563q1.488-.33,1.058-1.612Z" transform="translate(586.544 -245.832)" fill="#00b798"/>
            <path id="Trazado_630150" data-name="Trazado 630150" d="M-627.4,242.611a1.47,1.47,0,0,0-1.078.448l-5.04,5.786,4.948-5.788a1.411,1.411,0,0,1,.2-.185A1.121,1.121,0,0,1-627.4,242.611Z" transform="translate(636.866 -205.858)" fill="#00b798"/>
            <path id="Trazado_630131-2" data-name="Trazado 630131" d="M-557.808,93.22c.66.1,2.723,1.3,1.378,3.322l-1.679,2.322a46.476,46.476,0,0,1-45.364,40.793,1.971,1.971,0,0,1-3.2,1.067l-8.166-7.135a1.954,1.954,0,0,1,.022-2.966l5.558-4.7a33.133,33.133,0,0,1-27.331-31.756v-.009c0-.1,0-.2,0-.3a.4.4,0,0,1,.412-.4l.755.007q1.637-.358.89-1.837l-.035-.047a2.616,2.616,0,0,0-.117-.293l-6.377-8.332a1.531,1.531,0,0,0-.955-.513,1.121,1.121,0,0,0-.974.261,1.409,1.409,0,0,0-.2.185l-4.948,5.788-2.225,2.554a1.105,1.105,0,0,0-.1,1.421,1.421,1.421,0,0,0,.983.671.407.407,0,0,1,.4.407c-.209,20.717,13.8,38.98,34.938,44.24a.318.318,0,0,1-.009.11c-.123.248-.287.349-.491.3A45.612,45.612,0,0,1-649.87,93.97c-1.593-.608-2.1-1.776-1.1-3.275l1.309-1.5c1.77-23.627,21.247-41.457,45.437-41.645.565-1.723,1.871-2.432,3.365-1.322l9.255,7.448a2.082,2.082,0,0,1-.179,3.374l-6.6,4.24a33.125,33.125,0,0,1,27.3,32.315.407.407,0,0,1-.407.409q-1.76.369-1.069,2.027l6.506,9.479a1.3,1.3,0,0,0,2.117.026l6.849-9.479a1.284,1.284,0,0,0-1.125-2.054.4.4,0,0,1-.407-.409A45.324,45.324,0,0,0-591.91,49.954a.409.409,0,0,1-.285-.5.407.407,0,0,1,.5-.285A46.146,46.146,0,0,1-557.808,93.22Zm-1.306,7.036-4.165,5.765a2.108,2.108,0,0,1-3.447-.041l-4.8-7a33.117,33.117,0,0,1-32.311,27.389.408.408,0,0,1-.407-.407v-.754q-.383-1.634-1.875-.871l-8.168,6.905a1.141,1.141,0,0,0-.013,1.729l8.166,7.135q1.5.789,1.89-.858a.408.408,0,0,1,.407-.408A45.149,45.149,0,0,0-559.113,100.256ZM-572.2,98l-1.03-1.5c-.869-1.449-.259-2.71,1.33-3.264a32.028,32.028,0,0,0-27.52-31.282l-1.619,1.041c-1.483.767-2.636.192-3.165-1.345-16.259.17-29.34,11.591-31.235,27.3l1.408,1.841a1.929,1.929,0,0,1-1.74,3.218,32.059,32.059,0,0,0,27.344,31.215l1.783-1.507a1.952,1.952,0,0,1,3.216,1.492v.345A32.023,32.023,0,0,0-572.2,98Zm-20.021-41.639a1.265,1.265,0,0,0,.108-2.052l-9.255-7.448a1.258,1.258,0,0,0-2.059,1.093.4.4,0,0,1-.408.407c-23.56,0-42.65,17.018-44.913,39.787l5.045-5.792a2.062,2.062,0,0,1,3.294.1l4.271,5.581a31.43,31.43,0,0,1,10.5-19.234,33.214,33.214,0,0,1,21.806-7.974.407.407,0,0,1,.408.408c-.009,1.067.879,1.483,1.951,1.065Z" transform="translate(651.483 -45.692)"/>
            <path id="Trazado_630143" data-name="Trazado 630143" d="M-610.516,293.873l6.543,5.592c-.675-.1-1.907.129-2.571,0a.49.49,0,0,0,.011-.106.623.623,0,0,0-.622-.622.622.622,0,0,0-.605.48c-.5-.108-1-.224-1.5-.347a.41.41,0,0,0-.315-.389c-20.727-4.983-35.515-23.059-35.515-44.414a.415.415,0,0,0-.413-.415,1.837,1.837,0,0,1-1.011-.55,1.523,1.523,0,0,1,.144-1.445l2.221-2.6,5.128-5.983a1.5,1.5,0,0,1,1.1-.455,1.574,1.574,0,0,1,.654.252c.07.057.484.563.484.563l6.516,8.563a1.218,1.218,0,0,1-1,1.766h-.573c-.229,0-.571.073-.571.3,0,.19,0,.377.006.565v.009c0,15.659,12.81,29.482,27.373,31.607l-5.48,4.738C-611.753,291.8-611.709,293.006-610.516,293.873Z" transform="translate(647.411 -205.999)" fill="#0b5999"/>
          </g>
        </g>
        <path id="Trazado_630151" data-name="Trazado 630151" d="M-326.342,105.649a.408.408,0,0,0,.408.407c1.1.27,1.384,1.12.846,2.1l-6.985,9.411a1.491,1.491,0,0,1-.2.186,1.378,1.378,0,0,1-1.729-.028,1.506,1.506,0,0,1-.189-.193l-6.439-9.46c-.812-1.534.122-2.055.722-2.159l.361.005c.227,0,.269-.042.271-.265C-339.6,90.34-350.7,75.915-366.39,73.2l6.663-4.547a1.884,1.884,0,0,0-.206-3.086l-6.249-5.267c23.863,3.6,38.986,22.684,39.841,45.344Z" transform="translate(419.567 -57.579)" fill="#fecb2f" stroke="#000" stroke-linecap="round" stroke-linejoin="round" stroke-width="0.5"/>
      </g>
    </g>
  </g>
</svg>
