<svg xmlns="http://www.w3.org/2000/svg" width="150" height="150" viewBox="0 0 150 150">
  <g id="Grupo_904381" data-name="Grupo 904381" transform="translate(-365 -2267)">
    <g id="Grupo_904384" data-name="Grupo 904384">
      <g id="Trazado_630069" data-name="Trazado 630069" transform="translate(365 2267)" fill="#fff">
        <path d="M 75 148.5 C 65.07689666748047 148.5 55.45141983032227 146.556884765625 46.39094161987305 142.7246246337891 C 42.03607940673828 140.8826751708984 37.83572006225586 138.602783203125 33.90650177001953 135.9482421875 C 30.01421928405762 133.3186798095703 26.35404014587402 130.2987365722656 23.02766036987305 126.9723434448242 C 19.70125961303711 123.6459579467773 16.68132019042969 119.9857788085938 14.05175971984863 116.0934982299805 C 11.39721965789795 112.1642837524414 9.11732006072998 107.9639205932617 7.27538013458252 103.6090621948242 C 3.443120002746582 94.54857635498047 1.5 84.92310333251953 1.5 75 C 1.5 65.07689666748047 3.443120002746582 55.45141983032227 7.27538013458252 46.39094161987305 C 9.11732006072998 42.03607940673828 11.39721965789795 37.83572006225586 14.05175971984863 33.90650177001953 C 16.68132019042969 30.01421928405762 19.70125961303711 26.35404014587402 23.02766036987305 23.02766036987305 C 26.35404014587402 19.70125961303711 30.01421928405762 16.68132019042969 33.90650177001953 14.05175971984863 C 37.83572006225586 11.39721965789795 42.03607940673828 9.11732006072998 46.39094161987305 7.27538013458252 C 55.45141983032227 3.443120002746582 65.07689666748047 1.5 75 1.5 C 84.92310333251953 1.5 94.54857635498047 3.443120002746582 103.6090621948242 7.27538013458252 C 107.9639205932617 9.11732006072998 112.1642837524414 11.39721965789795 116.0934982299805 14.05175971984863 C 119.9857788085938 16.68132019042969 123.6459579467773 19.70125961303711 126.9723434448242 23.02766036987305 C 130.2987365722656 26.35404014587402 133.3186798095703 30.01421928405762 135.9482421875 33.90650177001953 C 138.602783203125 37.83572006225586 140.8826751708984 42.03607940673828 142.7246246337891 46.39094161987305 C 146.556884765625 55.45141983032227 148.5 65.07689666748047 148.5 75 C 148.5 84.92310333251953 146.556884765625 94.54857635498047 142.7246246337891 103.6090621948242 C 140.8826751708984 107.9639205932617 138.602783203125 112.1642837524414 135.9482421875 116.0934982299805 C 133.3186798095703 119.9857788085938 130.2987365722656 123.6459579467773 126.9723434448242 126.9723434448242 C 123.6459579467773 130.2987365722656 119.9857788085938 133.3186798095703 116.0934982299805 135.9482421875 C 112.1642837524414 138.602783203125 107.9639205932617 140.8826751708984 103.6090621948242 142.7246246337891 C 94.54857635498047 146.556884765625 84.92310333251953 148.5 75 148.5 Z" stroke="none"/>
        <path d="M 75 3 C 65.27873992919922 3 55.84986877441406 4.90325927734375 46.97528076171875 8.656890869140625 C 42.70963287353516 10.46110534667969 38.59517669677734 12.69439697265625 34.7462158203125 15.29469299316406 C 30.93304443359375 17.87081909179688 27.34721374511719 20.82940673828125 24.08830261230469 24.08830261230469 C 20.82940673828125 27.34721374511719 17.87081909179688 30.93304443359375 15.29469299316406 34.7462158203125 C 12.69439697265625 38.59517669677734 10.46110534667969 42.70963287353516 8.656890869140625 46.97528076171875 C 4.90325927734375 55.84986877441406 3 65.27873992919922 3 75 C 3 84.72126007080078 4.90325927734375 94.15013122558594 8.656890869140625 103.0247192382812 C 10.46110534667969 107.2903747558594 12.69439697265625 111.4048309326172 15.29469299316406 115.2537841796875 C 17.87081909179688 119.0669555664062 20.82940673828125 122.6527862548828 24.08830261230469 125.9116973876953 C 27.34721374511719 129.1705932617188 30.93304443359375 132.1291809082031 34.7462158203125 134.7053070068359 C 38.59517669677734 137.3056030273438 42.70963287353516 139.5388946533203 46.97528076171875 141.3431091308594 C 55.84986877441406 145.0967407226562 65.27873992919922 147 75 147 C 84.72126007080078 147 94.15013122558594 145.0967407226562 103.0247192382812 141.3431091308594 C 107.2903747558594 139.5388946533203 111.4048309326172 137.3056030273438 115.2537841796875 134.7053070068359 C 119.0669555664062 132.1291809082031 122.6527862548828 129.1705932617188 125.9116973876953 125.9116973876953 C 129.1705932617188 122.6527862548828 132.1291809082031 119.0669555664062 134.7053070068359 115.2537841796875 C 137.3056030273438 111.4048309326172 139.5388946533203 107.2903747558594 141.3431091308594 103.0247192382812 C 145.0967407226562 94.15013122558594 147 84.72126007080078 147 75 C 147 65.27873992919922 145.0967407226562 55.84986877441406 141.3431091308594 46.97528076171875 C 139.5388946533203 42.70963287353516 137.3056030273438 38.59517669677734 134.7053070068359 34.7462158203125 C 132.1291809082031 30.93304443359375 129.1705932617188 27.34721374511719 125.9116973876953 24.08830261230469 C 122.6527862548828 20.82940673828125 119.0669555664062 17.87081909179688 115.2537841796875 15.29469299316406 C 111.4048309326172 12.69439697265625 107.2903747558594 10.46110534667969 103.0247192382812 8.656890869140625 C 94.15013122558594 4.90325927734375 84.72126007080078 3 75 3 M 75 0 C 116.4213485717773 0 150 33.57865142822266 150 75 C 150 116.4213485717773 116.4213485717773 150 75 150 C 33.57865142822266 150 0 116.4213485717773 0 75 C 0 33.57865142822266 33.57865142822266 0 75 0 Z" stroke="none" fill="#21cbae"/>
      </g>
      <g id="Grupo_902222" data-name="Grupo 902222" transform="translate(162.144 1315.775)">
        <g id="Grupo_902223" data-name="Grupo 902223" transform="translate(220.221 991.808)">
          <path id="Trazado_630069-2" data-name="Trazado 630069" d="M246.808,1062.482h-6.157a.825.825,0,0,1-.817-.708l-.651-4.553a18.338,18.338,0,0,1-5.147-2.125l-3.674,2.756a.824.824,0,0,1-1.079-.077l-4.354-4.354a.825.825,0,0,1-.076-1.079l2.756-3.674a18.322,18.322,0,0,1-2.129-5.148l-4.551-.65a.825.825,0,0,1-.708-.817V1035.9a.825.825,0,0,1,.709-.817l4.545-.649a18.4,18.4,0,0,1,2.132-5.152l-2.753-3.67a.825.825,0,0,1,.076-1.079l4.354-4.354a.825.825,0,0,1,1.078-.077l3.671,2.753a18.408,18.408,0,0,1,5.152-2.131l.649-4.545a.825.825,0,0,1,.817-.709h6.157a.825.825,0,0,1,.817.708l.65,4.551a18.305,18.305,0,0,1,5.148,2.129l3.674-2.756a.826.826,0,0,1,1.079.077l4.354,4.354a.825.825,0,0,1,.076,1.079l-2.756,3.674a18.34,18.34,0,0,1,2.126,5.146l4.553.651a.825.825,0,0,1,.708.817v6.157a.825.825,0,0,1-.708.817l-4.548.65a18.514,18.514,0,0,1-2.133,5.147l2.757,3.676a.825.825,0,0,1-.076,1.079l-4.354,4.354a.824.824,0,0,1-1.079.077l-3.675-2.757a18.514,18.514,0,0,1-5.147,2.132l-.65,4.548A.825.825,0,0,1,246.808,1062.482Z" transform="translate(-220.221 -1015.466)" fill="#070707" stroke="#000" stroke-linecap="round" stroke-linejoin="round" stroke-width="0.5"/>
          <path id="Trazado_630070" data-name="Trazado 630070" d="M249.43,1068.9h4.726l.629-4.4a.825.825,0,0,1,.556-.666.775.775,0,0,1,.092-.026,16.9,16.9,0,0,0,5.633-2.331.827.827,0,0,1,.957.023l3.556,2.668,3.341-3.342-2.667-3.556a.825.825,0,0,1-.019-.964,16.879,16.879,0,0,0,2.327-5.625.782.782,0,0,1,.024-.088.831.831,0,0,1,.667-.56l4.4-.629v-4.726l-4.406-.63a.825.825,0,0,1-.69-.646,16.727,16.727,0,0,0-2.332-5.648.824.824,0,0,1,.032-.944l2.666-3.554-3.342-3.342-3.555,2.667a.824.824,0,0,1-.944.032,16.685,16.685,0,0,0-5.648-2.336.825.825,0,0,1-.646-.69l-.629-4.4H249.43l-.628,4.4a.825.825,0,0,1-.644.69,16.792,16.792,0,0,0-5.651,2.338.83.83,0,0,1-.948-.031l-3.551-2.663-3.342,3.342,2.663,3.55a.824.824,0,0,1,.123.756.842.842,0,0,1-.092.193,16.79,16.79,0,0,0-2.338,5.651.825.825,0,0,1-.69.644l-4.4.628v4.726l4.4.629a.825.825,0,0,1,.69.646,16.69,16.69,0,0,0,2.336,5.648.825.825,0,0,1-.032.944l-2.667,3.555,3.342,3.342,3.554-2.666a.827.827,0,0,1,.944-.033,16.737,16.737,0,0,0,5.648,2.333.825.825,0,0,1,.646.69Z" transform="translate(-228.285 -1023.53)" fill="#ef3c79" stroke="#000" stroke-linecap="round" stroke-linejoin="round" stroke-width="0.5"/>
          <circle id="Elipse_6524" data-name="Elipse 6524" cx="10.714" cy="10.714" r="10.714" transform="translate(12.795 13.43)" fill="#fff"/>
          <g id="Grupo_902222-2" data-name="Grupo 902222" transform="translate(11.514 11.768)">
            <path id="Trazado_630071" data-name="Trazado 630071" d="M299.73,1108.213a11.74,11.74,0,1,1,11.74-11.74A11.754,11.754,0,0,1,299.73,1108.213Zm0-20.679a8.938,8.938,0,1,0,8.938,8.938A8.948,8.948,0,0,0,299.73,1087.534Z" transform="translate(-287.99 -1084.732)"/>
          </g>
        </g>
        <g id="Grupo_902225" data-name="Grupo 902225" transform="translate(288.476 1008.97)">
          <path id="Trazado_630072" data-name="Trazado 630072" d="M648.562,1163.5H642.4a.825.825,0,0,1-.817-.708l-.651-4.553a18.336,18.336,0,0,1-5.147-2.125l-3.674,2.756a.825.825,0,0,1-1.079-.077l-4.354-4.354a.826.826,0,0,1-.077-1.079l2.756-3.674a18.314,18.314,0,0,1-2.129-5.148l-4.551-.65a.826.826,0,0,1-.708-.817v-6.157a.825.825,0,0,1,.709-.817l4.545-.649a18.4,18.4,0,0,1,2.132-5.152l-2.753-3.67a.826.826,0,0,1,.077-1.079l4.354-4.354a.825.825,0,0,1,1.078-.077l3.671,2.752a18.394,18.394,0,0,1,5.152-2.131l.649-4.545a.825.825,0,0,1,.817-.709h6.157a.825.825,0,0,1,.817.708l.65,4.551a18.316,18.316,0,0,1,5.148,2.13l3.674-2.756a.826.826,0,0,1,1.079.077l4.354,4.354a.825.825,0,0,1,.077,1.079L661.6,1130.3a18.345,18.345,0,0,1,2.126,5.146l4.553.651a.825.825,0,0,1,.708.817v6.157a.825.825,0,0,1-.708.817l-4.548.65a18.51,18.51,0,0,1-2.133,5.146l2.757,3.676a.825.825,0,0,1-.077,1.079l-4.354,4.354a.825.825,0,0,1-1.079.077l-3.675-2.757a18.512,18.512,0,0,1-5.147,2.132l-.65,4.548A.825.825,0,0,1,648.562,1163.5Z" transform="translate(-621.975 -1116.481)" fill="#070707" stroke="#000" stroke-linecap="round" stroke-linejoin="round" stroke-width="0.5"/>
          <path id="Trazado_630073" data-name="Trazado 630073" d="M651.184,1169.91h4.726l.629-4.4a.825.825,0,0,1,.556-.666.88.88,0,0,1,.092-.026,16.894,16.894,0,0,0,5.633-2.331.826.826,0,0,1,.957.023l3.556,2.668,3.341-3.342-2.667-3.556a.825.825,0,0,1-.018-.965,16.884,16.884,0,0,0,2.326-5.626.78.78,0,0,1,.024-.088.831.831,0,0,1,.667-.56l4.4-.629v-4.726l-4.406-.63a.825.825,0,0,1-.69-.646,16.728,16.728,0,0,0-2.332-5.648.824.824,0,0,1,.032-.944l2.666-3.554-3.342-3.342-3.555,2.667a.824.824,0,0,1-.944.032,16.7,16.7,0,0,0-5.648-2.336.825.825,0,0,1-.646-.69l-.629-4.4h-4.726l-.628,4.4a.825.825,0,0,1-.644.69,16.785,16.785,0,0,0-5.651,2.338.84.84,0,0,1-.232.1.83.83,0,0,1-.716-.135l-3.551-2.663-3.342,3.342,2.663,3.55a.824.824,0,0,1,.123.756.846.846,0,0,1-.092.193,16.792,16.792,0,0,0-2.338,5.651.825.825,0,0,1-.69.644l-4.4.628v4.726l4.4.629a.825.825,0,0,1,.69.646,16.691,16.691,0,0,0,2.336,5.648.825.825,0,0,1-.032.944l-2.667,3.555,3.342,3.342,3.554-2.666a.827.827,0,0,1,.944-.033,16.74,16.74,0,0,0,5.648,2.333.824.824,0,0,1,.645.69Z" transform="translate(-630.039 -1124.545)" fill="#0b5999" stroke="#000" stroke-linecap="round" stroke-linejoin="round" stroke-width="0.5"/>
          <circle id="Elipse_6525" data-name="Elipse 6525" cx="10.714" cy="10.714" r="10.714" transform="translate(12.795 13.43)" fill="#fff"/>
          <g id="Grupo_902224" data-name="Grupo 902224" transform="translate(11.514 11.768)">
            <path id="Trazado_630074" data-name="Trazado 630074" d="M701.484,1209.228a11.74,11.74,0,1,1,11.74-11.74A11.754,11.754,0,0,1,701.484,1209.228Zm0-20.679a8.938,8.938,0,1,0,8.938,8.938A8.948,8.948,0,0,0,701.484,1188.549Z" transform="translate(-689.744 -1185.747)"/>
          </g>
        </g>
        <g id="Grupo_902283" data-name="Grupo 902283" transform="translate(243.729 986.966)">
          <g id="Grupo_902282" data-name="Grupo 902282" transform="translate(0 0)">
            <g id="Grupo_902244" data-name="Grupo 902244" transform="translate(7.239)">
              <rect id="Rectángulo_303151" data-name="Rectángulo 303151" width="55.803" height="65.285" rx="4" transform="translate(1.608 2.214)" fill="#f6f6f6"/>
              <g id="Grupo_902243" data-name="Grupo 902243">
                <g id="Grupo_902226" data-name="Grupo 902226">
                  <path id="Trazado_630075" data-name="Trazado 630075" d="M453.739,1056.68h-46.06a6.487,6.487,0,0,1-6.48-6.48V993.446a6.487,6.487,0,0,1,6.48-6.48h46.06a6.487,6.487,0,0,1,6.479,6.48V1050.2A6.487,6.487,0,0,1,453.739,1056.68Zm-46.06-67.5a4.27,4.27,0,0,0-4.266,4.266V1050.2a4.27,4.27,0,0,0,4.266,4.266h46.06A4.27,4.27,0,0,0,458,1050.2V993.446a4.27,4.27,0,0,0-4.265-4.266Z" transform="translate(-401.199 -986.966)"/>
                </g>
                <g id="Grupo_902242" data-name="Grupo 902242" transform="translate(7.239 12.308)">
                  <g id="Grupo_902231" data-name="Grupo 902231" transform="translate(0 36.137)">
                    <g id="Grupo_902229" data-name="Grupo 902229" transform="translate(15.998 1.702)">
                      <g id="Grupo_902227" data-name="Grupo 902227">
                        <path id="Trazado_630076" data-name="Trazado 630076" d="M565.406,1284.352h-26.33a1.107,1.107,0,0,1,0-2.214h26.33a1.107,1.107,0,0,1,0,2.214Z" transform="translate(-537.969 -1282.138)"/>
                      </g>
                      <g id="Grupo_902228" data-name="Grupo 902228" transform="translate(0 4.567)">
                        <path id="Trazado_630077" data-name="Trazado 630077" d="M560.683,1311.236H539.076a1.107,1.107,0,1,1,0-2.214h21.607a1.107,1.107,0,0,1,0,2.214Z" transform="translate(-537.969 -1309.022)"/>
                      </g>
                    </g>
                    <g id="Grupo_902230" data-name="Grupo 902230">
                      <path id="Trazado_630078" data-name="Trazado 630078" d="M448.667,1281.079a1.1,1.1,0,0,1-.783-.324L444.131,1277a1.107,1.107,0,1,1,1.566-1.566l2.971,2.971,5.962-5.962a1.107,1.107,0,1,1,1.566,1.566l-6.745,6.745A1.1,1.1,0,0,1,448.667,1281.079Z" transform="translate(-443.806 -1272.119)"/>
                    </g>
                  </g>
                  <g id="Grupo_902236" data-name="Grupo 902236" transform="translate(0 18.069)">
                    <g id="Grupo_902234" data-name="Grupo 902234" transform="translate(15.998 1.702)">
                      <g id="Grupo_902232" data-name="Grupo 902232">
                        <path id="Trazado_630079" data-name="Trazado 630079" d="M565.406,1178h-26.33a1.107,1.107,0,1,1,0-2.214h26.33a1.107,1.107,0,0,1,0,2.214Z" transform="translate(-537.969 -1175.785)"/>
                      </g>
                      <g id="Grupo_902233" data-name="Grupo 902233" transform="translate(0 4.568)">
                        <path id="Trazado_630080" data-name="Trazado 630080" d="M560.683,1204.885H539.076a1.107,1.107,0,1,1,0-2.214h21.607a1.107,1.107,0,0,1,0,2.214Z" transform="translate(-537.969 -1202.671)"/>
                      </g>
                    </g>
                    <g id="Grupo_902235" data-name="Grupo 902235">
                      <path id="Trazado_630081" data-name="Trazado 630081" d="M448.667,1174.726a1.1,1.1,0,0,1-.783-.324l-3.754-3.754a1.107,1.107,0,1,1,1.566-1.566l2.971,2.971,5.962-5.962a1.107,1.107,0,1,1,1.566,1.566l-6.745,6.745A1.1,1.1,0,0,1,448.667,1174.726Z" transform="translate(-443.806 -1165.766)"/>
                    </g>
                  </g>
                  <g id="Grupo_902241" data-name="Grupo 902241">
                    <g id="Grupo_902239" data-name="Grupo 902239" transform="translate(15.998 1.702)">
                      <g id="Grupo_902237" data-name="Grupo 902237">
                        <path id="Trazado_630082" data-name="Trazado 630082" d="M565.406,1071.646h-26.33a1.107,1.107,0,1,1,0-2.214h26.33a1.107,1.107,0,1,1,0,2.214Z" transform="translate(-537.969 -1069.432)"/>
                      </g>
                      <g id="Grupo_902238" data-name="Grupo 902238" transform="translate(0 4.568)">
                        <path id="Trazado_630083" data-name="Trazado 630083" d="M560.683,1098.532H539.076a1.107,1.107,0,1,1,0-2.214h21.607a1.107,1.107,0,0,1,0,2.214Z" transform="translate(-537.969 -1096.318)"/>
                      </g>
                    </g>
                    <g id="Grupo_902240" data-name="Grupo 902240">
                      <path id="Trazado_630084" data-name="Trazado 630084" d="M448.667,1068.372a1.1,1.1,0,0,1-.783-.324l-3.754-3.754a1.107,1.107,0,1,1,1.566-1.566l2.971,2.971,5.962-5.962a1.107,1.107,0,1,1,1.566,1.566l-6.745,6.745A1.1,1.1,0,0,1,448.667,1068.372Z" transform="translate(-443.806 -1059.413)"/>
                    </g>
                  </g>
                </g>
              </g>
            </g>
            <g id="Grupo_902263" data-name="Grupo 902263" transform="translate(3.459 4.798)">
              <rect id="Rectángulo_303152" data-name="Rectángulo 303152" width="55.803" height="65.285" rx="7" transform="translate(1.608 2.214)" fill="#fff"/>
              <g id="Grupo_902262" data-name="Grupo 902262">
                <g id="Grupo_902245" data-name="Grupo 902245">
                  <path id="Trazado_630085" data-name="Trazado 630085" d="M431.49,1084.922H385.43a6.487,6.487,0,0,1-6.48-6.48v-56.754a6.487,6.487,0,0,1,6.48-6.48h46.06a6.487,6.487,0,0,1,6.479,6.48v56.754A6.487,6.487,0,0,1,431.49,1084.922Zm-46.06-67.5a4.27,4.27,0,0,0-4.266,4.266v56.754a4.27,4.27,0,0,0,4.266,4.265h46.06a4.27,4.27,0,0,0,4.265-4.265v-56.754a4.27,4.27,0,0,0-4.265-4.266Z" transform="translate(-378.95 -1015.209)" fill="#010101"/>
                </g>
                <g id="Grupo_902261" data-name="Grupo 902261" transform="translate(7.239 12.308)">
                  <g id="Grupo_902250" data-name="Grupo 902250" transform="translate(0 36.138)">
                    <g id="Grupo_902248" data-name="Grupo 902248" transform="translate(15.998 1.702)">
                      <g id="Grupo_902246" data-name="Grupo 902246">
                        <path id="Trazado_630086" data-name="Trazado 630086" d="M543.157,1312.6h-26.33a1.107,1.107,0,1,1,0-2.214h26.33a1.107,1.107,0,0,1,0,2.214Z" transform="translate(-515.72 -1310.382)" fill="#010101"/>
                      </g>
                      <g id="Grupo_902247" data-name="Grupo 902247" transform="translate(0 4.567)">
                        <path id="Trazado_630087" data-name="Trazado 630087" d="M538.434,1339.479H516.827a1.107,1.107,0,1,1,0-2.214h21.607a1.107,1.107,0,1,1,0,2.214Z" transform="translate(-515.72 -1337.265)" fill="#010101"/>
                      </g>
                    </g>
                    <g id="Grupo_902249" data-name="Grupo 902249">
                      <path id="Trazado_630088" data-name="Trazado 630088" d="M426.418,1309.323a1.1,1.1,0,0,1-.783-.324l-3.754-3.754a1.107,1.107,0,0,1,1.566-1.566l2.971,2.971,5.962-5.962a1.107,1.107,0,1,1,1.566,1.566L427.2,1309A1.1,1.1,0,0,1,426.418,1309.323Z" transform="translate(-421.557 -1300.363)" fill="#010101"/>
                    </g>
                  </g>
                  <g id="Grupo_902255" data-name="Grupo 902255" transform="translate(0 18.069)">
                    <g id="Grupo_902253" data-name="Grupo 902253" transform="translate(15.998 1.702)">
                      <g id="Grupo_902251" data-name="Grupo 902251">
                        <path id="Trazado_630089" data-name="Trazado 630089" d="M543.157,1206.243h-26.33a1.107,1.107,0,1,1,0-2.214h26.33a1.107,1.107,0,0,1,0,2.214Z" transform="translate(-515.72 -1204.029)" fill="#010101"/>
                      </g>
                      <g id="Grupo_902252" data-name="Grupo 902252" transform="translate(0 4.568)">
                        <path id="Trazado_630090" data-name="Trazado 630090" d="M538.434,1233.128H516.827a1.107,1.107,0,1,1,0-2.214h21.607a1.107,1.107,0,0,1,0,2.214Z" transform="translate(-515.72 -1230.914)" fill="#010101"/>
                      </g>
                    </g>
                    <g id="Grupo_902254" data-name="Grupo 902254">
                      <path id="Trazado_630091" data-name="Trazado 630091" d="M426.418,1202.969a1.1,1.1,0,0,1-.783-.324l-3.754-3.754a1.107,1.107,0,1,1,1.566-1.566l2.971,2.971,5.962-5.962a1.107,1.107,0,1,1,1.566,1.566l-6.745,6.745A1.1,1.1,0,0,1,426.418,1202.969Z" transform="translate(-421.557 -1194.009)" fill="#010101"/>
                    </g>
                  </g>
                  <g id="Grupo_902260" data-name="Grupo 902260">
                    <g id="Grupo_902258" data-name="Grupo 902258" transform="translate(15.998 1.702)">
                      <g id="Grupo_902256" data-name="Grupo 902256">
                        <path id="Trazado_630092" data-name="Trazado 630092" d="M543.157,1099.889h-26.33a1.107,1.107,0,1,1,0-2.214h26.33a1.107,1.107,0,0,1,0,2.214Z" transform="translate(-515.72 -1097.675)" fill="#010101"/>
                      </g>
                      <g id="Grupo_902257" data-name="Grupo 902257" transform="translate(0 4.568)">
                        <path id="Trazado_630093" data-name="Trazado 630093" d="M538.434,1126.775H516.827a1.107,1.107,0,1,1,0-2.214h21.607a1.107,1.107,0,0,1,0,2.214Z" transform="translate(-515.72 -1124.561)" fill="#010101"/>
                      </g>
                    </g>
                    <g id="Grupo_902259" data-name="Grupo 902259">
                      <path id="Trazado_630094" data-name="Trazado 630094" d="M426.418,1096.616a1.1,1.1,0,0,1-.783-.324l-3.754-3.754a1.107,1.107,0,0,1,1.566-1.566l2.971,2.971,5.962-5.962a1.107,1.107,0,1,1,1.566,1.566l-6.745,6.745A1.1,1.1,0,0,1,426.418,1096.616Z" transform="translate(-421.557 -1087.656)" fill="#010101"/>
                    </g>
                  </g>
                </g>
              </g>
            </g>
            <g id="Grupo_902281" data-name="Grupo 902281" transform="translate(0 8.803)">
              <rect id="Rectángulo_303153" data-name="Rectángulo 303153" width="55.803" height="65.285" rx="5" transform="translate(1.608 2.214)" fill="#e8e8e8"/>
              <g id="Grupo_902280" data-name="Grupo 902280">
                <g id="Grupo_902264" data-name="Grupo 902264">
                  <path id="Trazado_630095" data-name="Trazado 630095" d="M411.131,1108.493h-46.06a6.487,6.487,0,0,1-6.48-6.48V1045.26a6.487,6.487,0,0,1,6.48-6.48h46.06a6.487,6.487,0,0,1,6.479,6.48v56.754A6.487,6.487,0,0,1,411.131,1108.493Zm-46.06-67.5a4.27,4.27,0,0,0-4.266,4.266v56.754a4.27,4.27,0,0,0,4.266,4.266h46.06a4.27,4.27,0,0,0,4.265-4.266V1045.26a4.27,4.27,0,0,0-4.265-4.266Z" transform="translate(-358.591 -1038.78)" fill="#010101"/>
                </g>
                <g id="Grupo_902279" data-name="Grupo 902279" transform="translate(6.562 13.872)">
                  <g id="Grupo_902268" data-name="Grupo 902268" transform="translate(0 36.138)">
                    <g id="Grupo_902267" data-name="Grupo 902267">
                      <g id="Grupo_902265" data-name="Grupo 902265">
                        <path id="Trazado_630096" data-name="Trazado 630096" d="M424.652,1335.354h-26.33a1.107,1.107,0,1,1,0-2.214h26.33a1.107,1.107,0,0,1,0,2.214Z" transform="translate(-397.215 -1333.14)" fill="#21cbae"/>
                      </g>
                      <g id="Grupo_902266" data-name="Grupo 902266" transform="translate(0 4.567)">
                        <path id="Trazado_630097" data-name="Trazado 630097" d="M419.929,1362.237H398.322a1.107,1.107,0,0,1,0-2.214h21.607a1.107,1.107,0,0,1,0,2.214Z" transform="translate(-397.215 -1360.023)" fill="#21cbae"/>
                      </g>
                    </g>
                  </g>
                  <g id="Grupo_902272" data-name="Grupo 902272" transform="translate(0 18.069)">
                    <g id="Grupo_902271" data-name="Grupo 902271">
                      <g id="Grupo_902269" data-name="Grupo 902269">
                        <path id="Trazado_630098" data-name="Trazado 630098" d="M424.652,1229h-26.33a1.107,1.107,0,1,1,0-2.214h26.33a1.107,1.107,0,0,1,0,2.214Z" transform="translate(-397.215 -1226.787)" fill="#21cbae"/>
                      </g>
                      <g id="Grupo_902270" data-name="Grupo 902270" transform="translate(0 4.568)">
                        <path id="Trazado_630099" data-name="Trazado 630099" d="M419.929,1255.886H398.322a1.107,1.107,0,1,1,0-2.214h21.607a1.107,1.107,0,0,1,0,2.214Z" transform="translate(-397.215 -1253.672)" fill="#21cbae"/>
                      </g>
                    </g>
                  </g>
                  <g id="Grupo_902276" data-name="Grupo 902276">
                    <g id="Grupo_902275" data-name="Grupo 902275">
                      <g id="Grupo_902273" data-name="Grupo 902273">
                        <path id="Trazado_630100" data-name="Trazado 630100" d="M424.652,1122.647h-26.33a1.107,1.107,0,0,1,0-2.214h26.33a1.107,1.107,0,0,1,0,2.214Z" transform="translate(-397.215 -1120.433)" fill="#21cbae"/>
                      </g>
                      <g id="Grupo_902274" data-name="Grupo 902274" transform="translate(0 4.568)">
                        <path id="Trazado_630101" data-name="Trazado 630101" d="M419.929,1149.533H398.322a1.107,1.107,0,1,1,0-2.214h21.607a1.107,1.107,0,0,1,0,2.214Z" transform="translate(-397.215 -1147.319)" fill="#21cbae"/>
                      </g>
                    </g>
                  </g>
                  <path id="Trazado_630104" data-name="Trazado 630104" d="M10.141,0A10.141,10.141,0,1,1,0,10.141,10.141,10.141,0,0,1,10.141,0Z" transform="translate(32.134 22.837)" fill="#fecb2f"/>
                  <g id="Grupo_902277" data-name="Grupo 902277" transform="translate(35.919 28.498)">
                    <path id="Trazado_630102" data-name="Trazado 630102" d="M613.5,1297.134a1.1,1.1,0,0,1-.783-.324l-3.754-3.754a1.107,1.107,0,0,1,1.566-1.566l2.971,2.971,5.962-5.962a1.107,1.107,0,0,1,1.566,1.566l-6.745,6.745A1.1,1.1,0,0,1,613.5,1297.134Z" transform="translate(-608.636 -1288.174)" fill="#0b5999" stroke="#000" stroke-width="1"/>
                  </g>
                  <g id="Grupo_902278" data-name="Grupo 902278" transform="translate(31.144 21.846)">
                    <path id="Trazado_630103" data-name="Trazado 630103" d="M591.66,1271.283a11.132,11.132,0,1,1,11.132-11.132A11.145,11.145,0,0,1,591.66,1271.283Zm0-19.607a8.475,8.475,0,1,0,8.475,8.475A8.485,8.485,0,0,0,591.66,1251.676Z" transform="translate(-580.528 -1249.019)" fill="#010101"/>
                  </g>
                </g>
              </g>
            </g>
          </g>
        </g>
      </g>
    </g>
  </g>
</svg>
