<svg xmlns="http://www.w3.org/2000/svg" width="150" height="150" viewBox="0 0 150 150">
  <g id="Grupo_903000" data-name="Grupo 903000" transform="translate(-337.303 -4837.712)">
    <g id="Trazado_629836" data-name="Trazado 629836" transform="translate(337.303 4837.712)" fill="#fff">
      <path d="M 75 148.5 C 65.07689666748047 148.5 55.45141983032227 146.556884765625 46.39094161987305 142.7246246337891 C 42.03607940673828 140.8826751708984 37.83572006225586 138.602783203125 33.90650177001953 135.9482421875 C 30.01421928405762 133.3186798095703 26.35404014587402 130.2987365722656 23.02766036987305 126.9723434448242 C 19.70125961303711 123.6459579467773 16.68132019042969 119.9857788085938 14.05175971984863 116.0934982299805 C 11.39721965789795 112.1642837524414 9.11732006072998 107.9639205932617 7.27538013458252 103.6090621948242 C 3.443120002746582 94.54857635498047 1.5 84.92310333251953 1.5 75 C 1.5 65.07689666748047 3.443120002746582 55.45141983032227 7.27538013458252 46.39094161987305 C 9.11732006072998 42.03607940673828 11.39721965789795 37.83572006225586 14.05175971984863 33.90650177001953 C 16.68132019042969 30.01421928405762 19.70125961303711 26.35404014587402 23.02766036987305 23.02766036987305 C 26.35404014587402 19.70125961303711 30.01421928405762 16.68132019042969 33.90650177001953 14.05175971984863 C 37.83572006225586 11.39721965789795 42.03607940673828 9.11732006072998 46.39094161987305 7.27538013458252 C 55.45141983032227 3.443120002746582 65.07689666748047 1.5 75 1.5 C 84.92310333251953 1.5 94.54857635498047 3.443120002746582 103.6090621948242 7.27538013458252 C 107.9639205932617 9.11732006072998 112.1642837524414 11.39721965789795 116.0934982299805 14.05175971984863 C 119.9857788085938 16.68132019042969 123.6459579467773 19.70125961303711 126.9723434448242 23.02766036987305 C 130.2987365722656 26.35404014587402 133.3186798095703 30.01421928405762 135.9482421875 33.90650177001953 C 138.602783203125 37.83572006225586 140.8826751708984 42.03607940673828 142.7246246337891 46.39094161987305 C 146.556884765625 55.45141983032227 148.5 65.07689666748047 148.5 75 C 148.5 84.92310333251953 146.556884765625 94.54857635498047 142.7246246337891 103.6090621948242 C 140.8826751708984 107.9639205932617 138.602783203125 112.1642837524414 135.9482421875 116.0934982299805 C 133.3186798095703 119.9857788085938 130.2987365722656 123.6459579467773 126.9723434448242 126.9723434448242 C 123.6459579467773 130.2987365722656 119.9857788085938 133.3186798095703 116.0934982299805 135.9482421875 C 112.1642837524414 138.602783203125 107.9639205932617 140.8826751708984 103.6090621948242 142.7246246337891 C 94.54857635498047 146.556884765625 84.92310333251953 148.5 75 148.5 Z" stroke="none"/>
      <path d="M 75 3 C 65.27873992919922 3 55.84986877441406 4.90325927734375 46.97528076171875 8.656890869140625 C 42.70963287353516 10.46110534667969 38.59517669677734 12.69439697265625 34.7462158203125 15.29469299316406 C 30.93304443359375 17.87081909179688 27.34721374511719 20.82940673828125 24.08830261230469 24.08830261230469 C 20.82940673828125 27.34721374511719 17.87081909179688 30.93304443359375 15.29469299316406 34.7462158203125 C 12.69439697265625 38.59517669677734 10.46110534667969 42.70963287353516 8.656890869140625 46.97528076171875 C 4.90325927734375 55.84986877441406 3 65.27873992919922 3 75 C 3 84.72126007080078 4.90325927734375 94.15013122558594 8.656890869140625 103.0247192382812 C 10.46110534667969 107.2903747558594 12.69439697265625 111.4048309326172 15.29469299316406 115.2537841796875 C 17.87081909179688 119.0669555664062 20.82940673828125 122.6527862548828 24.08830261230469 125.9116973876953 C 27.34721374511719 129.1705932617188 30.93304443359375 132.1291809082031 34.7462158203125 134.7053070068359 C 38.59517669677734 137.3056030273438 42.70963287353516 139.5388946533203 46.97528076171875 141.3431091308594 C 55.84986877441406 145.0967407226562 65.27873992919922 147 75 147 C 84.72126007080078 147 94.15013122558594 145.0967407226562 103.0247192382812 141.3431091308594 C 107.2903747558594 139.5388946533203 111.4048309326172 137.3056030273438 115.2537841796875 134.7053070068359 C 119.0669555664062 132.1291809082031 122.6527862548828 129.1705932617188 125.9116973876953 125.9116973876953 C 129.1705932617188 122.6527862548828 132.1291809082031 119.0669555664062 134.7053070068359 115.2537841796875 C 137.3056030273438 111.4048309326172 139.5388946533203 107.2903747558594 141.3431091308594 103.0247192382812 C 145.0967407226562 94.15013122558594 147 84.72126007080078 147 75 C 147 65.27873992919922 145.0967407226562 55.84986877441406 141.3431091308594 46.97528076171875 C 139.5388946533203 42.70963287353516 137.3056030273438 38.59517669677734 134.7053070068359 34.7462158203125 C 132.1291809082031 30.93304443359375 129.1705932617188 27.34721374511719 125.9116973876953 24.08830261230469 C 122.6527862548828 20.82940673828125 119.0669555664062 17.87081909179688 115.2537841796875 15.29469299316406 C 111.4048309326172 12.69439697265625 107.2903747558594 10.46110534667969 103.0247192382812 8.656890869140625 C 94.15013122558594 4.90325927734375 84.72126007080078 3 75 3 M 75 0 C 116.4213485717773 0 150 33.57865142822266 150 75 C 150 116.4213485717773 116.4213485717773 150 75 150 C 33.57865142822266 150 0 116.4213485717773 0 75 C 0 33.57865142822266 33.57865142822266 0 75 0 Z" stroke="none" fill="#21cbae"/>
    </g>
    <g id="Grupo_902999" data-name="Grupo 902999" transform="translate(-3371.677 4640.015)">
      <g id="Grupo_902990" data-name="Grupo 902990" transform="translate(3748.382 224.53)">
        <g id="Grupo_902989" data-name="Grupo 902989" transform="translate(0 0)">
          <g id="Grupo_902988" data-name="Grupo 902988">
            <g id="Grupo_902986" data-name="Grupo 902986">
              <path id="Trazado_631184" data-name="Trazado 631184" d="M3993.637,688.93l-3.349,9.2h-.817a4.6,4.6,0,0,1,0-9.2Z" transform="translate(-3984.87 -606.677)" fill="#ef3c79" stroke="#000" stroke-width="2"/>
              <path id="Trazado_631185" data-name="Trazado 631185" d="M4025.9,688.93l-3.35,9.2h-7.093l3.349-9.2Z" transform="translate(-4010.042 -606.677)" fill="#ef3c79" stroke="#000" stroke-width="2"/>
              <path id="Trazado_631186" data-name="Trazado 631186" d="M4065.953,688.93l-3.351,9.2h-7.092l3.35-9.2Z" transform="translate(-4042.998 -606.677)" fill="#ef3c79" stroke="#000" stroke-width="2"/>
              <path id="Trazado_631187" data-name="Trazado 631187" d="M4105.994,688.93l-3.351,9.2h-7.094l3.351-9.2Z" transform="translate(-4075.946 -606.677)" fill="#ef3c79" stroke="#000" stroke-width="2"/>
              <path id="Trazado_631188" data-name="Trazado 631188" d="M4146.044,688.93l-3.351,9.2H4135.6l3.351-9.2Z" transform="translate(-4108.903 -606.677)" fill="#ef3c79" stroke="#000" stroke-width="2"/>
              <path id="Trazado_631189" data-name="Trazado 631189" d="M4208.189,688.93a4.6,4.6,0,0,1,0,9.2h-32.54l3.351-9.2Z" transform="translate(-4141.859 -606.677)" fill="#fecb2f" stroke="#000" stroke-width="2"/>
              <path id="Trazado_631190" data-name="Trazado 631190" d="M4055.8,254.117v12.145h-6.624a29.371,29.371,0,0,1-4.233,10.03l4.626,4.626-8.588,8.587-4.692-4.692a29.352,29.352,0,0,1-10.076,4.118v6.532H4014.07v-6.626a29.346,29.346,0,0,1-10.03-4.231l-4.624,4.626-8.589-8.588,4.694-4.694a29.257,29.257,0,0,1-4.118-10.074h-6.532V253.729h6.624a29.338,29.338,0,0,1,4.233-10.028l-4.626-4.626,8.587-8.588,4.694,4.694a29.349,29.349,0,0,1,10.076-4.118V224.53H4026.6v6.624a29.362,29.362,0,0,1,10.028,4.233l4.626-4.626,8.588,8.588-4.694,4.694a29.291,29.291,0,0,1,4.118,10.074ZM4036.615,260a16.28,16.28,0,1,0-16.279,16.281A16.279,16.279,0,0,0,4036.615,260Z" transform="translate(-3984.87 -224.53)" fill="#0b5999" stroke="#000" stroke-width="2"/>
            </g>
            <g id="Grupo_902987" data-name="Grupo 902987">
              <path id="Trazado_631191" data-name="Trazado 631191" d="M4125.749,349.139a16.28,16.28,0,1,1-16.278-16.279A16.279,16.279,0,0,1,4125.749,349.139Z" transform="translate(-4074.005 -313.673)" fill="none" stroke="#000" stroke-linecap="round" stroke-linejoin="round" stroke-width="2"/>
              <path id="Trazado_631192" data-name="Trazado 631192" d="M4055.8,266.262V254.117h-6.532a29.291,29.291,0,0,0-4.118-10.074l4.694-4.694-8.588-8.588-4.626,4.626a29.362,29.362,0,0,0-10.028-4.233V224.53h-12.145v6.532a29.349,29.349,0,0,0-10.076,4.118l-4.694-4.694-8.587,8.588,4.626,4.626a29.338,29.338,0,0,0-4.233,10.028h-6.624v12.147h6.532a29.257,29.257,0,0,0,4.118,10.074l-4.694,4.694,8.589,8.588,4.624-4.626a29.346,29.346,0,0,0,10.03,4.231v6.626h12.145v-6.532a29.352,29.352,0,0,0,10.076-4.118l4.692,4.692,8.588-8.587-4.626-4.626a29.371,29.371,0,0,0,4.233-10.03Z" transform="translate(-3984.87 -224.53)" fill="none" stroke="#000" stroke-linecap="round" stroke-linejoin="round" stroke-width="2"/>
              <path id="Trazado_631193" data-name="Trazado 631193" d="M4022.011,688.93H4051.2a4.6,4.6,0,0,1,0,9.2h-61.729a4.6,4.6,0,0,1,0-9.2h32.54Z" transform="translate(-3984.87 -606.677)" fill="none" stroke="#000" stroke-linecap="round" stroke-linejoin="round" stroke-width="2"/>
              <line id="Línea_360" data-name="Línea 360" x1="3.349" y2="9.205" transform="translate(5.418 82.253)" fill="none" stroke="#000" stroke-linecap="round" stroke-linejoin="round" stroke-width="2"/>
              <line id="Línea_361" data-name="Línea 361" x1="3.349" y2="9.205" transform="translate(12.512 82.253)" fill="none" stroke="#000" stroke-linecap="round" stroke-linejoin="round" stroke-width="2"/>
              <line id="Línea_362" data-name="Línea 362" x1="3.351" y2="9.205" transform="translate(19.603 82.253)" fill="none" stroke="#000" stroke-linecap="round" stroke-linejoin="round" stroke-width="2"/>
              <line id="Línea_363" data-name="Línea 363" x1="3.351" y2="9.205" transform="translate(26.697 82.253)" fill="none" stroke="#000" stroke-linecap="round" stroke-linejoin="round" stroke-width="2"/>
              <line id="Línea_364" data-name="Línea 364" x1="3.351" y2="9.205" transform="translate(33.79 82.253)" fill="none" stroke="#000" stroke-linecap="round" stroke-linejoin="round" stroke-width="2"/>
            </g>
          </g>
        </g>
      </g>
    </g>
  </g>
</svg>
