<svg xmlns="http://www.w3.org/2000/svg" width="150" height="150" viewBox="0 0 150 150">
  <g id="Grupo_904379" data-name="Grupo 904379" transform="translate(-724.822 -1957)">
    <g id="Elipse_6497" data-name="Elipse 6497" transform="translate(724.822 1957)" fill="#fff" stroke="#21cbae" stroke-width="3">
      <circle cx="75" cy="75" r="75" stroke="none"/>
      <circle cx="75" cy="75" r="73.5" fill="none"/>
    </g>
    <g id="Grupo_902322" data-name="Grupo 902322" transform="translate(6591.822 11533)">
      <g id="Grupo_902309" data-name="Grupo 902309" transform="translate(-5841 -9543)">
        <g id="Color" transform="translate(0 0)">
          <path id="Trazado_630152" data-name="Trazado 630152" d="M745.462-503.45H811.6v46.006H745.462Z" transform="translate(-736.836 509.201)" fill="#f6f6f6" stroke="#010101" stroke-width="1"/>
          <path id="Trazado_630153" data-name="Trazado 630153" d="M811.6-534.708v2.875H745.462v-2.875a2.884,2.884,0,0,1,2.875-2.875H808.72A2.884,2.884,0,0,1,811.6-534.708Z" transform="translate(-736.836 537.583)" fill="#0b5999" stroke="#010101" stroke-width="1"/>
          <path id="Trazado_630154" data-name="Trazado 630154" d="M777.987-207.38H694.774a7.563,7.563,0,0,1,.273-.977l8.267-22.025h66.133l8.267,22.025a7.543,7.543,0,0,1,.273.977Z" transform="translate(-694.688 282.139)" fill="#afafaf" stroke="#010101" stroke-width="1"/>
          <path id="Trazado_630155" data-name="Trazado 630155" d="M777.647-92.8v4.7a2.884,2.884,0,0,1-2.875,2.875H697.137a2.884,2.884,0,0,1-2.875-2.875v-4.7a6.46,6.46,0,0,1,.086-1.05h83.213a6.453,6.453,0,0,1,.086,1.05Z" transform="translate(-694.262 168.609)" fill="#0b5999" stroke="#010101" stroke-width="1"/>
        </g>
        <g id="Icons" transform="translate(7.188 56.069)">
          <path id="Trazado_630156" data-name="Trazado 630156" d="M763.967-201.908h4.313a1.438,1.438,0,0,0,1.438-1.438,1.438,1.438,0,0,0-1.438-1.438h-4.313a1.438,1.438,0,0,0-1.438,1.438A1.438,1.438,0,0,0,763.967-201.908Z" transform="translate(-758.216 204.783)" fill="#12263f" stroke="#010101" stroke-width="1"/>
          <path id="Trazado_630157" data-name="Trazado 630157" d="M823.7-201.908h2.875a1.438,1.438,0,0,0,1.438-1.438,1.438,1.438,0,0,0-1.438-1.438H823.7a1.438,1.438,0,0,0-1.438,1.438A1.438,1.438,0,0,0,823.7-201.908Z" transform="translate(-807.885 204.783)" fill="#12263f" stroke="#010101" stroke-width="1"/>
          <path id="Trazado_630158" data-name="Trazado 630158" d="M847.862-169.212a1.438,1.438,0,0,0,1.438,1.438h2.875a1.438,1.438,0,0,0,1.438-1.438,1.438,1.438,0,0,0-1.438-1.438H849.3A1.438,1.438,0,0,0,847.862-169.212Z" transform="translate(-829.172 176.401)" fill="#12263f" stroke="#010101" stroke-width="1"/>
          <path id="Trazado_630159" data-name="Trazado 630159" d="M899.062-169.212a1.438,1.438,0,0,0,1.438,1.438h2.875a1.438,1.438,0,0,0,1.438-1.438,1.438,1.438,0,0,0-1.438-1.438H900.5A1.438,1.438,0,0,0,899.062-169.212Z" transform="translate(-871.746 176.401)" fill="#12263f" stroke="#010101" stroke-width="1"/>
          <path id="Trazado_630160" data-name="Trazado 630160" d="M950.262-169.212a1.438,1.438,0,0,0,1.438,1.438h2.875a1.438,1.438,0,0,0,1.438-1.438,1.438,1.438,0,0,0-1.438-1.438H951.7A1.438,1.438,0,0,0,950.262-169.212Z" transform="translate(-914.32 176.401)" fill="#12263f" stroke="#010101" stroke-width="1"/>
          <path id="Trazado_630161" data-name="Trazado 630161" d="M1001.462-169.212a1.438,1.438,0,0,0,1.438,1.438h2.875a1.438,1.438,0,0,0,1.438-1.438,1.438,1.438,0,0,0-1.438-1.438H1002.9A1.438,1.438,0,0,0,1001.462-169.212Z" transform="translate(-956.894 176.401)" fill="#12263f" stroke="#010101" stroke-width="1"/>
          <path id="Trazado_630162" data-name="Trazado 630162" d="M874.9-201.908h2.875a1.438,1.438,0,0,0,1.438-1.438,1.438,1.438,0,0,0-1.438-1.438H874.9a1.438,1.438,0,0,0-1.438,1.438A1.438,1.438,0,0,0,874.9-201.908Z" transform="translate(-850.459 204.783)" fill="#12263f" stroke="#010101" stroke-width="1"/>
          <path id="Trazado_630163" data-name="Trazado 630163" d="M926.1-201.908h2.875a1.438,1.438,0,0,0,1.438-1.438,1.438,1.438,0,0,0-1.438-1.438H926.1a1.438,1.438,0,0,0-1.438,1.438A1.438,1.438,0,0,0,926.1-201.908Z" transform="translate(-893.033 204.783)" fill="#12263f" stroke="#010101" stroke-width="1"/>
          <path id="Trazado_630164" data-name="Trazado 630164" d="M977.3-201.908h2.875a1.438,1.438,0,0,0,1.438-1.438,1.438,1.438,0,0,0-1.438-1.438H977.3a1.438,1.438,0,0,0-1.438,1.438A1.438,1.438,0,0,0,977.3-201.908Z" transform="translate(-935.607 204.783)" fill="#12263f" stroke="#010101" stroke-width="1"/>
          <path id="Trazado_630165" data-name="Trazado 630165" d="M1028.5-201.908h2.875a1.438,1.438,0,0,0,1.438-1.438,1.438,1.438,0,0,0-1.438-1.438H1028.5a1.438,1.438,0,0,0-1.438,1.438A1.438,1.438,0,0,0,1028.5-201.908Z" transform="translate(-978.181 204.783)" fill="#12263f" stroke="#010101" stroke-width="1"/>
          <path id="Trazado_630166" data-name="Trazado 630166" d="M826.575-136.516H823.7a1.438,1.438,0,0,0-1.438,1.438,1.438,1.438,0,0,0,1.438,1.438h2.875a1.438,1.438,0,0,0,1.438-1.438A1.438,1.438,0,0,0,826.575-136.516Z" transform="translate(-807.885 148.017)" fill="#12263f" stroke="#010101" stroke-width="1"/>
          <path id="Trazado_630167" data-name="Trazado 630167" d="M782.471-136.516h-1.438a1.438,1.438,0,0,0-1.438,1.438,1.438,1.438,0,0,0,1.438,1.438h1.438a1.438,1.438,0,0,0,1.438-1.438A1.438,1.438,0,0,0,782.471-136.516Z" transform="translate(-772.408 148.017)" fill="#12263f" stroke="#010101" stroke-width="1"/>
          <path id="Trazado_630168" data-name="Trazado 630168" d="M877.775-136.516H874.9a1.438,1.438,0,0,0-1.438,1.438,1.438,1.438,0,0,0,1.438,1.438h2.875a1.438,1.438,0,0,0,1.438-1.438A1.438,1.438,0,0,0,877.775-136.516Z" transform="translate(-850.459 148.017)" fill="#12263f" stroke="#010101" stroke-width="1"/>
          <path id="Trazado_630169" data-name="Trazado 630169" d="M928.975-136.516H926.1a1.438,1.438,0,0,0-1.438,1.438,1.438,1.438,0,0,0,1.438,1.438h2.875a1.438,1.438,0,0,0,1.438-1.438A1.438,1.438,0,0,0,928.975-136.516Z" transform="translate(-893.033 148.017)" fill="#12263f" stroke="#010101" stroke-width="1"/>
          <path id="Trazado_630170" data-name="Trazado 630170" d="M980.175-136.516H977.3a1.438,1.438,0,0,0-1.438,1.438,1.438,1.438,0,0,0,1.438,1.438h2.875a1.438,1.438,0,0,0,1.438-1.438A1.438,1.438,0,0,0,980.175-136.516Z" transform="translate(-935.607 148.017)" fill="#12263f" stroke="#010101" stroke-width="1"/>
          <path id="Trazado_630171" data-name="Trazado 630171" d="M1031.375-136.516H1028.5a1.438,1.438,0,0,0-1.438,1.438,1.438,1.438,0,0,0,1.438,1.438h2.875a1.438,1.438,0,0,0,1.438-1.438A1.438,1.438,0,0,0,1031.375-136.516Z" transform="translate(-978.181 148.017)" fill="#12263f" stroke="#010101" stroke-width="1"/>
          <path id="Trazado_630172" data-name="Trazado 630172" d="M738.367-133.641H739.8a1.438,1.438,0,0,0,1.438-1.438,1.438,1.438,0,0,0-1.438-1.438h-1.438a1.438,1.438,0,0,0-1.438,1.438A1.438,1.438,0,0,0,738.367-133.641Z" transform="translate(-736.929 148.017)" fill="#12263f" stroke="#010101" stroke-width="1"/>
          <path id="Trazado_630173" data-name="Trazado 630173" d="M1122.367-136.516a1.438,1.438,0,0,0-1.438,1.438,1.438,1.438,0,0,0,1.438,1.438h1.438a1.437,1.437,0,0,0,1.438-1.438,1.437,1.437,0,0,0-1.437-1.438Z" transform="translate(-1056.234 148.017)" fill="#12263f" stroke="#010101" stroke-width="1"/>
          <path id="Trazado_630174" data-name="Trazado 630174" d="M1081.137-136.516H1079.7a1.438,1.438,0,0,0-1.438,1.438,1.438,1.438,0,0,0,1.438,1.438h1.438a1.438,1.438,0,0,0,1.438-1.438A1.438,1.438,0,0,0,1081.137-136.516Z" transform="translate(-1020.755 148.017)" fill="#12263f" stroke="#010101" stroke-width="1"/>
          <path id="Trazado_630175" data-name="Trazado 630175" d="M746.9-167.775h11.5a1.438,1.438,0,0,0,1.438-1.438,1.438,1.438,0,0,0-1.438-1.438H746.9a1.438,1.438,0,0,0-1.438,1.438A1.438,1.438,0,0,0,746.9-167.775Z" transform="translate(-744.024 176.401)" fill="#12263f" stroke="#010101" stroke-width="1"/>
          <path id="Trazado_630176" data-name="Trazado 630176" d="M1079.7-201.908h4.313a1.438,1.438,0,0,0,1.438-1.438,1.438,1.438,0,0,0-1.437-1.438H1079.7a1.438,1.438,0,0,0-1.438,1.438A1.438,1.438,0,0,0,1079.7-201.908Z" transform="translate(-1020.755 204.783)" fill="#12263f" stroke="#010101" stroke-width="1"/>
          <path id="Trazado_630177" data-name="Trazado 630177" d="M1052.662-169.212a1.438,1.438,0,0,0,1.438,1.438h11.5a1.438,1.438,0,0,0,1.438-1.438,1.438,1.438,0,0,0-1.438-1.438h-11.5A1.438,1.438,0,0,0,1052.662-169.212Z" transform="translate(-999.468 176.401)" fill="#12263f" stroke="#010101" stroke-width="1"/>
        </g>
      </g>
      <g id="Grupo_902310" data-name="Grupo 902310" transform="translate(-5796.99 -9507.894)">
        <path id="Trazado_630069" data-name="Trazado 630069" d="M227.28,1027.949h-1.635a.219.219,0,0,1-.217-.188l-.173-1.209a4.873,4.873,0,0,1-1.367-.564l-.976.732a.219.219,0,0,1-.286-.02l-1.156-1.156a.219.219,0,0,1-.02-.286l.732-.975a4.865,4.865,0,0,1-.565-1.367l-1.208-.173a.219.219,0,0,1-.188-.217v-1.635a.219.219,0,0,1,.188-.217l1.207-.172a4.886,4.886,0,0,1,.566-1.368l-.731-.974a.219.219,0,0,1,.02-.286l1.156-1.156a.219.219,0,0,1,.286-.02l.975.731a4.885,4.885,0,0,1,1.368-.566l.172-1.207a.219.219,0,0,1,.217-.188h1.635a.219.219,0,0,1,.217.188l.173,1.208a4.867,4.867,0,0,1,1.367.565l.975-.732a.219.219,0,0,1,.286.02l1.156,1.156a.219.219,0,0,1,.02.286l-.732.975a4.87,4.87,0,0,1,.564,1.366l1.209.173a.219.219,0,0,1,.188.217v1.635a.219.219,0,0,1-.188.217l-1.207.173a4.916,4.916,0,0,1-.566,1.366l.732.976a.219.219,0,0,1-.02.286L230.3,1026.7a.219.219,0,0,1-.286.021l-.976-.732a4.916,4.916,0,0,1-1.367.566l-.173,1.208A.219.219,0,0,1,227.28,1027.949Z" transform="translate(-220.221 -1015.466)" fill="#070707" stroke="#000" stroke-linecap="round" stroke-linejoin="round" stroke-width="0.5"/>
        <path id="Trazado_630070" data-name="Trazado 630070" d="M235.111,1036.787h1.255l.167-1.168a.219.219,0,0,1,.148-.177l.024-.007a4.48,4.48,0,0,0,1.5-.619.219.219,0,0,1,.254.006l.944.708.887-.887-.708-.944a.219.219,0,0,1,0-.256,4.481,4.481,0,0,0,.618-1.494.189.189,0,0,1,.006-.023.22.22,0,0,1,.177-.149l1.168-.167v-1.255l-1.17-.167a.219.219,0,0,1-.183-.172,4.442,4.442,0,0,0-.619-1.5.219.219,0,0,1,.009-.25l.708-.944-.887-.887-.944.708a.219.219,0,0,1-.251.009,4.427,4.427,0,0,0-1.5-.62.219.219,0,0,1-.171-.183l-.167-1.169h-1.255l-.167,1.167a.22.22,0,0,1-.171.183,4.453,4.453,0,0,0-1.5.621.223.223,0,0,1-.062.028.221.221,0,0,1-.19-.036l-.943-.707-.887.887.707.943a.219.219,0,0,1,.033.2.224.224,0,0,1-.024.051,4.46,4.46,0,0,0-.621,1.5.219.219,0,0,1-.183.171l-1.167.167v1.255l1.169.167a.219.219,0,0,1,.183.172,4.43,4.43,0,0,0,.62,1.5.219.219,0,0,1-.009.251l-.708.944.887.887.944-.708a.22.22,0,0,1,.251-.009,4.443,4.443,0,0,0,1.5.619.219.219,0,0,1,.171.183Z" transform="translate(-229.497 -1024.742)" fill="#ef3c79" stroke="#000" stroke-linecap="round" stroke-linejoin="round" stroke-width="0.5"/>
        <ellipse id="Elipse_6524" data-name="Elipse 6524" cx="2.845" cy="2.845" rx="2.845" ry="2.845" transform="translate(3.397 3.566)" fill="#fff"/>
        <g id="Grupo_902222" data-name="Grupo 902222" transform="translate(3.057 3.124)">
          <path id="Trazado_630071" data-name="Trazado 630071" d="M291.107,1090.966a3.117,3.117,0,1,1,3.117-3.117A3.121,3.121,0,0,1,291.107,1090.966Zm0-5.49a2.373,2.373,0,1,0,2.373,2.373A2.376,2.376,0,0,0,291.107,1085.476Z" transform="translate(-287.99 -1084.732)"/>
        </g>
      </g>
      <g id="Grupo_902314" data-name="Grupo 902314" transform="translate(-5783.367 -9510.089)">
        <path id="Trazado_630069-2" data-name="Trazado 630069" d="M226.177,1026H224.8a.185.185,0,0,1-.183-.159l-.146-1.02a4.112,4.112,0,0,1-1.153-.476l-.823.617a.184.184,0,0,1-.242-.017l-.975-.975a.185.185,0,0,1-.017-.242l.617-.823a4.1,4.1,0,0,1-.477-1.153l-1.019-.145a.185.185,0,0,1-.159-.183v-1.379a.185.185,0,0,1,.159-.183l1.018-.145a4.126,4.126,0,0,1,.478-1.154l-.617-.822a.185.185,0,0,1,.017-.242l.975-.975a.185.185,0,0,1,.242-.017l.822.617a4.121,4.121,0,0,1,1.154-.477l.145-1.018a.185.185,0,0,1,.183-.159h1.379a.185.185,0,0,1,.183.159l.146,1.02a4.1,4.1,0,0,1,1.153.477l.823-.617a.185.185,0,0,1,.242.017l.975.975a.185.185,0,0,1,.017.242l-.617.823a4.106,4.106,0,0,1,.476,1.153l1.02.146a.185.185,0,0,1,.159.183v1.379a.185.185,0,0,1-.159.183l-1.019.145a4.147,4.147,0,0,1-.478,1.153l.618.823a.185.185,0,0,1-.017.242l-.975.975a.185.185,0,0,1-.242.017l-.823-.618a4.146,4.146,0,0,1-1.153.478l-.146,1.019A.185.185,0,0,1,226.177,1026Z" transform="translate(-220.221 -1015.466)" fill="#070707" stroke="#000" stroke-linecap="round" stroke-linejoin="round" stroke-width="0.5"/>
        <path id="Trazado_630070-2" data-name="Trazado 630070" d="M234.3,1034.973h1.059l.141-.985a.185.185,0,0,1,.124-.149l.021-.006a3.784,3.784,0,0,0,1.262-.522.186.186,0,0,1,.214.005l.8.6.748-.749-.6-.8a.185.185,0,0,1,0-.216,3.784,3.784,0,0,0,.521-1.26.17.17,0,0,1,.005-.02.186.186,0,0,1,.149-.125l.985-.141v-1.059l-.987-.141a.185.185,0,0,1-.155-.145,3.745,3.745,0,0,0-.522-1.265.185.185,0,0,1,.007-.212l.6-.8-.749-.749-.8.6a.185.185,0,0,1-.212.007,3.734,3.734,0,0,0-1.265-.523.185.185,0,0,1-.145-.155l-.141-.986H234.3l-.141.985a.185.185,0,0,1-.144.155,3.758,3.758,0,0,0-1.266.524.182.182,0,0,1-.052.023.186.186,0,0,1-.16-.03l-.8-.6-.749.749.6.8a.185.185,0,0,1,.027.17.19.19,0,0,1-.021.043,3.762,3.762,0,0,0-.524,1.266.184.184,0,0,1-.155.144l-.985.141v1.059l.987.141a.185.185,0,0,1,.155.145,3.738,3.738,0,0,0,.523,1.265.185.185,0,0,1-.007.212l-.6.8.749.749.8-.6a.185.185,0,0,1,.211-.007,3.75,3.75,0,0,0,1.265.523.185.185,0,0,1,.145.154Z" transform="translate(-229.565 -1024.811)" fill="#fecb2f" stroke="#000" stroke-linecap="round" stroke-linejoin="round" stroke-width="0.5"/>
        <ellipse id="Elipse_6524-2" data-name="Elipse 6524" cx="2.4" cy="2.4" rx="2.4" ry="2.4" transform="translate(2.866 3.008)" fill="#fff"/>
        <g id="Grupo_902222-2" data-name="Grupo 902222" transform="translate(2.579 2.636)">
          <path id="Trazado_630071-2" data-name="Trazado 630071" d="M290.62,1089.992a2.63,2.63,0,1,1,2.63-2.63A2.633,2.633,0,0,1,290.62,1089.992Zm0-4.632a2,2,0,1,0,2,2A2,2,0,0,0,290.62,1085.36Z" transform="translate(-287.99 -1084.732)"/>
        </g>
      </g>
      <g id="Grupo_902322-2" data-name="Grupo 902322" transform="translate(-5793.32 -9529.403)">
        <path id="Trazado_630069-3" data-name="Trazado 630069" d="M226.177,1026H224.8a.185.185,0,0,1-.183-.159l-.146-1.02a4.112,4.112,0,0,1-1.153-.476l-.823.617a.184.184,0,0,1-.242-.017l-.975-.975a.185.185,0,0,1-.017-.242l.617-.823a4.1,4.1,0,0,1-.477-1.153l-1.019-.145a.185.185,0,0,1-.159-.183v-1.379a.185.185,0,0,1,.159-.183l1.018-.145a4.126,4.126,0,0,1,.478-1.154l-.617-.822a.185.185,0,0,1,.017-.242l.975-.975a.185.185,0,0,1,.242-.017l.822.617a4.121,4.121,0,0,1,1.154-.477l.145-1.018a.185.185,0,0,1,.183-.159h1.379a.185.185,0,0,1,.183.159l.146,1.02a4.1,4.1,0,0,1,1.153.477l.823-.617a.185.185,0,0,1,.242.017l.975.975a.185.185,0,0,1,.017.242l-.617.823a4.106,4.106,0,0,1,.476,1.153l1.02.146a.185.185,0,0,1,.159.183v1.379a.185.185,0,0,1-.159.183l-1.019.145a4.147,4.147,0,0,1-.478,1.153l.618.823a.185.185,0,0,1-.017.242l-.975.975a.185.185,0,0,1-.242.017l-.823-.618a4.146,4.146,0,0,1-1.153.478l-.146,1.019A.185.185,0,0,1,226.177,1026Z" transform="translate(-220.221 -1015.466)" fill="#070707" stroke="#000" stroke-linecap="round" stroke-linejoin="round" stroke-width="0.5"/>
        <path id="Trazado_630070-3" data-name="Trazado 630070" d="M234.3,1034.973h1.059l.141-.985a.185.185,0,0,1,.124-.149l.021-.006a3.784,3.784,0,0,0,1.262-.522.186.186,0,0,1,.214.005l.8.6.748-.749-.6-.8a.185.185,0,0,1,0-.216,3.784,3.784,0,0,0,.521-1.26.17.17,0,0,1,.005-.02.186.186,0,0,1,.149-.125l.985-.141v-1.059l-.987-.141a.185.185,0,0,1-.155-.145,3.745,3.745,0,0,0-.522-1.265.185.185,0,0,1,.007-.212l.6-.8-.749-.749-.8.6a.185.185,0,0,1-.212.007,3.734,3.734,0,0,0-1.265-.523.185.185,0,0,1-.145-.155l-.141-.986H234.3l-.141.985a.185.185,0,0,1-.144.155,3.758,3.758,0,0,0-1.266.524.182.182,0,0,1-.052.023.186.186,0,0,1-.16-.03l-.8-.6-.749.749.6.8a.185.185,0,0,1,.027.17.19.19,0,0,1-.021.043,3.762,3.762,0,0,0-.524,1.266.184.184,0,0,1-.155.144l-.985.141v1.059l.987.141a.185.185,0,0,1,.155.145,3.738,3.738,0,0,0,.523,1.265.185.185,0,0,1-.007.212l-.6.8.749.749.8-.6a.185.185,0,0,1,.211-.007,3.75,3.75,0,0,0,1.265.523.185.185,0,0,1,.145.154Z" transform="translate(-229.565 -1024.811)" fill="#0b5999" stroke="#000" stroke-linecap="round" stroke-linejoin="round" stroke-width="0.5"/>
        <ellipse id="Elipse_6524-3" data-name="Elipse 6524" cx="2.4" cy="2.4" rx="2.4" ry="2.4" transform="translate(2.866 3.008)" fill="#fff"/>
        <g id="Grupo_902222-3" data-name="Grupo 902222" transform="translate(2.579 2.636)">
          <path id="Trazado_630071-3" data-name="Trazado 630071" d="M290.62,1089.992a2.63,2.63,0,1,1,2.63-2.63A2.633,2.633,0,0,1,290.62,1089.992Zm0-4.632a2,2,0,1,0,2,2A2,2,0,0,0,290.62,1085.36Z" transform="translate(-287.99 -1084.732)"/>
        </g>
      </g>
      <g id="Grupo_902311" data-name="Grupo 902311" transform="translate(-5814.186 -9539.644)">
        <g id="Color-2" data-name="Color" transform="translate(37.06 39.715)">
          <path id="Trazado_630178" data-name="Trazado 630178" d="M1602.153-214.934a9.676,9.676,0,0,1-13.7-.023,9.773,9.773,0,0,1-.729-.821L1570.309-237.9a29.078,29.078,0,0,0,8.912-8.925l22.09,17.443a9.711,9.711,0,0,1,1.572,13.629,9.71,9.71,0,0,1-.729.821Z" transform="translate(-1570.309 246.826)" fill="#21cbae" stroke="#040404" stroke-width="1.5"/>
        </g>
        <path id="Trazado_630179" data-name="Trazado 630179" d="M1429.052-398.777a27.2,27.2,0,0,0,0,38.463,27.2,27.2,0,0,0,38.463,0,27.2,27.2,0,0,0,0-38.463,27.2,27.2,0,0,0-19.231-7.967A27.022,27.022,0,0,0,1429.052-398.777Zm39.63,19.232a20.4,20.4,0,0,1-20.4,20.4,20.4,20.4,0,0,1-20.4-20.4,20.4,20.4,0,0,1,20.4-20.4,20.4,20.4,0,0,1,14.423,5.972A20.277,20.277,0,0,1,1468.682-379.545Z" transform="translate(-1421.085 406.742)" fill="#21cbae" stroke="#040404" stroke-width="1.5"/>
      </g>
      <path id="Trazado_630194" data-name="Trazado 630194" d="M16.524.459a.6.6,0,0,0-.013-.075.512.512,0,0,0-.626-.367L11.167,1.242q-.67.357-.16.919l1.5,1.023L9.713,8.023,6.138,5.96l-.72,1.246L5.409,7.2,0,16.489l2.339,1.352,4.777-8.2,3.6,2.078,1.352-2.341-.014-.008L14.745,4.71l1.2.817.281.19c.469.18.734.022.8-.476Z" transform="matrix(0.946, 0.326, -0.326, 0.946, -5792.374, -9524.651)"/>
    </g>
  </g>
</svg>
