<svg xmlns="http://www.w3.org/2000/svg" width="150" height="150" viewBox="0 0 150 150">
  <g id="Grupo_904377" data-name="Grupo 904377" transform="translate(-725.376 -1807)">
    <g id="Grupo_901589" data-name="Grupo 901589" transform="translate(-366.624 -1645)">
      <g id="Grupo_119597" data-name="Grupo 119597" transform="translate(-0.701 208.372)">
        <g id="Grupo_118165" data-name="Grupo 118165">
          <circle id="Elipse_5678" data-name="Elipse 5678" cx="75" cy="75" r="75" transform="translate(1092.701 3243.628)" fill="#fff"/>
        </g>
      </g>
    </g>
    <g id="Layer_19" data-name="Layer 19" transform="translate(752.9 1832.669)">
      <path id="Trazado_629202" data-name="Trazado 629202" d="M6,6H71.492V90.2H6Z" transform="translate(0.559 2.797)" fill="#ef3c79"/>
      <path id="Trazado_629203" data-name="Trazado 629203" d="M10,14H63.017V76.373H10Z" transform="translate(2.797 7.271)" fill="#0d5146"/>
      <path id="Trazado_629204" data-name="Trazado 629204" d="M10,14V71.695H50.542a7.8,7.8,0,0,0,7.8-7.8V14Z" transform="translate(2.797 7.271)" fill="#21cbae"/>
      <rect id="Rect치ngulo_302949" data-name="Rect치ngulo 302949" width="17.153" height="42.102" rx="5.5" transform="translate(23.712 30.627)" fill="#fff"/>
      <path id="Trazado_629205" data-name="Trazado 629205" d="M17,2H48.186V14.475H17Z" transform="translate(6.712 0.559)" fill="#eeab46"/>
      <path id="Trazado_629206" data-name="Trazado 629206" d="M17,2v9.356H40.39a4.678,4.678,0,0,0,4.678-4.678V2Z" transform="translate(6.712 0.559)" fill="#fecb2f"/>
      <rect id="Rect치ngulo_302950" data-name="Rect치ngulo 302950" width="10.915" height="4.678" rx="1.5" transform="translate(26.831 4.119)" fill="#fded72"/>
      <circle id="Elipse_6488" data-name="Elipse 6488" cx="18.712" cy="18.712" r="18.712" transform="translate(50.22 58.695)" fill="#074980"/>
      <path id="Trazado_629207" data-name="Trazado 629207" d="M52.712,38A18.69,18.69,0,0,0,37.535,67.627H54.271a9.356,9.356,0,0,0,9.356-9.356V41.535A18.6,18.6,0,0,0,52.712,38Z" transform="translate(16.221 20.695)" fill="#0b5999"/>
      <circle id="Elipse_6489" data-name="Elipse 6489" cx="6.237" cy="6.237" r="6.237" transform="translate(56.458 69.61)" fill="#216ba8"/>
      <circle id="Elipse_6490" data-name="Elipse 6490" cx="2.339" cy="2.339" r="2.339" transform="translate(70.492 63.373)" fill="#216ba8"/>
      <path id="Trazado_629208" data-name="Trazado 629208" d="M55.593,43,40,58.593v4.678h4.678L60.271,47.678Z" transform="translate(19.576 23.492)" fill="#eeab46"/>
      <path id="Trazado_629209" data-name="Trazado 629209" d="M40,61.712h3.119L58.712,46.119,55.593,43,40,58.593Z" transform="translate(19.576 23.492)" fill="#fecb2f"/>
      <path id="Trazado_629210" data-name="Trazado 629210" d="M20,5h3.119V8.119H20Z" transform="translate(8.39 2.237)"/>
      <path id="Trazado_629211" data-name="Trazado 629211" d="M32,5h3.119V8.119H32Z" transform="translate(15.102 2.237)"/>
      <path id="Trazado_629212" data-name="Trazado 629212" d="M13,23H56.661v3.119H13Z" transform="translate(4.475 12.305)"/>
      <path id="Trazado_629213" data-name="Trazado 629213" d="M13,27H56.661v3.119H13Z" transform="translate(4.475 14.542)"/>
      <path id="Trazado_629214" data-name="Trazado 629214" d="M13,31H56.661v3.119H13Z" transform="translate(4.475 16.78)"/>
      <path id="Trazado_629215" data-name="Trazado 629215" d="M13,35H56.661v3.119H13Z" transform="translate(4.475 19.017)"/>
      <path id="Trazado_629216" data-name="Trazado 629216" d="M73.61,57.7V8.8a1.559,1.559,0,0,0-1.559-1.559H56.458V2.559A1.559,1.559,0,0,0,54.9,1H23.712a1.559,1.559,0,0,0-1.559,1.559V7.237H6.559A1.559,1.559,0,0,0,5,8.8V93a1.559,1.559,0,0,0,1.559,1.559H58.173A20.252,20.252,0,1,0,73.61,57.7ZM56.458,15.034V10.356H70.492V57.215c-.516-.041-1.032-.08-1.559-.08s-1.043.039-1.559.08V21.271a1.559,1.559,0,0,0-1.559-1.559H50.1a10.956,10.956,0,0,0,.125-1.559V16.593H54.9A1.559,1.559,0,0,0,56.458,15.034Zm1.715,45.22h-40.7v3.119H54.339a20.352,20.352,0,0,0-2.461,3.119h-34.4V69.61H50.22a20.247,20.247,0,0,0-1,3.119H17.475v3.119H48.741c-.041.516-.08,1.032-.08,1.559a20.21,20.21,0,0,0,.566,4.678H14.356V22.831h15.1a10.892,10.892,0,0,0,19.694,0h15.1V57.7a20.139,20.139,0,0,0-6.081,2.553Zm-26.664-42.1V16.593H47.1v1.559a7.8,7.8,0,0,1-.156,1.559H31.664a7.8,7.8,0,0,1-.156-1.559ZM45.5,22.831a7.716,7.716,0,0,1-12.394,0ZM25.271,4.119H53.339v9.356H25.271ZM8.119,10.356H22.153v4.678a1.559,1.559,0,0,0,1.559,1.559H28.39v1.559a10.955,10.955,0,0,0,.125,1.559H12.8a1.559,1.559,0,0,0-1.559,1.559V83.644A1.559,1.559,0,0,0,12.8,85.2H50.22a20.292,20.292,0,0,0,4.114,6.237H8.119Zm60.814,84.2A17.153,17.153,0,1,1,86.085,77.407,17.153,17.153,0,0,1,68.932,94.559Z"/>
      <path id="Trazado_629217" data-name="Trazado 629217" d="M61.933,47.135l-4.678-4.678a1.559,1.559,0,0,0-2.2,0L39.457,58.05a1.559,1.559,0,0,0-.457,1.1V63.83a1.559,1.559,0,0,0,1.559,1.559h4.678a1.559,1.559,0,0,0,1.1-.457L61.933,49.34A1.559,1.559,0,0,0,61.933,47.135ZM44.592,62.271H42.119V59.8L56.153,45.764l2.473,2.473Z" transform="translate(19.017 22.932)"/>
    </g>
  </g>
</svg>
