<svg xmlns="http://www.w3.org/2000/svg" xmlns:xlink="http://www.w3.org/1999/xlink" width="110.842" height="98.408" viewBox="0 0 110.842 98.408">
  <defs>
    <linearGradient id="linear-gradient" x1="-17.098" y1="4.754" x2="-15.947" y2="4.754" gradientUnits="objectBoundingBox">
      <stop offset="0" stop-color="#e79b24"/>
      <stop offset="0.206" stop-color="#ebb038"/>
      <stop offset="0.464" stop-color="#efc34b"/>
      <stop offset="0.727" stop-color="#f2cf56"/>
      <stop offset="1" stop-color="#f3d35a"/>
    </linearGradient>
    <linearGradient id="linear-gradient-2" x1="-17.28" y1="4.732" x2="-16.13" y2="4.732" gradientUnits="objectBoundingBox">
      <stop offset="0" stop-color="#fbde21"/>
      <stop offset="0.266" stop-color="#fbda20"/>
      <stop offset="0.522" stop-color="#fbce1e"/>
      <stop offset="0.774" stop-color="#fbbb1b"/>
      <stop offset="1" stop-color="#fba317"/>
    </linearGradient>
    <linearGradient id="linear-gradient-3" x1="6.573" y1="0.986" x2="6.558" y2="0.307" gradientUnits="objectBoundingBox">
      <stop offset="0.841" stop-color="#bfccd9"/>
      <stop offset="0.892" stop-color="#cfd9e2"/>
      <stop offset="0.992" stop-color="#fbfcfc"/>
      <stop offset="1" stop-color="#fff"/>
    </linearGradient>
    <linearGradient id="linear-gradient-4" x1="-17.051" y1="5.058" x2="-15.9" y2="5.058" gradientUnits="objectBoundingBox">
      <stop offset="0" stop-color="#f3d35a"/>
      <stop offset="0.273" stop-color="#f2cf56"/>
      <stop offset="0.536" stop-color="#efc34b"/>
      <stop offset="0.794" stop-color="#ebb038"/>
      <stop offset="1" stop-color="#e79b24"/>
    </linearGradient>
    <linearGradient id="linear-gradient-5" x1="-16.937" y1="4.947" x2="-15.786" y2="4.947" gradientUnits="objectBoundingBox">
      <stop offset="0" stop-color="#fba317"/>
      <stop offset="0.226" stop-color="#fbbb1b"/>
      <stop offset="0.478" stop-color="#fbce1e"/>
      <stop offset="0.734" stop-color="#fbda20"/>
      <stop offset="1" stop-color="#fbde21"/>
    </linearGradient>
    <linearGradient id="linear-gradient-6" x1="35.8" y1="-34.735" x2="36.956" y2="-34.735" gradientUnits="objectBoundingBox">
      <stop offset="0" stop-color="#f3d35a"/>
      <stop offset="0.317" stop-color="#f0c54c"/>
      <stop offset="0.913" stop-color="#e8a029"/>
      <stop offset="1" stop-color="#e79b24"/>
    </linearGradient>
    <linearGradient id="linear-gradient-7" x1="-22.634" y1="6.093" x2="-21.484" y2="6.093" xlink:href="#linear-gradient"/>
    <linearGradient id="linear-gradient-8" x1="-22.87" y1="6.064" x2="-21.72" y2="6.064" xlink:href="#linear-gradient-2"/>
    <linearGradient id="linear-gradient-9" x1="8.225" y1="0.986" x2="8.21" y2="0.307" xlink:href="#linear-gradient-3"/>
    <linearGradient id="linear-gradient-10" x1="-22.466" y1="6.468" x2="-21.316" y2="6.468" xlink:href="#linear-gradient-4"/>
    <linearGradient id="linear-gradient-11" x1="-22.315" y1="6.322" x2="-21.165" y2="6.322" xlink:href="#linear-gradient-5"/>
    <linearGradient id="linear-gradient-12" x1="46.093" y1="-46.344" x2="47.25" y2="-46.344" xlink:href="#linear-gradient-6"/>
    <linearGradient id="linear-gradient-13" x1="-5.125" y1="0.664" x2="-4.597" y2="1.645" gradientUnits="objectBoundingBox">
      <stop offset="0" stop-color="#fff"/>
      <stop offset="0.052" stop-color="#e8e8e8"/>
      <stop offset="0.203" stop-color="#ababab"/>
      <stop offset="0.353" stop-color="#777"/>
      <stop offset="0.498" stop-color="#4c4c4c"/>
      <stop offset="0.638" stop-color="#2b2b2b"/>
      <stop offset="0.772" stop-color="#131313"/>
      <stop offset="0.895" stop-color="#040404"/>
      <stop offset="1" stop-color="#7d7878"/>
    </linearGradient>
  </defs>
  <g id="Grupo_904183" data-name="Grupo 904183" transform="translate(-2655.447 -318.914)">
    <g id="folder" transform="translate(2659.704 318.914)">
      <g id="Grupo_904169" data-name="Grupo 904169" transform="translate(0 0)">
        <path id="Trazado_632671" data-name="Trazado 632671" d="M2741.5,492.687V470.269l-.513,16a1.559,1.559,0,0,1-.773,1.3L2686.435,518.9v3.733c0,1.329,1.715,4.161,2.427,5.081a10.868,10.868,0,0,0,7.174,3.858,15.212,15.212,0,0,0,9.134-1.84l44.048-25.375C2752.785,502.395,2741.5,494.957,2741.5,492.687Z" transform="translate(-2686.435 -449.478)" fill="#afafaf" style="mix-blend-mode: multiply;isolation: isolate"/>
        <path id="Trazado_632672" data-name="Trazado 632672" d="M2740.991,355.707l.513-16V322.069a3.15,3.15,0,0,0-4.726-2.728l-20.061,11.582a4.777,4.777,0,0,0-2.066,2.413l-.634,1.64a4.531,4.531,0,0,1-1.979,2.3l-22.426,12.715a6.351,6.351,0,0,0-3.176,5.5v32.848L2740.218,357A1.559,1.559,0,0,0,2740.991,355.707Z" transform="translate(-2686.435 -318.914)" fill="#afafaf" style="mix-blend-mode: multiply;isolation: isolate"/>
      </g>
      <path id="Trazado_632673" data-name="Trazado 632673" d="M2758.791,342.41l1.2-3.28a2.238,2.238,0,0,1,.88-1.13l18.15-10.656a.72.72,0,0,1,.667-.091c.084.039.888.776.888.776l.511,1.288c.371.585,1.085.665,1.862.209l.614-.361a.662.662,0,0,1,.752-.04c.155.117.746.673.746.673l-.621,40.2-51.516,28.83-.376-.633.115-37.96a2.276,2.276,0,0,1,1.006-1.771l23.247-13.649A4.754,4.754,0,0,0,2758.791,342.41Z" transform="translate(-2726.218 -326.066)" fill="url(#linear-gradient)"/>
      <path id="Trazado_632674" data-name="Trazado 632674" d="M2764.19,347.3l1.2-3.28a2.239,2.239,0,0,1,.88-1.13l18.15-10.656c.366-.215.7-.177.877.1l1.189,1.875c.371.585,1.085.665,1.862.209l.614-.361c.553-.325,1-.059,1,.595l-.122,40.234-51.9,29.242.119-39.005a2.276,2.276,0,0,1,1.005-1.771L2762.32,349.7A4.751,4.751,0,0,0,2764.19,347.3Z" transform="translate(-2730.873 -330.284)" fill="url(#linear-gradient-2)"/>
      <path id="Trazado_632675" data-name="Trazado 632675" d="M2795.84,633.756l-51.291,29.1s-1.069,2.718-4.47-.535c-2.99-2.862-2.477-5.6-2.477-5.6l51.945-30.393Z" transform="translate(-2730.545 -584.105)" fill="#fba317"/>
      <g id="Grupo_904173" data-name="Grupo 904173" transform="translate(8.918 10.23)">
        <g id="Grupo_904170" data-name="Grupo 904170" style="mix-blend-mode: multiply;isolation: isolate">
          <path id="Trazado_632676" data-name="Trazado 632676" d="M2791.3,393.921c2.151-1.242,3.9-.246,3.906,2.226l.245,34.174a8.549,8.549,0,0,1-3.881,6.719L2756.517,460.3c-1.535,1.379-5.1-1.249-5.066-4.579l-.1-33.8c-.007-2.472,1.58-5.855,3.731-7.1Z" transform="translate(-2751.355 -393.387)" fill="#fbcb21"/>
        </g>
        <path id="Trazado_632677" data-name="Trazado 632677" d="M2804.072,398.41a2.747,2.747,0,0,0-2.771.272l-36.209,20.906a8.55,8.55,0,0,0-3.881,6.722l.1,33.8a2.722,2.722,0,0,0,1.135,2.495l1.534.891a2.723,2.723,0,0,1-1.135-2.495l-.1-33.8a8.55,8.55,0,0,1,3.881-6.722l36.209-20.906a2.747,2.747,0,0,1,2.771-.272Z" transform="translate(-2759.857 -397.493)" fill="url(#linear-gradient-3)"/>
        <g id="Grupo_904171" data-name="Grupo 904171" transform="translate(2.888 1.545)">
          <path id="Trazado_632678" data-name="Trazado 632678" d="M2812.468,405.171c2.151-1.242,3.9-.246,3.906,2.226l.1,33.8a8.55,8.55,0,0,1-3.881,6.719l-36.209,20.906c-2.151,1.242-3.9.246-3.906-2.223l-.1-33.8a8.55,8.55,0,0,1,3.881-6.722Z" transform="translate(-2772.378 -404.637)" fill="#f7f9fc"/>
        </g>
        <g id="Grupo_904172" data-name="Grupo 904172" transform="translate(6.549 9.091)">
          <path id="Trazado_632679" data-name="Trazado 632679" d="M2811.987,557.664l-11.814,6.821c-.629.363-1.14.069-1.14-.658a2.519,2.519,0,0,1,1.14-1.974l11.814-6.821c.629-.363,1.14-.069,1.14.658A2.519,2.519,0,0,1,2811.987,557.664Z" transform="translate(-2799.034 -541.785)" fill="#bfccd9"/>
          <path id="Trazado_632680" data-name="Trazado 632680" d="M2925.8,522.618l-3.356,1.938c-.629.363-1.14.069-1.14-.658a2.519,2.519,0,0,1,1.14-1.974l3.356-1.937c.629-.363,1.14-.069,1.14.658A2.519,2.519,0,0,1,2925.8,522.618Z" transform="translate(-2904.513 -511.552)" fill="#bfccd9"/>
          <path id="Trazado_632681" data-name="Trazado 632681" d="M2992.625,462.353l-9.337,5.391c-.629.363-1.139.069-1.139-.658a2.518,2.518,0,0,1,1.139-1.974l9.337-5.391c.629-.363,1.14-.069,1.14.658A2.519,2.519,0,0,1,2992.625,462.353Z" transform="translate(-2956.995 -459.566)" fill="#bfccd9"/>
          <path id="Trazado_632682" data-name="Trazado 632682" d="M2965.257,591.1l11.814-6.821a2.518,2.518,0,0,0,1.14-1.974c0-.727-.51-1.021-1.14-.658l-11.814,6.821a2.519,2.519,0,0,0-1.139,1.974C2964.117,591.172,2964.627,591.466,2965.257,591.1Z" transform="translate(-2941.441 -564.747)" fill="#bfccd9"/>
          <path id="Trazado_632683" data-name="Trazado 632683" d="M2904.556,656.816l3.356-1.938a2.518,2.518,0,0,0,1.139-1.974c0-.727-.51-1.021-1.139-.658l-3.356,1.938a2.517,2.517,0,0,0-1.14,1.974C2903.416,656.885,2903.926,657.179,2904.556,656.816Z" transform="translate(-2889.078 -625.645)" fill="#bfccd9"/>
          <path id="Trazado_632684" data-name="Trazado 632684" d="M2800.174,695.395l9.337-5.391a2.519,2.519,0,0,0,1.14-1.974c0-.727-.51-1.021-1.14-.658l-9.337,5.391a2.519,2.519,0,0,0-1.14,1.974C2799.034,695.463,2799.544,695.758,2800.174,695.395Z" transform="translate(-2799.034 -655.946)" fill="#bfccd9"/>
          <path id="Trazado_632685" data-name="Trazado 632685" d="M2816.639,577.241l-16.465,9.506c-.629.363-1.14.069-1.14-.658a2.519,2.519,0,0,1,1.14-1.974l16.465-9.506c.629-.363,1.14-.069,1.14.658A2.519,2.519,0,0,1,2816.639,577.241Z" transform="translate(-2799.034 -558.672)" fill="#bfccd9"/>
          <path id="Trazado_632686" data-name="Trazado 632686" d="M2834.664,542.365l-34.49,19.913c-.629.364-1.14.069-1.14-.658a2.519,2.519,0,0,1,1.14-1.974l34.49-19.913c.629-.363,1.14-.069,1.14.658A2.519,2.519,0,0,1,2834.664,542.365Z" transform="translate(-2799.034 -528.587)" fill="#bfccd9"/>
          <path id="Trazado_632687" data-name="Trazado 632687" d="M2821.819,726.264l-21.646,12.5c-.629.363-1.14.069-1.14-.658a2.519,2.519,0,0,1,1.14-1.974l21.646-12.5c.629-.363,1.139-.069,1.139.658A2.519,2.519,0,0,1,2821.819,726.264Z" transform="translate(-2799.034 -687.225)" fill="#bfccd9"/>
          <path id="Trazado_632688" data-name="Trazado 632688" d="M2978.1,501.48l-11.649,6.726c-.629.363-1.14.069-1.14-.658a2.519,2.519,0,0,1,1.14-1.974l11.649-6.726c.629-.363,1.139-.069,1.139.658A2.519,2.519,0,0,1,2978.1,501.48Z" transform="translate(-2942.474 -493.318)" fill="#bfccd9"/>
          <path id="Trazado_632689" data-name="Trazado 632689" d="M2931.4,636.5l16.465-9.506a2.519,2.519,0,0,0,1.14-1.974c0-.727-.51-1.021-1.14-.658l-16.465,9.506a2.519,2.519,0,0,0-1.14,1.974C2930.256,636.565,2930.766,636.86,2931.4,636.5Z" transform="translate(-2912.231 -601.588)" fill="#bfccd9"/>
          <path id="Trazado_632690" data-name="Trazado 632690" d="M2800.174,729.719l11.649-6.726a2.519,2.519,0,0,0,1.14-1.974c0-.727-.51-1.021-1.14-.658l-11.649,6.726a2.519,2.519,0,0,0-1.14,1.974C2799.034,729.788,2799.544,730.082,2800.174,729.719Z" transform="translate(-2799.034 -684.404)" fill="#bfccd9"/>
        </g>
      </g>
      <g id="Grupo_904174" data-name="Grupo 904174" transform="translate(12.584 16.334)">
        <path id="Trazado_632691" data-name="Trazado 632691" d="M2785.458,875.437l-.12-.022C2785.377,875.424,2785.417,875.431,2785.458,875.437Z" transform="translate(-2784.336 -815.306)" fill="#f7f9fc"/>
        <path id="Trazado_632692" data-name="Trazado 632692" d="M2786.665,875.649l-.03,0Z" transform="translate(-2785.456 -815.505)" fill="#f7f9fc"/>
        <path id="Trazado_632693" data-name="Trazado 632693" d="M2788.93,726.44a3.563,3.563,0,0,0,1.728-.533L2826.868,705a7.6,7.6,0,0,0,2.4-2.341Z" transform="translate(-2787.435 -666.281)" fill="#f7f9fc"/>
        <path id="Trazado_632694" data-name="Trazado 632694" d="M2787.118,875.7l.019-.011a2.291,2.291,0,0,1-.285-.014C2787.008,875.7,2787.118,875.7,2787.118,875.7Z" transform="translate(-2785.643 -815.53)" fill="#e6edf7" style="mix-blend-mode: multiply;isolation: isolate"/>
        <path id="Trazado_632695" data-name="Trazado 632695" d="M2786.268,875.587l-.058-.009Z" transform="translate(-2785.089 -815.447)" fill="#e6edf7" style="mix-blend-mode: multiply;isolation: isolate"/>
        <path id="Trazado_632696" data-name="Trazado 632696" d="M2781.072,873.562a1.89,1.89,0,0,1-.679-.3A1.487,1.487,0,0,0,2781.072,873.562Z" transform="translate(-2780.07 -813.453)" fill="#e6edf7" style="mix-blend-mode: multiply;isolation: isolate"/>
        <path id="Trazado_632697" data-name="Trazado 632697" d="M3082.573,474.2l8.985-5.3-4.4-5.187-.023.014.078-25.908-3.244,1.914.085,30.088A8.17,8.17,0,0,1,3082.573,474.2Z" transform="translate(-3040.742 -437.824)" fill="#fbcb21" style="mix-blend-mode: multiply;isolation: isolate"/>
        <path id="Trazado_632698" data-name="Trazado 632698" d="M2821.361,481.843l-.085-30.088-15.3,9.025c-.738.227-2.133-3.85-3.408-3.252l-21.554,12.813a3.585,3.585,0,0,0-1.912,3l-1.047,34.981a2.355,2.355,0,0,0,.225,1.227.59.59,0,0,0,.092.1,1.89,1.89,0,0,0,.679.3l.12.022.058.009.03,0a2.291,2.291,0,0,0,.285.014l40.336-23.78A8.166,8.166,0,0,0,2821.361,481.843Z" transform="translate(-2778.047 -449.841)" fill="#e6edf7" style="mix-blend-mode: multiply;isolation: isolate"/>
      </g>
      <path id="Trazado_632699" data-name="Trazado 632699" d="M2814.459,406.271l22.3-13.094c.28-.038,1.1-5.756,1.882-6.213l.614-.361a.739.739,0,0,1,.637-.1,11.876,11.876,0,0,1,1.255.933L2839,425.272l-50.645,29.269-.894-.858.9-36.012a2.275,2.275,0,0,1,1.006-1.771l23.247-13.649a.193.193,0,0,1,.24.038c.108.093.989.777.989.777C2814.382,404.362,2813.971,406.089,2814.459,406.271Z" transform="translate(-2773.58 -377.187)" fill="url(#linear-gradient-4)"/>
      <path id="Trazado_632700" data-name="Trazado 632700" d="M2814.62,412.41l22.3-13.094c.28-.038,1.1-5.756,1.882-6.213l.614-.36c.553-.325,1-.059,1,.595l-1.206,37.632a1.144,1.144,0,0,1-.567.951l-52.286,30.462,1.05-2.793,1.11-35.782a2.274,2.274,0,0,1,1.006-1.771l23.247-13.649C2813.547,407.932,2813.882,412.636,2814.62,412.41Z" transform="translate(-2772.631 -382.482)" fill="url(#linear-gradient-5)"/>
      <path id="Trazado_632701" data-name="Trazado 632701" d="M2740.993,848.964c0,6.254-8.155,2.708-8.44-4.984.118.069.61.369.745.42-.017,5.678,6.514,9.417,6.8,3.95C2740.213,848.42,2740.875,848.895,2740.993,848.964Z" transform="translate(-2726.218 -771.855)" fill="url(#linear-gradient-6)"/>
    </g>
    <g id="folder-2" data-name="folder" transform="translate(2683.839 341.769)">
      <g id="Grupo_904175" data-name="Grupo 904175" transform="translate(0 0)">
        <path id="Trazado_632702" data-name="Trazado 632702" d="M2905.414,531.127V499.652a2.516,2.516,0,0,0-.07-.589l-.76,23.742a1.144,1.144,0,0,1-.567.951l-41.876,24.4v6.507c0,1.044,1.348,3.269,1.907,3.992a8.541,8.541,0,0,0,5.637,3.032,11.956,11.956,0,0,0,7.178-1.446l34.613-19.94C2914.278,538.755,2905.414,532.91,2905.414,531.127Z" transform="translate(-2862.14 -497.173)" fill="#bfccd9" style="mix-blend-mode: multiply;isolation: isolate"/>
        <path id="Trazado_632703" data-name="Trazado 632703" d="M2904.583,510.934l.76-23.742a2.477,2.477,0,0,0-3.643-1.555l-15.764,9.1a3.753,3.753,0,0,0-1.624,1.9l-.5,1.289a3.56,3.56,0,0,1-1.555,1.807l-17.623,9.992a4.991,4.991,0,0,0-2.5,4.322v22.238l41.876-24.4A1.144,1.144,0,0,0,2904.583,510.934Z" transform="translate(-2862.14 -485.301)" fill="#fbcb21" style="mix-blend-mode: multiply;isolation: isolate"/>
      </g>
      <path id="Trazado_632704" data-name="Trazado 632704" d="M2919,503.764l.947-2.578a1.759,1.759,0,0,1,.692-.888l14.262-8.374a.566.566,0,0,1,.524-.072c.065.031.7.61.7.61l.4,1.012c.292.46.853.523,1.463.164l.483-.283a.52.52,0,0,1,.591-.031c.122.092.586.529.586.529l-.488,31.586-40.481,22.655-.3-.5.091-29.83a1.786,1.786,0,0,1,.79-1.392l18.268-10.726A3.732,3.732,0,0,0,2919,503.764Z" transform="translate(-2893.403 -490.921)" fill="url(#linear-gradient-7)"/>
      <path id="Trazado_632705" data-name="Trazado 632705" d="M2923.242,507.607l.947-2.578a1.757,1.757,0,0,1,.692-.888l14.262-8.374c.288-.169.552-.139.689.077l.934,1.473c.292.46.853.523,1.463.164l.482-.283c.435-.255.786-.046.785.467l-.1,31.617-40.78,22.979.093-30.651a1.788,1.788,0,0,1,.79-1.392l18.268-10.725A3.735,3.735,0,0,0,2923.242,507.607Z" transform="translate(-2897.061 -494.236)" fill="url(#linear-gradient-8)"/>
      <path id="Trazado_632706" data-name="Trazado 632706" d="M2948.112,732.707l-40.305,22.869s-.841,2.136-3.513-.421c-2.35-2.249-1.947-4.4-1.947-4.4l40.819-23.883Z" transform="translate(-2896.802 -693.691)" fill="#fba317"/>
      <g id="Grupo_904179" data-name="Grupo 904179" transform="translate(7.008 8.039)">
        <g id="Grupo_904176" data-name="Grupo 904176" style="mix-blend-mode: multiply;isolation: isolate">
          <path id="Trazado_632707" data-name="Trazado 632707" d="M2944.542,544.242c1.69-.976,3.064-.193,3.07,1.749l.193,26.854a6.72,6.72,0,0,1-3.05,5.28L2917.212,596.4c-1.206,1.084-4.007-.981-3.981-3.6l-.075-26.56a7.149,7.149,0,0,1,2.932-5.577Z" transform="translate(-2913.156 -543.822)" fill="#fbcb21"/>
        </g>
        <path id="Trazado_632708" data-name="Trazado 632708" d="M2954.581,547.769a2.159,2.159,0,0,0-2.177.214l-28.454,16.428a6.72,6.72,0,0,0-3.05,5.282l.075,26.56a2.139,2.139,0,0,0,.892,1.96l1.205.7a2.139,2.139,0,0,1-.892-1.96l-.075-26.56a6.719,6.719,0,0,1,3.05-5.282l28.454-16.428a2.158,2.158,0,0,1,2.177-.214Z" transform="translate(-2919.836 -547.049)" fill="url(#linear-gradient-9)"/>
        <g id="Grupo_904177" data-name="Grupo 904177" transform="translate(2.269 1.214)">
          <path id="Trazado_632709" data-name="Trazado 632709" d="M2961.179,553.083c1.69-.976,3.064-.193,3.07,1.749l.075,26.56a6.719,6.719,0,0,1-3.05,5.28L2932.821,603.1c-1.69.976-3.064.193-3.07-1.747l-.075-26.56a6.72,6.72,0,0,1,3.05-5.282Z" transform="translate(-2929.676 -552.663)" fill="#f7f9fc"/>
        </g>
        <g id="Grupo_904178" data-name="Grupo 904178" transform="translate(5.146 7.143)">
          <path id="Trazado_632710" data-name="Trazado 632710" d="M2960.8,672.913l-9.284,5.36c-.495.285-.9.054-.9-.517a1.979,1.979,0,0,1,.9-1.551l9.284-5.36c.494-.286.9-.054.9.517A1.98,1.98,0,0,1,2960.8,672.913Z" transform="translate(-2950.622 -660.435)" fill="#bfccd9"/>
          <path id="Trazado_632711" data-name="Trazado 632711" d="M3050.24,645.373,3047.6,646.9c-.495.285-.9.054-.9-.517a1.979,1.979,0,0,1,.9-1.551l2.637-1.523c.494-.285.9-.054.9.517A1.98,1.98,0,0,1,3050.24,645.373Z" transform="translate(-3033.509 -636.678)" fill="#bfccd9"/>
          <path id="Trazado_632712" data-name="Trazado 632712" d="M3102.749,598.017l-7.337,4.236c-.495.286-.9.054-.9-.517a1.979,1.979,0,0,1,.9-1.551l7.337-4.236c.495-.286.9-.054.9.517A1.979,1.979,0,0,1,3102.749,598.017Z" transform="translate(-3074.75 -595.826)" fill="#bfccd9"/>
          <path id="Trazado_632713" data-name="Trazado 632713" d="M3081.241,699.19l9.283-5.36a1.979,1.979,0,0,0,.9-1.551c0-.571-.4-.8-.9-.517l-9.283,5.36a1.979,1.979,0,0,0-.9,1.551C3080.346,699.244,3080.747,699.475,3081.241,699.19Z" transform="translate(-3062.527 -678.478)" fill="#bfccd9"/>
          <path id="Trazado_632714" data-name="Trazado 632714" d="M3033.542,750.827l2.637-1.523a1.979,1.979,0,0,0,.9-1.551c0-.571-.4-.8-.9-.517l-2.637,1.523a1.979,1.979,0,0,0-.9,1.551C3032.646,750.881,3033.047,751.113,3033.542,750.827Z" transform="translate(-3021.379 -726.333)" fill="#bfccd9"/>
          <path id="Trazado_632715" data-name="Trazado 632715" d="M2951.518,781.143l7.337-4.236a1.979,1.979,0,0,0,.9-1.551c0-.571-.4-.8-.9-.517l-7.337,4.236a1.979,1.979,0,0,0-.9,1.551C2950.622,781.2,2951.023,781.429,2951.518,781.143Z" transform="translate(-2950.622 -750.144)" fill="#bfccd9"/>
          <path id="Trazado_632716" data-name="Trazado 632716" d="M2964.456,688.3l-12.938,7.47c-.495.286-.9.054-.9-.517a1.979,1.979,0,0,1,.9-1.551l12.938-7.47c.495-.286.9-.054.9.517A1.979,1.979,0,0,1,2964.456,688.3Z" transform="translate(-2950.622 -673.705)" fill="#bfccd9"/>
          <path id="Trazado_632717" data-name="Trazado 632717" d="M2978.62,660.891l-27.1,15.648c-.495.286-.9.054-.9-.517a1.979,1.979,0,0,1,.9-1.551l27.1-15.648c.495-.286.9-.054.9.517A1.979,1.979,0,0,1,2978.62,660.891Z" transform="translate(-2950.622 -650.064)" fill="#bfccd9"/>
          <path id="Trazado_632718" data-name="Trazado 632718" d="M2968.528,805.4l-17.009,9.82c-.495.286-.9.054-.9-.517a1.979,1.979,0,0,1,.9-1.551l17.009-9.82c.495-.286.9-.054.9.517A1.979,1.979,0,0,1,2968.528,805.4Z" transform="translate(-2950.623 -774.724)" fill="#bfccd9"/>
          <path id="Trazado_632719" data-name="Trazado 632719" d="M3091.338,628.763l-9.154,5.285c-.495.285-.9.054-.9-.517a1.979,1.979,0,0,1,.9-1.551l9.154-5.285c.495-.286.9-.054.9.517A1.979,1.979,0,0,1,3091.338,628.763Z" transform="translate(-3063.339 -622.349)" fill="#bfccd9"/>
          <path id="Trazado_632720" data-name="Trazado 632720" d="M3054.633,734.861l12.939-7.47a1.978,1.978,0,0,0,.9-1.551c0-.571-.4-.8-.9-.517l-12.939,7.47a1.979,1.979,0,0,0-.9,1.551C3053.738,734.915,3054.139,735.146,3054.633,734.861Z" transform="translate(-3039.574 -707.429)" fill="#bfccd9"/>
          <path id="Trazado_632721" data-name="Trazado 632721" d="M2951.518,808.116l9.154-5.285a1.979,1.979,0,0,0,.9-1.551c0-.571-.4-.8-.9-.517l-9.154,5.285a1.979,1.979,0,0,0-.9,1.551C2950.622,808.17,2951.023,808.4,2951.518,808.116Z" transform="translate(-2950.622 -772.507)" fill="#bfccd9"/>
        </g>
      </g>
      <g id="Grupo_904180" data-name="Grupo 904180" transform="translate(9.889 12.835)">
        <path id="Trazado_632722" data-name="Trazado 632722" d="M2939.954,922.623l-.094-.018C2939.891,922.612,2939.922,922.617,2939.954,922.623Z" transform="translate(-2939.073 -875.371)" fill="#f7f9fc"/>
        <path id="Trazado_632723" data-name="Trazado 632723" d="M2940.9,922.789l-.023,0Z" transform="translate(-2939.952 -875.527)" fill="#f7f9fc"/>
        <path id="Trazado_632724" data-name="Trazado 632724" d="M2942.683,805.54a2.8,2.8,0,0,0,1.358-.419l28.454-16.428a5.973,5.973,0,0,0,1.884-1.84Z" transform="translate(-2941.508 -758.266)" fill="#f7f9fc"/>
        <path id="Trazado_632725" data-name="Trazado 632725" d="M2941.259,922.83l.015-.009a1.824,1.824,0,0,1-.224-.011C2941.172,922.827,2941.259,922.83,2941.259,922.83Z" transform="translate(-2940.099 -875.548)" fill="#e6edf7" style="mix-blend-mode: multiply;isolation: isolate"/>
        <path id="Trazado_632726" data-name="Trazado 632726" d="M2940.591,922.74l-.046-.007Z" transform="translate(-2939.664 -875.481)" fill="#e6edf7" style="mix-blend-mode: multiply;isolation: isolate"/>
        <path id="Trazado_632727" data-name="Trazado 632727" d="M2936.507,921.149a1.483,1.483,0,0,1-.534-.232A1.168,1.168,0,0,0,2936.507,921.149Z" transform="translate(-2935.719 -873.915)" fill="#e6edf7" style="mix-blend-mode: multiply;isolation: isolate"/>
        <path id="Trazado_632728" data-name="Trazado 632728" d="M3173.43,607.328l7.061-4.163-3.456-4.076-.019.011.062-20.359-2.55,1.5.067,23.643A6.419,6.419,0,0,1,3173.43,607.328Z" transform="translate(-3140.559 -578.741)" fill="#fbcb21" style="mix-blend-mode: multiply;isolation: isolate"/>
        <path id="Trazado_632729" data-name="Trazado 632729" d="M2968.167,613.332l-.067-23.643-12.024,7.092c-.58.178-1.676-3.026-2.678-2.555l-16.937,10.068a2.818,2.818,0,0,0-1.5,2.361l-.823,27.488a1.852,1.852,0,0,0,.177.964.452.452,0,0,0,.072.08,1.483,1.483,0,0,0,.534.232l.094.018.046.007.023,0a1.806,1.806,0,0,0,.225.011l31.7-18.687A6.415,6.415,0,0,0,2968.167,613.332Z" transform="translate(-2934.131 -588.185)" fill="#e6edf7" style="mix-blend-mode: multiply;isolation: isolate"/>
      </g>
      <path id="Trazado_632730" data-name="Trazado 632730" d="M2962.743,553.947l17.524-10.289c.22-.03.868-4.523,1.479-4.882l.482-.283a.581.581,0,0,1,.5-.082,9.353,9.353,0,0,1,.987.733l-1.691,29.734-39.8,23-.7-.674.706-28.3a1.789,1.789,0,0,1,.79-1.392l18.268-10.725a.152.152,0,0,1,.189.03c.084.073.777.61.777.61C2962.683,552.446,2962.36,553.8,2962.743,553.947Z" transform="translate(-2930.62 -531.092)" fill="url(#linear-gradient-10)"/>
      <path id="Trazado_632731" data-name="Trazado 632731" d="M2962.87,558.77l17.525-10.289c.22-.03.868-4.523,1.479-4.882l.482-.283c.435-.255.786-.046.785.467l-.947,29.572a.9.9,0,0,1-.446.747l-41.087,23.938.825-2.194.873-28.118a1.788,1.788,0,0,1,.79-1.392l18.268-10.726C2962.027,555.252,2962.29,558.948,2962.87,558.77Z" transform="translate(-2929.875 -535.253)" fill="url(#linear-gradient-11)"/>
      <path id="Trazado_632732" data-name="Trazado 632732" d="M2905.014,901.819c0,4.914-6.408,2.128-6.632-3.916.093.054.479.29.585.33-.013,4.462,5.119,7.4,5.341,3.1C2904.4,901.392,2904.921,901.765,2905.014,901.819Z" transform="translate(-2893.403 -841.227)" fill="url(#linear-gradient-12)"/>
    </g>
    <g id="Grupo_904181" data-name="Grupo 904181" transform="translate(2698.636 321.245)">
      <path id="Trazado_632733" data-name="Trazado 632733" d="M3134.75,450.652a40.968,40.968,0,0,0,4.311-4.513,56.544,56.544,0,0,0,8.314-14.013,64.951,64.951,0,0,0,4.209-14.606,48.856,48.856,0,0,0-.093-17.565c-1.152-5.548-3.868-10.582-6.786-13.274,7.912-.851,13.165,5.073,15.474,16.194a48.861,48.861,0,0,1,.093,17.565,64.938,64.938,0,0,1-4.21,14.606,56.543,56.543,0,0,1-8.313,14.013,41.011,41.011,0,0,1-4.311,4.513c-8.477,7.559-17.13,8.147-22.98,2.752C3124.405,455.9,3130.522,454.423,3134.75,450.652Z" transform="translate(-3099.772 -379.635)" fill="#094e42"/>
      <path id="Trazado_632734" data-name="Trazado 632734" d="M2969.864,388.429a46.9,46.9,0,0,0,.93,9.418c1.983,9.557,6.919,16.089,13.9,18.393l10.08,3.38,1.292-3.912c-5.76-1.025-9.975-6.706-11.8-15.522a41.8,41.8,0,0,1-.815-7.222,57.2,57.2,0,0,1,1.706-15.179,64.945,64.945,0,0,1,5.317-14.241,49.707,49.707,0,0,1,9.778-13.362q.376-.354.756-.693.9-.8,1.8-1.5.185-.145.37-.283.49-.368.978-.7l.2-.139q.122-.084.245-.164t.215-.141q.458-.3.915-.568l.212-.124a23.07,23.07,0,0,1,2.228-1.14l.214-.093.221-.093q.55-.23,1.1-.42l.219-.075c.072-.025.145-.048.218-.072s.145-.046.217-.067c.134-.043.268-.083.4-.12l.031-.009.216-.059.215-.056c.073-.019.147-.038.221-.055q.534-.129,1.061-.219l.212-.034.211-.032a13.4,13.4,0,0,1,6.82.708l1.282-3.9-10.081-3.38c-5.23-1.727-10.954-.864-16.561,2.414a34.728,34.728,0,0,0-5.556,4.085q-.706.63-1.4,1.3a54.646,54.646,0,0,0-10.359,14.509,68.538,68.538,0,0,0-3.843,9.309q-.817,2.467-1.434,4.945A62.109,62.109,0,0,0,2969.864,388.429Z" transform="translate(-2969.864 -335.887)" fill="#1a947f"/>
      <path id="Trazado_632735" data-name="Trazado 632735" d="M3039.587,420.737c1.984,9.557,6.919,16.089,13.9,18.393s14.833,0,22.118-6.5c6.674-5.952,12.213-14.874,15.6-25.122s4.233-20.768,2.576-29.555c-1.984-10.517-7.065-16-14.043-18.308a18.525,18.525,0,0,0-12.474.46,30.906,30.906,0,0,0-9.644,6.04q-1.046.932-2.054,1.962c-5.755,5.869-10.513,13.983-13.544,23.16C3038.632,401.517,3037.77,411.983,3039.587,420.737Zm20-50.836q.376-.354.756-.693c4.2-3.745,8.442-5.779,12.367-6.223,7.948-.9,14.587,4.729,16.9,15.888,3.46,16.669-4.035,39.367-16.741,50.7s-25.811,7-29.271-9.667C3040.211,403.569,3047.342,381.444,3059.587,369.9Z" transform="translate(-3029.207 -355.633)" fill="#21cbae"/>
      <path id="Trazado_632736" data-name="Trazado 632736" d="M3036.576,399.628c.2-1.622.463-3.222.771-4.8a59.76,59.76,0,0,1,2.487-9.069,66.575,66.575,0,0,1,3.6-8.144,64.942,64.942,0,0,1,4.278-7.139,46.024,46.024,0,0,1,9.92-10.656,28.54,28.54,0,0,1,5.246-3.15,21.874,21.874,0,0,1,4.969-1.568l1.138-.183c.371-.043.734-.059,1.084-.088a16.746,16.746,0,0,1,1.973-.029,18.419,18.419,0,0,1,3.091.385c.157.026.3.056.443.086a39.928,39.928,0,0,1,3.995,1.419,18.908,18.908,0,0,1,3.672,2.2,19.174,19.174,0,0,1,4.168,4.411,24.759,24.759,0,0,1,3.031,6.172,37.034,37.034,0,0,1,1.615,7.431,61.952,61.952,0,0,1-.62,17.029c-.023.138-.049.277-.073.416l-.039-.032c.022-.13.045-.261.066-.391a59.548,59.548,0,0,0,.449-17,36.254,36.254,0,0,0-1.711-7.349,24.37,24.37,0,0,0-3.076-6.03,18.682,18.682,0,0,0-4.129-4.238,18.337,18.337,0,0,0-3.541-2.053c-.009.024-.008.018,0,0q-.252-.111-.5-.213l-.126-.041-.756-.243-.606-.195-.619-.17a14.986,14.986,0,0,0-1.812-.432,17.983,17.983,0,0,0-6.942.023,20.593,20.593,0,0,0-4.726,1.573,27.5,27.5,0,0,0-5,3.125,45.935,45.935,0,0,0-9.517,10.519,71.3,71.3,0,0,0-7.747,14.992,64.369,64.369,0,0,0-2.583,8.857,74.265,74.265,0,0,0-1.454,9.552,54.65,54.65,0,0,0,.028,9.993,33.834,33.834,0,0,0,2.6,9.821,21.782,21.782,0,0,0,6.127,8.248,20.3,20.3,0,0,0,4.412,2.548c0,.026.007.053.01.079a18.975,18.975,0,0,1-4.514-2.493,18.354,18.354,0,0,1-1.991-1.722,19.081,19.081,0,0,1-1.74-1.969,22.744,22.744,0,0,1-1.471-2.172c-.444-.753-.842-1.53-1.212-2.319a34.58,34.58,0,0,1-2.74-9.96,55.977,55.977,0,0,1-.352-10.11C3036.23,402.9,3036.379,401.251,3036.576,399.628Z" transform="translate(-3026.972 -352.195)" fill="#a5afd1"/>
      <path id="Trazado_632737" data-name="Trazado 632737" d="M2977.677,791.753c1.327,5.895,3.8,10.592,7.2,13.8l.455.418-.683-11.172Z" transform="translate(-2976.604 -729.134)" fill="#bfccd9" style="mix-blend-mode: multiply;isolation: isolate"/>
    </g>
    <g id="Grupo_904182" data-name="Grupo 904182" transform="translate(2655.447 381.234)">
      <path id="Trazado_632738" data-name="Trazado 632738" d="M2935.737,772.989a6.849,6.849,0,0,1,3.233,5.288,2.073,2.073,0,0,1-1.03,2.118s-8.785,5.183-8.785,5.183l-4.436-7.556,8.731-5.133a1.467,1.467,0,0,1,.236-.138A2.283,2.283,0,0,1,2935.737,772.989Z" transform="translate(-2887.732 -772.602)" fill="#616b8c"/>
      <path id="Trazado_632739" data-name="Trazado 632739" d="M2920.913,811.141c-1.736-.945-3.1-.109-3.053,1.867a6.849,6.849,0,0,0,3.233,5.287c1.736.945,3.1.109,3.053-1.867A6.849,6.849,0,0,0,2920.913,811.141Z" transform="translate(-2881.813 -805.512)" fill="#c1842c"/>
      <path id="Trazado_632740" data-name="Trazado 632740" d="M2931.684,809.391a8.331,8.331,0,0,0-3.854-6.479,4.141,4.141,0,0,0-.885-.377l-2.225,1.308,4.436,7.556,2.5-1.477A4.586,4.586,0,0,0,2931.684,809.391Z" transform="translate(-2887.732 -798.423)" fill="#bfccd9" style="mix-blend-mode: multiply;isolation: isolate"/>
      <path id="Trazado_632741" data-name="Trazado 632741" d="M2703.08,806.365a8.33,8.33,0,0,1,3.853,6.479,2.522,2.522,0,0,1-1.284,2.56S2672.4,837,2672.4,837l-6.951-11.645,34.853-19.144a1.8,1.8,0,0,1,.289-.164A2.776,2.776,0,0,1,2703.08,806.365Z" transform="translate(-2664.073 -801.304)" fill="#ef3c79"/>
      <path id="Trazado_632742" data-name="Trazado 632742" d="M2660.207,945.9c-2.668-1.495-4.8-.227-4.759,2.83a10.6,10.6,0,0,0,4.9,8.243c2.668,1.495,4.8.227,4.759-2.83A10.6,10.6,0,0,0,2660.207,945.9Z" transform="translate(-2655.447 -921.554)" fill="#b70c46"/>
      <path id="Trazado_632743" data-name="Trazado 632743" d="M2660.177,945.708l-.086-.047c-.057-.03-.141-.081-.251-.132a4.653,4.653,0,0,0-1-.371,2.892,2.892,0,0,0-1.64.049,2.257,2.257,0,0,0-.856.551,2.835,2.835,0,0,0-.607.962,4.487,4.487,0,0,0-.264,1.217,6.587,6.587,0,0,0,.042,1.335,9.871,9.871,0,0,0,.8,2.764,11.954,11.954,0,0,0,1.634,2.612c.08.1.17.2.259.3l.267.294.285.278.143.139.151.13.3.259c.105.082.214.159.322.238l.162.119c.055.038.113.071.169.107l.341.21a6.334,6.334,0,0,0,.726.338,4.316,4.316,0,0,0,.769.207,2.731,2.731,0,0,0,1.533-.157,2.287,2.287,0,0,0,1.082-1,3.8,3.8,0,0,0,.426-1.39,5.316,5.316,0,0,0,.041-.72v-.127l0-.046-.01-.183c-.008-.121-.01-.245-.022-.362a8.725,8.725,0,0,0-.259-1.35,11.755,11.755,0,0,0-2.131-4.165,9.41,9.41,0,0,0-1.153-1.2c-.088-.075-.168-.151-.249-.215l-.231-.175-.2-.151c-.063-.043-.122-.079-.174-.112l-.321-.2Zm.067-.122.333.2c.054.033.115.068.181.11l.208.147.241.172c.085.063.168.137.26.211a9.986,9.986,0,0,1,1.215,1.193l.326.392.322.433c.114.146.209.31.319.471s.208.333.309.51a10.627,10.627,0,0,1,1.023,2.414,8.963,8.963,0,0,1,.276,1.422c.013.123.016.242.024.364l.01.183,0,.046v.023a.29.29,0,0,1,0,.031l0,.095a5.747,5.747,0,0,1-.06.766,4.164,4.164,0,0,1-.19.763,3.054,3.054,0,0,1-.354.719,2.506,2.506,0,0,1-1.254,1,2.929,2.929,0,0,1-1.6.059,5.374,5.374,0,0,1-1.487-.587l-.341-.211c-.057-.036-.115-.069-.169-.107l-.162-.119c-.107-.08-.217-.156-.322-.238l-.3-.259-.151-.13-.143-.139-.285-.278-.267-.294c-.088-.1-.179-.194-.259-.3a11.954,11.954,0,0,1-1.634-2.612,9.871,9.871,0,0,1-.8-2.764,6.539,6.539,0,0,1-.055-.677,5.573,5.573,0,0,1,.009-.659,4.512,4.512,0,0,1,.256-1.221,2.9,2.9,0,0,1,.594-.982,2.334,2.334,0,0,1,.861-.582,2.665,2.665,0,0,1,.9-.171,3.5,3.5,0,0,1,.779.079,4.763,4.763,0,0,1,1.039.355c.117.052.2.1.258.128l.087.045Z" transform="translate(-2655.45 -921.301)" fill="#d4b0bc"/>
      <path id="Trazado_632744" data-name="Trazado 632744" d="M2973.962,791.2l-5.381,3.165c-.3.177-.6.685-.328,1.054s.677.218.976.041l5.381-3.165a.63.63,0,0,0,.221-.863l-.006-.011A.63.63,0,0,0,2973.962,791.2Z" transform="translate(-2925.192 -788.566)" fill="#7e87a8"/>
    </g>
    <ellipse id="Elipse_6585" data-name="Elipse 6585" cx="36.854" cy="20.721" rx="36.854" ry="20.721" transform="translate(2703.824 392.845) rotate(-71.725)" fill="url(#linear-gradient-13)" style="mix-blend-mode: screen;isolation: isolate"/>
  </g>
</svg>
