<svg xmlns="http://www.w3.org/2000/svg" width="64.229" height="53.975" viewBox="0 0 64.229 53.975">
  <g id="Grupo_904291" data-name="Grupo 904291" transform="translate(-2586.048 -454.66)">
    <g id="cloud" transform="translate(2586.048 454.66)">
      <g id="Grupo_904286" data-name="Grupo 904286" transform="translate(45.713 6.308)">
        <path id="Trazado_632929" data-name="Trazado 632929" d="M2904.182,498.465l7.752,4.5a5.221,5.221,0,0,0-4.653-.009l-7.752-4.5A5.22,5.22,0,0,1,2904.182,498.465Z" transform="translate(-2899.529 -497.919)" fill="#f7f9fc"/>
      </g>
      <path id="Trazado_632930" data-name="Trazado 632930" d="M2768.683,458.894c-2.47-1.435-5.861-1.246-9.6.911-4.365,2.52-8.245,7.172-10.729,12.359q-.394.821-.738,1.657l-5.7-3.311c.227-.549.47-1.094.727-1.633,2.484-5.2,6.37-9.859,10.74-12.383,3.737-2.157,7.127-2.347,9.6-.912Z" transform="translate(-2719.19 -454.66)" fill="#f7f9fc"/>
      <path id="Trazado_632931" data-name="Trazado 632931" d="M2659.771,566.668a10.931,10.931,0,0,0-4.1,1.467c-5.022,2.9-9.255,9.184-10.611,15.234q-.182.806-.293,1.606l-5.7-3.311c.073-.522.168-1.05.286-1.58,1.35-6.057,5.586-12.354,10.617-15.259a10.918,10.918,0,0,1,4.094-1.468Z" transform="translate(-2631.342 -547.506)" fill="#f7f9fc"/>
      <path id="Trazado_632932" data-name="Trazado 632932" d="M2593.78,688.9a8.531,8.531,0,0,0-.961.478c-3.752,2.166-6.783,7.294-6.771,11.455.006,2.019.727,3.439,1.9,4.118l5.7,3.311c-1.169-.68-1.89-2.1-1.9-4.118-.012-4.161,3.019-9.289,6.77-11.455a8.525,8.525,0,0,1,.962-.478Z" transform="translate(-2586.048 -654.741)" fill="#f7f9fc"/>
      <path id="Trazado_632933" data-name="Trazado 632933" d="M2672.895,485.4c-.856-7.419-6.613-10.221-13.569-6.2-4.825,2.786-9.057,8.177-11.468,14.016a10.919,10.919,0,0,0-4.094,1.468c-5.469,3.158-10,10.326-10.9,16.839a8.523,8.523,0,0,0-.961.478c-3.751,2.166-6.782,7.294-6.771,11.455s3.062,5.778,6.813,3.612l40.077-23.148c4.354-2.7,7.82-8.684,7.806-13.56C2679.813,485.834,2676.807,483.814,2672.895,485.4Z" transform="translate(-2619.43 -474.054)" fill="#ebf0f7"/>
      <g id="Grupo_904287" data-name="Grupo 904287" transform="translate(23.222 4.607)">
        <path id="Trazado_632934" data-name="Trazado 632934" d="M2745.88,521.055c-.206.431-.4.867-.588,1.3l5.021,2.916c.183-.426.375-.85.574-1.265a33.846,33.846,0,0,1,3.347-5.559l-5.036-2.9A33.07,33.07,0,0,0,2745.88,521.055Z" transform="translate(-2745.293 -511.277)" fill="#dfe6f0"/>
        <path id="Trazado_632935" data-name="Trazado 632935" d="M2776.656,499.427l5.034,2.9q.731-.914,1.507-1.748l-5.024-2.892Q2777.392,498.512,2776.656,499.427Z" transform="translate(-2772.083 -496.018)" fill="#e6edf7"/>
        <path id="Trazado_632936" data-name="Trazado 632936" d="M2798.535,489.135l-5.009-2.883q-.463.407-.914.846l5.018,2.889Q2798.077,489.546,2798.535,489.135Z" transform="translate(-2785.712 -486.252)" fill="#e9f0fa"/>
      </g>
      <g id="Grupo_904288" data-name="Grupo 904288" transform="translate(8.156 22.02)">
        <path id="Trazado_632937" data-name="Trazado 632937" d="M2642.223,643.869c-.1.424-.176.857-.243,1.29l4.977,2.892c.061-.356.131-.713.21-1.067a25.165,25.165,0,0,1,2.3-6.163l-5.02-2.889A24.119,24.119,0,0,0,2642.223,643.869Z" transform="translate(-2641.98 -633.227)" fill="#dfe6f0"/>
        <path id="Trazado_632938" data-name="Trazado 632938" d="M2662.484,620.228l5.019,2.888c.38-.657.786-1.3,1.216-1.916l-5.015-2.887C2663.272,618.931,2662.865,619.571,2662.484,620.228Z" transform="translate(-2659.494 -616.469)" fill="#e6edf7"/>
        <path id="Trazado_632939" data-name="Trazado 632939" d="M2681.152,608.549l-5.012-2.885q-.386.457-.754.938l5.015,2.886Q2680.767,609.007,2681.152,608.549Z" transform="translate(-2670.514 -605.664)" fill="#e9f0fa"/>
      </g>
      <g id="Grupo_904289" data-name="Grupo 904289" transform="translate(0.39 37.345)">
        <path id="Trazado_632940" data-name="Trazado 632940" d="M2596.966,725.394l5.041,2.9a16.753,16.753,0,0,1,1.109-1.978l-5.047-2.9A15.759,15.759,0,0,0,2596.966,725.394Z" transform="translate(-2595.764 -721.567)" fill="#e6edf7"/>
        <path id="Trazado_632941" data-name="Trazado 632941" d="M2588.721,747.794c.005,1.8.61,3.147,1.7,3.782l3.721,2.161a6.519,6.519,0,0,1-.5-2.631,11.984,11.984,0,0,1,.892-4.33l-5.034-2.9A11.146,11.146,0,0,0,2588.721,747.794Z" transform="translate(-2588.721 -739.05)" fill="#dfe6f0"/>
        <path id="Trazado_632942" data-name="Trazado 632942" d="M2614.771,713.655l-5.035-2.9c-.267.3-.523.608-.768.93l5.042,2.9C2614.253,714.267,2614.508,713.955,2614.771,713.655Z" transform="translate(-2606.015 -710.757)" fill="#e9f0fa"/>
      </g>
    </g>
    <g id="bubble" transform="translate(2625.651 464.411)">
      <path id="Trazado_632944" data-name="Trazado 632944" d="M2876.9,522.29c-2.2-1.279-5.112-.892-8.028.792a22.6,22.6,0,0,0-7.621,7.82c-3.635,5.951-4.56,12.458-2.669,16.31a5.019,5.019,0,0,0,1.745,1.947c1.9,1.188,3.438,1.974,3.438,1.974-2.175-2.473-4.534-12.37-.461-19.037a22.607,22.607,0,0,1,7.62-7.821c2.916-1.683,5.827-2.071,8.029-.792Z" transform="translate(-2857.628 -521.531)" fill="#ae8508"/>
      <path id="Trazado_632945" data-name="Trazado 632945" d="M2922.558,704.185a76.915,76.915,0,0,1-4.626,6.184.767.767,0,0,1-1.341-.486c-.038-1.332-.243-3-.986-3.623C2914.294,705.168,2922.558,704.185,2922.558,704.185Z" transform="translate(-2907.03 -677.549)" fill="#fbcb21"/>
      <path id="Trazado_632946" data-name="Trazado 632946" d="M2915.6,706.26c-1.311-1.092,6.953-2.075,6.953-2.075s-.758,1.127-1.769,2.522c-.126.078-.251.155-.377.228a11.389,11.389,0,0,1-3.943,1.462A3.525,3.525,0,0,0,2915.6,706.26Z" transform="translate(-2907.03 -677.549)" fill="#fbcb21" style="mix-blend-mode: multiply;isolation: isolate"/>
      <path id="Trazado_632947" data-name="Trazado 632947" d="M2875.008,557.7a5.789,5.789,0,0,0,4.055.964,11.372,11.372,0,0,0,3.971-1.467,22.6,22.6,0,0,0,7.616-7.816c4.578-7.495,4.86-15.875.63-18.719-2.233-1.5-5.279-1.158-8.33.6a22.606,22.606,0,0,0-7.62,7.821c-3.786,6.2-4.631,12.995-2.421,16.772a3.66,3.66,0,0,0,1.121,1.186Z" transform="translate(-2869.652 -528.519)" fill="#fecb2f"/>
      <g id="Grupo_904290" data-name="Grupo 904290" transform="translate(10.924 7.154)">
        <path id="Trazado_632948" data-name="Trazado 632948" d="M2934.317,664.8c.941-.493,1.671-.036,1.631,1.02a3.659,3.659,0,0,1-1.778,2.8c-.941.492-1.67.035-1.63-1.021A3.66,3.66,0,0,1,2934.317,664.8Z" transform="translate(-2932.538 -650.895)" fill="#e6db93" style="mix-blend-mode: multiply;isolation: isolate"/>
        <path id="Trazado_632949" data-name="Trazado 632949" d="M2934.855,583.518c.746-.419,1.9-.411,1.817.732l-.735,7.448a1.993,1.993,0,0,1-.92,1.86c-.706.37-1.262.046-1.256-.733l-.62-8.238A13.292,13.292,0,0,1,2934.855,583.518Z" transform="translate(-2933.053 -581.416)" fill="#e6db93" style="mix-blend-mode: multiply;isolation: isolate"/>
        <path id="Trazado_632950" data-name="Trazado 632950" d="M2941.8,661a1.176,1.176,0,0,0-1.19.067,3.658,3.658,0,0,0-1.777,2.8,1.167,1.167,0,0,0,.441,1.088l.635.4a1.166,1.166,0,0,1-.442-1.088,3.658,3.658,0,0,1,1.777-2.8,1.176,1.176,0,0,1,1.19-.067Z" transform="translate(-2937.916 -647.704)" fill="#aa1749"/>
        <path id="Trazado_632951" data-name="Trazado 632951" d="M2944.965,663.822c.941-.493,1.671-.036,1.63,1.02a3.659,3.659,0,0,1-1.778,2.8c-.941.492-1.671.035-1.63-1.021A3.66,3.66,0,0,1,2944.965,663.822Z" transform="translate(-2941.633 -650.057)" fill="#ef3c79"/>
        <path id="Trazado_632952" data-name="Trazado 632952" d="M2936.2,570.725a1.212,1.212,0,0,0-1.227.069,3.757,3.757,0,0,0-1.837,2.965s1.007,5.631,1.334,7.654a1.256,1.256,0,0,0,.387.849l.694.447a.965.965,0,0,1-.36-.824l-.177-6.929a3.758,3.758,0,0,1,1.837-2.965,1.245,1.245,0,0,1,1.234-.108Z" transform="translate(-2933.053 -570.59)" fill="#aa1749"/>
        <path id="Trazado_632953" data-name="Trazado 632953" d="M2947.846,578.816c1-.525,1.768-.011,1.689,1.132l-.735,7.447a2.828,2.828,0,0,1-1.366,2.106c-.706.37-1.261.046-1.256-.733L2946,581.8A3.779,3.779,0,0,1,2947.846,578.816Z" transform="translate(-2944.036 -577.44)" fill="#ef3c79"/>
      </g>
    </g>
  </g>
</svg>
