<svg xmlns="http://www.w3.org/2000/svg" width="75.826" height="81.43" viewBox="0 0 75.826 81.43">
  <g id="Grupo_904168" data-name="Grupo 904168" transform="translate(-1131.672 -541.296)">
    <g id="Grupo_903995" data-name="Grupo 903995" transform="translate(1156.871 541.296)">
      <path id="Trazado_632451" data-name="Trazado 632451" d="M1222.753,643.337l-16.5-9.52,2.681-1.548c.427-.247.474-.621.1-.835l-15.384-8.845a1.606,1.606,0,0,0-1.445.06l-2.657,1.534-15.668-9.039a.945.945,0,0,0-.85.035l-.549.317c-.251.145-.279.365-.061.49l15.668,9.039-4.672,2.7c-.428.247-.474.621-.1.835L1198.7,637.4a1.608,1.608,0,0,0,1.445-.06l4.648-2.684,16.5,9.52a.946.946,0,0,0,.85-.035l.549-.317C1222.944,643.682,1222.971,643.463,1222.753,643.337Z" transform="translate(-1172.273 -569.278)" fill="#afafaf" opacity="0.71"/>
      <g id="Grupo_903989" data-name="Grupo 903989" transform="translate(12.781 40.701)">
        <path id="Trazado_632452" data-name="Trazado 632452" d="M1215.1,626.777l-.145.747-.377.717-.868.634-.621.452-2.818,1.574-3.6,2.267-13.75-7.949,0-.006a.173.173,0,0,1-.057-.139.527.527,0,0,1,.241-.415l6.641-3.846.3-.171a2.381,2.381,0,0,0,.918-1.042,1.69,1.69,0,0,0,.153-1.215l-3.844-11.074.457-.436,13.751,7.945-.051,1.038,1.582,4.248,1.231,3.643.79,2.09Z" transform="translate(-1192.866 -606.875)" fill="#ccc"/>
        <path id="Trazado_632453" data-name="Trazado 632453" d="M1213.709,637.394l-.621.452-2.818,1.574-3.6,2.267-13.75-7.949,0-.006a.173.173,0,0,1-.057-.139.527.527,0,0,1,.241-.415l6.641-3.846Z" transform="translate(-1192.866 -615.394)" fill="#e6e6e6"/>
        <path id="Trazado_632454" data-name="Trazado 632454" d="M1222.187,634.006l-6.928,4.009c-.133.077-.241.016-.241-.138h0a.531.531,0,0,1,.241-.416l6.938-4.016a2.393,2.393,0,0,0,.917-1.043,1.694,1.694,0,0,0,.153-1.215l-3.844-11.072.458-.439,3.844,11.072a2.41,2.41,0,0,1-.195,1.7A3.469,3.469,0,0,1,1222.187,634.006Z" transform="translate(-1201.269 -611.731)" fill="#a6a6a6"/>
      </g>
      <g id="Grupo_903994" data-name="Grupo 903994" transform="translate(0.119)">
        <g id="Grupo_903992" data-name="Grupo 903992">
          <g id="Grupo_903991" data-name="Grupo 903991" style="isolation: isolate">
            <path id="Trazado_632455" data-name="Trazado 632455" d="M1221.938,568.633l-47.093-27.189a.758.758,0,0,0-.766-.075l-.943.548a.76.76,0,0,1,.766.075l47.093,27.189a2.363,2.363,0,0,1,1.071,1.856l-.1,36.149a.75.75,0,0,1-.313.689l.943-.548a.752.752,0,0,0,.313-.69l.1-36.149A2.364,2.364,0,0,0,1221.938,568.633Z" transform="translate(-1172.719 -541.296)" fill="#595959"/>
            <path id="Trazado_632456" data-name="Trazado 632456" d="M1252.576,636.366l-.019,6.336a.751.751,0,0,1-.313.69l-.942.549a.751.751,0,0,0,.313-.69l.019-6.341Z" transform="translate(-1202.372 -577.361)" fill="#bfbfbf"/>
            <g id="Grupo_903990" data-name="Grupo 903990" transform="translate(0 0.549)">
              <path id="Trazado_632457" data-name="Trazado 632457" d="M1221.811,571.373l-.1,36.149c0,.682-.485.955-1.079.616l-47.091-27.19a2.352,2.352,0,0,1-1.074-1.858l.1-36.149c0-.68.485-.955,1.082-.613l47.091,27.19A2.356,2.356,0,0,1,1221.811,571.373Z" transform="translate(-1172.465 -542.181)" fill="#333"/>
            </g>
          </g>
        </g>
        <path id="Trazado_632458" data-name="Trazado 632458" d="M1221.727,619.872l-.019,6.336c0,.682-.485.955-1.079.616l-47.091-27.19a2.352,2.352,0,0,1-1.074-1.858l.019-6.336Z" transform="translate(-1172.465 -560.319)" fill="#d9d9d9"/>
        <path id="Trazado_632459" data-name="Trazado 632459" d="M1221.56,599.924,1175.225,573.1V546.286l46.335,26.827Z" transform="translate(-1173.512 -543.189)" fill="#3781be"/>
        <g id="Grupo_903993" data-name="Grupo 903993" transform="translate(5.274 8.136)">
          <path id="Trazado_632460" data-name="Trazado 632460" d="M1182.572,556.135l-1.247-.719a.871.871,0,0,1-.362-.693h0c0-.268.163-.39.362-.274l1.247.72a.868.868,0,0,1,.363.693h0C1182.935,556.129,1182.773,556.251,1182.572,556.135Z" transform="translate(-1180.963 -554.405)" fill="#0b5999"/>
          <path id="Trazado_632461" data-name="Trazado 632461" d="M1182.572,583.469l-1.247-.719a.871.871,0,0,1-.362-.693h0c0-.268.163-.39.362-.274l1.247.72a.868.868,0,0,1,.363.693h0C1182.935,583.462,1182.773,583.585,1182.572,583.469Z" transform="translate(-1180.963 -564.774)" fill="#0b5999"/>
          <path id="Trazado_632462" data-name="Trazado 632462" d="M1187.46,586.291l-2.5-1.441a.868.868,0,0,1-.363-.693h0c0-.268.163-.39.363-.274l2.5,1.441a.868.868,0,0,1,.363.693h0C1187.823,586.285,1187.661,586.407,1187.46,586.291Z" transform="translate(-1182.343 -565.571)" fill="#fecb2f"/>
          <path id="Trazado_632463" data-name="Trazado 632463" d="M1198.617,592.732l-7.977-4.6a.869.869,0,0,1-.362-.693h0c0-.268.162-.39.362-.274l7.977,4.605a.868.868,0,0,1,.362.693h0C1198.979,592.726,1198.818,592.849,1198.617,592.732Z" transform="translate(-1184.497 -566.814)" fill="#ef3c79"/>
          <path id="Trazado_632464" data-name="Trazado 632464" d="M1188.956,559.821l-3.781-2.183a.869.869,0,0,1-.363-.693h0c0-.267.162-.39.363-.274l3.781,2.183a.871.871,0,0,1,.363.693h0C1189.319,559.814,1189.156,559.936,1188.956,559.821Z" transform="translate(-1182.423 -555.248)" fill="#fecb2f"/>
          <path id="Trazado_632465" data-name="Trazado 632465" d="M1204.5,568.8l-11.368-6.564a.868.868,0,0,1-.363-.693h0c0-.267.163-.39.363-.274l11.368,6.563a.87.87,0,0,1,.363.693h0C1204.863,568.788,1204.7,568.911,1204.5,568.8Z" transform="translate(-1185.441 -556.99)" fill="#ef3c79"/>
          <path id="Trazado_632466" data-name="Trazado 632466" d="M1184.464,559.9l-1.246-.72a.868.868,0,0,1-.363-.693h0c0-.267.163-.39.363-.274l1.246.72a.87.87,0,0,1,.363.693h0C1184.827,559.893,1184.665,560.015,1184.464,559.9Z" transform="translate(-1181.681 -555.833)" fill="#0b5999"/>
          <path id="Trazado_632467" data-name="Trazado 632467" d="M1190.847,563.586l-3.781-2.183a.868.868,0,0,1-.362-.693h0c0-.267.162-.39.362-.274l3.781,2.183a.868.868,0,0,1,.363.693h0C1191.21,563.578,1191.048,563.7,1190.847,563.586Z" transform="translate(-1183.141 -556.676)" fill="#fecb2f"/>
          <path id="Trazado_632468" data-name="Trazado 632468" d="M1206.392,572.56,1195.023,566a.868.868,0,0,1-.363-.693h0c0-.267.162-.39.363-.274l11.369,6.564a.868.868,0,0,1,.363.693h0C1206.755,572.553,1206.592,572.676,1206.392,572.56Z" transform="translate(-1186.159 -558.419)" fill="#ef3c79"/>
          <path id="Trazado_632469" data-name="Trazado 632469" d="M1184.464,562.8l-1.246-.72a.868.868,0,0,1-.363-.693h0c0-.267.163-.39.363-.274l1.246.72a.868.868,0,0,1,.363.693h0C1184.827,562.788,1184.665,562.91,1184.464,562.8Z" transform="translate(-1181.681 -556.931)" fill="#0b5999"/>
          <path id="Trazado_632470" data-name="Trazado 632470" d="M1184.464,565.541l-1.246-.72a.868.868,0,0,1-.363-.693h0c0-.268.163-.39.363-.274l1.246.719a.87.87,0,0,1,.363.693h0C1184.827,565.534,1184.665,565.657,1184.464,565.541Z" transform="translate(-1181.681 -557.973)" fill="#0b5999"/>
          <path id="Trazado_632471" data-name="Trazado 632471" d="M1184.464,576.619l-1.246-.719a.87.87,0,0,1-.363-.693h0c0-.268.163-.39.363-.274l1.246.72a.868.868,0,0,1,.363.693h0C1184.827,576.613,1184.665,576.735,1184.464,576.619Z" transform="translate(-1181.681 -562.176)" fill="#0b5999"/>
          <path id="Trazado_632472" data-name="Trazado 632472" d="M1184.464,579.316l-1.246-.719a.87.87,0,0,1-.363-.693h0c0-.268.163-.39.363-.274l1.246.72a.868.868,0,0,1,.363.693h0C1184.827,579.31,1184.665,579.432,1184.464,579.316Z" transform="translate(-1181.681 -563.199)" fill="#0b5999"/>
          <path id="Trazado_632473" data-name="Trazado 632473" d="M1184.464,587.011l-1.246-.719a.87.87,0,0,1-.363-.693h0c0-.268.163-.39.363-.274l1.246.719a.87.87,0,0,1,.363.693h0C1184.827,587,1184.665,587.127,1184.464,587.011Z" transform="translate(-1181.681 -566.118)" fill="#0b5999"/>
          <path id="Trazado_632474" data-name="Trazado 632474" d="M1189.234,589.765l-2.425-1.4a.868.868,0,0,1-.363-.693h0c0-.267.163-.39.363-.274l2.425,1.4a.87.87,0,0,1,.363.693h0C1189.6,589.758,1189.434,589.88,1189.234,589.765Z" transform="translate(-1183.042 -566.904)" fill="#fecb2f"/>
          <path id="Trazado_632475" data-name="Trazado 632475" d="M1200.8,596.443l-8.292-4.788a.868.868,0,0,1-.363-.693h0c0-.267.163-.39.363-.274l8.292,4.788a.868.868,0,0,1,.363.693h0C1201.164,596.436,1201,596.559,1200.8,596.443Z" transform="translate(-1185.205 -568.152)" fill="#ef3c79"/>
          <path id="Trazado_632476" data-name="Trazado 632476" d="M1212.263,595.366l-1.247-.72a.867.867,0,0,1-.363-.693h0c0-.267.162-.39.363-.274l1.247.719a.87.87,0,0,1,.362.693h0C1212.626,595.359,1212.464,595.482,1212.263,595.366Z" transform="translate(-1192.226 -569.287)" fill="#0b5999"/>
          <path id="Trazado_632477" data-name="Trazado 632477" d="M1183.332,567.318l-1.246-.719a.87.87,0,0,1-.363-.693h0c0-.267.162-.39.363-.274l1.246.72a.868.868,0,0,1,.363.693h0C1183.7,567.312,1183.533,567.434,1183.332,567.318Z" transform="translate(-1181.251 -558.647)" fill="#0b5999"/>
          <path id="Trazado_632478" data-name="Trazado 632478" d="M1188.191,570.124l-2.386-1.378a.868.868,0,0,1-.363-.693h0c0-.267.163-.39.363-.274l2.386,1.378a.868.868,0,0,1,.363.693h0C1188.554,570.116,1188.391,570.239,1188.191,570.124Z" transform="translate(-1182.662 -559.462)" fill="#fecb2f"/>
          <path id="Trazado_632479" data-name="Trazado 632479" d="M1209.288,582.3l-1.683-.972a.868.868,0,0,1-.363-.693h0c0-.267.162-.39.363-.274l1.683.972a.869.869,0,0,1,.363.693h0C1209.651,582.3,1209.488,582.419,1209.288,582.3Z" transform="translate(-1190.932 -564.236)" fill="#fecb2f"/>
          <path id="Trazado_632480" data-name="Trazado 632480" d="M1195.266,574.208l-3.881-2.241a.868.868,0,0,1-.363-.693h0c0-.267.162-.39.363-.274l3.881,2.241a.869.869,0,0,1,.362.693h0C1195.628,574.2,1195.467,574.324,1195.266,574.208Z" transform="translate(-1184.779 -560.684)" fill="#ef3c79"/>
          <path id="Trazado_632481" data-name="Trazado 632481" d="M1183.332,570.325l-1.246-.72a.868.868,0,0,1-.363-.693h0c0-.267.162-.39.363-.274l1.246.72a.869.869,0,0,1,.363.693h0C1183.7,570.318,1183.533,570.44,1183.332,570.325Z" transform="translate(-1181.251 -559.788)" fill="#0b5999"/>
          <path id="Trazado_632482" data-name="Trazado 632482" d="M1183.332,581.292l-1.246-.72a.868.868,0,0,1-.363-.693h0c0-.267.162-.39.363-.274l1.246.72a.868.868,0,0,1,.363.693h0C1183.7,581.285,1183.533,581.407,1183.332,581.292Z" transform="translate(-1181.251 -563.948)" fill="#0b5999"/>
          <path id="Trazado_632483" data-name="Trazado 632483" d="M1188.191,573.13l-2.386-1.378a.868.868,0,0,1-.363-.693h0c0-.268.163-.39.363-.274l2.386,1.377a.868.868,0,0,1,.363.693h0C1188.554,573.123,1188.391,573.246,1188.191,573.13Z" transform="translate(-1182.662 -560.602)" fill="#fecb2f"/>
          <path id="Trazado_632484" data-name="Trazado 632484" d="M1188.682,581.751l-1.583-.914a.868.868,0,0,1-.363-.693h0c0-.268.163-.39.363-.274l1.583.914a.87.87,0,0,1,.363.693h0C1189.045,581.744,1188.882,581.867,1188.682,581.751Z" transform="translate(-1183.153 -564.049)" fill="#fecb2f"/>
          <path id="Trazado_632485" data-name="Trazado 632485" d="M1199.6,588.054l-1.583-.914a.871.871,0,0,1-.362-.693h0c0-.268.163-.39.362-.274l1.583.914a.869.869,0,0,1,.362.693h0C1199.96,588.047,1199.8,588.17,1199.6,588.054Z" transform="translate(-1187.294 -566.439)" fill="#fecb2f"/>
          <path id="Trazado_632486" data-name="Trazado 632486" d="M1205.175,586l-21.02-12.136a.869.869,0,0,1-.363-.693h0c0-.267.163-.39.363-.274l21.02,12.136a.867.867,0,0,1,.362.693h0C1205.537,585.99,1205.376,586.113,1205.175,586Z" transform="translate(-1182.037 -561.402)" fill="#21cbae"/>
          <path id="Trazado_632487" data-name="Trazado 632487" d="M1194.383,576.7l-3-1.73a.869.869,0,0,1-.363-.693h0c0-.268.162-.39.363-.274l3,1.731a.869.869,0,0,1,.363.693h0C1194.745,576.7,1194.583,576.82,1194.383,576.7Z" transform="translate(-1184.779 -561.824)" fill="#ef3c79"/>
          <path id="Trazado_632488" data-name="Trazado 632488" d="M1194.383,585.043l-3-1.731a.869.869,0,0,1-.363-.693h0c0-.268.162-.39.363-.274l3,1.731a.87.87,0,0,1,.363.693h0C1194.745,585.036,1194.583,585.159,1194.383,585.043Z" transform="translate(-1184.779 -564.987)" fill="#ef3c79"/>
          <path id="Trazado_632489" data-name="Trazado 632489" d="M1206.63,592.114l-4.233-2.443a.869.869,0,0,1-.363-.693h0c0-.267.163-.39.363-.274l4.233,2.443a.871.871,0,0,1,.362.693h0C1206.992,592.107,1206.83,592.23,1206.63,592.114Z" transform="translate(-1188.956 -567.399)" fill="#21cbae"/>
          <path id="Trazado_632490" data-name="Trazado 632490" d="M1203.562,579l-3.881-2.241a.867.867,0,0,1-.363-.693h0c0-.267.162-.39.363-.274l3.881,2.241a.868.868,0,0,1,.362.693h0C1203.924,578.991,1203.762,579.114,1203.562,579Z" transform="translate(-1187.926 -562.501)" fill="#21cbae"/>
          <path id="Trazado_632491" data-name="Trazado 632491" d="M1190.847,566.48l-3.781-2.183a.868.868,0,0,1-.362-.693h0c0-.267.162-.39.362-.274l3.781,2.183a.868.868,0,0,1,.363.693h0C1191.21,566.473,1191.048,566.6,1190.847,566.48Z" transform="translate(-1183.141 -557.774)" fill="#fecb2f"/>
          <path id="Trazado_632492" data-name="Trazado 632492" d="M1203.947,574.043l-3.781-2.183a.869.869,0,0,1-.362-.693h0c0-.267.162-.39.362-.274l3.781,2.183a.87.87,0,0,1,.363.693h0C1204.309,574.036,1204.147,574.158,1203.947,574.043Z" transform="translate(-1188.11 -560.643)" fill="#fecb2f"/>
          <path id="Trazado_632493" data-name="Trazado 632493" d="M1196.937,570l-1.914-1.1a.87.87,0,0,1-.363-.693h0c0-.268.162-.39.363-.274l1.914,1.105a.867.867,0,0,1,.362.693h0C1197.3,569.989,1197.138,570.112,1196.937,570Z" transform="translate(-1186.159 -559.517)" fill="#ef3c79"/>
          <path id="Trazado_632494" data-name="Trazado 632494" d="M1214.49,580.13l-6.174-3.565a.868.868,0,0,1-.363-.693h0c0-.268.163-.39.363-.274l6.174,3.565a.868.868,0,0,1,.363.693h0C1214.853,580.123,1214.691,580.246,1214.49,580.13Z" transform="translate(-1191.202 -562.428)" fill="#ef3c79"/>
          <path id="Trazado_632495" data-name="Trazado 632495" d="M1184.464,589.461l-1.246-.72a.868.868,0,0,1-.363-.693h0c0-.267.163-.39.363-.274l1.246.72a.868.868,0,0,1,.363.693h0C1184.827,589.454,1184.665,589.576,1184.464,589.461Z" transform="translate(-1181.681 -567.047)" fill="#0b5999"/>
          <path id="Trazado_632496" data-name="Trazado 632496" d="M1190.847,593.146l-3.781-2.183a.868.868,0,0,1-.362-.693h0c0-.267.162-.39.362-.274l3.781,2.183a.868.868,0,0,1,.363.693h0C1191.21,593.139,1191.048,593.262,1190.847,593.146Z" transform="translate(-1183.141 -567.89)" fill="#fecb2f"/>
          <path id="Trazado_632497" data-name="Trazado 632497" d="M1203.947,600.709l-3.781-2.183a.869.869,0,0,1-.362-.693h0c0-.268.162-.39.362-.274l3.781,2.183a.87.87,0,0,1,.363.693h0C1204.309,600.7,1204.147,600.824,1203.947,600.709Z" transform="translate(-1188.11 -570.759)" fill="#fecb2f"/>
          <path id="Trazado_632498" data-name="Trazado 632498" d="M1196.937,596.662l-1.914-1.1a.87.87,0,0,1-.363-.693h0c0-.268.162-.39.363-.274l1.914,1.105a.868.868,0,0,1,.362.693h0C1197.3,596.655,1197.138,596.778,1196.937,596.662Z" transform="translate(-1186.159 -569.632)" fill="#ef3c79"/>
          <path id="Trazado_632499" data-name="Trazado 632499" d="M1214.49,606.8l-6.174-3.565a.868.868,0,0,1-.363-.693h0c0-.268.163-.39.363-.274l6.174,3.565a.868.868,0,0,1,.363.693h0C1214.853,606.789,1214.691,606.912,1214.49,606.8Z" transform="translate(-1191.202 -572.544)" fill="#ef3c79"/>
        </g>
      </g>
    </g>
    <g id="Grupo_904161" data-name="Grupo 904161" transform="translate(1131.672 594.039)">
      <g id="Grupo_903996" data-name="Grupo 903996">
        <path id="Trazado_632500" data-name="Trazado 632500" d="M1165.527,655.563l-33.667-19.438c-.279-.161-.244-.442.078-.628l12.473-7.2a1.209,1.209,0,0,1,1.087-.045l33.667,19.438c.279.161.243.441-.078.627l-12.473,7.2A1.209,1.209,0,0,1,1165.527,655.563Z" transform="translate(-1131.672 -626.984)" fill="#afafaf" opacity="0.66"/>
        <path id="Trazado_632501" data-name="Trazado 632501" d="M1177.71,645.791v.48L1146.756,628.4a1.148,1.148,0,0,0-1.031.042l-10.842,6.26v-.326h-1.246l.012,1.238a.3.3,0,0,0,.169.256l31.941,18.441a1.147,1.147,0,0,0,1.031-.042l11.834-6.833a.421.421,0,0,0,.246-.327l.006-1.241Z" transform="translate(-1132.417 -627.043)" fill="#bfbfbf"/>
        <path id="Trazado_632502" data-name="Trazado 632502" d="M1165.76,652.291l-31.941-18.441c-.264-.153-.231-.419.074-.6l11.833-6.832a1.146,1.146,0,0,1,1.031-.043L1178.7,644.82c.264.153.231.419-.074.6l-11.834,6.832A1.145,1.145,0,0,1,1165.76,652.291Z" transform="translate(-1132.418 -626.276)" fill="#d9d9d9"/>
      </g>
      <g id="Grupo_904160" data-name="Grupo 904160" transform="translate(2.141 0.424)">
        <g id="Grupo_903998" data-name="Grupo 903998" transform="translate(10.564)" style="isolation: isolate">
          <path id="Trazado_632503" data-name="Trazado 632503" d="M1155.246,628.587l-1.044.606a.294.294,0,0,1-.266,0l-1.739-1a.094.094,0,0,1-.055-.077v.186a.092.092,0,0,0,.055.077l1.739,1a.294.294,0,0,0,.266,0l1.044-.606a.094.094,0,0,0,.055-.077v-.186A.094.094,0,0,1,1155.246,628.587Z" transform="translate(-1152.142 -627.397)" fill="#1f2125"/>
          <g id="Grupo_903997" data-name="Grupo 903997" transform="translate(0)">
            <path id="Trazado_632504" data-name="Trazado 632504" d="M1155.245,627.995a.082.082,0,0,1,0,.155l-1.044.606a.293.293,0,0,1-.266,0l-1.739-1a.081.081,0,0,1,0-.153l1.043-.606a.292.292,0,0,1,.266,0Z" transform="translate(-1152.142 -626.959)" fill="#4d4d4d"/>
          </g>
        </g>
        <g id="Grupo_904000" data-name="Grupo 904000" transform="translate(8.443 0.904)" style="isolation: isolate">
          <path id="Trazado_632505" data-name="Trazado 632505" d="M1152.3,630.2l-1.592.925a.343.343,0,0,1-.311,0l-1.6-.925a.112.112,0,0,1-.064-.091v.187a.11.11,0,0,0,.065.091l1.6.925a.343.343,0,0,0,.311,0l1.592-.925a.11.11,0,0,0,.064-.089v-.187A.11.11,0,0,1,1152.3,630.2Z" transform="translate(-1148.725 -629.058)" fill="#1f2125"/>
          <g id="Grupo_903999" data-name="Grupo 903999" transform="translate(0.001)">
            <path id="Trazado_632506" data-name="Trazado 632506" d="M1152.295,629.377a.1.1,0,0,1,0,.181l-1.592.925a.343.343,0,0,1-.311,0l-1.6-.925a.1.1,0,0,1,0-.181l1.591-.925a.344.344,0,0,1,.312,0Z" transform="translate(-1148.726 -628.415)" fill="#4d4d4d"/>
          </g>
        </g>
        <g id="Grupo_904002" data-name="Grupo 904002" transform="translate(12.771 1.275)" style="isolation: isolate">
          <path id="Trazado_632507" data-name="Trazado 632507" d="M1158.729,630.6l-1.048.609a.287.287,0,0,1-.26,0l-1.668-.963a.091.091,0,0,1-.054-.075v.186a.091.091,0,0,0,.054.075l1.668.963a.288.288,0,0,0,.26,0l1.048-.609a.092.092,0,0,0,.054-.076v-.186A.092.092,0,0,1,1158.729,630.6Z" transform="translate(-1155.698 -629.451)" fill="#1f2125"/>
          <g id="Grupo_904001" data-name="Grupo 904001" transform="translate(0.001)">
            <path id="Trazado_632508" data-name="Trazado 632508" d="M1158.73,630.007a.08.08,0,0,1,0,.151l-1.048.609a.287.287,0,0,1-.26,0l-1.668-.963c-.072-.041-.072-.109,0-.151l1.048-.609a.286.286,0,0,1,.261,0Z" transform="translate(-1155.699 -629.013)" fill="#4d4d4d"/>
          </g>
        </g>
        <g id="Grupo_904004" data-name="Grupo 904004" transform="translate(10.658 2.182)" style="isolation: isolate">
          <path id="Trazado_632509" data-name="Trazado 632509" d="M1155.866,632.261l-1.592.925a.343.343,0,0,1-.312,0l-1.6-.924a.112.112,0,0,1-.067-.092v.186a.112.112,0,0,0,.066.092l1.6.924a.344.344,0,0,0,.312,0l1.592-.925a.11.11,0,0,0,.064-.089v-.186A.109.109,0,0,1,1155.866,632.261Z" transform="translate(-1152.294 -631.118)" fill="#1f2125"/>
          <g id="Grupo_904003" data-name="Grupo 904003" transform="translate(0.001)">
            <path id="Trazado_632510" data-name="Trazado 632510" d="M1155.864,631.438c.088.05.088.131,0,.181l-1.592.925a.342.342,0,0,1-.312,0l-1.6-.924c-.088-.051-.088-.132,0-.181l1.591-.925a.343.343,0,0,1,.313,0Z" transform="translate(-1152.295 -630.475)" fill="#4d4d4d"/>
          </g>
        </g>
        <g id="Grupo_904006" data-name="Grupo 904006" transform="translate(14.943 2.529)" style="isolation: isolate">
          <path id="Trazado_632511" data-name="Trazado 632511" d="M1162.231,632.617l-1.048.61a.291.291,0,0,1-.262,0l-1.666-.962a.093.093,0,0,1-.055-.076v.186a.093.093,0,0,0,.055.076l1.666.962a.287.287,0,0,0,.262,0l1.048-.609a.093.093,0,0,0,.054-.076v-.186A.091.091,0,0,1,1162.231,632.617Z" transform="translate(-1159.199 -631.472)" fill="#1f2125"/>
          <g id="Grupo_904005" data-name="Grupo 904005" transform="translate(0.001)">
            <path id="Trazado_632512" data-name="Trazado 632512" d="M1162.23,632.028c.073.042.073.109,0,.151l-1.048.609a.291.291,0,0,1-.262,0l-1.666-.962c-.073-.042-.074-.11,0-.152l1.048-.609a.286.286,0,0,1,.262,0Z" transform="translate(-1159.2 -631.034)" fill="#4d4d4d"/>
          </g>
        </g>
        <g id="Grupo_904008" data-name="Grupo 904008" transform="translate(17.118 3.784)" style="isolation: isolate">
          <path id="Trazado_632513" data-name="Trazado 632513" d="M1165.734,634.639l-1.048.609a.289.289,0,0,1-.262,0l-1.668-.963a.092.092,0,0,1-.054-.076v.187a.091.091,0,0,0,.053.075l1.668.963a.289.289,0,0,0,.262,0l1.048-.609a.092.092,0,0,0,.053-.075v-.186A.093.093,0,0,1,1165.734,634.639Z" transform="translate(-1162.702 -633.494)" fill="#1f2125"/>
          <g id="Grupo_904007" data-name="Grupo 904007" transform="translate(0)">
            <path id="Trazado_632514" data-name="Trazado 632514" d="M1165.733,634.05a.081.081,0,0,1,0,.152l-1.048.609a.289.289,0,0,1-.262,0l-1.668-.963a.08.08,0,0,1,0-.151l1.048-.609a.285.285,0,0,1,.26,0Z" transform="translate(-1162.702 -633.056)" fill="#4d4d4d"/>
          </g>
        </g>
        <g id="Grupo_904010" data-name="Grupo 904010" transform="translate(19.291 5.039)" style="isolation: isolate">
          <path id="Trazado_632515" data-name="Trazado 632515" d="M1169.234,636.661l-1.048.609a.287.287,0,0,1-.261,0l-1.667-.963a.093.093,0,0,1-.055-.076v.186a.091.091,0,0,0,.055.076l1.668.963a.288.288,0,0,0,.261,0l1.048-.609a.092.092,0,0,0,.054-.076v-.186A.093.093,0,0,1,1169.234,636.661Z" transform="translate(-1166.203 -635.515)" fill="#1f2125"/>
          <g id="Grupo_904009" data-name="Grupo 904009" transform="translate(0)">
            <path id="Trazado_632516" data-name="Trazado 632516" d="M1169.235,636.072a.08.08,0,0,1,0,.151l-1.048.609a.286.286,0,0,1-.261,0l-1.668-.963c-.073-.042-.073-.109,0-.151l1.048-.609a.29.29,0,0,1,.262,0Z" transform="translate(-1166.203 -635.078)" fill="#4d4d4d"/>
          </g>
        </g>
        <g id="Grupo_904012" data-name="Grupo 904012" transform="translate(21.465 6.294)" style="isolation: isolate">
          <path id="Trazado_632517" data-name="Trazado 632517" d="M1172.737,638.682l-1.048.609a.289.289,0,0,1-.261,0l-1.666-.963a.093.093,0,0,1-.055-.076v.187a.091.091,0,0,0,.054.076l1.667.962a.287.287,0,0,0,.262,0l1.048-.609a.091.091,0,0,0,.054-.075v-.186A.092.092,0,0,1,1172.737,638.682Z" transform="translate(-1169.706 -637.537)" fill="#1f2125"/>
          <g id="Grupo_904011" data-name="Grupo 904011" transform="translate(0)">
            <path id="Trazado_632518" data-name="Trazado 632518" d="M1172.737,638.094c.073.042.073.109,0,.151l-1.048.609a.289.289,0,0,1-.261,0l-1.667-.963a.08.08,0,0,1,0-.151l1.048-.609a.287.287,0,0,1,.262,0Z" transform="translate(-1169.706 -637.1)" fill="#4d4d4d"/>
          </g>
        </g>
        <g id="Grupo_904014" data-name="Grupo 904014" transform="translate(23.638 7.549)" style="isolation: isolate">
          <path id="Trazado_632519" data-name="Trazado 632519" d="M1176.239,640.7l-1.048.61a.288.288,0,0,1-.26,0l-1.668-.963a.093.093,0,0,1-.053-.076v.187a.093.093,0,0,0,.054.075l1.668.963a.285.285,0,0,0,.26,0l1.048-.609a.092.092,0,0,0,.054-.075v-.187A.092.092,0,0,1,1176.239,640.7Z" transform="translate(-1173.208 -639.56)" fill="#1f2125"/>
          <g id="Grupo_904013" data-name="Grupo 904013" transform="translate(0.001)">
            <path id="Trazado_632520" data-name="Trazado 632520" d="M1176.24,640.116a.08.08,0,0,1,0,.151l-1.048.61a.289.289,0,0,1-.26,0l-1.668-.963a.08.08,0,0,1,0-.151l1.048-.609a.286.286,0,0,1,.261,0Z" transform="translate(-1173.209 -639.122)" fill="#4d4d4d"/>
          </g>
        </g>
        <g id="Grupo_904016" data-name="Grupo 904016" transform="translate(25.811 8.803)" style="isolation: isolate">
          <path id="Trazado_632521" data-name="Trazado 632521" d="M1179.74,642.727l-1.048.609a.287.287,0,0,1-.262,0l-1.667-.962a.093.093,0,0,1-.055-.076v.186a.092.092,0,0,0,.055.076l1.666.962a.287.287,0,0,0,.262,0l1.048-.609a.092.092,0,0,0,.054-.076v-.186A.092.092,0,0,1,1179.74,642.727Z" transform="translate(-1176.709 -641.581)" fill="#1f2125"/>
          <g id="Grupo_904015" data-name="Grupo 904015" transform="translate(0)">
            <path id="Trazado_632522" data-name="Trazado 632522" d="M1179.74,642.137a.08.08,0,0,1,0,.152l-1.048.609a.287.287,0,0,1-.262,0l-1.667-.962c-.073-.042-.073-.11,0-.151l1.048-.609a.285.285,0,0,1,.261,0Z" transform="translate(-1176.71 -641.143)" fill="#4d4d4d"/>
          </g>
        </g>
        <g id="Grupo_904018" data-name="Grupo 904018" transform="translate(27.985 10.059)" style="isolation: isolate">
          <path id="Trazado_632523" data-name="Trazado 632523" d="M1183.242,644.748l-1.048.609a.285.285,0,0,1-.26,0l-1.668-.963a.091.091,0,0,1-.054-.075v.186a.091.091,0,0,0,.054.075l1.668.963a.288.288,0,0,0,.261,0l1.048-.609a.093.093,0,0,0,.055-.076v-.186A.093.093,0,0,1,1183.242,644.748Z" transform="translate(-1180.211 -643.604)" fill="#1f2125"/>
          <g id="Grupo_904017" data-name="Grupo 904017" transform="translate(0.001)">
            <path id="Trazado_632524" data-name="Trazado 632524" d="M1183.243,644.16a.08.08,0,0,1,0,.151l-1.048.609a.285.285,0,0,1-.26,0l-1.668-.963a.08.08,0,0,1,0-.151l1.048-.609a.288.288,0,0,1,.261,0Z" transform="translate(-1180.212 -643.166)" fill="#4d4d4d"/>
          </g>
        </g>
        <g id="Grupo_904020" data-name="Grupo 904020" transform="translate(30.158 11.313)" style="isolation: isolate">
          <path id="Trazado_632525" data-name="Trazado 632525" d="M1186.744,646.769l-1.048.609a.285.285,0,0,1-.261,0l-1.667-.962a.093.093,0,0,1-.055-.076v.187a.093.093,0,0,0,.055.076l1.666.963a.291.291,0,0,0,.262,0l1.048-.609a.092.092,0,0,0,.054-.075v-.186A.092.092,0,0,1,1186.744,646.769Z" transform="translate(-1183.712 -645.624)" fill="#1f2125"/>
          <g id="Grupo_904019" data-name="Grupo 904019" transform="translate(0.001)">
            <path id="Trazado_632526" data-name="Trazado 632526" d="M1186.744,646.181c.073.042.073.109,0,.151l-1.048.609a.285.285,0,0,1-.261,0l-1.667-.962a.08.08,0,0,1,0-.151l1.048-.609a.286.286,0,0,1,.262,0Z" transform="translate(-1183.713 -645.187)" fill="#4d4d4d"/>
          </g>
        </g>
        <g id="Grupo_904022" data-name="Grupo 904022" transform="translate(32.332 12.568)" style="isolation: isolate">
          <path id="Trazado_632527" data-name="Trazado 632527" d="M1190.247,648.792l-1.048.609a.289.289,0,0,1-.261,0l-1.668-.963a.092.092,0,0,1-.053-.075v.186a.093.093,0,0,0,.053.076l1.668.963a.288.288,0,0,0,.261,0l1.048-.609a.092.092,0,0,0,.053-.076v-.186A.09.09,0,0,1,1190.247,648.792Z" transform="translate(-1187.215 -647.647)" fill="#1f2125"/>
          <g id="Grupo_904021" data-name="Grupo 904021" transform="translate(0)">
            <path id="Trazado_632528" data-name="Trazado 632528" d="M1190.246,648.2c.071.042.073.11,0,.151l-1.048.609a.289.289,0,0,1-.261,0l-1.668-.963a.079.079,0,0,1,0-.15l1.048-.609a.285.285,0,0,1,.26,0Z" transform="translate(-1187.215 -647.209)" fill="#4d4d4d"/>
          </g>
        </g>
        <g id="Grupo_904024" data-name="Grupo 904024" transform="translate(34.505 13.823)" style="isolation: isolate">
          <path id="Trazado_632529" data-name="Trazado 632529" d="M1193.748,650.813l-1.048.609a.286.286,0,0,1-.261,0l-1.668-.963a.093.093,0,0,1-.055-.076v.186a.093.093,0,0,0,.054.076l1.668.963a.286.286,0,0,0,.261,0l1.048-.609a.093.093,0,0,0,.054-.076v-.186A.091.091,0,0,1,1193.748,650.813Z" transform="translate(-1190.717 -649.668)" fill="#1f2125"/>
          <g id="Grupo_904023" data-name="Grupo 904023" transform="translate(0)">
            <path id="Trazado_632530" data-name="Trazado 632530" d="M1193.748,650.225a.079.079,0,0,1,0,.15l-1.048.609a.286.286,0,0,1-.261,0l-1.668-.963a.08.08,0,0,1,0-.151l1.048-.609a.289.289,0,0,1,.261,0Z" transform="translate(-1190.717 -649.231)" fill="#4d4d4d"/>
          </g>
        </g>
        <g id="Grupo_904031" data-name="Grupo 904031" transform="translate(36.768 15.129)" style="isolation: isolate">
          <g id="Grupo_904025" data-name="Grupo 904025" transform="translate(0 0.7)">
            <path id="Trazado_632531" data-name="Trazado 632531" d="M1194.362,652.649v-.186a.125.125,0,0,0,.074.1v.186A.126.126,0,0,1,1194.362,652.649Z" transform="translate(-1194.362 -652.463)" fill="#1f2125"/>
          </g>
          <g id="Grupo_904026" data-name="Grupo 904026" transform="translate(4.625 2.017)">
            <path id="Trazado_632532" data-name="Trazado 632532" d="M1201.888,654.586v.186a.128.128,0,0,1-.074.1v-.186A.126.126,0,0,0,1201.888,654.586Z" transform="translate(-1201.814 -654.586)" fill="#1f2125"/>
          </g>
          <g id="Grupo_904027" data-name="Grupo 904027" transform="translate(3.671 2.121)">
            <path id="Trazado_632533" data-name="Trazado 632533" d="M1201.231,654.753v.186l-.954.554v-.186Z" transform="translate(-1200.277 -654.753)" fill="#1f2125"/>
          </g>
          <g id="Grupo_904028" data-name="Grupo 904028" transform="translate(0.074 0.803)">
            <path id="Trazado_632534" data-name="Trazado 632534" d="M1197.724,654.5v.186l-3.242-1.872v-.186Z" transform="translate(-1194.481 -652.63)" fill="#1f2125"/>
          </g>
          <g id="Grupo_904029" data-name="Grupo 904029" transform="translate(3.316 2.675)">
            <path id="Trazado_632535" data-name="Trazado 632535" d="M1200.061,655.646v.186a.393.393,0,0,1-.355,0v-.186A.393.393,0,0,0,1200.061,655.646Z" transform="translate(-1199.705 -655.646)" fill="#1f2125"/>
          </g>
          <g id="Grupo_904030" data-name="Grupo 904030" transform="translate(0)">
            <path id="Trazado_632536" data-name="Trazado 632536" d="M1198.988,653.25a.109.109,0,0,1,0,.207l-.953.554a.393.393,0,0,1-.355,0l-3.242-1.872c-.1-.058-.1-.15,0-.205l.954-.555a.391.391,0,0,1,.356,0Z" transform="translate(-1194.362 -651.335)" fill="#4d4d4d"/>
          </g>
        </g>
        <g id="Grupo_904033" data-name="Grupo 904033" transform="translate(12.826 3.434)" style="isolation: isolate">
          <path id="Trazado_632537" data-name="Trazado 632537" d="M1159.359,634.278l-1.591.925a.343.343,0,0,1-.313,0l-1.6-.924a.112.112,0,0,1-.066-.092v.186a.113.113,0,0,0,.066.092l1.6.924a.345.345,0,0,0,.313,0l1.592-.925a.109.109,0,0,0,.063-.089v-.186A.107.107,0,0,1,1159.359,634.278Z" transform="translate(-1155.788 -633.135)" fill="#1f2125"/>
          <g id="Grupo_904032" data-name="Grupo 904032" transform="translate(0.001)">
            <path id="Trazado_632538" data-name="Trazado 632538" d="M1159.358,633.455c.087.05.088.131,0,.181l-1.591.925a.343.343,0,0,1-.313,0l-1.6-.924c-.086-.05-.088-.131,0-.181l1.592-.925a.345.345,0,0,1,.312,0Z" transform="translate(-1155.789 -632.493)" fill="#4d4d4d"/>
          </g>
        </g>
        <g id="Grupo_904035" data-name="Grupo 904035" transform="translate(6.382 2.128)" style="isolation: isolate">
          <path id="Trazado_632539" data-name="Trazado 632539" d="M1150.011,632.809l-1.512.879a.437.437,0,0,1-.392,0l-2.619-1.512a.138.138,0,0,1-.082-.115v.186a.138.138,0,0,0,.082.115l2.619,1.512a.432.432,0,0,0,.392,0l1.513-.879a.139.139,0,0,0,.08-.113V632.7A.137.137,0,0,1,1150.011,632.809Z" transform="translate(-1145.405 -631.022)" fill="#1f2125"/>
          <g id="Grupo_904034" data-name="Grupo 904034" transform="translate(0)">
            <path id="Trazado_632540" data-name="Trazado 632540" d="M1150.01,631.947a.12.12,0,0,1,0,.227l-1.512.879a.437.437,0,0,1-.392,0l-2.619-1.512a.12.12,0,0,1,0-.228l1.512-.879a.435.435,0,0,1,.392,0Z" transform="translate(-1145.406 -630.388)" fill="#4d4d4d"/>
          </g>
        </g>
        <g id="Grupo_904037" data-name="Grupo 904037" transform="translate(9.703 4.044)" style="isolation: isolate">
          <path id="Trazado_632541" data-name="Trazado 632541" d="M1154.325,635.262l-1.59.924a.344.344,0,0,1-.314,0l-1.6-.924a.109.109,0,0,1-.064-.091v.186a.112.112,0,0,0,.064.092l1.6.924a.347.347,0,0,0,.314,0l1.591-.924a.111.111,0,0,0,.065-.091v-.186A.109.109,0,0,1,1154.325,635.262Z" transform="translate(-1150.755 -634.119)" fill="#1f2125"/>
          <g id="Grupo_904036" data-name="Grupo 904036" transform="translate(0)">
            <path id="Trazado_632542" data-name="Trazado 632542" d="M1154.324,634.437c.088.051.088.132,0,.182l-1.59.924a.344.344,0,0,1-.314,0l-1.6-.923a.1.1,0,0,1,0-.182l1.59-.924a.348.348,0,0,1,.314,0Z" transform="translate(-1150.755 -633.476)" fill="#4d4d4d"/>
          </g>
        </g>
        <g id="Grupo_904039" data-name="Grupo 904039" transform="translate(4.228 3.391)" style="isolation: isolate">
          <path id="Trazado_632543" data-name="Trazado 632543" d="M1147.066,635.165l-1.477.858a.476.476,0,0,1-.428,0l-3.137-1.812a.152.152,0,0,1-.09-.124v.186a.149.149,0,0,0,.089.124l3.137,1.812a.472.472,0,0,0,.428,0l1.477-.858a.152.152,0,0,0,.088-.124v-.186A.15.15,0,0,1,1147.066,635.165Z" transform="translate(-1141.934 -633.055)" fill="#1f2125"/>
          <g id="Grupo_904038" data-name="Grupo 904038" transform="translate(0)">
            <path id="Trazado_632544" data-name="Trazado 632544" d="M1147.064,634.286a.131.131,0,0,1,0,.248l-1.477.858a.476.476,0,0,1-.428,0l-3.137-1.812a.131.131,0,0,1,0-.248l1.478-.858a.469.469,0,0,1,.427,0Z" transform="translate(-1141.934 -632.423)" fill="#4d4d4d"/>
          </g>
        </g>
        <g id="Grupo_904041" data-name="Grupo 904041" transform="translate(14.995 4.686)" style="isolation: isolate">
          <path id="Trazado_632545" data-name="Trazado 632545" d="M1162.853,636.295l-1.592.925a.342.342,0,0,1-.312,0l-1.6-.924a.111.111,0,0,1-.065-.092v.186a.112.112,0,0,0,.066.092l1.6.924a.344.344,0,0,0,.312,0l1.592-.925a.108.108,0,0,0,.064-.089v-.186A.109.109,0,0,1,1162.853,636.295Z" transform="translate(-1159.282 -635.152)" fill="#1f2125"/>
          <g id="Grupo_904040" data-name="Grupo 904040" transform="translate(0.001)">
            <path id="Trazado_632546" data-name="Trazado 632546" d="M1162.851,635.472c.088.05.088.131,0,.181l-1.592.925a.342.342,0,0,1-.312,0l-1.6-.924a.1.1,0,0,1,0-.181l1.591-.925a.345.345,0,0,1,.313,0Z" transform="translate(-1159.283 -634.51)" fill="#4d4d4d"/>
          </g>
        </g>
        <g id="Grupo_904043" data-name="Grupo 904043" transform="translate(11.891 5.308)" style="isolation: isolate">
          <path id="Trazado_632547" data-name="Trazado 632547" d="M1157.852,637.3l-1.59.924a.345.345,0,0,1-.314,0l-1.6-.924a.11.11,0,0,1-.065-.091v.186a.112.112,0,0,0,.065.092l1.6.924a.348.348,0,0,0,.314,0l1.59-.924a.111.111,0,0,0,.065-.091v-.186A.112.112,0,0,1,1157.852,637.3Z" transform="translate(-1154.281 -636.155)" fill="#1f2125"/>
          <g id="Grupo_904042" data-name="Grupo 904042" transform="translate(0.001)">
            <path id="Trazado_632548" data-name="Trazado 632548" d="M1157.851,636.473c.088.051.088.132,0,.182l-1.59.924a.344.344,0,0,1-.314,0l-1.6-.924a.1.1,0,0,1,0-.182l1.59-.924a.348.348,0,0,1,.314,0Z" transform="translate(-1154.282 -635.512)" fill="#4d4d4d"/>
          </g>
        </g>
        <g id="Grupo_904045" data-name="Grupo 904045" transform="translate(8.096 5.589)" style="isolation: isolate">
          <path id="Trazado_632549" data-name="Trazado 632549" d="M1151.736,637.751l-1.59.925a.345.345,0,0,1-.314,0l-1.6-.925a.107.107,0,0,1-.065-.09v.186a.109.109,0,0,0,.064.091l1.6.924a.346.346,0,0,0,.314,0l1.59-.924a.111.111,0,0,0,.065-.091v-.186A.11.11,0,0,1,1151.736,637.751Z" transform="translate(-1148.166 -636.608)" fill="#1f2125"/>
          <g id="Grupo_904044" data-name="Grupo 904044" transform="translate(0)">
            <path id="Trazado_632550" data-name="Trazado 632550" d="M1151.735,636.926a.1.1,0,0,1,0,.182l-1.59.925a.346.346,0,0,1-.314,0l-1.6-.925a.1.1,0,0,1,0-.181l1.591-.924a.346.346,0,0,1,.312,0Z" transform="translate(-1148.166 -635.965)" fill="#4d4d4d"/>
          </g>
        </g>
        <g id="Grupo_904047" data-name="Grupo 904047" transform="translate(2.117 4.595)" style="isolation: isolate">
          <path id="Trazado_632551" data-name="Trazado 632551" d="M1142.665,636.494l-1.545.9a.392.392,0,0,1-.358,0l-2.154-1.243a.126.126,0,0,1-.075-.1v.186a.126.126,0,0,0,.074.1l2.154,1.244a.4.4,0,0,0,.358,0l1.545-.9a.128.128,0,0,0,.074-.1v-.186A.126.126,0,0,1,1142.665,636.494Z" transform="translate(-1138.533 -635)" fill="#1f2125"/>
          <g id="Grupo_904046" data-name="Grupo 904046" transform="translate(0.001)">
            <path id="Trazado_632552" data-name="Trazado 632552" d="M1142.666,635.648a.11.11,0,0,1,0,.208l-1.545.9a.392.392,0,0,1-.358,0l-2.154-1.243a.11.11,0,0,1,0-.207l1.545-.9a.4.4,0,0,1,.359,0Z" transform="translate(-1138.534 -634.362)" fill="#4d4d4d"/>
          </g>
        </g>
        <g id="Grupo_904049" data-name="Grupo 904049" transform="translate(4.873 6.209)" style="isolation: isolate">
          <path id="Trazado_632553" data-name="Trazado 632553" d="M1146.544,638.75l-1.59.924a.345.345,0,0,1-.313,0l-1.6-.925a.11.11,0,0,1-.064-.091v.186a.11.11,0,0,0,.064.091l1.6.925a.344.344,0,0,0,.313,0l1.59-.924a.111.111,0,0,0,.065-.091v-.187A.112.112,0,0,1,1146.544,638.75Z" transform="translate(-1142.974 -637.607)" fill="#1f2125"/>
          <g id="Grupo_904048" data-name="Grupo 904048" transform="translate(0)">
            <path id="Trazado_632554" data-name="Trazado 632554" d="M1146.545,637.926c.086.05.086.13,0,.181l-1.59.924a.345.345,0,0,1-.313,0l-1.6-.925a.1.1,0,0,1,0-.181l1.59-.924a.343.343,0,0,1,.313,0Z" transform="translate(-1142.974 -636.963)" fill="#4d4d4d"/>
          </g>
        </g>
        <g id="Grupo_904051" data-name="Grupo 904051" transform="translate(0 5.81)" style="isolation: isolate">
          <path id="Trazado_632555" data-name="Trazado 632555" d="M1138.693,638.106l-1.592.925a.343.343,0,0,1-.311,0l-1.6-.925a.11.11,0,0,1-.065-.091v.186a.11.11,0,0,0,.065.091l1.6.925a.343.343,0,0,0,.311,0l1.592-.925a.109.109,0,0,0,.064-.089v-.186A.11.11,0,0,1,1138.693,638.106Z" transform="translate(-1135.122 -636.963)" fill="#1f2125"/>
          <g id="Grupo_904050" data-name="Grupo 904050" transform="translate(0.001)">
            <path id="Trazado_632556" data-name="Trazado 632556" d="M1138.692,637.282a.1.1,0,0,1,0,.181l-1.592.925a.343.343,0,0,1-.311,0l-1.6-.925a.1.1,0,0,1,0-.181l1.592-.925a.343.343,0,0,1,.311,0Z" transform="translate(-1135.123 -636.32)" fill="#4d4d4d"/>
          </g>
        </g>
        <g id="Grupo_904053" data-name="Grupo 904053" transform="translate(2.26 7.114)" style="isolation: isolate">
          <path id="Trazado_632557" data-name="Trazado 632557" d="M1142.333,640.207l-1.591.925a.343.343,0,0,1-.313,0l-1.6-.924a.11.11,0,0,1-.065-.092v.186a.111.111,0,0,0,.065.092l1.6.924a.343.343,0,0,0,.313,0l1.592-.925a.107.107,0,0,0,.063-.089v-.186A.107.107,0,0,1,1142.333,640.207Z" transform="translate(-1138.763 -639.064)" fill="#1f2125"/>
          <g id="Grupo_904052" data-name="Grupo 904052" transform="translate(0)">
            <path id="Trazado_632558" data-name="Trazado 632558" d="M1142.332,639.384c.088.05.088.131,0,.181l-1.591.925a.343.343,0,0,1-.313,0l-1.6-.924c-.086-.05-.088-.131,0-.181l1.592-.925a.346.346,0,0,1,.313,0Z" transform="translate(-1138.763 -638.421)" fill="#4d4d4d"/>
          </g>
        </g>
        <g id="Grupo_904055" data-name="Grupo 904055" transform="translate(17.164 5.938)" style="isolation: isolate">
          <path id="Trazado_632559" data-name="Trazado 632559" d="M1166.347,638.313l-1.592.925a.343.343,0,0,1-.313,0l-1.6-.924a.108.108,0,0,1-.065-.091v.186a.111.111,0,0,0,.064.091l1.6.923a.343.343,0,0,0,.313,0l1.592-.925a.109.109,0,0,0,.063-.089v-.186A.107.107,0,0,1,1166.347,638.313Z" transform="translate(-1162.777 -637.17)" fill="#1f2125"/>
          <g id="Grupo_904054" data-name="Grupo 904054" transform="translate(0)">
            <path id="Trazado_632560" data-name="Trazado 632560" d="M1166.345,637.489c.088.05.088.131,0,.181l-1.591.925a.343.343,0,0,1-.313,0l-1.6-.924a.1.1,0,0,1,0-.18l1.592-.925a.34.34,0,0,1,.311,0Z" transform="translate(-1162.777 -636.527)" fill="#4d4d4d"/>
          </g>
        </g>
        <g id="Grupo_904057" data-name="Grupo 904057" transform="translate(14.08 6.572)" style="isolation: isolate">
          <path id="Trazado_632561" data-name="Trazado 632561" d="M1161.378,639.334l-1.59.925a.348.348,0,0,1-.314,0l-1.6-.925a.111.111,0,0,1-.065-.091v.186a.109.109,0,0,0,.065.092l1.6.924a.347.347,0,0,0,.314,0l1.59-.924a.11.11,0,0,0,.065-.091v-.186A.11.11,0,0,1,1161.378,639.334Z" transform="translate(-1157.808 -638.191)" fill="#1f2125"/>
          <g id="Grupo_904056" data-name="Grupo 904056" transform="translate(0)">
            <path id="Trazado_632562" data-name="Trazado 632562" d="M1161.377,638.509c.088.051.088.132,0,.182l-1.59.925a.348.348,0,0,1-.314,0l-1.6-.925a.1.1,0,0,1,0-.182l1.591-.924a.348.348,0,0,1,.314,0Z" transform="translate(-1157.808 -637.548)" fill="#4d4d4d"/>
          </g>
        </g>
        <g id="Grupo_904059" data-name="Grupo 904059" transform="translate(10.274 6.847)" style="isolation: isolate">
          <path id="Trazado_632563" data-name="Trazado 632563" d="M1155.246,639.778l-1.59.924a.346.346,0,0,1-.314,0l-1.6-.924a.108.108,0,0,1-.065-.091v.186a.109.109,0,0,0,.065.091l1.6.924a.342.342,0,0,0,.314,0l1.59-.924a.111.111,0,0,0,.065-.091v-.186A.11.11,0,0,1,1155.246,639.778Z" transform="translate(-1151.676 -638.635)" fill="#1f2125"/>
          <g id="Grupo_904058" data-name="Grupo 904058" transform="translate(0)">
            <path id="Trazado_632564" data-name="Trazado 632564" d="M1155.245,638.953a.1.1,0,0,1,0,.182l-1.59.924a.346.346,0,0,1-.314,0l-1.6-.924a.1.1,0,0,1,0-.181l1.591-.924a.346.346,0,0,1,.312,0Z" transform="translate(-1151.676 -637.991)" fill="#4d4d4d"/>
          </g>
        </g>
        <g id="Grupo_904061" data-name="Grupo 904061" transform="translate(7.041 7.461)" style="isolation: isolate">
          <path id="Trazado_632565" data-name="Trazado 632565" d="M1150.038,640.767l-1.59.924a.343.343,0,0,1-.313,0l-1.6-.925a.11.11,0,0,1-.065-.09v.186a.11.11,0,0,0,.065.091l1.6.925a.345.345,0,0,0,.313,0l1.59-.924a.112.112,0,0,0,.065-.091v-.187A.111.111,0,0,1,1150.038,640.767Z" transform="translate(-1146.467 -639.624)" fill="#1f2125"/>
          <g id="Grupo_904060" data-name="Grupo 904060" transform="translate(0.001)">
            <path id="Trazado_632566" data-name="Trazado 632566" d="M1150.039,639.943a.1.1,0,0,1,0,.181l-1.59.924a.343.343,0,0,1-.313,0l-1.6-.925a.1.1,0,0,1,0-.181l1.59-.924a.343.343,0,0,1,.313,0Z" transform="translate(-1146.468 -638.98)" fill="#4d4d4d"/>
          </g>
        </g>
        <g id="Grupo_904063" data-name="Grupo 904063" transform="translate(4.448 8.378)" style="isolation: isolate">
          <path id="Trazado_632567" data-name="Trazado 632567" d="M1145.86,642.243l-1.592.925a.342.342,0,0,1-.312,0l-1.6-.924a.11.11,0,0,1-.066-.092v.186a.11.11,0,0,0,.066.092l1.6.924a.342.342,0,0,0,.312,0l1.592-.925a.108.108,0,0,0,.064-.089v-.187A.11.11,0,0,1,1145.86,642.243Z" transform="translate(-1142.289 -641.1)" fill="#1f2125"/>
          <g id="Grupo_904062" data-name="Grupo 904062" transform="translate(0.001)">
            <path id="Trazado_632568" data-name="Trazado 632568" d="M1145.858,641.419c.088.051.088.132,0,.181l-1.592.925a.342.342,0,0,1-.312,0l-1.6-.924c-.086-.05-.088-.131,0-.181l1.591-.925a.347.347,0,0,1,.313,0Z" transform="translate(-1142.29 -640.457)" fill="#4d4d4d"/>
          </g>
        </g>
        <g id="Grupo_904065" data-name="Grupo 904065" transform="translate(19.332 7.191)" style="isolation: isolate">
          <path id="Trazado_632569" data-name="Trazado 632569" d="M1169.841,640.33l-1.592.925a.343.343,0,0,1-.311,0l-1.6-.925a.111.111,0,0,1-.064-.091v.186a.11.11,0,0,0,.065.091l1.6.925a.343.343,0,0,0,.311,0l1.592-.925a.108.108,0,0,0,.064-.089v-.186A.109.109,0,0,1,1169.841,640.33Z" transform="translate(-1166.27 -639.188)" fill="#1f2125"/>
          <g id="Grupo_904064" data-name="Grupo 904064" transform="translate(0.001)">
            <path id="Trazado_632570" data-name="Trazado 632570" d="M1169.84,639.507a.1.1,0,0,1,0,.18l-1.592.925a.343.343,0,0,1-.311,0l-1.6-.925a.1.1,0,0,1,0-.18l1.592-.925a.344.344,0,0,1,.311,0Z" transform="translate(-1166.271 -638.545)" fill="#4d4d4d"/>
          </g>
        </g>
        <g id="Grupo_904067" data-name="Grupo 904067" transform="translate(16.269 7.835)" style="isolation: isolate">
          <path id="Trazado_632571" data-name="Trazado 632571" d="M1164.9,641.37l-1.59.924a.345.345,0,0,1-.315,0l-1.6-.924a.111.111,0,0,1-.064-.091v.186a.112.112,0,0,0,.065.092l1.6.924a.349.349,0,0,0,.315,0l1.59-.924a.114.114,0,0,0,.065-.091v-.186A.11.11,0,0,1,1164.9,641.37Z" transform="translate(-1161.334 -640.227)" fill="#1f2125"/>
          <g id="Grupo_904066" data-name="Grupo 904066" transform="translate(0.001)">
            <path id="Trazado_632572" data-name="Trazado 632572" d="M1164.9,640.545c.088.051.088.132,0,.182l-1.59.924a.345.345,0,0,1-.315,0l-1.6-.924a.1.1,0,0,1,0-.182l1.59-.924a.348.348,0,0,1,.314,0Z" transform="translate(-1161.335 -639.584)" fill="#4d4d4d"/>
          </g>
        </g>
        <g id="Grupo_904069" data-name="Grupo 904069" transform="translate(12.453 8.105)" style="isolation: isolate">
          <path id="Trazado_632573" data-name="Trazado 632573" d="M1158.756,641.8l-1.59.924a.342.342,0,0,1-.314,0l-1.6-.924a.109.109,0,0,1-.065-.09v.186a.109.109,0,0,0,.064.091l1.6.924a.346.346,0,0,0,.314,0l1.59-.924a.111.111,0,0,0,.065-.091v-.186A.11.11,0,0,1,1158.756,641.8Z" transform="translate(-1155.186 -640.661)" fill="#1f2125"/>
          <g id="Grupo_904068" data-name="Grupo 904068" transform="translate(0)">
            <path id="Trazado_632574" data-name="Trazado 632574" d="M1158.755,640.979a.1.1,0,0,1,0,.182l-1.59.924a.342.342,0,0,1-.314,0l-1.6-.924a.1.1,0,0,1,0-.181l1.591-.924a.346.346,0,0,1,.312,0Z" transform="translate(-1155.186 -640.018)" fill="#4d4d4d"/>
          </g>
        </g>
        <g id="Grupo_904071" data-name="Grupo 904071" transform="translate(9.21 8.713)" style="isolation: isolate">
          <path id="Trazado_632575" data-name="Trazado 632575" d="M1153.531,642.784l-1.59.924a.343.343,0,0,1-.313,0l-1.6-.924a.112.112,0,0,1-.066-.092v.186a.112.112,0,0,0,.066.092l1.6.924a.345.345,0,0,0,.313,0l1.59-.924a.112.112,0,0,0,.065-.091v-.187A.11.11,0,0,1,1153.531,642.784Z" transform="translate(-1149.961 -641.641)" fill="#1f2125"/>
          <g id="Grupo_904070" data-name="Grupo 904070" transform="translate(0)">
            <path id="Trazado_632576" data-name="Trazado 632576" d="M1153.532,641.96a.1.1,0,0,1,0,.181l-1.59.924a.343.343,0,0,1-.313,0l-1.6-.924c-.088-.051-.088-.132,0-.182l1.59-.924a.342.342,0,0,1,.314,0Z" transform="translate(-1149.962 -640.997)" fill="#4d4d4d"/>
          </g>
        </g>
        <g id="Grupo_904073" data-name="Grupo 904073" transform="translate(6.648 9.648)" style="isolation: isolate">
          <path id="Trazado_632577" data-name="Trazado 632577" d="M1149.88,644.583l-1.552.9a.39.39,0,0,1-.352,0l-2.069-1.195a.124.124,0,0,1-.073-.1v.186a.124.124,0,0,0,.073.1l2.069,1.195a.387.387,0,0,0,.352,0l1.552-.9a.124.124,0,0,0,.072-.1v-.186A.123.123,0,0,1,1149.88,644.583Z" transform="translate(-1145.834 -643.143)" fill="#1f2125"/>
          <g id="Grupo_904072" data-name="Grupo 904072" transform="translate(0)">
            <path id="Trazado_632578" data-name="Trazado 632578" d="M1149.879,643.741a.108.108,0,0,1,0,.2l-1.552.9a.391.391,0,0,1-.352,0l-2.069-1.195a.108.108,0,0,1,0-.2l1.551-.9a.39.39,0,0,1,.352,0Z" transform="translate(-1145.835 -642.505)" fill="#4d4d4d"/>
          </g>
        </g>
        <g id="Grupo_904075" data-name="Grupo 904075" transform="translate(14.631 9.363)" style="isolation: isolate">
          <path id="Trazado_632579" data-name="Trazado 632579" d="M1162.266,643.831l-1.59.924a.345.345,0,0,1-.313,0l-1.6-.925a.108.108,0,0,1-.064-.091v.186a.107.107,0,0,0,.065.091l1.6.925a.342.342,0,0,0,.313,0l1.59-.924a.111.111,0,0,0,.065-.091v-.186A.111.111,0,0,1,1162.266,643.831Z" transform="translate(-1158.696 -642.688)" fill="#1f2125"/>
          <g id="Grupo_904074" data-name="Grupo 904074" transform="translate(0)">
            <path id="Trazado_632580" data-name="Trazado 632580" d="M1162.267,643.006a.1.1,0,0,1,0,.181l-1.59.924a.345.345,0,0,1-.313,0l-1.6-.925a.1.1,0,0,1,0-.181l1.591-.924a.346.346,0,0,1,.312,0Z" transform="translate(-1158.696 -642.044)" fill="#4d4d4d"/>
          </g>
        </g>
        <g id="Grupo_904077" data-name="Grupo 904077" transform="translate(11.378 9.965)" style="isolation: isolate">
          <path id="Trazado_632581" data-name="Trazado 632581" d="M1157.026,644.8l-1.59.924a.348.348,0,0,1-.314,0l-1.6-.924a.111.111,0,0,1-.066-.092v.186a.111.111,0,0,0,.066.092l1.6.924a.348.348,0,0,0,.314,0l1.59-.924a.109.109,0,0,0,.064-.09v-.187A.111.111,0,0,1,1157.026,644.8Z" transform="translate(-1153.455 -643.658)" fill="#1f2125"/>
          <g id="Grupo_904076" data-name="Grupo 904076" transform="translate(0)">
            <path id="Trazado_632582" data-name="Trazado 632582" d="M1157.025,643.977a.1.1,0,0,1,0,.182l-1.59.924a.347.347,0,0,1-.314,0l-1.6-.924c-.087-.051-.088-.132,0-.182l1.59-.924a.343.343,0,0,1,.315,0Z" transform="translate(-1153.456 -643.015)" fill="#4d4d4d"/>
          </g>
        </g>
        <g id="Grupo_904079" data-name="Grupo 904079" transform="translate(21.501 8.442)" style="isolation: isolate">
          <path id="Trazado_632583" data-name="Trazado 632583" d="M1173.334,642.347l-1.591.925a.345.345,0,0,1-.312,0l-1.6-.925a.108.108,0,0,1-.065-.091v.186a.109.109,0,0,0,.064.091l1.6.925a.343.343,0,0,0,.311,0l1.592-.925a.109.109,0,0,0,.064-.089v-.186A.109.109,0,0,1,1173.334,642.347Z" transform="translate(-1169.764 -641.204)" fill="#1f2125"/>
          <g id="Grupo_904078" data-name="Grupo 904078" transform="translate(0)">
            <path id="Trazado_632584" data-name="Trazado 632584" d="M1173.333,641.524a.1.1,0,0,1,0,.18l-1.591.925a.345.345,0,0,1-.312,0l-1.6-.925a.1.1,0,0,1,0-.18l1.592-.925a.343.343,0,0,1,.311,0Z" transform="translate(-1169.765 -640.561)" fill="#4d4d4d"/>
          </g>
        </g>
        <g id="Grupo_904081" data-name="Grupo 904081" transform="translate(18.457 9.099)" style="isolation: isolate">
          <path id="Trazado_632585" data-name="Trazado 632585" d="M1168.431,643.406l-1.59.924a.346.346,0,0,1-.314,0l-1.6-.924a.111.111,0,0,1-.065-.091v.186a.112.112,0,0,0,.065.092l1.6.924a.348.348,0,0,0,.314,0l1.59-.924a.111.111,0,0,0,.065-.091v-.186A.11.11,0,0,1,1168.431,643.406Z" transform="translate(-1164.86 -642.263)" fill="#1f2125"/>
          <g id="Grupo_904080" data-name="Grupo 904080" transform="translate(0.001)">
            <path id="Trazado_632586" data-name="Trazado 632586" d="M1168.43,642.581c.088.051.088.132,0,.182l-1.59.924a.346.346,0,0,1-.314,0l-1.6-.924a.1.1,0,0,1,0-.182l1.59-.924a.349.349,0,0,1,.315,0Z" transform="translate(-1164.861 -641.62)" fill="#4d4d4d"/>
          </g>
        </g>
        <g id="Grupo_904083" data-name="Grupo 904083" transform="translate(16.81 10.62)" style="isolation: isolate">
          <path id="Trazado_632587" data-name="Trazado 632587" d="M1165.776,645.857l-1.59.924a.343.343,0,0,1-.313,0l-1.6-.925a.109.109,0,0,1-.065-.09v.186a.108.108,0,0,0,.064.091l1.6.925a.345.345,0,0,0,.313,0l1.59-.925a.111.111,0,0,0,.065-.091v-.186A.11.11,0,0,1,1165.776,645.857Z" transform="translate(-1162.206 -644.714)" fill="#1f2125"/>
          <g id="Grupo_904082" data-name="Grupo 904082" transform="translate(0)">
            <path id="Trazado_632588" data-name="Trazado 632588" d="M1165.777,645.033a.1.1,0,0,1,0,.181l-1.59.924a.343.343,0,0,1-.313,0l-1.6-.925a.1.1,0,0,1,0-.181l1.591-.924a.344.344,0,0,1,.312,0Z" transform="translate(-1162.206 -644.071)" fill="#4d4d4d"/>
          </g>
        </g>
        <g id="Grupo_904085" data-name="Grupo 904085" transform="translate(13.546 11.217)" style="isolation: isolate">
          <path id="Trazado_632589" data-name="Trazado 632589" d="M1160.52,646.819l-1.591.924a.348.348,0,0,1-.314,0l-1.6-.924a.112.112,0,0,1-.066-.092v.186a.112.112,0,0,0,.066.092l1.6.924a.349.349,0,0,0,.315,0l1.59-.924a.109.109,0,0,0,.064-.091v-.186A.11.11,0,0,1,1160.52,646.819Z" transform="translate(-1156.948 -645.675)" fill="#1f2125"/>
          <g id="Grupo_904084" data-name="Grupo 904084" transform="translate(0)">
            <path id="Trazado_632590" data-name="Trazado 632590" d="M1160.519,645.994a.1.1,0,0,1,0,.182l-1.591.924a.348.348,0,0,1-.314,0l-1.6-.924c-.088-.051-.088-.132,0-.182l1.59-.924a.342.342,0,0,1,.314,0Z" transform="translate(-1156.949 -645.031)" fill="#4d4d4d"/>
          </g>
        </g>
        <g id="Grupo_904087" data-name="Grupo 904087" transform="translate(23.669 9.694)" style="isolation: isolate">
          <path id="Trazado_632591" data-name="Trazado 632591" d="M1176.828,644.364l-1.592.925a.343.343,0,0,1-.311,0l-1.6-.924a.114.114,0,0,1-.067-.092v.186a.113.113,0,0,0,.067.092l1.6.924a.345.345,0,0,0,.312,0l1.591-.925a.108.108,0,0,0,.064-.089v-.186A.11.11,0,0,1,1176.828,644.364Z" transform="translate(-1173.257 -643.221)" fill="#1f2125"/>
          <g id="Grupo_904086" data-name="Grupo 904086" transform="translate(0.001)">
            <path id="Trazado_632592" data-name="Trazado 632592" d="M1176.827,643.541a.1.1,0,0,1,0,.18l-1.592.925a.343.343,0,0,1-.311,0l-1.6-.924c-.088-.051-.088-.132,0-.181l1.592-.925a.342.342,0,0,1,.312,0Z" transform="translate(-1173.258 -642.578)" fill="#4d4d4d"/>
          </g>
        </g>
        <g id="Grupo_904089" data-name="Grupo 904089" transform="translate(20.646 10.363)" style="isolation: isolate">
          <path id="Trazado_632593" data-name="Trazado 632593" d="M1171.958,645.442l-1.591.924a.346.346,0,0,1-.314,0l-1.6-.924a.11.11,0,0,1-.065-.091v.186a.112.112,0,0,0,.065.092l1.6.924a.346.346,0,0,0,.315,0l1.59-.924a.111.111,0,0,0,.064-.091v-.186A.11.11,0,0,1,1171.958,645.442Z" transform="translate(-1168.387 -644.299)" fill="#1f2125"/>
          <g id="Grupo_904088" data-name="Grupo 904088" transform="translate(0.001)">
            <path id="Trazado_632594" data-name="Trazado 632594" d="M1171.957,644.617c.088.051.088.132,0,.182l-1.591.924a.346.346,0,0,1-.314,0l-1.6-.924a.1.1,0,0,1,0-.182l1.59-.924a.348.348,0,0,1,.314,0Z" transform="translate(-1168.388 -643.656)" fill="#4d4d4d"/>
          </g>
        </g>
        <g id="Grupo_904091" data-name="Grupo 904091" transform="translate(18.988 11.878)" style="isolation: isolate">
          <path id="Trazado_632595" data-name="Trazado 632595" d="M1169.286,647.884l-1.59.924a.345.345,0,0,1-.313,0l-1.6-.925a.11.11,0,0,1-.065-.091v.186a.108.108,0,0,0,.065.091l1.6.925a.345.345,0,0,0,.313,0l1.59-.924a.11.11,0,0,0,.065-.091v-.186A.11.11,0,0,1,1169.286,647.884Z" transform="translate(-1165.716 -646.741)" fill="#1f2125"/>
          <g id="Grupo_904090" data-name="Grupo 904090" transform="translate(0)">
            <path id="Trazado_632596" data-name="Trazado 632596" d="M1169.287,647.059a.1.1,0,0,1,0,.181l-1.59.924a.345.345,0,0,1-.313,0l-1.6-.925a.1.1,0,0,1,0-.181l1.59-.924a.347.347,0,0,1,.313,0Z" transform="translate(-1165.716 -646.097)" fill="#4d4d4d"/>
          </g>
        </g>
        <g id="Grupo_904093" data-name="Grupo 904093" transform="translate(15.716 12.469)" style="isolation: isolate">
          <path id="Trazado_632597" data-name="Trazado 632597" d="M1164.014,648.836l-1.59.924a.346.346,0,0,1-.314,0l-1.6-.924a.112.112,0,0,1-.066-.092v.186a.11.11,0,0,0,.065.092l1.6.924a.346.346,0,0,0,.314,0l1.59-.924a.11.11,0,0,0,.065-.091v-.186A.111.111,0,0,1,1164.014,648.836Z" transform="translate(-1160.443 -647.692)" fill="#1f2125"/>
          <g id="Grupo_904092" data-name="Grupo 904092" transform="translate(0)">
            <path id="Trazado_632598" data-name="Trazado 632598" d="M1164.012,648.011a.1.1,0,0,1,0,.182l-1.59.924a.346.346,0,0,1-.314,0l-1.6-.924a.1.1,0,0,1,0-.182l1.59-.924a.345.345,0,0,1,.315,0Z" transform="translate(-1160.443 -647.049)" fill="#4d4d4d"/>
          </g>
        </g>
        <g id="Grupo_904095" data-name="Grupo 904095" transform="translate(25.837 10.946)" style="isolation: isolate">
          <path id="Trazado_632599" data-name="Trazado 632599" d="M1180.323,646.381l-1.592.925a.347.347,0,0,1-.313,0l-1.6-.924a.112.112,0,0,1-.066-.092v.187a.111.111,0,0,0,.066.092l1.6.924a.346.346,0,0,0,.312,0l1.592-.925a.109.109,0,0,0,.063-.089v-.186A.111.111,0,0,1,1180.323,646.381Z" transform="translate(-1176.751 -645.238)" fill="#1f2125"/>
          <g id="Grupo_904094" data-name="Grupo 904094" transform="translate(0.001)">
            <path id="Trazado_632600" data-name="Trazado 632600" d="M1180.321,645.558c.086.05.088.132,0,.181l-1.592.925a.347.347,0,0,1-.313,0l-1.6-.924c-.088-.051-.088-.132,0-.181l1.592-.925a.341.341,0,0,1,.313,0Z" transform="translate(-1176.752 -644.595)" fill="#4d4d4d"/>
          </g>
        </g>
        <g id="Grupo_904097" data-name="Grupo 904097" transform="translate(22.834 11.626)" style="isolation: isolate">
          <path id="Trazado_632601" data-name="Trazado 632601" d="M1175.484,647.478l-1.59.924a.346.346,0,0,1-.314,0l-1.6-.924a.111.111,0,0,1-.065-.091v.186a.112.112,0,0,0,.065.092l1.6.924a.344.344,0,0,0,.314,0l1.59-.924a.111.111,0,0,0,.065-.091v-.186A.11.11,0,0,1,1175.484,647.478Z" transform="translate(-1171.913 -646.335)" fill="#1f2125"/>
          <g id="Grupo_904096" data-name="Grupo 904096" transform="translate(0.001)">
            <path id="Trazado_632602" data-name="Trazado 632602" d="M1175.483,646.653c.088.051.088.132,0,.182l-1.59.924a.347.347,0,0,1-.314,0l-1.6-.924a.1.1,0,0,1,0-.182l1.59-.924a.348.348,0,0,1,.314,0Z" transform="translate(-1171.914 -645.692)" fill="#4d4d4d"/>
          </g>
        </g>
        <g id="Grupo_904099" data-name="Grupo 904099" transform="translate(21.166 13.136)" style="isolation: isolate">
          <path id="Trazado_632603" data-name="Trazado 632603" d="M1172.8,649.91l-1.59.924a.343.343,0,0,1-.313,0l-1.6-.925a.111.111,0,0,1-.065-.09v.186a.111.111,0,0,0,.065.091l1.6.925a.344.344,0,0,0,.313,0l1.59-.924a.112.112,0,0,0,.064-.091v-.186A.11.11,0,0,1,1172.8,649.91Z" transform="translate(-1169.225 -648.767)" fill="#1f2125"/>
          <g id="Grupo_904098" data-name="Grupo 904098" transform="translate(0.001)">
            <path id="Trazado_632604" data-name="Trazado 632604" d="M1172.8,649.086a.1.1,0,0,1,0,.181l-1.59.924a.343.343,0,0,1-.313,0l-1.6-.925a.1.1,0,0,1,0-.181l1.59-.925a.347.347,0,0,1,.313,0Z" transform="translate(-1169.226 -648.123)" fill="#4d4d4d"/>
          </g>
        </g>
        <g id="Grupo_904101" data-name="Grupo 904101" transform="translate(17.884 13.721)" style="isolation: isolate">
          <path id="Trazado_632605" data-name="Trazado 632605" d="M1167.507,650.853l-1.591.924a.346.346,0,0,1-.314,0l-1.6-.924a.112.112,0,0,1-.065-.092v.186a.111.111,0,0,0,.065.092l1.6.924a.347.347,0,0,0,.315,0l1.59-.924a.111.111,0,0,0,.065-.091v-.186A.111.111,0,0,1,1167.507,650.853Z" transform="translate(-1163.936 -649.709)" fill="#1f2125"/>
          <g id="Grupo_904100" data-name="Grupo 904100" transform="translate(0.001)">
            <path id="Trazado_632606" data-name="Trazado 632606" d="M1167.506,650.027c.087.051.088.132,0,.182l-1.591.924a.346.346,0,0,1-.314,0l-1.6-.924a.1.1,0,0,1,0-.182l1.59-.924a.345.345,0,0,1,.314,0Z" transform="translate(-1163.937 -649.066)" fill="#4d4d4d"/>
          </g>
        </g>
        <g id="Grupo_904103" data-name="Grupo 904103" transform="translate(28.005 12.198)" style="isolation: isolate">
          <path id="Trazado_632607" data-name="Trazado 632607" d="M1183.816,648.4l-1.591.925a.347.347,0,0,1-.313,0l-1.6-.924a.114.114,0,0,1-.066-.092v.186a.113.113,0,0,0,.066.092l1.6.924a.347.347,0,0,0,.313,0l1.591-.925a.109.109,0,0,0,.063-.089v-.186A.107.107,0,0,1,1183.816,648.4Z" transform="translate(-1180.244 -647.255)" fill="#1f2125"/>
          <g id="Grupo_904102" data-name="Grupo 904102" transform="translate(0.001)">
            <path id="Trazado_632608" data-name="Trazado 632608" d="M1183.814,647.575c.086.05.088.131,0,.181l-1.591.925a.347.347,0,0,1-.313,0l-1.6-.924c-.088-.051-.088-.131,0-.181l1.592-.925a.342.342,0,0,1,.312,0Z" transform="translate(-1180.245 -646.612)" fill="#4d4d4d"/>
          </g>
        </g>
        <g id="Grupo_904105" data-name="Grupo 904105" transform="translate(25.023 12.89)" style="isolation: isolate">
          <path id="Trazado_632609" data-name="Trazado 632609" d="M1179.01,649.514l-1.59.924a.346.346,0,0,1-.314,0l-1.6-.924a.108.108,0,0,1-.064-.091v.186a.109.109,0,0,0,.064.091l1.6.924a.344.344,0,0,0,.314,0l1.591-.924a.11.11,0,0,0,.064-.09v-.186A.11.11,0,0,1,1179.01,649.514Z" transform="translate(-1175.44 -648.371)" fill="#1f2125"/>
          <g id="Grupo_904104" data-name="Grupo 904104" transform="translate(0)">
            <path id="Trazado_632610" data-name="Trazado 632610" d="M1179.01,648.689c.088.051.088.132,0,.182l-1.59.924a.346.346,0,0,1-.314,0l-1.6-.924a.1.1,0,0,1,0-.182l1.591-.924a.348.348,0,0,1,.314,0Z" transform="translate(-1175.441 -647.728)" fill="#4d4d4d"/>
          </g>
        </g>
        <g id="Grupo_904107" data-name="Grupo 904107" transform="translate(23.345 14.394)" style="isolation: isolate">
          <path id="Trazado_632611" data-name="Trazado 632611" d="M1176.306,651.936l-1.59.924a.345.345,0,0,1-.313,0l-1.6-.925a.11.11,0,0,1-.065-.091v.186a.11.11,0,0,0,.065.091l1.6.925a.345.345,0,0,0,.313,0l1.59-.924a.11.11,0,0,0,.064-.091v-.187A.11.11,0,0,1,1176.306,651.936Z" transform="translate(-1172.735 -650.793)" fill="#1f2125"/>
          <g id="Grupo_904106" data-name="Grupo 904106" transform="translate(0.001)">
            <path id="Trazado_632612" data-name="Trazado 632612" d="M1176.307,651.112a.1.1,0,0,1,0,.181l-1.59.924a.345.345,0,0,1-.313,0l-1.6-.925a.1.1,0,0,1,0-.181l1.59-.924a.347.347,0,0,1,.313,0Z" transform="translate(-1172.736 -650.15)" fill="#4d4d4d"/>
          </g>
        </g>
        <g id="Grupo_904109" data-name="Grupo 904109" transform="translate(20.053 14.973)" style="isolation: isolate">
          <path id="Trazado_632613" data-name="Trazado 632613" d="M1171,652.871l-1.59.924a.346.346,0,0,1-.314,0l-1.6-.924a.108.108,0,0,1-.064-.091v.186a.11.11,0,0,0,.064.091l1.6.924a.346.346,0,0,0,.314,0l1.59-.924a.111.111,0,0,0,.065-.091v-.186A.111.111,0,0,1,1171,652.871Z" transform="translate(-1167.431 -651.727)" fill="#1f2125"/>
          <g id="Grupo_904108" data-name="Grupo 904108" transform="translate(0)">
            <path id="Trazado_632614" data-name="Trazado 632614" d="M1171,652.045a.1.1,0,0,1,0,.182l-1.59.924a.346.346,0,0,1-.314,0l-1.6-.924a.1.1,0,0,1,0-.181l1.591-.924a.341.341,0,0,1,.313,0Z" transform="translate(-1167.431 -651.083)" fill="#4d4d4d"/>
          </g>
        </g>
        <g id="Grupo_904111" data-name="Grupo 904111" transform="translate(9.436 11.258)" style="isolation: isolate">
          <path id="Trazado_632615" data-name="Trazado 632615" d="M1162.3,651.938l-1.166.678a.813.813,0,0,1-.739,0l-9.915-5.724a.263.263,0,0,1-.155-.215v.186a.262.262,0,0,0,.155.215l9.915,5.724a.813.813,0,0,0,.739,0l1.166-.677a.26.26,0,0,0,.152-.213v-.186A.26.26,0,0,1,1162.3,651.938Z" transform="translate(-1150.326 -645.697)" fill="#1f2125"/>
          <g id="Grupo_904110" data-name="Grupo 904110" transform="translate(0.001)">
            <path id="Trazado_632616" data-name="Trazado 632616" d="M1162.3,650.912a.226.226,0,0,1,0,.428l-1.166.678a.813.813,0,0,1-.739,0l-9.915-5.724a.226.226,0,0,1,0-.428l1.166-.677a.807.807,0,0,1,.739,0Z" transform="translate(-1150.327 -645.098)" fill="#4d4d4d"/>
          </g>
        </g>
        <g id="Grupo_904113" data-name="Grupo 904113" transform="translate(30.174 13.45)" style="isolation: isolate">
          <path id="Trazado_632617" data-name="Trazado 632617" d="M1187.31,650.415l-1.592.925a.343.343,0,0,1-.313,0l-1.6-.924a.113.113,0,0,1-.066-.092v.187a.111.111,0,0,0,.066.092l1.6.924a.344.344,0,0,0,.312,0l1.592-.925a.111.111,0,0,0,.064-.089v-.186A.109.109,0,0,1,1187.31,650.415Z" transform="translate(-1183.738 -649.272)" fill="#1f2125"/>
          <g id="Grupo_904112" data-name="Grupo 904112" transform="translate(0)">
            <path id="Trazado_632618" data-name="Trazado 632618" d="M1187.308,649.592c.088.05.088.132,0,.181l-1.592.925a.343.343,0,0,1-.313,0l-1.6-.924c-.088-.051-.088-.132,0-.181l1.592-.925a.343.343,0,0,1,.313,0Z" transform="translate(-1183.739 -648.629)" fill="#4d4d4d"/>
          </g>
        </g>
        <g id="Grupo_904115" data-name="Grupo 904115" transform="translate(27.212 14.154)" style="isolation: isolate">
          <path id="Trazado_632619" data-name="Trazado 632619" d="M1182.537,651.55l-1.59.924a.347.347,0,0,1-.315,0l-1.6-.924a.111.111,0,0,1-.064-.091v.186a.111.111,0,0,0,.065.091l1.6.925a.348.348,0,0,0,.314,0l1.59-.925a.11.11,0,0,0,.065-.09v-.186A.11.11,0,0,1,1182.537,651.55Z" transform="translate(-1178.966 -650.407)" fill="#1f2125"/>
          <g id="Grupo_904114" data-name="Grupo 904114" transform="translate(0.001)">
            <path id="Trazado_632620" data-name="Trazado 632620" d="M1182.536,650.725c.088.051.088.132,0,.182l-1.59.924a.347.347,0,0,1-.315,0l-1.6-.924a.1.1,0,0,1,0-.182l1.59-.924a.347.347,0,0,1,.314,0Z" transform="translate(-1178.967 -649.764)" fill="#4d4d4d"/>
          </g>
        </g>
        <g id="Grupo_904117" data-name="Grupo 904117" transform="translate(25.524 15.651)" style="isolation: isolate">
          <path id="Trazado_632621" data-name="Trazado 632621" d="M1179.816,653.963l-1.59.924a.343.343,0,0,1-.313,0l-1.6-.924a.111.111,0,0,1-.066-.092v.186a.112.112,0,0,0,.066.092l1.6.924a.344.344,0,0,0,.313,0l1.59-.924a.11.11,0,0,0,.065-.091v-.186A.11.11,0,0,1,1179.816,653.963Z" transform="translate(-1176.246 -652.82)" fill="#1f2125"/>
          <g id="Grupo_904116" data-name="Grupo 904116" transform="translate(0)">
            <path id="Trazado_632622" data-name="Trazado 632622" d="M1179.816,653.138a.1.1,0,0,1,0,.181l-1.59.924a.344.344,0,0,1-.313,0l-1.6-.924c-.087-.051-.088-.132,0-.182l1.59-.924a.349.349,0,0,1,.315,0Z" transform="translate(-1176.247 -652.177)" fill="#4d4d4d"/>
          </g>
        </g>
        <g id="Grupo_904119" data-name="Grupo 904119" transform="translate(22.221 16.224)" style="isolation: isolate">
          <path id="Trazado_632623" data-name="Trazado 632623" d="M1174.495,654.888l-1.591.924a.344.344,0,0,1-.312,0l-1.6-.925a.111.111,0,0,1-.065-.091v.186a.11.11,0,0,0,.064.091l1.6.925a.345.345,0,0,0,.313,0l1.59-.924a.113.113,0,0,0,.065-.091V654.8A.111.111,0,0,1,1174.495,654.888Z" transform="translate(-1170.924 -653.744)" fill="#1f2125"/>
          <g id="Grupo_904118" data-name="Grupo 904118" transform="translate(0.001)">
            <path id="Trazado_632624" data-name="Trazado 632624" d="M1174.5,654.063a.1.1,0,0,1,0,.181l-1.591.924a.344.344,0,0,1-.312,0l-1.6-.925a.1.1,0,0,1,0-.181l1.59-.924a.343.343,0,0,1,.313,0Z" transform="translate(-1170.925 -653.1)" fill="#4d4d4d"/>
          </g>
        </g>
        <g id="Grupo_904121" data-name="Grupo 904121" transform="translate(32.428 14.752)" style="isolation: isolate">
          <path id="Trazado_632625" data-name="Trazado 632625" d="M1190.942,652.512l-1.592.925a.344.344,0,0,1-.312,0l-1.6-.924a.112.112,0,0,1-.066-.092v.187a.112.112,0,0,0,.066.092l1.6.924a.345.345,0,0,0,.313,0l1.591-.925a.11.11,0,0,0,.064-.089v-.186A.11.11,0,0,1,1190.942,652.512Z" transform="translate(-1187.371 -651.369)" fill="#1f2125"/>
          <g id="Grupo_904120" data-name="Grupo 904120" transform="translate(0.001)">
            <path id="Trazado_632626" data-name="Trazado 632626" d="M1190.94,651.689c.087.05.088.132,0,.181l-1.592.925a.344.344,0,0,1-.312,0l-1.6-.924c-.086-.05-.088-.132,0-.181l1.591-.925a.345.345,0,0,1,.313,0Z" transform="translate(-1187.372 -650.727)" fill="#4d4d4d"/>
          </g>
        </g>
        <g id="Grupo_904123" data-name="Grupo 904123" transform="translate(29.401 15.417)" style="isolation: isolate">
          <path id="Trazado_632627" data-name="Trazado 632627" d="M1186.063,653.586l-1.59.924a.346.346,0,0,1-.314,0l-1.6-.924a.111.111,0,0,1-.065-.091v.186a.109.109,0,0,0,.065.091l1.6.925a.347.347,0,0,0,.314,0l1.59-.925a.11.11,0,0,0,.065-.09V653.5A.11.11,0,0,1,1186.063,653.586Z" transform="translate(-1182.493 -652.443)" fill="#1f2125"/>
          <g id="Grupo_904122" data-name="Grupo 904122" transform="translate(0)">
            <path id="Trazado_632628" data-name="Trazado 632628" d="M1186.063,652.761a.1.1,0,0,1,0,.182l-1.59.924a.346.346,0,0,1-.314,0l-1.6-.924a.1.1,0,0,1,0-.182l1.59-.924a.349.349,0,0,1,.315,0Z" transform="translate(-1182.493 -651.8)" fill="#4d4d4d"/>
          </g>
        </g>
        <g id="Grupo_904125" data-name="Grupo 904125" transform="translate(27.702 16.909)" style="isolation: isolate">
          <path id="Trazado_632629" data-name="Trazado 632629" d="M1183.326,655.99l-1.591.924a.343.343,0,0,1-.312,0l-1.6-.924a.112.112,0,0,1-.067-.091v.186a.11.11,0,0,0,.066.091l1.6.924a.345.345,0,0,0,.313,0l1.59-.924a.11.11,0,0,0,.065-.091V655.9A.11.11,0,0,1,1183.326,655.99Z" transform="translate(-1179.756 -654.847)" fill="#1f2125"/>
          <g id="Grupo_904124" data-name="Grupo 904124" transform="translate(0)">
            <path id="Trazado_632630" data-name="Trazado 632630" d="M1183.326,655.165a.1.1,0,0,1,0,.181l-1.591.924a.344.344,0,0,1-.312,0l-1.6-.924c-.088-.05-.088-.132,0-.182l1.59-.924a.348.348,0,0,1,.314,0Z" transform="translate(-1179.757 -654.204)" fill="#4d4d4d"/>
          </g>
        </g>
        <g id="Grupo_904127" data-name="Grupo 904127" transform="translate(24.464 17.52)" style="isolation: isolate">
          <path id="Trazado_632631" data-name="Trazado 632631" d="M1178.108,656.974l-1.59.924a.345.345,0,0,1-.313,0l-1.6-.925a.11.11,0,0,1-.065-.091v.186a.108.108,0,0,0,.064.091l1.6.925a.341.341,0,0,0,.313,0l1.59-.924a.111.111,0,0,0,.065-.091v-.186A.112.112,0,0,1,1178.108,656.974Z" transform="translate(-1174.538 -655.83)" fill="#1f2125"/>
          <g id="Grupo_904126" data-name="Grupo 904126" transform="translate(0)">
            <path id="Trazado_632632" data-name="Trazado 632632" d="M1178.109,656.149c.086.05.086.13,0,.181l-1.59.924a.345.345,0,0,1-.313,0l-1.6-.925a.1.1,0,0,1,0-.181l1.591-.924a.344.344,0,0,1,.312,0Z" transform="translate(-1174.538 -655.187)" fill="#4d4d4d"/>
          </g>
        </g>
        <g id="Grupo_904129" data-name="Grupo 904129" transform="translate(20.227 17.487)" style="isolation: isolate">
          <path id="Trazado_632633" data-name="Trazado 632633" d="M1171.757,657.214l-1.551.9a.39.39,0,0,1-.352,0l-2.069-1.195a.124.124,0,0,1-.073-.1v.186a.123.123,0,0,0,.074.1l2.069,1.195a.388.388,0,0,0,.352,0l1.551-.9a.122.122,0,0,0,.072-.1v-.186A.122.122,0,0,1,1171.757,657.214Z" transform="translate(-1167.711 -655.774)" fill="#1f2125"/>
          <g id="Grupo_904128" data-name="Grupo 904128" transform="translate(0)">
            <path id="Trazado_632634" data-name="Trazado 632634" d="M1171.756,656.372c.1.056.1.148,0,.2l-1.551.9a.39.39,0,0,1-.352,0l-2.069-1.195a.107.107,0,0,1,0-.2l1.551-.9a.387.387,0,0,1,.352,0Z" transform="translate(-1167.712 -655.135)" fill="#4d4d4d"/>
          </g>
        </g>
        <g id="Grupo_904131" data-name="Grupo 904131" transform="translate(34.627 16.021)" style="isolation: isolate">
          <path id="Trazado_632635" data-name="Trazado 632635" d="M1194.485,654.558l-1.592.925a.344.344,0,0,1-.312,0l-1.6-.924a.112.112,0,0,1-.066-.092v.186a.111.111,0,0,0,.067.092l1.6.924a.342.342,0,0,0,.312,0l1.592-.925a.109.109,0,0,0,.064-.089v-.187A.107.107,0,0,1,1194.485,654.558Z" transform="translate(-1190.913 -653.415)" fill="#1f2125"/>
          <g id="Grupo_904130" data-name="Grupo 904130" transform="translate(0.001)">
            <path id="Trazado_632636" data-name="Trazado 632636" d="M1194.483,653.734c.088.051.088.132,0,.181l-1.592.925a.344.344,0,0,1-.312,0l-1.6-.924c-.088-.05-.088-.132,0-.181l1.592-.925a.345.345,0,0,1,.313,0Z" transform="translate(-1190.914 -652.772)" fill="#4d4d4d"/>
          </g>
        </g>
        <g id="Grupo_904133" data-name="Grupo 904133" transform="translate(31.589 16.681)" style="isolation: isolate">
          <path id="Trazado_632637" data-name="Trazado 632637" d="M1189.59,655.622l-1.59.924a.347.347,0,0,1-.315,0l-1.6-.924a.11.11,0,0,1-.065-.091v.186a.111.111,0,0,0,.065.091l1.6.924a.345.345,0,0,0,.315,0l1.59-.924a.11.11,0,0,0,.065-.09v-.186A.11.11,0,0,1,1189.59,655.622Z" transform="translate(-1186.019 -654.479)" fill="#1f2125"/>
          <g id="Grupo_904132" data-name="Grupo 904132" transform="translate(0.001)">
            <path id="Trazado_632638" data-name="Trazado 632638" d="M1189.589,654.8c.088.05.088.132,0,.182l-1.59.924a.347.347,0,0,1-.315,0l-1.6-.924a.1.1,0,0,1,0-.182l1.59-.924a.348.348,0,0,1,.314,0Z" transform="translate(-1186.02 -653.836)" fill="#4d4d4d"/>
          </g>
        </g>
        <g id="Grupo_904135" data-name="Grupo 904135" transform="translate(29.881 18.167)" style="isolation: isolate">
          <path id="Trazado_632639" data-name="Trazado 632639" d="M1186.837,658.017l-1.59.924a.347.347,0,0,1-.314,0l-1.6-.924a.113.113,0,0,1-.066-.092v.186a.111.111,0,0,0,.066.092l1.6.924a.348.348,0,0,0,.314,0l1.59-.924a.109.109,0,0,0,.064-.091v-.186A.111.111,0,0,1,1186.837,658.017Z" transform="translate(-1183.266 -656.873)" fill="#1f2125"/>
          <g id="Grupo_904134" data-name="Grupo 904134" transform="translate(0)">
            <path id="Trazado_632640" data-name="Trazado 632640" d="M1186.836,657.191a.1.1,0,0,1,0,.182l-1.59.924a.347.347,0,0,1-.314,0l-1.6-.924c-.087-.051-.088-.131,0-.182l1.59-.924a.348.348,0,0,1,.314,0Z" transform="translate(-1183.267 -656.23)" fill="#4d4d4d"/>
          </g>
        </g>
        <g id="Grupo_904137" data-name="Grupo 904137" transform="translate(26.625 18.767)" style="isolation: isolate">
          <path id="Trazado_632641" data-name="Trazado 632641" d="M1181.591,658.984l-1.59.924a.346.346,0,0,1-.314,0l-1.6-.924a.112.112,0,0,1-.066-.091v.186a.111.111,0,0,0,.066.092l1.6.924a.344.344,0,0,0,.314,0l1.59-.924a.11.11,0,0,0,.065-.091v-.186A.11.11,0,0,1,1181.591,658.984Z" transform="translate(-1178.02 -657.84)" fill="#1f2125"/>
          <g id="Grupo_904136" data-name="Grupo 904136" transform="translate(0)">
            <path id="Trazado_632642" data-name="Trazado 632642" d="M1181.591,658.159a.1.1,0,0,1,0,.182l-1.59.924a.346.346,0,0,1-.314,0l-1.6-.924a.1.1,0,0,1,0-.182l1.59-.924a.345.345,0,0,1,.314,0Z" transform="translate(-1178.021 -657.197)" fill="#4d4d4d"/>
          </g>
        </g>
        <g id="Grupo_904139" data-name="Grupo 904139" transform="translate(22.858 19.007)" style="isolation: isolate">
          <path id="Trazado_632643" data-name="Trazado 632643" d="M1175.6,659.421l-1.583.92a.355.355,0,0,1-.32,0l-1.682-.971a.114.114,0,0,1-.067-.093v.186a.114.114,0,0,0,.067.093l1.683.971a.352.352,0,0,0,.32,0l1.583-.92a.113.113,0,0,0,.065-.092v-.186A.112.112,0,0,1,1175.6,659.421Z" transform="translate(-1171.951 -658.225)" fill="#1f2125"/>
          <g id="Grupo_904138" data-name="Grupo 904138" transform="translate(0)">
            <path id="Trazado_632644" data-name="Trazado 632644" d="M1175.6,658.593a.1.1,0,0,1,0,.186l-1.583.92a.355.355,0,0,1-.32,0l-1.682-.971a.1.1,0,0,1,0-.186l1.583-.92a.35.35,0,0,1,.32,0Z" transform="translate(-1171.952 -657.583)" fill="#4d4d4d"/>
          </g>
        </g>
        <g id="Grupo_904141" data-name="Grupo 904141" transform="translate(25.051 20.807)" style="isolation: isolate">
          <path id="Trazado_632645" data-name="Trazado 632645" d="M1178.289,661.993l-.754.438a.255.255,0,0,1-.231,0l-1.771-1.023a.082.082,0,0,1-.048-.067v.187a.082.082,0,0,0,.048.066l1.771,1.023a.254.254,0,0,0,.231,0l.754-.438a.082.082,0,0,0,.047-.066v-.186A.081.081,0,0,1,1178.289,661.993Z" transform="translate(-1175.484 -660.808)" fill="#1f2125"/>
          <g id="Grupo_904140" data-name="Grupo 904140" transform="translate(0)">
            <path id="Trazado_632646" data-name="Trazado 632646" d="M1178.287,661.534c.065.037.067.1,0,.134l-.754.438a.255.255,0,0,1-.231,0l-1.771-1.023a.07.07,0,0,1,0-.133l.754-.438a.25.25,0,0,1,.23,0Z" transform="translate(-1175.485 -660.483)" fill="#4d4d4d"/>
          </g>
        </g>
        <g id="Grupo_904143" data-name="Grupo 904143" transform="translate(40.579 17.329)" style="isolation: isolate">
          <path id="Trazado_632647" data-name="Trazado 632647" d="M1203.127,656.213l-1.08.628a.25.25,0,0,1-.23,0l-1.267-.731a.082.082,0,0,1-.048-.068v.187a.079.079,0,0,0,.048.067l1.266.731a.25.25,0,0,0,.23,0l1.08-.628a.08.08,0,0,0,.048-.066v-.186A.081.081,0,0,1,1203.127,656.213Z" transform="translate(-1200.503 -655.321)" fill="#1f2125"/>
          <g id="Grupo_904142" data-name="Grupo 904142">
            <path id="Trazado_632648" data-name="Trazado 632648" d="M1203.126,655.639c.064.037.064.1,0,.133l-1.08.628a.25.25,0,0,1-.23,0l-1.267-.731a.071.071,0,0,1,0-.133l1.08-.628a.253.253,0,0,1,.23,0Z" transform="translate(-1200.503 -654.88)" fill="#4d4d4d"/>
          </g>
        </g>
        <g id="Grupo_904145" data-name="Grupo 904145" transform="translate(36.79 17.27)" style="isolation: isolate">
          <path id="Trazado_632649" data-name="Trazado 632649" d="M1199.184,657.315l-1.5.871a.442.442,0,0,1-.4,0l-2.8-1.614a.145.145,0,0,1-.086-.119v.186a.145.145,0,0,0,.086.119l2.8,1.614a.443.443,0,0,0,.4,0l1.5-.871a.143.143,0,0,0,.083-.116V657.2A.143.143,0,0,1,1199.184,657.315Z" transform="translate(-1194.399 -655.417)" fill="#1f2125"/>
          <g id="Grupo_904144" data-name="Grupo 904144" transform="translate(0.001)">
            <path id="Trazado_632650" data-name="Trazado 632650" d="M1199.183,656.448a.124.124,0,0,1,0,.235l-1.5.871a.442.442,0,0,1-.4,0l-2.8-1.614c-.112-.065-.115-.171,0-.235l1.5-.871a.448.448,0,0,1,.406,0Z" transform="translate(-1194.4 -654.785)" fill="#4d4d4d"/>
          </g>
        </g>
        <g id="Grupo_904147" data-name="Grupo 904147" transform="translate(33.778 17.945)" style="isolation: isolate">
          <path id="Trazado_632651" data-name="Trazado 632651" d="M1193.116,657.658l-1.59.924a.346.346,0,0,1-.314,0l-1.6-.924a.111.111,0,0,1-.065-.091v.186a.111.111,0,0,0,.065.091l1.6.924a.346.346,0,0,0,.314,0l1.59-.924a.11.11,0,0,0,.065-.09v-.186A.111.111,0,0,1,1193.116,657.658Z" transform="translate(-1189.545 -656.515)" fill="#1f2125"/>
          <g id="Grupo_904146" data-name="Grupo 904146" transform="translate(0.001)">
            <path id="Trazado_632652" data-name="Trazado 632652" d="M1193.115,656.833c.087.05.088.132,0,.182l-1.59.924a.346.346,0,0,1-.314,0l-1.6-.924a.1.1,0,0,1,0-.182l1.59-.924a.349.349,0,0,1,.315,0Z" transform="translate(-1189.546 -655.872)" fill="#4d4d4d"/>
          </g>
        </g>
        <g id="Grupo_904149" data-name="Grupo 904149" transform="translate(32.059 19.425)" style="isolation: isolate">
          <path id="Trazado_632653" data-name="Trazado 632653" d="M1190.347,660.043l-1.59.924a.347.347,0,0,1-.314,0l-1.6-.924a.112.112,0,0,1-.066-.091v.186a.11.11,0,0,0,.066.091l1.6.924a.346.346,0,0,0,.314,0l1.59-.924a.109.109,0,0,0,.064-.09v-.186A.111.111,0,0,1,1190.347,660.043Z" transform="translate(-1186.776 -658.9)" fill="#1f2125"/>
          <g id="Grupo_904148" data-name="Grupo 904148" transform="translate(0)">
            <path id="Trazado_632654" data-name="Trazado 632654" d="M1190.346,659.218a.1.1,0,0,1,0,.182l-1.59.924a.346.346,0,0,1-.314,0l-1.6-.924c-.088-.05-.088-.132,0-.182l1.59-.924a.348.348,0,0,1,.314,0Z" transform="translate(-1186.777 -658.257)" fill="#4d4d4d"/>
          </g>
        </g>
        <g id="Grupo_904151" data-name="Grupo 904151" transform="translate(35.967 19.208)" style="isolation: isolate">
          <path id="Trazado_632655" data-name="Trazado 632655" d="M1196.643,659.694l-1.591.924a.346.346,0,0,1-.314,0l-1.6-.924a.11.11,0,0,1-.065-.091v.186a.11.11,0,0,0,.065.091l1.6.924a.346.346,0,0,0,.314,0l1.591-.924a.11.11,0,0,0,.065-.09V659.6A.111.111,0,0,1,1196.643,659.694Z" transform="translate(-1193.072 -658.551)" fill="#1f2125"/>
          <g id="Grupo_904150" data-name="Grupo 904150" transform="translate(0)">
            <path id="Trazado_632656" data-name="Trazado 632656" d="M1196.642,658.869c.088.051.088.132,0,.182l-1.591.924a.346.346,0,0,1-.314,0l-1.6-.924a.1.1,0,0,1,0-.182l1.59-.924a.347.347,0,0,1,.314,0Z" transform="translate(-1193.073 -657.908)" fill="#4d4d4d"/>
          </g>
        </g>
        <g id="Grupo_904153" data-name="Grupo 904153" transform="translate(34.241 20.684)" style="isolation: isolate">
          <path id="Trazado_632657" data-name="Trazado 632657" d="M1193.471,661.683l-1.626.945a.309.309,0,0,1-.276,0l-1.219-.7a.1.1,0,0,1-.058-.081v.186a.1.1,0,0,0,.058.082l1.218.7a.3.3,0,0,0,.276,0l1.627-.945a.1.1,0,0,0,.057-.081V661.6A.1.1,0,0,1,1193.471,661.683Z" transform="translate(-1190.291 -660.785)" fill="#1f2125"/>
          <g id="Grupo_904152" data-name="Grupo 904152" transform="translate(0)">
            <path id="Trazado_632658" data-name="Trazado 632658" d="M1193.471,661.022a.085.085,0,0,1,0,.161l-1.626.945a.309.309,0,0,1-.276,0l-1.219-.7a.085.085,0,0,1,0-.161l1.626-.945a.308.308,0,0,1,.279,0Z" transform="translate(-1190.291 -660.285)" fill="#4d4d4d"/>
          </g>
        </g>
        <g id="Grupo_904155" data-name="Grupo 904155" transform="translate(28.824 20.037)" style="isolation: isolate">
          <path id="Trazado_632659" data-name="Trazado 632659" d="M1187.91,662.719l-1.407.817a.55.55,0,0,1-.5,0l-4.338-2.5a.176.176,0,0,1-.1-.145v.187a.177.177,0,0,0,.1.145l4.338,2.5a.553.553,0,0,0,.5,0l1.408-.818a.176.176,0,0,0,.1-.143v-.186A.173.173,0,0,1,1187.91,662.719Z" transform="translate(-1181.563 -659.867)" fill="#1f2125"/>
          <g id="Grupo_904154" data-name="Grupo 904154" transform="translate(0.001)">
            <path id="Trazado_632660" data-name="Trazado 632660" d="M1187.909,661.807a.153.153,0,0,1,0,.289l-1.407.817a.55.55,0,0,1-.5,0l-4.338-2.5a.153.153,0,0,1,0-.288l1.408-.818a.55.55,0,0,1,.5,0Z" transform="translate(-1181.565 -659.243)" fill="#4d4d4d"/>
          </g>
        </g>
        <g id="Grupo_904157" data-name="Grupo 904157" transform="translate(27.33 21.588)" style="isolation: isolate">
          <path id="Trazado_632661" data-name="Trazado 632661" d="M1182.81,663.581l-1.583.92a.355.355,0,0,1-.32,0l-1.682-.971a.113.113,0,0,1-.068-.093v.186a.111.111,0,0,0,.067.093l1.682.971a.353.353,0,0,0,.32,0l1.583-.92a.112.112,0,0,0,.066-.092v-.186A.113.113,0,0,1,1182.81,663.581Z" transform="translate(-1179.157 -662.385)" fill="#1f2125"/>
          <g id="Grupo_904156" data-name="Grupo 904156" transform="translate(0)">
            <path id="Trazado_632662" data-name="Trazado 632662" d="M1182.808,662.753a.1.1,0,0,1,0,.186l-1.583.92a.355.355,0,0,1-.32,0l-1.682-.971c-.089-.052-.09-.134,0-.186l1.583-.92a.351.351,0,0,1,.32,0Z" transform="translate(-1179.157 -661.743)" fill="#4d4d4d"/>
          </g>
        </g>
        <g id="Grupo_904159" data-name="Grupo 904159" transform="translate(29.496 23.373)" style="isolation: isolate">
          <path id="Trazado_632663" data-name="Trazado 632663" d="M1185.451,666.127l-.754.438a.254.254,0,0,1-.229,0l-1.773-1.023a.082.082,0,0,1-.048-.067v.186a.082.082,0,0,0,.048.067l1.772,1.023a.253.253,0,0,0,.23,0l.754-.438a.08.08,0,0,0,.047-.066v-.186A.08.08,0,0,1,1185.451,666.127Z" transform="translate(-1182.646 -664.943)" fill="#1f2125"/>
          <g id="Grupo_904158" data-name="Grupo 904158" transform="translate(0.001)">
            <path id="Trazado_632664" data-name="Trazado 632664" d="M1185.45,665.669a.07.07,0,0,1,0,.133l-.754.438a.253.253,0,0,1-.23,0l-1.772-1.023a.071.071,0,0,1,0-.133l.754-.438a.256.256,0,0,1,.229,0Z" transform="translate(-1182.647 -664.618)" fill="#4d4d4d"/>
          </g>
        </g>
      </g>
    </g>
    <g id="Grupo_904167" data-name="Grupo 904167" transform="translate(1151.265 547.753)">
      <path id="Trazado_632665" data-name="Trazado 632665" d="M1173.1,590.494l-9.554,18.02a2.856,2.856,0,0,0,1.333,3.861h0a2.857,2.857,0,0,0,3.879-1.536l6.469-17.455Z" transform="translate(-1163.241 -566.416)" fill="#0b5999"/>
      <g id="Grupo_904166" data-name="Grupo 904166" transform="translate(1.144 0)">
        <g id="Grupo_904165" data-name="Grupo 904165" style="isolation: isolate">
          <path id="Trazado_632666" data-name="Trazado 632666" d="M1180.173,553.21c-3.062-1.768-5.835-1.931-7.839-.767l-2.066,1.2c2-1.164,4.777-1,7.839.766,6.09,3.516,11.007,12.037,10.987,19.03-.01,3.474-1.236,5.917-3.214,7.067l2.066-1.2c1.978-1.149,3.2-3.594,3.214-7.067C1191.18,565.247,1186.263,556.727,1180.173,553.21Z" transform="translate(-1167.05 -551.7)" fill="#12263f"/>
          <g id="Grupo_904162" data-name="Grupo 904162" transform="translate(0 1.2)">
            <path id="Trazado_632667" data-name="Trazado 632667" d="M1176.139,555.144c-6.082-3.515-11.033-.686-11.055,6.3s4.9,15.513,10.983,19.024,11.041.7,11.059-6.295S1182.231,558.658,1176.139,555.144Zm-.068,23.739c-5.32-3.073-9.62-10.518-9.6-16.637s4.345-8.582,9.666-5.51,9.624,10.523,9.611,16.641S1181.4,581.955,1176.071,578.882Z" transform="translate(-1165.084 -553.633)" fill="#0b5999"/>
          </g>
          <g id="Grupo_904163" data-name="Grupo 904163" transform="translate(1.385 2.98)" opacity="0.57" style="mix-blend-mode: screen;isolation: isolate">
            <path id="Trazado_632668" data-name="Trazado 632668" d="M1176.983,557.823c5.325,3.075,9.625,10.526,9.608,16.641s-4.345,8.582-9.67,5.508-9.621-10.521-9.6-16.636S1171.661,554.75,1176.983,557.823Z" transform="translate(-1167.316 -556.501)" fill="#ededed"/>
          </g>
          <path id="Trazado_632669" data-name="Trazado 632669" d="M1177.974,579.48c-5.322-3.073-9.622-10.521-9.6-16.636a8.019,8.019,0,0,1,1.427-4.932c-1.536,1.077-2.481,3.118-2.49,5.958-.017,6.115,4.283,13.563,9.6,16.636,3.491,2.015,6.545,1.637,8.245-.578C1183.385,581.171,1180.827,581.127,1177.974,579.48Z" transform="translate(-1165.927 -554.056)" fill="#073051"/>
          <g id="Grupo_904164" data-name="Grupo 904164" transform="translate(3.234 6.985)" opacity="0.57" style="mix-blend-mode: screen;isolation: isolate">
            <path id="Trazado_632670" data-name="Trazado 632670" d="M1177.068,563.88a14.839,14.839,0,0,1,6.732,11.661c-.012,4.285-3.045,6.013-6.776,3.859a14.833,14.833,0,0,1-6.73-11.656C1170.306,563.458,1173.339,561.727,1177.068,563.88Z" transform="translate(-1170.294 -562.955)" fill="#fff"/>
          </g>
        </g>
      </g>
    </g>
  </g>
</svg>
