<svg xmlns="http://www.w3.org/2000/svg" width="101.756" height="102.974" viewBox="0 0 101.756 102.974">
  <g id="Grupo_904285" data-name="Grupo 904285" transform="translate(-6533.681 -179.246)">
    <g id="Flowers" transform="translate(6533.681 179.246)">
      <g id="Grupo_904191" data-name="Grupo 904191" transform="translate(0 33.977)">
        <path id="Trazado_632745" data-name="Trazado 632745" d="M6639.482,843.908a.614.614,0,0,1-.231.852.662.662,0,0,1-.9-.113.613.613,0,0,1,.23-.852A.663.663,0,0,1,6639.482,843.908Z" transform="translate(-6630.858 -830.646)" fill="#21cbae"/>
        <g id="Grupo_904184" data-name="Grupo 904184" transform="translate(6.663 13.515)">
          <path id="Trazado_632746" data-name="Trazado 632746" d="M6628.061,857.888a20.864,20.864,0,0,1,1.11-7.167c.038-.112-.134-.178-.172-.066a21.01,21.01,0,0,0-1.121,7.213c0,.117.186.137.183.019Z" transform="translate(-6627.872 -850.598)" fill="#21cbae"/>
        </g>
        <path id="Trazado_632747" data-name="Trazado 632747" d="M6561.091,932.417c-.219.205-.8-.07-1.95-.629a22.707,22.707,0,0,1-4.833-3.162c-.595-.995-.8-1.971-.4-2.42.623-.706,2.481.167,2.877.353C6559.936,928.039,6561.707,931.842,6561.091,932.417Z" transform="translate(-6552.286 -907.091)" fill="#21cbae"/>
        <path id="Trazado_632748" data-name="Trazado 632748" d="M6678.011,1017.682a4.15,4.15,0,0,1-.244-2.191,1.645,1.645,0,0,1,.448-.974.835.835,0,0,1,1.026-.1,1.134,1.134,0,0,1,.353.913,3.787,3.787,0,0,1-1.294,2.915Z" transform="translate(-6667.525 -989.192)" fill="#21cbae"/>
        <ellipse id="Elipse_6586" data-name="Elipse 6586" cx="1.623" cy="3.511" rx="1.623" ry="3.511" transform="translate(0 5.999) rotate(-17.8)" fill="#21cbae"/>
        <g id="Grupo_904185" data-name="Grupo 904185" transform="translate(2.145 5.398)">
          <ellipse id="Elipse_6587" data-name="Elipse 6587" cx="3.547" cy="1.607" rx="3.547" ry="1.607" transform="translate(0 5.765) rotate(-54.345)" fill="#0ea289"/>
          <path id="Trazado_632749" data-name="Trazado 632749" d="M6577.619,752.726a.908.908,0,0,1-.428-.1.87.87,0,0,1-.431-.6,4.507,4.507,0,0,1,.97-3.135c1.1-1.63,2.65-2.613,3.452-2.19a.875.875,0,0,1,.431.6,4.514,4.514,0,0,1-.971,3.135l-.023-.016.023.016C6579.715,751.812,6578.469,752.726,6577.619,752.726Zm3.128-6.062c-.826,0-2.051.906-2.969,2.265a4.455,4.455,0,0,0-.962,3.089.816.816,0,0,0,.4.559c.776.409,2.292-.564,3.377-2.171a4.461,4.461,0,0,0,.963-3.089.818.818,0,0,0-.4-.559A.867.867,0,0,0,6580.747,746.664Z" transform="translate(-6575.813 -745.849)" fill="#21cbae"/>
        </g>
        <g id="Grupo_904186" data-name="Grupo 904186" transform="translate(3.134 11.784)">
          <path id="Trazado_632750" data-name="Trazado 632750" d="M6596.375,855.532a63.558,63.558,0,0,1-17.893-29.209c-.085-.3-.57-.224-.484.08a64.013,64.013,0,0,0,18,29.442c.228.212.609-.1.377-.313Z" transform="translate(-6577.988 -826.133)" fill="#1baf96"/>
        </g>
        <path id="Trazado_632751" data-name="Trazado 632751" d="M6763.93,1008.451c-1.272-4.943-2.047-11.2.188-16.649.684-1.665,1.861-3.282,2.907-3,1.106.3,1.353,2.465,1.3,4.351a43.09,43.09,0,0,1-4.423,17.62Z" transform="translate(-6746.499 -965.482)" fill="#21cbae"/>
        <path id="Trazado_632752" data-name="Trazado 632752" d="M6706.774,1148.18c-2.331-1.274-4.986-3.206-6.261-5.991-.39-.852-.586-1.874-.106-2.171.507-.314,1.418.362,2.116,1.053a22.429,22.429,0,0,1,5.124,7.945Z" transform="translate(-6688.351 -1105.957)" fill="#21cbae"/>
        <g id="Grupo_904187" data-name="Grupo 904187" transform="translate(3.261 1.464)">
          <path id="Trazado_632753" data-name="Trazado 632753" d="M6579.79,687.9a12.763,12.763,0,0,1,2.238-7.649l.055.038a12.692,12.692,0,0,0-2.226,7.608Z" transform="translate(-6579.781 -680.248)" fill="#21cbae"/>
        </g>
        <g id="Grupo_904188" data-name="Grupo 904188" transform="translate(4.876)">
          <path id="Trazado_632754" data-name="Trazado 632754" d="M6603.456,661.356l-.051,0a.886.886,0,0,1-.787-.955.926.926,0,0,1,.3-.645.789.789,0,0,1,.579-.2.886.886,0,0,1,.788.954.926.926,0,0,1-.3.645A.789.789,0,0,1,6603.456,661.356Zm-.008-1.739a.726.726,0,0,0-.484.188.862.862,0,0,0-.279.6.819.819,0,0,0,.725.884.722.722,0,0,0,.529-.187.86.86,0,0,0,.279-.6.819.819,0,0,0-.725-.884Z" transform="translate(-6602.617 -659.55)" fill="#21cbae"/>
        </g>
        <g id="Grupo_904189" data-name="Grupo 904189" transform="translate(5.684 4.624)">
          <path id="Trazado_632755" data-name="Trazado 632755" d="M6614.1,727.626l-.063-.023a4.591,4.591,0,0,0,.15-2.67l.066-.016A4.665,4.665,0,0,1,6614.1,727.626Z" transform="translate(-6614.033 -724.918)" fill="#21cbae"/>
        </g>
        <g id="Grupo_904190" data-name="Grupo 904190" transform="translate(5.447 3.558)">
          <path id="Trazado_632756" data-name="Trazado 632756" d="M6611.212,711.042h-.03a.579.579,0,0,1-.5-.631.627.627,0,0,1,.2-.434.5.5,0,0,1,.363-.129.579.579,0,0,1,.5.631h0a.626.626,0,0,1-.2.435A.5.5,0,0,1,6611.212,711.042Zm0-1.13a.433.433,0,0,0-.288.113.555.555,0,0,0-.178.388.512.512,0,0,0,.44.561.431.431,0,0,0,.314-.112.557.557,0,0,0,.179-.388l.034,0-.034,0a.512.512,0,0,0-.44-.561Z" transform="translate(-6610.678 -709.845)" fill="#21cbae"/>
        </g>
      </g>
      <g id="Grupo_904200" data-name="Grupo 904200" transform="translate(16.585 0)">
        <path id="Trazado_632757" data-name="Trazado 632757" d="M7071.582,502.755a45.424,45.424,0,0,1,3.869-16.389c.678-1.522,1.87-3.253,3.521-3.026,1.347.184,2.141,1.618,2.458,2.939.994,4.124-.548,8.42-2.419,12.228a68.547,68.547,0,0,1-6.149,10.176Z" transform="translate(-7050.116 -461.81)" fill="#12b599"/>
        <path id="Trazado_632758" data-name="Trazado 632758" d="M6861,582.49c.73-.994-1.425-4.127-3.827-6.006-4-3.133-9.832-3.679-10.448-2.357-.584,1.251,3.459,4.265,5.309,5.467C6855.256,581.687,6860.127,583.675,6861,582.49Z" transform="translate(-6841.111 -545.568)" fill="#21cbae"/>
        <path id="Trazado_632759" data-name="Trazado 632759" d="M7004.518,447.125c.744.142,1.909-1.88,2.316-3.707.678-3.046-.56-6.418-1.455-6.41-.847.007-1.449,3.043-1.625,4.385C7003.445,443.732,7003.631,446.956,7004.518,447.125Z" transform="translate(-6986.957 -418.774)" fill="#21cbae"/>
        <g id="Grupo_904192" data-name="Grupo 904192" transform="translate(10.041 15.772)">
          <path id="Trazado_632760" data-name="Trazado 632760" d="M6910.141,402.837a87.6,87.6,0,0,1,14.773,48.293c0,.507.787.436.785-.068a88.366,88.366,0,0,0-14.919-48.685c-.282-.421-.921.039-.639.46Z" transform="translate(-6910.07 -402.211)" fill="#21cbae"/>
        </g>
        <ellipse id="Elipse_6588" data-name="Elipse 6588" cx="0.642" cy="3.477" rx="0.642" ry="3.477" transform="translate(11.532 24.321) rotate(-48.957)" fill="#21cbae"/>
        <ellipse id="Elipse_6589" data-name="Elipse 6589" cx="2.917" cy="5.417" rx="2.917" ry="5.417" transform="translate(0 15.809) rotate(-58.317)" fill="#21cbae"/>
        <ellipse id="Elipse_6590" data-name="Elipse 6590" cx="5.417" cy="2.917" rx="5.417" ry="2.917" transform="matrix(0.002, -1, 1, 0.002, 9.932, 18.229)" fill="#21cbae"/>
        <g id="Grupo_904193" data-name="Grupo 904193" transform="translate(7.518 0.987)">
          <path id="Trazado_632761" data-name="Trazado 632761" d="M6877.287,207.232l-.074-.02a16.412,16.412,0,0,0-2.812-13.967l.061-.047A16.486,16.486,0,0,1,6877.287,207.232Z" transform="translate(-6874.401 -193.198)" fill="#11c4d7"/>
        </g>
        <g id="Grupo_904194" data-name="Grupo 904194" transform="translate(6.285)">
          <path id="Trazado_632762" data-name="Trazado 632762" d="M6857.829,181.153a.8.8,0,0,1-.1-.006.917.917,0,0,1-.748-1.055,1,1,0,0,1,.335-.638.819.819,0,0,1,1.226.151,1,1,0,0,1,.17.7A.93.93,0,0,1,6857.829,181.153Zm.036-1.831a.761.761,0,0,0-.5.191.919.919,0,0,0-.309.589.8.8,0,1,0,1.578.2.921.921,0,0,0-.156-.646.755.755,0,0,0-.525-.323A.722.722,0,0,0,6857.865,179.322Z" transform="translate(-6856.975 -179.246)" fill="#11c4d7"/>
        </g>
        <g id="Grupo_904195" data-name="Grupo 904195" transform="translate(3.217 4.972)">
          <path id="Trazado_632763" data-name="Trazado 632763" d="M6819.292,262.672a16.487,16.487,0,0,1-5.669-13.145l.077,0a16.41,16.41,0,0,0,5.642,13.083Z" transform="translate(-6813.603 -249.527)" fill="#11c4d7"/>
        </g>
        <g id="Grupo_904196" data-name="Grupo 904196" transform="translate(2.655 3.786)">
          <path id="Trazado_632764" data-name="Trazado 632764" d="M6806.645,234.6a.922.922,0,0,1-.1-.005,1,1,0,0,1-.638-.334.917.917,0,0,1,.015-1.293.827.827,0,0,1,.647-.2,1,1,0,0,1,.638.334.917.917,0,0,1-.014,1.293A.819.819,0,0,1,6806.645,234.6Zm-.167-1.762a.745.745,0,0,0-.5.187.841.841,0,0,0-.008,1.185.92.92,0,0,0,.589.308.754.754,0,0,0,.589-.183.841.841,0,0,0,.008-1.185.922.922,0,0,0-.589-.308A.855.855,0,0,0,6806.478,232.841Z" transform="translate(-6805.652 -232.765)" fill="#11c4d7"/>
        </g>
        <g id="Grupo_904197" data-name="Grupo 904197" transform="translate(3.092 5.048)">
          <ellipse id="Elipse_6591" data-name="Elipse 6591" cx="3.25" cy="7" rx="3.25" ry="7" transform="translate(0 2.326) rotate(-20.969)" fill="#12b599"/>
          <path id="Trazado_632765" data-name="Trazado 632765" d="M6840.011,278.531c-1.642,0-3.762-2.271-5-5.495a12.131,12.131,0,0,1-.885-4.975c.1-1.466.609-2.447,1.432-2.762,1.688-.647,4.19,1.771,5.577,5.39a12.112,12.112,0,0,1,.884,4.975c-.1,1.466-.608,2.447-1.431,2.762A1.607,1.607,0,0,1,6840.011,278.531Zm-3.867-13.28a1.561,1.561,0,0,0-.563.1c-.8.306-1.295,1.27-1.395,2.712a12.066,12.066,0,0,0,.882,4.95c1.226,3.2,3.322,5.459,4.938,5.459a1.575,1.575,0,0,0,.565-.1c.8-.306,1.294-1.27,1.393-2.712a12.045,12.045,0,0,0-.88-4.95C6839.855,267.509,6837.76,265.252,6836.144,265.252Z" transform="translate(-6832.534 -264.164)" fill="#12b599"/>
        </g>
        <g id="Grupo_904198" data-name="Grupo 904198" transform="translate(7.321 29.099)">
          <path id="Trazado_632766" data-name="Trazado 632766" d="M6883.219,597.445l-.006-.057.232-.025a38.614,38.614,0,0,0-11.822-6.711l.019-.054a38.666,38.666,0,0,1,11.892,6.765l.052.044Z" transform="translate(-6871.624 -590.598)" fill="#e7f7f8"/>
        </g>
        <g id="Grupo_904199" data-name="Grupo 904199" transform="translate(22.657 24.006)">
          <path id="Trazado_632767" data-name="Trazado 632767" d="M7088.478,538.564l-.057-.007a48.98,48.98,0,0,1,7.022-19.952l.049.03A48.915,48.915,0,0,0,7088.478,538.564Z" transform="translate(-7088.421 -518.606)" fill="#e7f7f8"/>
        </g>
      </g>
    </g>
    <g id="_alendar" data-name="—alendar" transform="translate(6543.754 213.342)">
      <g id="Grupo_904282" data-name="Grupo 904282" transform="translate(0 0)">
        <path id="Trazado_632768" data-name="Trazado 632768" d="M6752.657,698.854l4.092,55.438,56.893-5.888-6.77-47.566a2.286,2.286,0,0,0-2.263-1.964Z" transform="translate(-6747.241 -696.193)" fill="#fff"/>
        <g id="Grupo_904281" data-name="Grupo 904281">
          <path id="Trazado_632769" data-name="Trazado 632769" d="M6676.086,837.213l4.8-51.34a.535.535,0,0,1,1.066.013l4.256,57.1-6.1-6.413a.535.535,0,0,0-.645-.132l-2.612,1.3A.535.535,0,0,1,6676.086,837.213Z" transform="translate(-6676.083 -776.606)" fill="#fecb2f"/>
          <path id="Trazado_632770" data-name="Trazado 632770" d="M6733.057,1491.963l9.552-1.295-3.456,7.707Z" transform="translate(-6729.026 -1431.995)" fill="#ab8b28"/>
          <path id="Trazado_632771" data-name="Trazado 632771" d="M6789.349,707.949h0a.569.569,0,0,1-.654-.466l-.146-.862a.57.57,0,0,1,.466-.655h0a.57.57,0,0,1,.655.466l.145.862A.57.57,0,0,1,6789.349,707.949Z" transform="translate(-6780.586 -702.795)" fill="#058baf"/>
          <path id="Trazado_632772" data-name="Trazado 632772" d="M6823.118,707.949h0a.569.569,0,0,1-.654-.466l-.146-.862a.57.57,0,0,1,.466-.655h0a.571.571,0,0,1,.655.466l.145.862A.569.569,0,0,1,6823.118,707.949Z" transform="translate(-6811.966 -702.795)" fill="#058baf"/>
          <path id="Trazado_632773" data-name="Trazado 632773" d="M6859.051,707.949h0a.571.571,0,0,1-.655-.466l-.145-.862a.57.57,0,0,1,.466-.655h0a.569.569,0,0,1,.654.466l.146.862A.57.57,0,0,1,6859.051,707.949Z" transform="translate(-6845.357 -702.795)" fill="#058baf"/>
          <path id="Trazado_632774" data-name="Trazado 632774" d="M6892.819,707.949h0a.57.57,0,0,1-.654-.466l-.146-.862a.57.57,0,0,1,.466-.655h0a.571.571,0,0,1,.655.466l.145.862A.57.57,0,0,1,6892.819,707.949Z" transform="translate(-6876.737 -702.795)" fill="#058baf"/>
          <path id="Trazado_632775" data-name="Trazado 632775" d="M6927.67,707.949h0a.569.569,0,0,1-.654-.466l-.146-.862a.57.57,0,0,1,.466-.655h0a.569.569,0,0,1,.654.466l.146.862A.57.57,0,0,1,6927.67,707.949Z" transform="translate(-6909.123 -702.795)" fill="#058baf"/>
          <path id="Trazado_632776" data-name="Trazado 632776" d="M6961.439,707.949h0a.57.57,0,0,1-.655-.466l-.145-.862a.57.57,0,0,1,.466-.655h0a.57.57,0,0,1,.655.466l.146.862A.57.57,0,0,1,6961.439,707.949Z" transform="translate(-6940.502 -702.795)" fill="#058baf"/>
          <path id="Trazado_632777" data-name="Trazado 632777" d="M6997.371,707.949h0a.569.569,0,0,1-.654-.466l-.146-.862a.57.57,0,0,1,.466-.655h0a.57.57,0,0,1,.655.466l.145.862A.57.57,0,0,1,6997.371,707.949Z" transform="translate(-6973.893 -702.795)" fill="#058baf"/>
          <path id="Trazado_632778" data-name="Trazado 632778" d="M7031.14,707.949h0a.569.569,0,0,1-.655-.466l-.146-.862a.57.57,0,0,1,.466-.655h0a.57.57,0,0,1,.655.466l.145.862A.57.57,0,0,1,7031.14,707.949Z" transform="translate(-7005.272 -702.795)" fill="#058baf"/>
          <path id="Trazado_632779" data-name="Trazado 632779" d="M7066.583,707.949h0a.57.57,0,0,1-.655-.466l-.145-.862a.57.57,0,0,1,.466-.655h0a.57.57,0,0,1,.655.466l.145.862A.57.57,0,0,1,7066.583,707.949Z" transform="translate(-7038.208 -702.795)" fill="#058baf"/>
          <path id="Trazado_632780" data-name="Trazado 632780" d="M7100.35,707.949h0a.57.57,0,0,1-.655-.466l-.146-.862a.57.57,0,0,1,.466-.655h0a.569.569,0,0,1,.654.466l.146.862A.57.57,0,0,1,7100.35,707.949Z" transform="translate(-7069.586 -702.795)" fill="#058baf"/>
          <path id="Trazado_632781" data-name="Trazado 632781" d="M7136.282,707.949h0a.57.57,0,0,1-.654-.466l-.145-.862a.57.57,0,0,1,.466-.655h0a.57.57,0,0,1,.654.466l.146.862A.57.57,0,0,1,7136.282,707.949Z" transform="translate(-7102.979 -702.795)" fill="#058baf"/>
          <path id="Trazado_632782" data-name="Trazado 632782" d="M7170.051,707.949h0a.57.57,0,0,1-.655-.466l-.145-.862a.57.57,0,0,1,.466-.655h0a.57.57,0,0,1,.654.466l.145.862A.569.569,0,0,1,7170.051,707.949Z" transform="translate(-7134.357 -702.795)" fill="#058baf"/>
          <path id="Trazado_632783" data-name="Trazado 632783" d="M7204.9,707.949h0a.57.57,0,0,1-.654-.466l-.145-.862a.569.569,0,0,1,.466-.655h0a.57.57,0,0,1,.654.466l.146.862A.57.57,0,0,1,7204.9,707.949Z" transform="translate(-7166.743 -702.795)" fill="#058baf"/>
          <path id="Trazado_632784" data-name="Trazado 632784" d="M7238.67,707.949h0a.57.57,0,0,1-.655-.466l-.145-.862a.57.57,0,0,1,.466-.655h0a.569.569,0,0,1,.654.466l.146.862A.57.57,0,0,1,7238.67,707.949Z" transform="translate(-7198.123 -702.795)" fill="#058baf"/>
          <path id="Trazado_632785" data-name="Trazado 632785" d="M7274.6,707.949h0a.569.569,0,0,1-.654-.466l-.146-.862a.57.57,0,0,1,.466-.655h0a.57.57,0,0,1,.654.466l.146.862A.57.57,0,0,1,7274.6,707.949Z" transform="translate(-7231.514 -702.795)" fill="#058baf"/>
          <path id="Trazado_632786" data-name="Trazado 632786" d="M7308.372,707.949h0a.57.57,0,0,1-.655-.466l-.145-.862a.57.57,0,0,1,.466-.655h0a.57.57,0,0,1,.654.466l.146.862A.57.57,0,0,1,7308.372,707.949Z" transform="translate(-7262.893 -702.795)" fill="#058baf"/>
          <path id="Trazado_632787" data-name="Trazado 632787" d="M7342.526,707.949h0a.57.57,0,0,1-.655-.466l-.146-.862a.57.57,0,0,1,.466-.655h0a.57.57,0,0,1,.655.466l.145.862A.57.57,0,0,1,7342.526,707.949Z" transform="translate(-7294.631 -702.795)" fill="#058baf"/>
          <path id="Trazado_632788" data-name="Trazado 632788" d="M7376.295,707.949h0a.57.57,0,0,1-.655-.466l-.146-.862a.57.57,0,0,1,.466-.655h0a.57.57,0,0,1,.655.466l.145.862A.57.57,0,0,1,7376.295,707.949Z" transform="translate(-7326.011 -702.795)" fill="#058baf"/>
          <path id="Trazado_632789" data-name="Trazado 632789" d="M7412.227,707.949h0a.57.57,0,0,1-.654-.466l-.146-.862a.57.57,0,0,1,.467-.655h0a.57.57,0,0,1,.654.466l.146.862A.57.57,0,0,1,7412.227,707.949Z" transform="translate(-7359.402 -702.795)" fill="#058baf"/>
          <path id="Trazado_632790" data-name="Trazado 632790" d="M7446,707.949h0a.57.57,0,0,1-.655-.466l-.145-.862a.57.57,0,0,1,.466-.655h0a.569.569,0,0,1,.654.466l.146.862A.57.57,0,0,1,7446,707.949Z" transform="translate(-7390.782 -702.795)" fill="#058baf"/>
          <path id="Trazado_632791" data-name="Trazado 632791" d="M6806.2,1405.238l57.2-5.919.852,5.985a1.583,1.583,0,0,1-1.378,1.794l-55,6.6a1.041,1.041,0,0,1-1.162-.962Z" transform="translate(-6796.997 -1347.108)" fill="#fecb2f"/>
          <g id="Grupo_904257" data-name="Grupo 904257" transform="translate(15.44 14.547)">
            <g id="Grupo_904208" data-name="Grupo 904208" transform="translate(17.268 0.152)">
              <g id="Grupo_904201" data-name="Grupo 904201" transform="translate(3.356 22.873)">
                <path id="Trazado_632792" data-name="Trazado 632792" d="M7186.491,1193.686l.678,4.726a.371.371,0,0,0,.407.313l3.948-.332a.4.4,0,0,0,.371-.45l-.719-4.658a.375.375,0,0,0-.4-.311l-3.906.265A.4.4,0,0,0,7186.491,1193.686Z" transform="translate(-7186.445 -1192.93)" fill="#b1f2f0"/>
                <path id="Trazado_632793" data-name="Trazado 632793" d="M7186.983,1198.212a.41.41,0,0,1-.414-.35l-.677-4.726a.422.422,0,0,1,.093-.328.454.454,0,0,1,.322-.167l3.907-.265a.417.417,0,0,1,.448.347l.718,4.658a.417.417,0,0,1-.088.325.461.461,0,0,1-.321.173l-3.948.333Zm3.261-5.754h-.025l-3.906.265a.37.37,0,0,0-.262.136.339.339,0,0,0-.075.263l.678,4.726a.329.329,0,0,0,.362.277l3.948-.333a.375.375,0,0,0,.262-.141.334.334,0,0,0,.071-.26l-.719-4.658A.33.33,0,0,0,7190.244,1192.458Z" transform="translate(-7185.888 -1192.374)" fill="#fff"/>
              </g>
              <g id="Grupo_904202" data-name="Grupo 904202" transform="translate(1.068 7.058)">
                <path id="Trazado_632794" data-name="Trazado 632794" d="M7159.37,974.178l-.689-4.5a.326.326,0,0,0-.336-.272l-3.881.115a.332.332,0,0,0-.324.372l.648,4.555a.324.324,0,0,0,.339.274l3.923-.166A.332.332,0,0,0,7159.37,974.178Z" transform="translate(-7154.094 -969.359)" fill="#b1f2f0"/>
                <path id="Trazado_632795" data-name="Trazado 632795" d="M7154.557,974.2a.365.365,0,0,1-.365-.31l-.649-4.555a.366.366,0,0,1,.083-.285.383.383,0,0,1,.281-.135l3.881-.115a.368.368,0,0,1,.379.308l.689,4.5a.361.361,0,0,1-.079.284.385.385,0,0,1-.282.14l-3.922.166Zm3.243-5.317h-.009l-3.881.115a.3.3,0,0,0-.219.105.278.278,0,0,0-.064.219l.649,4.555a.28.28,0,0,0,.294.237l3.922-.166a.3.3,0,0,0,.22-.109.274.274,0,0,0,.061-.217l-.69-4.5A.284.284,0,0,0,7157.8,968.887Z" transform="translate(-7153.539 -968.802)" fill="#fff"/>
              </g>
              <g id="Grupo_904203" data-name="Grupo 904203" transform="translate(1.808 12.205)">
                <path id="Trazado_632796" data-name="Trazado 632796" d="M7165.615,1047.667l3.974-.2a.335.335,0,0,0,.32-.377l-.715-4.656a.323.323,0,0,0-.337-.269l-3.93.166a.334.334,0,0,0-.321.374l.67,4.693A.321.321,0,0,0,7165.615,1047.667Z" transform="translate(-7164.561 -1042.12)" fill="#b1f2f0"/>
                <path id="Trazado_632797" data-name="Trazado 632797" d="M7165.042,1047.154a.362.362,0,0,1-.363-.308l-.669-4.693a.364.364,0,0,1,.082-.284.387.387,0,0,1,.28-.138l3.929-.166a.365.365,0,0,1,.381.3l.715,4.656a.365.365,0,0,1-.079.284.39.39,0,0,1-.281.142l-3.974.2Zm3.274-5.5h-.013l-3.929.166a.3.3,0,0,0-.218.107.277.277,0,0,0-.062.219l.669,4.693a.276.276,0,0,0,.294.234l3.974-.2a.3.3,0,0,0,.22-.111.275.275,0,0,0,.061-.217l-.715-4.656A.28.28,0,0,0,7168.316,1041.649Z" transform="translate(-7164.006 -1041.564)" fill="#fff"/>
              </g>
              <g id="Grupo_904204" data-name="Grupo 904204" transform="translate(2.578 17.505)">
                <path id="Trazado_632798" data-name="Trazado 632798" d="M7175.493,1117.728l.67,4.682a.376.376,0,0,0,.4.316l3.9-.265a.4.4,0,0,0,.376-.448l-.71-4.612a.378.378,0,0,0-.4-.315l-3.859.2A.4.4,0,0,0,7175.493,1117.728Z" transform="translate(-7175.447 -1117.044)" fill="#b1f2f0"/>
                <path id="Trazado_632799" data-name="Trazado 632799" d="M7175.984,1122.215a.415.415,0,0,1-.418-.354l-.669-4.682a.428.428,0,0,1,.094-.33.452.452,0,0,1,.325-.163l3.859-.2a.423.423,0,0,1,.444.35l.709,4.612a.417.417,0,0,1-.089.327.456.456,0,0,1-.324.169l-3.9.265Zm-1-5.048.67,4.682a.332.332,0,0,0,.359.28l3.9-.265a.369.369,0,0,0,.263-.137.33.33,0,0,0,.072-.261l-.709-4.612a.335.335,0,0,0-.356-.279l-3.859.2a.365.365,0,0,0-.263.132.338.338,0,0,0-.077.264Z" transform="translate(-7174.893 -1116.489)" fill="#fff"/>
              </g>
              <g id="Grupo_904205" data-name="Grupo 904205" transform="translate(0.324 1.884)">
                <path id="Trazado_632800" data-name="Trazado 632800" d="M7148.819,901.067l-.692-4.529a.329.329,0,0,0-.334-.275l-3.834.061a.329.329,0,0,0-.325.37l.652,4.583a.326.326,0,0,0,.336.277l3.875-.115A.329.329,0,0,0,7148.819,901.067Z" transform="translate(-7143.589 -896.221)" fill="#b1f2f0"/>
                <path id="Trazado_632801" data-name="Trazado 632801" d="M7144.055,901.04a.368.368,0,0,1-.368-.313l-.651-4.583a.363.363,0,0,1,.084-.287.379.379,0,0,1,.283-.132l3.833-.061a.372.372,0,0,1,.376.311l.692,4.529a.363.363,0,0,1-.081.285.383.383,0,0,1-.283.137l-3.875.115Zm3.187-5.292h0l-3.834.061a.3.3,0,0,0-.219.1.278.278,0,0,0-.065.22l.651,4.584a.284.284,0,0,0,.293.24l3.875-.115a.3.3,0,0,0,.22-.106.27.27,0,0,0,.062-.218l-.692-4.529A.288.288,0,0,0,7147.242,895.748Z" transform="translate(-7143.033 -895.664)" fill="#fff"/>
              </g>
              <g id="Grupo_904206" data-name="Grupo 904206" transform="translate(4.142 28.285)">
                <path id="Trazado_632802" data-name="Trazado 632802" d="M7197.6,1270.257l.711,4.95a.368.368,0,0,0,.411.309l4-.407a.405.405,0,0,0,.368-.452l-.753-4.875a.372.372,0,0,0-.408-.307l-3.956.333A.4.4,0,0,0,7197.6,1270.257Z" transform="translate(-7197.552 -1269.431)" fill="#b1f2f0"/>
                <path id="Trazado_632803" data-name="Trazado 632803" d="M7198.123,1275a.411.411,0,0,1-.413-.347l-.711-4.95a.421.421,0,0,1,.092-.326.456.456,0,0,1,.318-.171l3.956-.333a.412.412,0,0,1,.452.343l.754,4.875a.424.424,0,0,1-.086.323.467.467,0,0,1-.319.177l-4,.407Zm-1.04-5.309.711,4.95a.326.326,0,0,0,.365.272l4-.407a.379.379,0,0,0,.261-.144.339.339,0,0,0,.069-.259l-.754-4.875a.328.328,0,0,0-.361-.271l-3.955.333a.375.375,0,0,0-.261.139.342.342,0,0,0-.073.261Z" transform="translate(-7196.995 -1268.875)" fill="#fff"/>
              </g>
              <g id="Grupo_904207" data-name="Grupo 904207">
                <path id="Trazado_632804" data-name="Trazado 632804" d="M7143.908,871.514l-.287-1.879-4.485.052.27,1.9Z" transform="translate(-7139.088 -869.592)" fill="#21cbae"/>
                <path id="Trazado_632805" data-name="Trazado 632805" d="M7138.729,871.067l-.281-1.984h.049l4.521-.052.3,1.964h-.048Zm-.184-1.9.258,1.814,4.416-.07-.274-1.795Z" transform="translate(-7138.448 -869.03)" fill="#21cbae"/>
              </g>
            </g>
            <g id="Grupo_904216" data-name="Grupo 904216" transform="translate(28.27 0.048)">
              <g id="Grupo_904209" data-name="Grupo 904209" transform="translate(2.834 17.088)">
                <path id="Trazado_632806" data-name="Trazado 632806" d="M7334.645,1110.361l.728,4.516a.374.374,0,0,0,.4.306l3.931-.263a.4.4,0,0,0,.375-.445l-.759-4.448a.378.378,0,0,0-.4-.3l-3.9.2A.393.393,0,0,0,7334.645,1110.361Z" transform="translate(-7334.597 -1109.679)" fill="#b1f2f0"/>
                <path id="Trazado_632807" data-name="Trazado 632807" d="M7335.189,1114.67a.415.415,0,0,1-.417-.343l-.727-4.516a.409.409,0,0,1,.089-.326.452.452,0,0,1,.329-.166l3.9-.2a.421.421,0,0,1,.443.34l.758,4.448a.4.4,0,0,1-.084.323.457.457,0,0,1-.328.172l-3.93.263Zm-1.061-4.872.728,4.516a.335.335,0,0,0,.358.271l3.931-.263a.371.371,0,0,0,.267-.139.322.322,0,0,0,.068-.256l-.758-4.448a.337.337,0,0,0-.355-.269l-3.9.2a.368.368,0,0,0-.268.135.326.326,0,0,0-.072.26Z" transform="translate(-7334.039 -1109.122)" fill="#fff"/>
              </g>
              <g id="Grupo_904210" data-name="Grupo 904210" transform="translate(3.681 22.279)">
                <path id="Trazado_632808" data-name="Trazado 632808" d="M7347.767,1188.684l3.968-.329a.4.4,0,0,0,.371-.447l-.77-4.5a.373.373,0,0,0-.4-.3l-3.937.263a.4.4,0,0,0-.374.445l.736,4.566A.371.371,0,0,0,7347.767,1188.684Z" transform="translate(-7346.576 -1183.064)" fill="#b1f2f0"/>
                <path id="Trazado_632809" data-name="Trazado 632809" d="M7347.173,1188.171a.409.409,0,0,1-.413-.339l-.737-4.566a.413.413,0,0,1,.087-.324.457.457,0,0,1,.326-.17l3.937-.263a.416.416,0,0,1,.447.336l.77,4.5a.409.409,0,0,1-.083.321.462.462,0,0,1-.326.176l-3.969.329Zm3.229-5.579h-.024l-3.937.263a.372.372,0,0,0-.266.138.332.332,0,0,0-.07.258l.737,4.566a.328.328,0,0,0,.361.267l3.969-.329a.375.375,0,0,0,.266-.143.325.325,0,0,0,.066-.255l-.769-4.5A.331.331,0,0,0,7350.4,1182.592Z" transform="translate(-7346.017 -1182.507)" fill="#fff"/>
              </g>
              <g id="Grupo_904211" data-name="Grupo 904211" transform="translate(0.348 1.838)">
                <path id="Trazado_632810" data-name="Trazado 632810" d="M7304.823,898.859l-.762-4.506a.272.272,0,0,0-.276-.221l-4.017.063a.27.27,0,0,0-.27.306l.729,4.562a.27.27,0,0,0,.278.222l4.051-.118A.271.271,0,0,0,7304.823,898.859Z" transform="translate(-7299.451 -894.09)" fill="#b1f2f0"/>
                <path id="Trazado_632811" data-name="Trazado 632811" d="M7299.941,898.77a.312.312,0,0,1-.312-.258l-.729-4.562a.3.3,0,0,1,.067-.241.323.323,0,0,1,.243-.114l4.018-.062h0a.316.316,0,0,1,.313.256l.762,4.506a.3.3,0,0,1-.064.239.326.326,0,0,1-.242.118l-4.051.118Zm3.292-5.152h0l-4.018.063a.236.236,0,0,0-.179.084.213.213,0,0,0-.05.173l.729,4.562a.228.228,0,0,0,.235.186l4.051-.118a.242.242,0,0,0,.18-.087.208.208,0,0,0,.047-.172h0l-.763-4.506A.23.23,0,0,0,7303.233,893.618Z" transform="translate(-7298.896 -893.533)" fill="#fff"/>
              </g>
              <g id="Grupo_904212" data-name="Grupo 904212" transform="translate(1.171 6.871)">
                <path id="Trazado_632812" data-name="Trazado 632812" d="M7312.179,970.466l3.974-.165a.329.329,0,0,0,.32-.373l-.743-4.382a.325.325,0,0,0-.336-.263l-3.94.115a.327.327,0,0,0-.322.371l.711,4.433A.322.322,0,0,0,7312.179,970.466Z" transform="translate(-7311.084 -965.24)" fill="#b1f2f0"/>
                <path id="Trazado_632813" data-name="Trazado 632813" d="M7311.608,969.952a.365.365,0,0,1-.365-.3l-.71-4.433a.353.353,0,0,1,.078-.283.383.383,0,0,1,.285-.138l3.94-.115a.367.367,0,0,1,.378.3l.743,4.382a.354.354,0,0,1-.075.281.388.388,0,0,1-.285.142l-3.974.165Zm3.24-5.185h-.008l-3.941.115a.3.3,0,0,0-.221.107.265.265,0,0,0-.061.215l.71,4.433a.28.28,0,0,0,.294.229l3.973-.165a.3.3,0,0,0,.223-.11.268.268,0,0,0,.058-.213l-.744-4.382A.283.283,0,0,0,7314.848,964.768Z" transform="translate(-7310.529 -964.683)" fill="#fff"/>
              </g>
              <g id="Grupo_904213" data-name="Grupo 904213" transform="translate(1.983 11.886)">
                <path id="Trazado_632814" data-name="Trazado 632814" d="M7323.689,1041.582l4.016-.2a.33.33,0,0,0,.319-.375l-.776-4.569a.322.322,0,0,0-.337-.261l-3.979.166a.33.33,0,0,0-.32.373l.74,4.606A.319.319,0,0,0,7323.689,1041.582Z" transform="translate(-7322.564 -1036.133)" fill="#b1f2f0"/>
                <path id="Trazado_632815" data-name="Trazado 632815" d="M7323.115,1041.068a.361.361,0,0,1-.362-.3l-.74-4.606a.359.359,0,0,1,.078-.281.385.385,0,0,1,.283-.14l3.979-.166a.366.366,0,0,1,.38.3l.777,4.569a.349.349,0,0,1-.074.28.391.391,0,0,1-.285.144l-4.016.2Zm3.254-5.407h-.013l-3.978.165a.3.3,0,0,0-.221.109.272.272,0,0,0-.06.215l.74,4.606a.278.278,0,0,0,.294.226l4.016-.2a.305.305,0,0,0,.223-.113.269.269,0,0,0,.057-.213l-.777-4.569A.279.279,0,0,0,7326.369,1035.661Z" transform="translate(-7322.009 -1035.576)" fill="#fff"/>
              </g>
              <g id="Grupo_904214" data-name="Grupo 904214" transform="translate(4.538 27.519)">
                <path id="Trazado_632816" data-name="Trazado 632816" d="M7358.735,1257.952l.772,4.774a.368.368,0,0,0,.411.3l4.008-.4a.4.4,0,0,0,.366-.449l-.805-4.7a.371.371,0,0,0-.406-.3l-3.975.33A.4.4,0,0,0,7358.735,1257.952Z" transform="translate(-7358.688 -1257.131)" fill="#b1f2f0"/>
                <path id="Trazado_632817" data-name="Trazado 632817" d="M7359.319,1262.512a.4.4,0,0,1-.409-.336l-.773-4.774a.414.414,0,0,1,.085-.322.461.461,0,0,1,.324-.174l3.974-.329a.413.413,0,0,1,.452.332l.806,4.7a.408.408,0,0,1-.082.319.463.463,0,0,1-.323.179l-4.007.4Zm3.24-5.853h-.031l-3.975.329a.374.374,0,0,0-.264.142.327.327,0,0,0-.069.257l.772,4.774a.324.324,0,0,0,.364.263l4.007-.4a.38.38,0,0,0,.264-.146.323.323,0,0,0,.065-.253l-.805-4.7A.326.326,0,0,0,7362.559,1256.659Z" transform="translate(-7358.132 -1256.575)" fill="#fff"/>
              </g>
              <g id="Grupo_904215" data-name="Grupo 904215">
                <path id="Trazado_632818" data-name="Trazado 632818" d="M7299.547,870l-.31-1.833-4.56.051.3,1.854Z" transform="translate(-7294.628 -868.119)" fill="#21cbae"/>
                <path id="Trazado_632819" data-name="Trazado 632819" d="M7294.286,869.547l-.309-1.938,4.644-.052.324,1.918Zm-.21-1.855.283,1.769,4.486-.07-.3-1.749Z" transform="translate(-7293.978 -867.557)" fill="#21cbae"/>
              </g>
            </g>
            <g id="Grupo_904224" data-name="Grupo 904224" transform="translate(22.78 0.099)">
              <g id="Grupo_904217" data-name="Grupo 904217" transform="translate(0.346 1.861)">
                <path id="Trazado_632820" data-name="Trazado 632820" d="M7227.215,899.917l-.712-4.462a.328.328,0,0,0-.333-.271l-3.983.063a.328.328,0,0,0-.325.37l.692,4.518a.326.326,0,0,0,.336.271l4-.118A.328.328,0,0,0,7227.215,899.917Z" transform="translate(-7221.815 -895.142)" fill="#b1f2f0"/>
                <path id="Trazado_632821" data-name="Trazado 632821" d="M7222.322,899.892a.368.368,0,0,1-.367-.308l-.692-4.518a.358.358,0,0,1,.082-.286.381.381,0,0,1,.285-.134l3.984-.063h.005a.372.372,0,0,1,.37.307l.712,4.462a.356.356,0,0,1-.078.283.384.384,0,0,1-.285.138l-4,.118Zm3.3-5.223h0l-3.983.063a.294.294,0,0,0-.221.1.27.27,0,0,0-.062.218l.691,4.518a.285.285,0,0,0,.293.236l4-.118a.3.3,0,0,0,.222-.107.27.27,0,0,0,.06-.216l-.712-4.462A.287.287,0,0,0,7225.618,894.67Z" transform="translate(-7221.259 -894.585)" fill="#fff"/>
              </g>
              <g id="Grupo_904218" data-name="Grupo 904218" transform="translate(3.57 22.572)">
                <path id="Trazado_632822" data-name="Trazado 632822" d="M7267.439,1188.682l.718,4.645a.371.371,0,0,0,.407.307l3.984-.333a.4.4,0,0,0,.372-.448l-.738-4.578a.375.375,0,0,0-.4-.306l-3.963.267A.4.4,0,0,0,7267.439,1188.682Z" transform="translate(-7267.393 -1187.924)" fill="#b1f2f0"/>
                <path id="Trazado_632823" data-name="Trazado 632823" d="M7267.972,1193.119a.41.41,0,0,1-.414-.344l-.718-4.645a.416.416,0,0,1,.09-.327.455.455,0,0,1,.324-.169l3.964-.267a.416.416,0,0,1,.448.342l.737,4.578a.414.414,0,0,1-.085.323.463.463,0,0,1-.324.174l-3.984.333Zm-1.048-5,.718,4.645a.328.328,0,0,0,.361.271l3.984-.333a.373.373,0,0,0,.264-.142.327.327,0,0,0,.069-.257l-.738-4.578a.331.331,0,0,0-.358-.271l-3.964.267a.37.37,0,0,0-.264.137.331.331,0,0,0-.072.261Z" transform="translate(-7266.835 -1187.367)" fill="#fff"/>
              </g>
              <g id="Grupo_904219" data-name="Grupo 904219" transform="translate(1.136 6.962)">
                <path id="Trazado_632824" data-name="Trazado 632824" d="M7238.4,972.015l-.711-4.442a.326.326,0,0,0-.336-.268l-4.008.118a.329.329,0,0,0-.322.372l.689,4.494a.322.322,0,0,0,.337.269l4.03-.169A.33.33,0,0,0,7238.4,972.015Z" transform="translate(-7232.98 -967.263)" fill="#b1f2f0"/>
                <path id="Trazado_632825" data-name="Trazado 632825" d="M7233.483,972.043a.365.365,0,0,1-.365-.3l-.689-4.494a.362.362,0,0,1,.08-.285.383.383,0,0,1,.283-.137l4.008-.118a.367.367,0,0,1,.378.3l.711,4.442a.356.356,0,0,1-.078.282.387.387,0,0,1-.283.141l-4.03.169Zm3.328-5.253h-.008l-4.008.118a.3.3,0,0,0-.221.106.274.274,0,0,0-.062.217l.689,4.494a.281.281,0,0,0,.294.233l4.029-.169a.3.3,0,0,0,.221-.109.269.269,0,0,0,.06-.215l-.711-4.442A.284.284,0,0,0,7236.811,966.79Z" transform="translate(-7232.425 -966.705)" fill="#fff"/>
              </g>
              <g id="Grupo_904220" data-name="Grupo 904220" transform="translate(2.745 17.293)">
                <path id="Trazado_632826" data-name="Trazado 632826" d="M7256.895,1118.9l3.959-.267a.4.4,0,0,0,.375-.446l-.728-4.529a.378.378,0,0,0-.4-.31l-3.939.2a.4.4,0,0,0-.379.445l.708,4.6A.375.375,0,0,0,7256.895,1118.9Z" transform="translate(-7255.735 -1113.302)" fill="#b1f2f0"/>
                <path id="Trazado_632827" data-name="Trazado 632827" d="M7256.309,1118.385a.415.415,0,0,1-.417-.347l-.709-4.6a.42.42,0,0,1,.091-.328.454.454,0,0,1,.327-.165l3.94-.2a.421.421,0,0,1,.443.346l.729,4.529a.411.411,0,0,1-.088.325.455.455,0,0,1-.326.17l-3.959.267Zm3.256-5.554h-.019l-3.94.2a.366.366,0,0,0-.266.134.331.331,0,0,0-.073.262l.708,4.6a.333.333,0,0,0,.359.275l3.96-.267a.369.369,0,0,0,.265-.138.326.326,0,0,0,.07-.259l-.729-4.529A.334.334,0,0,0,7259.564,1112.831Z" transform="translate(-7255.178 -1112.747)" fill="#fff"/>
              </g>
              <g id="Grupo_904221" data-name="Grupo 904221" transform="translate(1.923 12.043)">
                <path id="Trazado_632828" data-name="Trazado 632828" d="M7244.159,1039.661l.715,4.648a.319.319,0,0,0,.338.266l4.058-.2a.333.333,0,0,0,.32-.375l-.739-4.612a.323.323,0,0,0-.338-.265l-4.033.169A.332.332,0,0,0,7244.159,1039.661Z" transform="translate(-7244.113 -1039.075)" fill="#b1f2f0"/>
                <path id="Trazado_632829" data-name="Trazado 632829" d="M7244.639,1044.063a.362.362,0,0,1-.362-.3l-.714-4.648a.361.361,0,0,1,.079-.283.388.388,0,0,1,.282-.14l4.033-.169a.366.366,0,0,1,.381.3l.74,4.612a.357.357,0,0,1-.077.281.39.39,0,0,1-.283.143l-4.059.2Zm3.333-5.458h-.013l-4.033.169a.3.3,0,0,0-.22.109.273.273,0,0,0-.061.217l.715,4.648a.276.276,0,0,0,.294.23l4.058-.2a.306.306,0,0,0,.222-.111.27.27,0,0,0,.059-.215l-.74-4.612A.279.279,0,0,0,7247.972,1038.6Z" transform="translate(-7243.558 -1038.52)" fill="#fff"/>
              </g>
              <g id="Grupo_904222" data-name="Grupo 904222" transform="translate(4.403 27.897)">
                <path id="Trazado_632830" data-name="Trazado 632830" d="M7279.219,1264.024l.753,4.861a.368.368,0,0,0,.411.3l4.01-.405a.4.4,0,0,0,.367-.45l-.773-4.788a.371.371,0,0,0-.407-.3l-3.989.333A.4.4,0,0,0,7279.219,1264.024Z" transform="translate(-7279.172 -1263.198)" fill="#b1f2f0"/>
                <path id="Trazado_632831" data-name="Trazado 632831" d="M7279.783,1268.677a.405.405,0,0,1-.41-.341l-.753-4.86a.424.424,0,0,1,.088-.325.462.462,0,0,1,.322-.173l3.988-.333a.414.414,0,0,1,.452.338l.773,4.787a.41.41,0,0,1-.084.321.463.463,0,0,1-.32.178l-4.01.405Zm-1.079-5.214.753,4.86a.324.324,0,0,0,.364.267l4.01-.405a.379.379,0,0,0,.262-.145.332.332,0,0,0,.068-.256l-.774-4.787a.326.326,0,0,0-.36-.267l-3.989.333a.378.378,0,0,0-.263.141.333.333,0,0,0-.07.26Z" transform="translate(-7278.616 -1262.644)" fill="#fff"/>
              </g>
              <g id="Grupo_904223" data-name="Grupo 904223">
                <path id="Trazado_632832" data-name="Trazado 632832" d="M7222.008,870.741l-.3-1.856-4.645.053.287,1.876Z" transform="translate(-7217.018 -868.843)" fill="#21cbae"/>
                <path id="Trazado_632833" data-name="Trazado 632833" d="M7216.67,870.3l-.3-1.961,4.73-.054.309,1.94Zm-.2-1.878.273,1.792,4.568-.072-.283-1.771Z" transform="translate(-7216.371 -868.281)" fill="#21cbae"/>
              </g>
            </g>
            <g id="Grupo_904232" data-name="Grupo 904232" transform="translate(5.652 0.258)">
              <g id="Grupo_904225" data-name="Grupo 904225" transform="translate(0.974 7.249)">
                <path id="Trazado_632834" data-name="Trazado 632834" d="M6993.186,973.617l-4.261.129a.335.335,0,0,0-.324.374l.592,4.685a.325.325,0,0,0,.339.282l4.289-.185a.335.335,0,0,0,.321-.376l-.62-4.629A.328.328,0,0,0,6993.186,973.617Z" transform="translate(-6988.557 -973.575)" fill="#b1f2f0"/>
                <path id="Trazado_632835" data-name="Trazado 632835" d="M6988.962,978.573a.367.367,0,0,1-.366-.32l-.592-4.685a.372.372,0,0,1,.088-.289.377.377,0,0,1,.276-.133l4.262-.129a.37.37,0,0,1,.379.318l.621,4.629a.375.375,0,0,1-.085.287.382.382,0,0,1-.276.137l-4.289.185Zm3.67-5.471-4.261.129a.3.3,0,0,0-.216.1.287.287,0,0,0-.067.223l.593,4.684a.279.279,0,0,0,.294.246l4.289-.185a.3.3,0,0,0,.217-.106.283.283,0,0,0,.065-.221l-.62-4.629a.287.287,0,0,0-.294-.245Z" transform="translate(-6988.001 -973.018)" fill="#fff"/>
              </g>
              <g id="Grupo_904226" data-name="Grupo 904226" transform="translate(0.295 1.931)">
                <path id="Trazado_632836" data-name="Trazado 632836" d="M6983.558,898.432l-4.229.069a.332.332,0,0,0-.326.372l.6,4.723a.327.327,0,0,0,.337.285l4.256-.129a.333.333,0,0,0,.323-.374l-.623-4.663A.331.331,0,0,0,6983.558,898.432Z" transform="translate(-6978.958 -898.39)" fill="#b1f2f0"/>
                <path id="Trazado_632837" data-name="Trazado 632837" d="M6979.37,903.369a.369.369,0,0,1-.369-.323l-.6-4.723a.374.374,0,0,1,.088-.29.378.378,0,0,1,.279-.13l4.229-.069h.006a.373.373,0,0,1,.372.321l.624,4.663a.372.372,0,0,1-.085.288.382.382,0,0,1-.279.134l-4.256.129Zm3.633-5.45-4.229.069a.293.293,0,0,0-.216.1.286.286,0,0,0-.068.224l.6,4.723a.287.287,0,0,0,.293.248l4.256-.129a.3.3,0,0,0,.217-.1.279.279,0,0,0,.065-.222l-.623-4.663a.288.288,0,0,0-.288-.247Z" transform="translate(-6978.402 -897.834)" fill="#fff"/>
              </g>
              <g id="Grupo_904227" data-name="Grupo 904227" transform="translate(1.649 12.532)">
                <path id="Trazado_632838" data-name="Trazado 632838" d="M7002.763,1048.292l-4.293.185a.338.338,0,0,0-.322.376l.606,4.784a.322.322,0,0,0,.339.28l4.324-.223a.339.339,0,0,0,.321-.378l-.637-4.745A.324.324,0,0,0,7002.763,1048.292Z" transform="translate(-6998.103 -1048.249)" fill="#b1f2f0"/>
                <path id="Trazado_632839" data-name="Trazado 632839" d="M6998.519,1053.4a.361.361,0,0,1-.362-.317l-.607-4.784a.379.379,0,0,1,.087-.288.385.385,0,0,1,.276-.136l4.293-.185a.364.364,0,0,1,.382.315l.637,4.745a.37.37,0,0,1-.083.287.387.387,0,0,1-.277.139l-4.324.223Zm3.689-5.625-4.293.185a.3.3,0,0,0-.215.106.286.286,0,0,0-.066.223l.605,4.784a.28.28,0,0,0,.3.243l4.324-.223a.3.3,0,0,0,.216-.109.286.286,0,0,0,.065-.221l-.638-4.745a.282.282,0,0,0-.295-.242Z" transform="translate(-6997.546 -1047.693)" fill="#fff"/>
              </g>
              <g id="Grupo_904228" data-name="Grupo 904228" transform="translate(2.346 17.932)">
                <path id="Trazado_632840" data-name="Trazado 632840" d="M7012.584,1124.633l-4.208.217a.4.4,0,0,0-.379.447l.616,4.858a.376.376,0,0,0,.4.327l4.235-.292a.4.4,0,0,0,.375-.449l-.644-4.782A.379.379,0,0,0,7012.584,1124.633Z" transform="translate(-7007.952 -1124.59)" fill="#b1f2f0"/>
                <path id="Trazado_632841" data-name="Trazado 632841" d="M7008.435,1129.971a.415.415,0,0,1-.418-.365l-.617-4.857a.44.44,0,0,1,.1-.334.452.452,0,0,1,.321-.16l4.207-.217a.42.42,0,0,1,.444.363l.644,4.782a.431.431,0,0,1-.1.331.452.452,0,0,1-.319.166l-4.234.292Zm3.6-5.85-4.207.217a.363.363,0,0,0-.26.13.345.345,0,0,0-.08.269l.616,4.857a.333.333,0,0,0,.359.29l4.234-.292a.369.369,0,0,0,.26-.135.345.345,0,0,0,.077-.266l-.643-4.782a.339.339,0,0,0-.357-.289Z" transform="translate(-7007.396 -1124.036)" fill="#fff"/>
              </g>
              <g id="Grupo_904229" data-name="Grupo 904229" transform="translate(3.06 23.483)">
                <path id="Trazado_632842" data-name="Trazado 632842" d="M7018.1,1203.846l.623,4.9a.373.373,0,0,0,.408.323l4.267-.365a.407.407,0,0,0,.372-.451l-.65-4.823a.377.377,0,0,0-.4-.322l-4.239.292A.405.405,0,0,0,7018.1,1203.846Z" transform="translate(-7018.052 -1203.061)" fill="#b1f2f0"/>
                <path id="Trazado_632843" data-name="Trazado 632843" d="M7018.538,1208.552a.417.417,0,0,1-.417-.361l-.623-4.9a.435.435,0,0,1,.1-.332.454.454,0,0,1,.318-.165l4.24-.292a.415.415,0,0,1,.449.359l.65,4.823a.429.429,0,0,1-.093.329.459.459,0,0,1-.317.17l-4.267.365Zm3.646-5.964h-.025l-4.239.292a.37.37,0,0,0-.258.134.348.348,0,0,0-.079.268l.623,4.9a.333.333,0,0,0,.363.286l4.267-.365a.374.374,0,0,0,.258-.138.349.349,0,0,0,.076-.265l-.651-4.823A.33.33,0,0,0,7022.184,1202.588Z" transform="translate(-7017.495 -1202.503)" fill="#fff"/>
              </g>
              <g id="Grupo_904230" data-name="Grupo 904230" transform="translate(3.781 29.073)">
                <path id="Trazado_632844" data-name="Trazado 632844" d="M7028.284,1282.948l.654,5.137a.37.37,0,0,0,.412.319l4.3-.445a.411.411,0,0,0,.368-.453l-.684-5.057a.373.373,0,0,0-.408-.318l-4.271.366A.409.409,0,0,0,7028.284,1282.948Z" transform="translate(-7028.239 -1282.087)" fill="#b1f2f0"/>
                <path id="Trazado_632845" data-name="Trazado 632845" d="M7028.752,1287.89a.411.411,0,0,1-.413-.358l-.655-5.137a.436.436,0,0,1,.1-.331.46.46,0,0,1,.315-.168l4.272-.365a.416.416,0,0,1,.454.355l.683,5.056a.431.431,0,0,1-.092.327.46.46,0,0,1-.314.174l-4.3.445Zm-.983-5.506.654,5.137a.33.33,0,0,0,.366.282l4.3-.445a.377.377,0,0,0,.256-.142.348.348,0,0,0,.075-.263l-.683-5.057a.328.328,0,0,0-.362-.282l-4.272.365a.375.375,0,0,0-.256.137.352.352,0,0,0-.078.267Z" transform="translate(-7027.681 -1281.528)" fill="#fff"/>
              </g>
              <g id="Grupo_904231" data-name="Grupo 904231">
                <path id="Trazado_632846" data-name="Trazado 632846" d="M6980.057,873.069l-.257-1.926-4.885.058.245,1.948Z" transform="translate(-6974.867 -871.101)" fill="#21cbae"/>
                <path id="Trazado_632847" data-name="Trazado 632847" d="M6974.493,872.629l-.256-2.032h.048l4.922-.058.269,2.01h-.048Zm-.16-1.949.234,1.863,4.812-.079-.246-1.841Z" transform="translate(-6974.237 -870.538)" fill="#21cbae"/>
              </g>
            </g>
            <g id="Grupo_904240" data-name="Grupo 904240" transform="translate(0 0.317)">
              <g id="Grupo_904233" data-name="Grupo 904233" transform="translate(2.894 23.801)">
                <path id="Trazado_632848" data-name="Trazado 632848" d="M6940.386,1208.425l-4.147.288a.408.408,0,0,0-.377.45l.592,4.983a.373.373,0,0,0,.408.328l4.18-.36a.41.41,0,0,0,.373-.452l-.624-4.91A.377.377,0,0,0,6940.386,1208.425Z" transform="translate(-6935.816 -1208.382)" fill="#b1f2f0"/>
                <path id="Trazado_632849" data-name="Trazado 632849" d="M6936.271,1213.961a.416.416,0,0,1-.417-.367l-.592-4.983a.441.441,0,0,1,.1-.335.456.456,0,0,1,.316-.163l4.147-.288a.415.415,0,0,1,.45.364l.624,4.91a.436.436,0,0,1-.1.331.459.459,0,0,1-.315.168l-4.18.36Zm3.561-6.051-4.147.288a.366.366,0,0,0-.256.132.354.354,0,0,0-.082.27l.591,4.983a.333.333,0,0,0,.363.292l4.18-.36a.373.373,0,0,0,.256-.137.354.354,0,0,0,.078-.268l-.624-4.91a.333.333,0,0,0-.36-.29Z" transform="translate(-6935.26 -1207.824)" fill="#fff"/>
              </g>
              <g id="Grupo_904234" data-name="Grupo 904234" transform="translate(3.578 29.485)">
                <path id="Trazado_632850" data-name="Trazado 632850" d="M6945.526,1289.58l.623,5.231a.37.37,0,0,0,.413.324l4.218-.44a.413.413,0,0,0,.369-.454l-.655-5.151a.373.373,0,0,0-.409-.323l-4.186.361A.412.412,0,0,0,6945.526,1289.58Z" transform="translate(-6945.481 -1288.723)" fill="#b1f2f0"/>
                <path id="Trazado_632851" data-name="Trazado 632851" d="M6945.962,1294.625a.41.41,0,0,1-.412-.364l-.623-5.231a.441.441,0,0,1,.1-.333.459.459,0,0,1,.313-.167l4.186-.361a.417.417,0,0,1,.454.36l.655,5.151a.441.441,0,0,1-.094.33.462.462,0,0,1-.312.172l-4.22.44Zm3.6-6.372h-.03l-4.186.361a.372.372,0,0,0-.255.136.358.358,0,0,0-.08.269l.622,5.231a.33.33,0,0,0,.366.287l4.219-.44a.379.379,0,0,0,.255-.141.351.351,0,0,0,.076-.266l-.655-5.151A.332.332,0,0,0,6949.562,1288.253Z" transform="translate(-6944.924 -1288.168)" fill="#fff"/>
              </g>
              <g id="Grupo_904235" data-name="Grupo 904235" transform="translate(2.209 18.152)">
                <path id="Trazado_632852" data-name="Trazado 632852" d="M6930.726,1128.561l-4.231.22a.341.341,0,0,0-.321.379l.6,5.066a.319.319,0,0,0,.343.281l4.264-.3a.344.344,0,0,0,.318-.381l-.633-4.99A.321.321,0,0,0,6930.726,1128.561Z" transform="translate(-6926.128 -1128.518)" fill="#b1f2f0"/>
                <path id="Trazado_632853" data-name="Trazado 632853" d="M6926.535,1133.994a.363.363,0,0,1-.362-.319l-.6-5.067a.385.385,0,0,1,.362-.426l4.231-.22a.363.363,0,0,1,.384.317l.632,4.99a.373.373,0,0,1-.083.287.393.393,0,0,1-.274.141l-4.263.3Zm3.636-5.948-4.232.22a.3.3,0,0,0-.213.107.29.29,0,0,0-.068.225l.6,5.067a.275.275,0,0,0,.3.244l4.263-.3a.306.306,0,0,0,.214-.111.291.291,0,0,0,.066-.222l-.633-4.99a.278.278,0,0,0-.294-.243Z" transform="translate(-6925.57 -1127.962)" fill="#fff"/>
              </g>
              <g id="Grupo_904236" data-name="Grupo 904236" transform="translate(1.56 12.703)">
                <path id="Trazado_632854" data-name="Trazado 632854" d="M6921.509,1051.537l-4.192.182a.339.339,0,0,0-.321.377l.571,4.829a.321.321,0,0,0,.339.284l4.227-.22a.341.341,0,0,0,.321-.379l-.605-4.791A.325.325,0,0,0,6921.509,1051.537Z" transform="translate(-6916.95 -1051.494)" fill="#b1f2f0"/>
                <path id="Trazado_632855" data-name="Trazado 632855" d="M6917.332,1056.7a.362.362,0,0,1-.363-.322l-.571-4.829a.382.382,0,0,1,.363-.424l4.191-.182a.366.366,0,0,1,.383.32l.605,4.791a.377.377,0,0,1-.085.288.388.388,0,0,1-.276.138l-4.227.22Zm3.624-5.673-4.192.182a.3.3,0,0,0-.213.1.292.292,0,0,0-.069.225l.571,4.829a.278.278,0,0,0,.295.247l4.227-.22a.3.3,0,0,0,.215-.108.289.289,0,0,0,.067-.223l-.606-4.791a.28.28,0,0,0-.295-.246Z" transform="translate(-6916.395 -1050.938)" fill="#fff"/>
              </g>
              <g id="Grupo_904237" data-name="Grupo 904237" transform="translate(0.921 7.35)">
                <path id="Trazado_632856" data-name="Trazado 632856" d="M6912.445,975.862l-4.155.127a.337.337,0,0,0-.324.375l.561,4.749a.325.325,0,0,0,.339.287l4.187-.182a.339.339,0,0,0,.322-.377l-.594-4.694A.327.327,0,0,0,6912.445,975.862Z" transform="translate(-6907.921 -975.819)" fill="#b1f2f0"/>
                <path id="Trazado_632857" data-name="Trazado 632857" d="M6908.294,980.885a.367.367,0,0,1-.366-.325l-.56-4.749a.379.379,0,0,1,.365-.422l4.154-.127a.368.368,0,0,1,.381.323l.592,4.694a.377.377,0,0,1-.086.289.385.385,0,0,1-.275.136l-4.187.182Zm3.6-5.538-4.155.127a.295.295,0,0,0-.283.327l.561,4.749a.28.28,0,0,0,.295.25l4.187-.182a.3.3,0,0,0,.215-.106.29.29,0,0,0,.067-.223l-.593-4.694a.284.284,0,0,0-.284-.249Z" transform="translate(-6907.365 -975.262)" fill="#fff"/>
              </g>
              <g id="Grupo_904238" data-name="Grupo 904238" transform="translate(0.278 1.955)">
                <path id="Trazado_632858" data-name="Trazado 632858" d="M6903.32,899.6l-4.117.068a.334.334,0,0,0-.326.373l.564,4.793a.329.329,0,0,0,.338.29l4.149-.127a.335.335,0,0,0,.323-.375l-.6-4.734A.33.33,0,0,0,6903.32,899.6Z" transform="translate(-6898.832 -899.561)" fill="#b1f2f0"/>
                <path id="Trazado_632859" data-name="Trazado 632859" d="M6899.213,904.613a.369.369,0,0,1-.369-.328l-.565-4.793a.376.376,0,0,1,.368-.42l4.118-.068h.006a.372.372,0,0,1,.371.326l.6,4.734a.373.373,0,0,1-.087.29.38.38,0,0,1-.277.133l-4.149.127Zm3.554-5.524-4.119.068a.292.292,0,0,0-.214.1.289.289,0,0,0-.07.226l.564,4.793a.287.287,0,0,0,.294.253l4.15-.127a.3.3,0,0,0,.215-.1.289.289,0,0,0,.067-.224l-.6-4.734a.286.286,0,0,0-.292-.251Z" transform="translate(-6898.276 -899.004)" fill="#fff"/>
              </g>
              <g id="Grupo_904239" data-name="Grupo 904239">
                <path id="Trazado_632860" data-name="Trazado 632860" d="M6899.789,871.967l-4.772.057.232,1.972,4.785-.079Z" transform="translate(-6894.969 -871.925)" fill="#21cbae"/>
                <path id="Trazado_632861" data-name="Trazado 632861" d="M6894.586,873.477l-.242-2.057h.047l4.81-.058.256,2.035h-.047Zm-.147-1.973.222,1.887,4.7-.078-.234-1.866Z" transform="translate(-6894.345 -871.362)" fill="#21cbae"/>
              </g>
            </g>
            <g id="Grupo_904248" data-name="Grupo 904248" transform="translate(11.451 0.204)">
              <g id="Grupo_904241" data-name="Grupo 904241" transform="translate(0.309 1.907)">
                <path id="Trazado_632862" data-name="Trazado 632862" d="M7066.5,902.2l-.652-4.6a.329.329,0,0,0-.334-.28l-4,.065a.331.331,0,0,0-.326.371l.623,4.653a.328.328,0,0,0,.338.281l4.027-.121A.333.333,0,0,0,7066.5,902.2Z" transform="translate(-7061.148 -897.285)" fill="#b1f2f0"/>
                <path id="Trazado_632863" data-name="Trazado 632863" d="M7061.589,902.184a.368.368,0,0,1-.368-.318l-.623-4.652a.369.369,0,0,1,.086-.288.378.378,0,0,1,.281-.131l4-.064h.006a.372.372,0,0,1,.371.316l.652,4.6a.364.364,0,0,1-.083.286.382.382,0,0,1-.281.135l-4.027.121Zm3.38-5.369h0l-4,.064a.294.294,0,0,0-.218.1.279.279,0,0,0-.066.222l.623,4.653a.287.287,0,0,0,.293.244l4.028-.121a.3.3,0,0,0,.218-.1.276.276,0,0,0,.064-.22l-.652-4.6A.288.288,0,0,0,7064.969,896.815Z" transform="translate(-7060.595 -896.73)" fill="#fff"/>
              </g>
              <g id="Grupo_904242" data-name="Grupo 904242" transform="translate(3.205 23.178)">
                <path id="Trazado_632864" data-name="Trazado 632864" d="M7102.129,1198.748l.649,4.81a.372.372,0,0,0,.408.318l4.044-.343a.4.4,0,0,0,.372-.45l-.678-4.741a.376.376,0,0,0-.4-.317l-4.015.275A.4.4,0,0,0,7102.129,1198.748Z" transform="translate(-7102.083 -1197.982)" fill="#b1f2f0"/>
                <path id="Trazado_632865" data-name="Trazado 632865" d="M7102.595,1203.363a.416.416,0,0,1-.416-.356l-.649-4.81a.428.428,0,0,1,.095-.33.456.456,0,0,1,.32-.166l4.015-.275a.416.416,0,0,1,.449.353l.679,4.741a.426.426,0,0,1-.091.327.458.458,0,0,1-.319.171l-4.043.343Zm-.981-5.178.649,4.81a.329.329,0,0,0,.362.281l4.043-.343a.374.374,0,0,0,.26-.139.338.338,0,0,0,.074-.262l-.679-4.741a.331.331,0,0,0-.359-.281l-4.015.275a.37.37,0,0,0-.26.135.342.342,0,0,0-.077.266Z" transform="translate(-7101.525 -1197.425)" fill="#fff"/>
              </g>
              <g id="Grupo_904243" data-name="Grupo 904243" transform="translate(1.727 12.368)">
                <path id="Trazado_632866" data-name="Trazado 632866" d="M7085.62,1045.2l-4.066.174a.336.336,0,0,0-.322.375l.637,4.738a.321.321,0,0,0,.339.275l4.1-.21a.337.337,0,0,0,.321-.377l-.669-4.7A.323.323,0,0,0,7085.62,1045.2Z" transform="translate(-7081.187 -1045.161)" fill="#b1f2f0"/>
                <path id="Trazado_632867" data-name="Trazado 632867" d="M7081.636,1050.253a.361.361,0,0,1-.363-.313l-.637-4.738a.371.371,0,0,1,.084-.286.384.384,0,0,1,.278-.137l4.065-.174a.365.365,0,0,1,.382.311l.67,4.7a.368.368,0,0,1-.081.285.39.39,0,0,1-.28.14l-4.1.21Zm3.431-5.563-4.066.173a.3.3,0,0,0-.216.107.281.281,0,0,0-.065.22l.637,4.738a.281.281,0,0,0,.3.239l4.1-.21a.3.3,0,0,0,.218-.11.281.281,0,0,0,.063-.219l-.67-4.7a.282.282,0,0,0-.294-.238Z" transform="translate(-7080.633 -1044.605)" fill="#fff"/>
              </g>
              <g id="Grupo_904244" data-name="Grupo 904244" transform="translate(2.459 17.719)">
                <path id="Trazado_632868" data-name="Trazado 632868" d="M7091.59,1121.5l.643,4.768a.376.376,0,0,0,.4.322l4.01-.274a.4.4,0,0,0,.376-.448l-.671-4.7a.379.379,0,0,0-.4-.321l-3.981.2A.4.4,0,0,0,7091.59,1121.5Z" transform="translate(-7091.544 -1120.803)" fill="#b1f2f0"/>
                <path id="Trazado_632869" data-name="Trazado 632869" d="M7092.053,1126.073a.416.416,0,0,1-.418-.359l-.642-4.768a.429.429,0,0,1,.1-.332.45.45,0,0,1,.322-.162l3.981-.2a.42.42,0,0,1,.444.357l.67,4.7a.424.424,0,0,1-.093.329.455.455,0,0,1-.321.167l-4.01.274Zm3.364-5.741h-.019l-3.981.2a.366.366,0,0,0-.262.131.342.342,0,0,0-.078.267l.642,4.768a.333.333,0,0,0,.36.285l4.01-.274a.369.369,0,0,0,.261-.136.341.341,0,0,0,.075-.264l-.67-4.7A.335.335,0,0,0,7095.417,1120.332Z" transform="translate(-7090.989 -1120.247)" fill="#fff"/>
              </g>
              <g id="Grupo_904245" data-name="Grupo 904245" transform="translate(1.02 7.153)">
                <path id="Trazado_632870" data-name="Trazado 632870" d="M7075.592,971.486l-4.032.121a.333.333,0,0,0-.323.373l.62,4.619a.324.324,0,0,0,.339.278l4.061-.173a.334.334,0,0,0,.321-.375l-.649-4.566A.326.326,0,0,0,7075.592,971.486Z" transform="translate(-7071.191 -971.443)" fill="#b1f2f0"/>
                <path id="Trazado_632871" data-name="Trazado 632871" d="M7071.625,976.364a.365.365,0,0,1-.366-.315l-.62-4.619a.367.367,0,0,1,.085-.287.381.381,0,0,1,.279-.134l4.032-.121a.367.367,0,0,1,.38.313l.649,4.566a.368.368,0,0,1-.083.285.385.385,0,0,1-.279.138l-4.061.173Zm3.413-5.392-4.032.121a.3.3,0,0,0-.217.1.284.284,0,0,0-.066.221l.62,4.619a.284.284,0,0,0,.295.241l4.061-.173a.3.3,0,0,0,.218-.107.279.279,0,0,0,.063-.219l-.649-4.566a.283.283,0,0,0-.293-.241Z" transform="translate(-7070.636 -970.887)" fill="#fff"/>
              </g>
              <g id="Grupo_904246" data-name="Grupo 904246" transform="translate(3.957 28.68)">
                <path id="Trazado_632872" data-name="Trazado 632872" d="M7112.766,1276.588l.682,5.042a.369.369,0,0,0,.412.314l4.08-.419a.409.409,0,0,0,.368-.452l-.712-4.966a.372.372,0,0,0-.408-.313l-4.049.344A.407.407,0,0,0,7112.766,1276.588Z" transform="translate(-7112.72 -1275.75)" fill="#b1f2f0"/>
                <path id="Trazado_632873" data-name="Trazado 632873" d="M7113.262,1281.431a.41.41,0,0,1-.412-.353l-.683-5.042a.43.43,0,0,1,.094-.329.458.458,0,0,1,.317-.17l4.049-.344a.413.413,0,0,1,.454.349l.712,4.966a.426.426,0,0,1-.09.325.465.465,0,0,1-.316.175l-4.078.419Zm-1.01-5.406.682,5.042a.329.329,0,0,0,.365.277l4.079-.419a.38.38,0,0,0,.259-.143.345.345,0,0,0,.072-.261l-.712-4.966a.329.329,0,0,0-.362-.277l-4.049.344a.374.374,0,0,0-.259.138.341.341,0,0,0-.075.264Z" transform="translate(-7112.163 -1275.193)" fill="#fff"/>
              </g>
              <g id="Grupo_904247" data-name="Grupo 904247">
                <path id="Trazado_632874" data-name="Trazado 632874" d="M7061.83,872.272l-.27-1.9-4.655.054.257,1.923Z" transform="translate(-7056.857 -870.327)" fill="#21cbae"/>
                <path id="Trazado_632875" data-name="Trazado 632875" d="M7056.491,871.829l-.269-2.008h.048l4.692-.055.281,1.987h-.048Zm-.172-1.924.246,1.838,4.581-.074-.258-1.818Z" transform="translate(-7056.223 -869.766)" fill="#21cbae"/>
              </g>
            </g>
            <g id="Grupo_904256" data-name="Grupo 904256" transform="translate(33.85)">
              <g id="Grupo_904249" data-name="Grupo 904249" transform="translate(4.745 27.153)">
                <path id="Trazado_632876" data-name="Trazado 632876" d="M7441.763,1257.068l3.771-.375a.4.4,0,0,0,.366-.448l-.839-4.618a.371.371,0,0,0-.406-.292l-3.735.307a.4.4,0,0,0-.371.446l.8,4.687A.368.368,0,0,0,7441.763,1257.068Z" transform="translate(-7440.501 -1251.291)" fill="#b1f2f0"/>
                <path id="Trazado_632877" data-name="Trazado 632877" d="M7441.164,1256.555a.406.406,0,0,1-.41-.33l-.8-4.687a.4.4,0,0,1,.083-.32.461.461,0,0,1,.326-.175l3.735-.307a.414.414,0,0,1,.451.327l.84,4.618a.4.4,0,0,1-.079.317.465.465,0,0,1-.325.181l-3.771.375Zm2.968-5.737h-.031l-3.735.307a.375.375,0,0,0-.266.143.319.319,0,0,0-.066.254l.8,4.687a.324.324,0,0,0,.364.258l3.77-.375a.379.379,0,0,0,.267-.148.323.323,0,0,0,.063-.251l-.84-4.618A.326.326,0,0,0,7444.132,1250.818Z" transform="translate(-7439.944 -1250.734)" fill="#fff"/>
              </g>
              <g id="Grupo_904250" data-name="Grupo 904250" transform="translate(3.851 21.996)">
                <path id="Trazado_632878" data-name="Trazado 632878" d="M7427.914,1179.122l.768,4.486a.37.37,0,0,0,.406.3l3.728-.307a.4.4,0,0,0,.371-.447l-.8-4.423a.374.374,0,0,0-.4-.3l-3.694.245A.393.393,0,0,0,7427.914,1179.122Z" transform="translate(-7427.866 -1178.389)" fill="#b1f2f0"/>
                <path id="Trazado_632879" data-name="Trazado 632879" d="M7428.5,1183.392a.41.41,0,0,1-.414-.334l-.768-4.486a.4.4,0,0,1,.085-.322.455.455,0,0,1,.329-.172l3.694-.245a.417.417,0,0,1,.447.33l.8,4.423a.4.4,0,0,1-.08.319.464.464,0,0,1-.329.177l-3.728.307Zm-1.1-4.834.769,4.486a.328.328,0,0,0,.361.262l3.729-.307a.377.377,0,0,0,.268-.144.321.321,0,0,0,.064-.253l-.8-4.423a.334.334,0,0,0-.357-.261l-3.694.245a.372.372,0,0,0-.268.14.324.324,0,0,0-.068.255Z" transform="translate(-7427.309 -1177.833)" fill="#fff"/>
              </g>
              <g id="Grupo_904251" data-name="Grupo 904251" transform="translate(0.365 1.816)">
                <path id="Trazado_632880" data-name="Trazado 632880" d="M7379.662,898.23l3.8-.11a.269.269,0,0,0,.267-.307l-.8-4.443a.271.271,0,0,0-.276-.217l-3.764.058a.268.268,0,0,0-.269.306l.762,4.5A.269.269,0,0,0,7379.662,898.23Z" transform="translate(-7378.576 -893.11)" fill="#b1f2f0"/>
                <path id="Trazado_632881" data-name="Trazado 632881" d="M7379.1,897.715a.313.313,0,0,1-.311-.254l-.761-4.5a.294.294,0,0,1,.065-.24.324.324,0,0,1,.245-.115l3.764-.058h0a.312.312,0,0,1,.313.252l.8,4.443a.3.3,0,0,1-.062.238.326.326,0,0,1-.245.119l-3.8.11Zm3.006-5.077h0l-3.765.058a.24.24,0,0,0-.181.085.211.211,0,0,0-.047.171l.762,4.5a.225.225,0,0,0,.235.183l3.8-.11a.242.242,0,0,0,.181-.088.21.21,0,0,0,.045-.17l-.8-4.443A.229.229,0,0,0,7382.1,892.638Z" transform="translate(-7378.021 -892.553)" fill="#fff"/>
              </g>
              <g id="Grupo_904252" data-name="Grupo 904252">
                <path id="Trazado_632882" data-name="Trazado 632882" d="M7378.2,869.3l-.324-1.812-4.306.047.31,1.831Z" transform="translate(-7373.521 -867.446)" fill="#21cbae"/>
                <path id="Trazado_632883" data-name="Trazado 632883" d="M7373.188,868.848l-.324-1.916,4.391-.048.34,1.9Zm-.224-1.832.295,1.746,4.234-.065-.31-1.727Z" transform="translate(-7372.863 -866.884)" fill="#21cbae"/>
              </g>
              <g id="Grupo_904253" data-name="Grupo 904253" transform="translate(2.074 11.734)">
                <path id="Trazado_632884" data-name="Trazado 632884" d="M7403.905,1038.705l3.77-.187a.329.329,0,0,0,.32-.374l-.816-4.527a.323.323,0,0,0-.337-.256l-3.73.154a.328.328,0,0,0-.32.372l.777,4.562A.319.319,0,0,0,7403.905,1038.705Z" transform="translate(-7402.744 -1033.318)" fill="#b1f2f0"/>
                <path id="Trazado_632885" data-name="Trazado 632885" d="M7403.333,1038.193a.362.362,0,0,1-.362-.293l-.776-4.562a.349.349,0,0,1,.075-.28.386.386,0,0,1,.285-.142l3.73-.154a.365.365,0,0,1,.381.291l.816,4.527a.342.342,0,0,1-.072.279.389.389,0,0,1-.286.145l-3.771.188Zm2.969-5.346h-.012l-3.731.154a.3.3,0,0,0-.223.11.261.261,0,0,0-.058.213l.777,4.561a.278.278,0,0,0,.293.222l3.77-.187a.308.308,0,0,0,.226-.114.264.264,0,0,0,.055-.211l-.817-4.527A.279.279,0,0,0,7406.3,1032.848Z" transform="translate(-7402.19 -1032.763)" fill="#fff"/>
              </g>
              <g id="Grupo_904254" data-name="Grupo 904254" transform="translate(1.225 6.782)">
                <path id="Trazado_632886" data-name="Trazado 632886" d="M7391.86,968.466l3.725-.154a.326.326,0,0,0,.319-.373l-.778-4.325a.324.324,0,0,0-.335-.259l-3.689.107a.325.325,0,0,0-.322.37l.743,4.372A.322.322,0,0,0,7391.86,968.466Z" transform="translate(-7390.733 -963.313)" fill="#b1f2f0"/>
                <path id="Trazado_632887" data-name="Trazado 632887" d="M7391.292,967.95a.364.364,0,0,1-.364-.3l-.742-4.372a.35.35,0,0,1,.075-.281.384.384,0,0,1,.287-.139l3.69-.107a.367.367,0,0,1,.378.294l.778,4.325a.348.348,0,0,1-.073.279.387.387,0,0,1-.287.143l-3.725.154Zm2.957-5.11h-.009l-3.69.107a.3.3,0,0,0-.223.108.262.262,0,0,0-.058.213l.742,4.372a.282.282,0,0,0,.294.225l3.725-.154a.3.3,0,0,0,.225-.112.259.259,0,0,0,.055-.211l-.778-4.325A.283.283,0,0,0,7394.249,962.84Z" transform="translate(-7390.181 -962.755)" fill="#fff"/>
              </g>
              <g id="Grupo_904255" data-name="Grupo 904255" transform="translate(2.968 16.889)">
                <path id="Trazado_632888" data-name="Trazado 632888" d="M7416.588,1111.6l3.688-.245a.391.391,0,0,0,.373-.445l-.791-4.37a.376.376,0,0,0-.4-.3l-3.654.182a.391.391,0,0,0-.378.442l.757,4.434A.374.374,0,0,0,7416.588,1111.6Z" transform="translate(-7415.38 -1106.194)" fill="#b1f2f0"/>
                <path id="Trazado_632889" data-name="Trazado 632889" d="M7416,1111.084a.415.415,0,0,1-.417-.337l-.757-4.434a.4.4,0,0,1,.086-.324.454.454,0,0,1,.332-.168l3.654-.182a.42.42,0,0,1,.442.334l.79,4.37a.4.4,0,0,1-.082.321.459.459,0,0,1-.331.173l-3.687.245Zm2.921-5.36h-.019l-3.654.182a.369.369,0,0,0-.27.136.32.32,0,0,0-.069.257l.757,4.434a.333.333,0,0,0,.358.266l3.688-.245a.372.372,0,0,0,.269-.141.316.316,0,0,0,.065-.254l-.79-4.37A.335.335,0,0,0,7418.923,1105.724Z" transform="translate(-7414.823 -1105.639)" fill="#fff"/>
              </g>
            </g>
          </g>
          <g id="Grupo_904258" data-name="Grupo 904258" transform="translate(6.929 2.643)">
            <path id="Trazado_632890" data-name="Trazado 632890" d="M6823.429,698.68H6774.07a.04.04,0,0,1,0-.079h49.358a.04.04,0,1,1,0,.079Z" transform="translate(-6774.031 -698.601)" fill="#058baf"/>
          </g>
          <g id="Grupo_904259" data-name="Grupo 904259" transform="translate(55.243 2.643)">
            <path id="Trazado_632891" data-name="Trazado 632891" d="M7464.2,720.229a.039.039,0,0,1-.039-.034l-2.794-19.626a2.208,2.208,0,0,0-2.176-1.888h-2.127a.04.04,0,0,1,0-.079h2.127a2.29,2.29,0,0,1,2.255,1.957l2.793,19.626a.04.04,0,0,1-.034.045Z" transform="translate(-7457.026 -698.601)" fill="#058baf"/>
          </g>
          <g id="Grupo_904260" data-name="Grupo 904260" transform="translate(62.777 26.98)">
            <path id="Trazado_632892" data-name="Trazado 632892" d="M7565.5,1056.361a.039.039,0,0,1-.039-.034l-1.941-13.637a.04.04,0,0,1,.034-.045.04.04,0,0,1,.045.034l1.94,13.637a.04.04,0,0,1-.034.045Z" transform="translate(-7563.523 -1042.644)" fill="#058baf"/>
          </g>
          <g id="Grupo_904261" data-name="Grupo 904261" transform="translate(8.521 0)">
            <path id="Trazado_632893" data-name="Trazado 632893" d="M6796.659,665.477a.075.075,0,0,1-.075-.072c-.042-1.123-.05-2.261-.023-3.384a.973.973,0,0,1,.116-.525.709.709,0,0,1,.951-.136,1.941,1.941,0,0,1,.613.759l.833,1.51a.074.074,0,0,1-.029.1.075.075,0,0,1-.1-.029l-.833-1.51a1.794,1.794,0,0,0-.56-.7.567.567,0,0,0-.748.09.856.856,0,0,0-.091.448c-.027,1.119-.02,2.255.023,3.375a.074.074,0,0,1-.072.078Z" transform="translate(-6796.545 -661.24)" fill="#f5a338"/>
          </g>
          <g id="Grupo_904262" data-name="Grupo 904262" transform="translate(10.91 0)">
            <path id="Trazado_632894" data-name="Trazado 632894" d="M6830.428,665.478a.075.075,0,0,1-.075-.072c-.042-1.122-.05-2.26-.023-3.384a.969.969,0,0,1,.116-.525.709.709,0,0,1,.951-.136,1.935,1.935,0,0,1,.612.759l.833,1.51a.075.075,0,1,1-.13.072l-.833-1.51a1.8,1.8,0,0,0-.561-.7.566.566,0,0,0-.748.09.851.851,0,0,0-.091.448c-.028,1.121-.02,2.256.023,3.375a.075.075,0,0,1-.072.078Z" transform="translate(-6830.314 -661.241)" fill="#f5a338"/>
          </g>
          <g id="Grupo_904263" data-name="Grupo 904263" transform="translate(13.452 0)">
            <path id="Trazado_632895" data-name="Trazado 632895" d="M6866.36,665.477a.075.075,0,0,1-.075-.072c-.043-1.123-.05-2.261-.023-3.384a.969.969,0,0,1,.116-.525.708.708,0,0,1,.951-.136,1.937,1.937,0,0,1,.613.759l.833,1.51a.076.076,0,0,1-.029.1.075.075,0,0,1-.1-.029l-.833-1.51a1.8,1.8,0,0,0-.56-.7.566.566,0,0,0-.748.09.856.856,0,0,0-.091.448c-.027,1.119-.02,2.255.023,3.375a.075.075,0,0,1-.072.078Z" transform="translate(-6866.247 -661.24)" fill="#f5a338"/>
          </g>
          <g id="Grupo_904264" data-name="Grupo 904264" transform="translate(15.841 0)">
            <path id="Trazado_632896" data-name="Trazado 632896" d="M6900.129,665.478a.075.075,0,0,1-.075-.072c-.042-1.122-.05-2.26-.022-3.384a.973.973,0,0,1,.116-.525.709.709,0,0,1,.951-.136,1.933,1.933,0,0,1,.613.759l.834,1.51a.075.075,0,0,1-.131.072l-.833-1.51a1.8,1.8,0,0,0-.561-.7.566.566,0,0,0-.748.09.856.856,0,0,0-.091.448c-.027,1.121-.02,2.256.023,3.375a.075.075,0,0,1-.072.078Z" transform="translate(-6900.016 -661.241)" fill="#f5a338"/>
          </g>
          <g id="Grupo_904265" data-name="Grupo 904265" transform="translate(18.23 0)">
            <path id="Trazado_632897" data-name="Trazado 632897" d="M6933.9,665.477a.074.074,0,0,1-.074-.072c-.043-1.123-.051-2.261-.023-3.384a.969.969,0,0,1,.115-.525.709.709,0,0,1,.951-.136,1.936,1.936,0,0,1,.613.759l.833,1.51a.075.075,0,0,1-.03.1.074.074,0,0,1-.1-.029l-.833-1.51a1.8,1.8,0,0,0-.561-.7.566.566,0,0,0-.747.09.851.851,0,0,0-.091.448c-.028,1.119-.02,2.255.022,3.375a.075.075,0,0,1-.072.078Z" transform="translate(-6933.784 -661.24)" fill="#f5a338"/>
          </g>
          <g id="Grupo_904266" data-name="Grupo 904266" transform="translate(20.771 0)">
            <path id="Trazado_632898" data-name="Trazado 632898" d="M6969.829,665.478a.075.075,0,0,1-.075-.072c-.042-1.123-.05-2.261-.022-3.384a.964.964,0,0,1,.116-.525.709.709,0,0,1,.951-.136,1.938,1.938,0,0,1,.613.759l.833,1.51a.075.075,0,0,1-.131.072l-.833-1.51a1.805,1.805,0,0,0-.561-.7.566.566,0,0,0-.748.09.851.851,0,0,0-.091.448c-.027,1.12-.02,2.255.022,3.375a.074.074,0,0,1-.072.078Z" transform="translate(-6969.715 -661.241)" fill="#f5a338"/>
          </g>
          <g id="Grupo_904267" data-name="Grupo 904267" transform="translate(23.16)">
            <path id="Trazado_632899" data-name="Trazado 632899" d="M7003.6,665.477a.075.075,0,0,1-.075-.072c-.043-1.123-.05-2.261-.023-3.384a.969.969,0,0,1,.116-.525.709.709,0,0,1,.951-.136,1.94,1.94,0,0,1,.612.759l.833,1.51a.075.075,0,1,1-.131.072l-.833-1.51a1.8,1.8,0,0,0-.56-.7.567.567,0,0,0-.748.09.856.856,0,0,0-.091.448c-.027,1.119-.02,2.255.023,3.375a.075.075,0,0,1-.072.078Z" transform="translate(-7003.485 -661.24)" fill="#f5a338"/>
          </g>
          <g id="Grupo_904268" data-name="Grupo 904268" transform="translate(25.549 0)">
            <path id="Trazado_632900" data-name="Trazado 632900" d="M7037.366,665.478a.074.074,0,0,1-.074-.072c-.043-1.123-.05-2.261-.023-3.384a.964.964,0,0,1,.116-.525.709.709,0,0,1,.951-.136,1.942,1.942,0,0,1,.613.759l.833,1.51a.076.076,0,0,1-.029.1.075.075,0,0,1-.1-.029l-.833-1.51a1.8,1.8,0,0,0-.56-.7.566.566,0,0,0-.748.09.846.846,0,0,0-.091.448c-.028,1.12-.02,2.255.022,3.375a.075.075,0,0,1-.072.078Z" transform="translate(-7037.252 -661.241)" fill="#f5a338"/>
          </g>
          <g id="Grupo_904269" data-name="Grupo 904269" transform="translate(28.091)">
            <path id="Trazado_632901" data-name="Trazado 632901" d="M7073.3,665.477a.075.075,0,0,1-.075-.072c-.042-1.122-.05-2.261-.023-3.384a.968.968,0,0,1,.116-.525.709.709,0,0,1,.951-.136,1.943,1.943,0,0,1,.613.759l.833,1.51a.075.075,0,1,1-.131.072l-.833-1.51a1.8,1.8,0,0,0-.561-.7.566.566,0,0,0-.748.09.861.861,0,0,0-.091.448c-.027,1.12-.02,2.255.023,3.375a.075.075,0,0,1-.072.078Z" transform="translate(-7073.186 -661.24)" fill="#f5a338"/>
          </g>
          <g id="Grupo_904270" data-name="Grupo 904270" transform="translate(30.48 0)">
            <path id="Trazado_632902" data-name="Trazado 632902" d="M7107.067,665.477a.074.074,0,0,1-.075-.072c-.043-1.123-.05-2.261-.023-3.384a.973.973,0,0,1,.115-.525.709.709,0,0,1,.951-.136,1.942,1.942,0,0,1,.613.759l.833,1.51a.075.075,0,0,1-.131.072l-.833-1.51a1.8,1.8,0,0,0-.56-.7.566.566,0,0,0-.748.09.851.851,0,0,0-.091.448c-.027,1.119-.02,2.255.023,3.375a.075.075,0,0,1-.072.078Z" transform="translate(-7106.954 -661.24)" fill="#f5a338"/>
          </g>
          <g id="Grupo_904271" data-name="Grupo 904271" transform="translate(32.868)">
            <path id="Trazado_632903" data-name="Trazado 632903" d="M7140.836,665.477a.075.075,0,0,1-.075-.072c-.042-1.122-.05-2.261-.023-3.384a.968.968,0,0,1,.116-.525.709.709,0,0,1,.951-.136,1.94,1.94,0,0,1,.612.759l.833,1.51a.075.075,0,1,1-.131.072l-.833-1.51a1.794,1.794,0,0,0-.561-.7.566.566,0,0,0-.747.09.856.856,0,0,0-.091.448c-.027,1.12-.02,2.255.023,3.375a.076.076,0,0,1-.072.078Z" transform="translate(-7140.722 -661.24)" fill="#f5a338"/>
          </g>
          <g id="Grupo_904272" data-name="Grupo 904272" transform="translate(35.41 0)">
            <path id="Trazado_632904" data-name="Trazado 632904" d="M7176.768,665.477a.074.074,0,0,1-.074-.072c-.043-1.123-.051-2.261-.023-3.384a.969.969,0,0,1,.116-.525.709.709,0,0,1,.951-.136,1.937,1.937,0,0,1,.612.759l.833,1.51a.075.075,0,0,1-.03.1.074.074,0,0,1-.1-.029l-.833-1.51a1.8,1.8,0,0,0-.56-.7.566.566,0,0,0-.748.09.856.856,0,0,0-.091.448c-.027,1.119-.02,2.255.022,3.375a.075.075,0,0,1-.072.078Z" transform="translate(-7176.655 -661.24)" fill="#f5a338"/>
          </g>
          <g id="Grupo_904273" data-name="Grupo 904273" transform="translate(37.868 0)">
            <path id="Trazado_632905" data-name="Trazado 632905" d="M7211.515,665.477a.075.075,0,0,1-.074-.072c-.042-1.122-.05-2.261-.022-3.384a.964.964,0,0,1,.115-.525.708.708,0,0,1,.951-.136,1.942,1.942,0,0,1,.613.759l.833,1.51a.075.075,0,0,1-.029.1.076.076,0,0,1-.1-.029l-.833-1.51a1.794,1.794,0,0,0-.56-.7.566.566,0,0,0-.748.09.861.861,0,0,0-.091.448c-.027,1.12-.02,2.255.023,3.375a.075.075,0,0,1-.072.078Z" transform="translate(-7211.401 -661.24)" fill="#f5a338"/>
          </g>
          <g id="Grupo_904274" data-name="Grupo 904274" transform="translate(40.257 0)">
            <path id="Trazado_632906" data-name="Trazado 632906" d="M7245.283,665.477a.075.075,0,0,1-.074-.072c-.043-1.123-.051-2.261-.022-3.384a.969.969,0,0,1,.115-.525.709.709,0,0,1,.951-.136,1.941,1.941,0,0,1,.612.759l.833,1.51a.074.074,0,1,1-.13.072l-.833-1.51a1.8,1.8,0,0,0-.561-.7.567.567,0,0,0-.748.09.851.851,0,0,0-.091.448c-.028,1.119-.021,2.255.022,3.375a.075.075,0,0,1-.071.078Z" transform="translate(-7245.17 -661.24)" fill="#f5a338"/>
          </g>
          <g id="Grupo_904275" data-name="Grupo 904275" transform="translate(42.799 0)">
            <path id="Trazado_632907" data-name="Trazado 632907" d="M7281.216,665.478a.075.075,0,0,1-.075-.072c-.042-1.122-.05-2.261-.023-3.384a.973.973,0,0,1,.116-.525.709.709,0,0,1,.951-.136,1.945,1.945,0,0,1,.613.759l.833,1.51a.075.075,0,0,1-.131.072l-.833-1.51a1.8,1.8,0,0,0-.561-.7.566.566,0,0,0-.748.09.856.856,0,0,0-.091.448c-.027,1.12-.02,2.255.023,3.375a.075.075,0,0,1-.072.078Z" transform="translate(-7281.103 -661.241)" fill="#f5a338"/>
          </g>
          <g id="Grupo_904276" data-name="Grupo 904276" transform="translate(45.188 0)">
            <path id="Trazado_632908" data-name="Trazado 632908" d="M7314.984,665.477a.074.074,0,0,1-.074-.072c-.042-1.123-.051-2.261-.022-3.384a.969.969,0,0,1,.115-.525.709.709,0,0,1,.951-.136,1.941,1.941,0,0,1,.612.759l.834,1.51a.075.075,0,0,1-.131.072l-.834-1.51a1.793,1.793,0,0,0-.56-.7.567.567,0,0,0-.748.09.851.851,0,0,0-.091.448c-.028,1.119-.021,2.255.022,3.375a.074.074,0,0,1-.071.078Z" transform="translate(-7314.871 -661.24)" fill="#f5a338"/>
          </g>
          <g id="Grupo_904277" data-name="Grupo 904277" transform="translate(47.576 0)">
            <path id="Trazado_632909" data-name="Trazado 632909" d="M7348.753,665.478a.075.075,0,0,1-.075-.072c-.042-1.122-.05-2.261-.022-3.384a.968.968,0,0,1,.115-.525.709.709,0,0,1,.951-.136,1.931,1.931,0,0,1,.612.759l.834,1.51a.075.075,0,0,1-.131.072l-.833-1.51a1.8,1.8,0,0,0-.56-.7.567.567,0,0,0-.748.09.861.861,0,0,0-.091.448c-.027,1.12-.02,2.255.023,3.375a.075.075,0,0,1-.072.078Z" transform="translate(-7348.64 -661.241)" fill="#f5a338"/>
          </g>
          <g id="Grupo_904278" data-name="Grupo 904278" transform="translate(50.118 0)">
            <path id="Trazado_632910" data-name="Trazado 632910" d="M7384.686,665.477a.073.073,0,0,1-.074-.072c-.043-1.123-.051-2.261-.023-3.384a.973.973,0,0,1,.115-.525.709.709,0,0,1,.951-.136,1.939,1.939,0,0,1,.613.759l.833,1.51a.075.075,0,0,1-.131.072l-.833-1.51a1.793,1.793,0,0,0-.56-.7.567.567,0,0,0-.748.09.856.856,0,0,0-.091.448c-.027,1.119-.02,2.255.023,3.375a.074.074,0,0,1-.071.078Z" transform="translate(-7384.572 -661.24)" fill="#f5a338"/>
          </g>
          <g id="Grupo_904279" data-name="Grupo 904279" transform="translate(52.507 0)">
            <path id="Trazado_632911" data-name="Trazado 632911" d="M7418.455,665.478a.075.075,0,0,1-.075-.072c-.042-1.121-.05-2.26-.023-3.384a.969.969,0,0,1,.116-.525.709.709,0,0,1,.951-.136,1.941,1.941,0,0,1,.613.759l.833,1.51a.075.075,0,0,1-.131.072l-.833-1.51a1.794,1.794,0,0,0-.56-.7.566.566,0,0,0-.748.09.856.856,0,0,0-.091.448c-.027,1.121-.02,2.256.023,3.375a.076.076,0,0,1-.072.078Z" transform="translate(-7418.341 -661.241)" fill="#f5a338"/>
          </g>
          <g id="Grupo_904280" data-name="Grupo 904280" transform="translate(54.896 0)">
            <path id="Trazado_632912" data-name="Trazado 632912" d="M7452.222,665.477a.074.074,0,0,1-.074-.072c-.043-1.123-.05-2.261-.023-3.384a.96.96,0,0,1,.116-.525.708.708,0,0,1,.95-.136,1.938,1.938,0,0,1,.613.759l.833,1.51a.075.075,0,0,1-.03.1.074.074,0,0,1-.1-.029l-.833-1.51a1.805,1.805,0,0,0-.561-.7.566.566,0,0,0-.747.09.851.851,0,0,0-.091.448c-.028,1.119-.02,2.255.022,3.375a.074.074,0,0,1-.071.078Z" transform="translate(-7452.109 -661.24)" fill="#f5a338"/>
          </g>
        </g>
      </g>
      <g id="Grupo_904283" data-name="Grupo 904283" transform="translate(12.986 7.961)">
        <path id="Trazado_632913" data-name="Trazado 632913" d="M6860.245,787.631l.331-.72a6.451,6.451,0,0,0,.813.4,2.04,2.04,0,0,0,.817.159,1.138,1.138,0,0,0,.371-.062.748.748,0,0,0,.25-.145.439.439,0,0,0,.13-.2.446.446,0,0,0,.011-.22.439.439,0,0,0-.138-.236.836.836,0,0,0-.265-.157,2.181,2.181,0,0,0-.361-.1c-.135-.027-.276-.052-.422-.074l-.338-.054a4.085,4.085,0,0,1-.4-.087,2.918,2.918,0,0,1-.423-.151,1.879,1.879,0,0,1-.4-.241,1.511,1.511,0,0,1-.321-.35,1.41,1.41,0,0,1-.2-.484,1.177,1.177,0,0,1,.021-.679.939.939,0,0,1,.332-.434,1.465,1.465,0,0,1,.526-.231,2.892,2.892,0,0,1,.595-.076,3.338,3.338,0,0,1,.53.027,2.67,2.67,0,0,1,.451.1,2.975,2.975,0,0,1,.426.176c.141.071.295.156.461.255l-.347.708a4.1,4.1,0,0,0-.712-.336,1.93,1.93,0,0,0-.67-.107,1.281,1.281,0,0,0-.255.034.931.931,0,0,0-.258.1.507.507,0,0,0-.182.166.31.31,0,0,0-.035.24.39.39,0,0,0,.153.233,1.049,1.049,0,0,0,.295.154,2.869,2.869,0,0,0,.374.1c.134.027.264.054.389.081.094.019.2.038.329.057a3.948,3.948,0,0,1,.395.081,2.834,2.834,0,0,1,.418.145,1.722,1.722,0,0,1,.395.237,1.5,1.5,0,0,1,.321.363,1.578,1.578,0,0,1,.206.528,1.367,1.367,0,0,1,.008.631.9.9,0,0,1-.268.448,1.329,1.329,0,0,1-.5.275,2.527,2.527,0,0,1-.7.1,3.549,3.549,0,0,1-.652-.041,3.186,3.186,0,0,1-.537-.136,3.476,3.476,0,0,1-.481-.21Q6860.494,787.78,6860.245,787.631Z" transform="translate(-6859.664 -782.8)" fill="#21cbae"/>
        <path id="Trazado_632914" data-name="Trazado 632914" d="M6926.984,785.553a1.732,1.732,0,0,1-.268.512,1.869,1.869,0,0,1-.41.4,1.937,1.937,0,0,1-.532.262,2.212,2.212,0,0,1-.634.1,2.594,2.594,0,0,1-.978-.172,3.183,3.183,0,0,1-.879-.5,3.25,3.25,0,0,1-.685-.754,2.733,2.733,0,0,1-.392-.929,2.194,2.194,0,0,1-.01-.937,1.926,1.926,0,0,1,.354-.775,1.874,1.874,0,0,1,.657-.533,2.069,2.069,0,0,1,.9-.209,2.582,2.582,0,0,1,.672.076,2.966,2.966,0,0,1,.64.239,3.29,3.29,0,0,1,.577.377,3.06,3.06,0,0,1,.483.491l-.762.353a2.393,2.393,0,0,0-.3-.281,2.307,2.307,0,0,0-.353-.229,1.914,1.914,0,0,0-.385-.151,1.394,1.394,0,0,0-.394-.049,1.224,1.224,0,0,0-.568.142,1.2,1.2,0,0,0-.407.356,1.31,1.31,0,0,0-.216.511,1.45,1.45,0,0,0,.008.6,1.789,1.789,0,0,0,.25.6,2.207,2.207,0,0,0,.433.495,2.054,2.054,0,0,0,.556.336,1.551,1.551,0,0,0,.624.118,1.173,1.173,0,0,0,.37-.065,1.227,1.227,0,0,0,.316-.166,1.255,1.255,0,0,0,.251-.244,1.455,1.455,0,0,0,.177-.294Z" transform="translate(-6917.73 -781.433)" fill="#21cbae"/>
        <path id="Trazado_632915" data-name="Trazado 632915" d="M6993.615,781.137l1,4.646-.893.018-.4-1.847-2.3.047.4,1.847-.893.018-1-4.646.892-.018.434,2.012,2.3-.047-.434-2.012Z" transform="translate(-6980.345 -780.616)" fill="#21cbae"/>
        <path id="Trazado_632916" data-name="Trazado 632916" d="M7062.653,780.706l.25,1.161,2.256-.045.173.806-2.256.046.235,1.092,2.542-.051.172.8-3.434.069-1-4.646,3.435-.069.169.787Z" transform="translate(-7047.307 -779.437)" fill="#21cbae"/>
        <path id="Trazado_632917" data-name="Trazado 632917" d="M7125.951,783.718l-1.839.037-1-4.646,1.839-.037a2.783,2.783,0,0,1,1.767.551,2.623,2.623,0,0,1,.681.742,3.1,3.1,0,0,1,.389.983,2.587,2.587,0,0,1,.038,1,1.55,1.55,0,0,1-.356.763,1.6,1.6,0,0,1-.636.446A2.488,2.488,0,0,1,7125.951,783.718Zm-1.116-.768.949-.019a2.135,2.135,0,0,0,.491-.067.876.876,0,0,0,.413-.235.965.965,0,0,0,.241-.473,1.863,1.863,0,0,0-.035-.783,2.268,2.268,0,0,0-.3-.781,1.592,1.592,0,0,0-.445-.46,1.437,1.437,0,0,0-.513-.213,2.417,2.417,0,0,0-.51-.047l-.949.019Z" transform="translate(-7104.475 -778.696)" fill="#21cbae"/>
        <path id="Trazado_632918" data-name="Trazado 632918" d="M7196.95,781.887a2.54,2.54,0,0,1-.853-.123,2.287,2.287,0,0,1-1.253-.988,2.549,2.549,0,0,1-.316-.8l-.6-2.767.892-.018.6,2.763a1.518,1.518,0,0,0,.238.574,1.4,1.4,0,0,0,.361.355,1.231,1.231,0,0,0,.4.176,1.515,1.515,0,0,0,.358.044,1.282,1.282,0,0,0,.337-.058.777.777,0,0,0,.323-.191.808.808,0,0,0,.206-.367,1.227,1.227,0,0,0-.01-.579l-.595-2.763.892-.018.6,2.767a2.132,2.132,0,0,1,.034.809,1.359,1.359,0,0,1-.269.624,1.394,1.394,0,0,1-.547.406A2.1,2.1,0,0,1,7196.95,781.887Z" transform="translate(-7170.287 -776.887)" fill="#21cbae"/>
        <path id="Trazado_632919" data-name="Trazado 632919" d="M7269.081,780.3l.17.787-3.358.068-1-4.646.892-.018.831,3.859Z" transform="translate(-7236.227 -776.297)" fill="#21cbae"/>
        <path id="Trazado_632920" data-name="Trazado 632920" d="M7321.35,775.483l.25,1.161,2.255-.045.174.806-2.256.045.235,1.092,2.542-.051.172.8-3.434.069-1-4.646,3.435-.069.169.787Z" transform="translate(-7287.704 -774.583)" fill="#21cbae"/>
        <path id="Trazado_632921" data-name="Trazado 632921" d="M7383.7,778.444l-.893.018-1-4.646,2.119-.043a1.944,1.944,0,0,1,.68.1,1.891,1.891,0,0,1,.579.32,2,2,0,0,1,.438.5,2.027,2.027,0,0,1,.257.642,1.462,1.462,0,0,1-.066.926,1.122,1.122,0,0,1-.583.579q.754.763,1.5,1.538l-1.064.022q-.358-.356-.7-.719t-.7-.738l-.883.018Zm-.488-2.266,1.225-.025a.655.655,0,0,0,.241-.053.5.5,0,0,0,.2-.151.626.626,0,0,0,.116-.248.793.793,0,0,0-.007-.344,1.664,1.664,0,0,0-.078-.241.993.993,0,0,0-.159-.264.877.877,0,0,0-.263-.211.783.783,0,0,0-.394-.081l-1.226.025Z" transform="translate(-7344.873 -773.773)" fill="#21cbae"/>
      </g>
    </g>
    <g id="Grupo_904284" data-name="Grupo 904284" transform="translate(6569.342 228.691)">
      <path id="Trazado_632922" data-name="Trazado 632922" d="M7464.738,1262.932a2.641,2.641,0,0,0-.607-3.7c-10.905-7.757-20.023-12.983-20.832-11.871s6.98,8.168,17.729,16.142a2.641,2.641,0,0,0,3.709-.568Z" transform="translate(-7414.562 -1221.106)" fill="#ef3c79"/>
      <path id="Trazado_632923" data-name="Trazado 632923" d="M7646.231,1386.154c11.84,8.6,22.137,14.614,23,13.428s-8.039-9.119-19.879-17.721Z" transform="translate(-7603.191 -1346.234)" fill="#0b5999"/>
      <path id="Trazado_632924" data-name="Trazado 632924" d="M7645.842,1414.431c11.84,8.6,22.136,14.614,23,13.429.019-.029-21.418-15.6-21.418-15.6Z" transform="translate(-7602.83 -1374.48)" fill="#015080"/>
      <path id="Trazado_632925" data-name="Trazado 632925" d="M7068.3,881.894a19.207,19.207,0,1,0,4.25,26.828A19.208,19.208,0,0,0,7068.3,881.894Zm-14.426,32.52c-.365-.068-.729-.152-1.093-.244a17.259,17.259,0,1,1,15.144-30.144,16.993,16.993,0,0,1,2.759,2.817,17.3,17.3,0,0,1,2.454,4.3,17,17,0,0,1,1.089,4.369,17.259,17.259,0,0,1-20.353,18.9Z" transform="translate(-7037.804 -878.225)" fill="#0b5999"/>
      <path id="Trazado_632926" data-name="Trazado 632926" d="M7071.874,936.067a17.3,17.3,0,0,0,7.3,3.922c.363.092.728.176,1.092.243a17.261,17.261,0,0,0,20.353-18.9,17.04,17.04,0,0,0-1.09-4.369,17.313,17.313,0,0,0-2.453-4.3,17,17,0,0,0-2.76-2.817,17.264,17.264,0,0,0-22.438,26.223Z" transform="translate(-7064.191 -904.043)" fill="#21cbae" opacity="0.5"/>
      <path id="Trazado_632927" data-name="Trazado 632927" d="M7106.606,928.846a17.26,17.26,0,0,0-33.435-8.589Z" transform="translate(-7070.669 -905.231)" fill="#21cbae" opacity="0.43"/>
      <circle id="Elipse_6592" data-name="Elipse 6592" cx="2.047" cy="2.047" r="2.047" transform="matrix(0.783, -0.622, 0.622, 0.783, 9.013, 8.98)" fill="#fff"/>
      <path id="Trazado_632928" data-name="Trazado 632928" d="M7292.743,986.924a1.172,1.172,0,1,0,.975-1.342A1.172,1.172,0,0,0,7292.743,986.924Z" transform="translate(-7274.695 -977.975)" fill="#fff"/>
      <circle id="Elipse_6593" data-name="Elipse 6593" cx="12.644" cy="12.644" r="12.644" transform="translate(1.015 18.419) rotate(-45)" fill="#e6f2f4" opacity="0.36"/>
    </g>
  </g>
</svg>
