<svg xmlns="http://www.w3.org/2000/svg" width="1050" height="377.416" viewBox="0 0 1050 377.416">
  <g id="Grupo_904388" data-name="Grupo 904388" transform="translate(-274.822 -7729.959)">
    <g id="Grupo_901927" data-name="Grupo 901927" transform="translate(0 -246)">
      <g id="Grupo_901755" data-name="Grupo 901755" transform="translate(98.938 7480.8)">
        <g id="Circles" transform="translate(175.884 495.159)">
          <g id="C" transform="translate(672.586 0.001)">
            <circle id="Elipse_6499" data-name="Elipse 6499" cx="133.436" cy="133.436" r="133.436" transform="translate(0 188.707) rotate(-45)" fill="#fecb2f"/>
          </g>
          <g id="B" transform="translate(336.293 0)">
            <circle id="Elipse_6500" data-name="Elipse 6500" cx="133.437" cy="133.437" r="133.437" transform="translate(0 188.708) rotate(-45)" fill="#43d1a1"/>
          </g>
          <g id="A" transform="translate(0 0)">
            <circle id="Elipse_6501" data-name="Elipse 6501" cx="133.436" cy="133.436" r="133.436" transform="translate(0 188.708) rotate(-45)" fill="#ef3c79"/>
          </g>
        </g>
        <g id="Linear_elements" data-name="Linear elements" transform="translate(243.693 562.969)">
          <g id="Grupo_901747" data-name="Grupo 901747" style="mix-blend-mode: multiply;isolation: isolate">
            <path id="Trazado_629523" data-name="Trazado 629523" d="M522.053,962.227a120.9,120.9,0,1,1,120.9-120.9,47.248,47.248,0,0,0,94.5,0A120.913,120.913,0,0,1,976.766,816.86a1.2,1.2,0,0,1-2.359.485,118.5,118.5,0,0,0-234.552,23.983,49.656,49.656,0,0,1-99.312,0,118.19,118.19,0,1,0-2.407,23.879,1.2,1.2,0,0,1,2.359.483,120.94,120.94,0,0,1-118.442,96.535Z" transform="translate(-401.154 -720.431)" fill="#444"/>
          </g>
          <g id="Grupo_901748" data-name="Grupo 901748" transform="translate(338.746)" style="mix-blend-mode: multiply;isolation: isolate">
            <path id="Trazado_629524" data-name="Trazado 629524" d="M1981.248,962.226a121.034,121.034,0,0,1-120.9-120.9,47.248,47.248,0,0,0-94.5,0A120.913,120.913,0,0,1,1526.536,865.8a1.2,1.2,0,1,1,2.359-.485,118.5,118.5,0,0,0,234.552-23.982,49.656,49.656,0,0,1,99.312,0,118.183,118.183,0,1,0,2.407-23.881,1.2,1.2,0,1,1-2.359-.482,120.909,120.909,0,1,1,118.442,145.26Z" transform="translate(-1526.511 -720.431)" fill="#444"/>
          </g>
        </g>
        <g id="Arrows" transform="translate(508.245 672.178)">
          <g id="Grupo_901751" data-name="Grupo 901751">
            <g id="Grupo_901749" data-name="Grupo 901749" transform="translate(0 10.485)">
              <path id="Trazado_629525" data-name="Trazado 629525" d="M1327.809,1120.478H1281.23a1.2,1.2,0,1,1,0-2.408h46.579a1.2,1.2,0,1,1,0,2.408Z" transform="translate(-1280.026 -1118.07)" fill="#0b5999"/>
            </g>
            <g id="Grupo_901750" data-name="Grupo 901750" transform="translate(36.095)">
              <path id="Trazado_629526" data-name="Trazado 629526" d="M1401.141,1106.615a1.2,1.2,0,0,1-.852-2.055l9.633-9.632-9.633-9.634a1.2,1.2,0,1,1,1.7-1.7l10.484,10.485a1.2,1.2,0,0,1,0,1.7l-10.484,10.484A1.2,1.2,0,0,1,1401.141,1106.615Z" transform="translate(-1399.937 -1083.238)" fill="#0b5999"/>
            </g>
          </g>
          <g id="Grupo_901754" data-name="Grupo 901754" transform="translate(336.292)">
            <g id="Grupo_901752" data-name="Grupo 901752" transform="translate(0 10.485)">
              <path id="Trazado_629527" data-name="Trazado 629527" d="M2445.014,1120.478h-46.58a1.2,1.2,0,1,1,0-2.408h46.58a1.2,1.2,0,0,1,0,2.408Z" transform="translate(-2397.23 -1118.07)" fill="#0b5999"/>
            </g>
            <g id="Grupo_901753" data-name="Grupo 901753" transform="translate(36.095)">
              <path id="Trazado_629528" data-name="Trazado 629528" d="M2518.347,1106.615a1.2,1.2,0,0,1-.852-2.055l9.633-9.632-9.633-9.634a1.2,1.2,0,0,1,1.7-1.7l10.485,10.485a1.2,1.2,0,0,1,0,1.7l-10.485,10.484A1.2,1.2,0,0,1,2518.347,1106.615Z" transform="translate(-2517.143 -1083.238)" fill="#0b5999"/>
            </g>
          </g>
        </g>
      </g>
      <g id="Grupo_901926" data-name="Grupo 901926">
        <g id="Grupo_901816" data-name="Grupo 901816" transform="translate(665.518 7981.977)">
          <g id="Grupo_901783" data-name="Grupo 901783" transform="translate(82.126 102.023)">
            <g id="tv">
              <g id="Grupo_901780" data-name="Grupo 901780">
                <path id="Trazado_629540" data-name="Trazado 629540" d="M134.486,178.16a38.285,38.285,0,0,1-8.509-.96l-.936-.213a28.451,28.451,0,0,0-6.339-.715H88.245a6.125,6.125,0,0,1-6.119-6.118V108.141a6.125,6.125,0,0,1,6.119-6.118H180.72a6.125,6.125,0,0,1,6.119,6.118v62.013a6.125,6.125,0,0,1-6.119,6.118H150.269a28.535,28.535,0,0,0-6.335.714l-.947.216A38.261,38.261,0,0,1,134.486,178.16Zm-46.241-74a3.99,3.99,0,0,0-3.986,3.986v62.013a3.99,3.99,0,0,0,3.986,3.986H118.7a30.626,30.626,0,0,1,6.814.768l.937.213a36.242,36.242,0,0,0,16.06,0l.949-.217a30.709,30.709,0,0,1,6.808-.767H180.72a3.99,3.99,0,0,0,3.986-3.986V108.141a3.99,3.99,0,0,0-3.986-3.986Z" transform="translate(-82.126 -102.023)" fill="#fff"/>
              </g>
              <g id="Grupo_901781" data-name="Grupo 901781" transform="translate(1.447 60.488)">
                <path id="Trazado_629541" data-name="Trazado 629541" d="M184.756,182.571H85.068a1.066,1.066,0,1,1,0-2.132h99.688a1.066,1.066,0,0,1,0,2.132Z" transform="translate(-84.002 -180.439)" fill="#fff"/>
              </g>
              <g id="Grupo_901782" data-name="Grupo 901782" transform="translate(25.084 72.793)">
                <path id="Trazado_629542" data-name="Trazado 629542" d="M164.95,216.163H118.882a4.241,4.241,0,0,1-4.237-4.236v-1.251a4.241,4.241,0,0,1,4.237-4.236h5.859l3.65-3.6v-5.382a1.066,1.066,0,1,1,2.132,0v5.828a1.065,1.065,0,0,1-.318.758l-4.278,4.223a1.067,1.067,0,0,1-.749.307h-6.3a2.106,2.106,0,0,0-2.1,2.1v1.251a2.106,2.106,0,0,0,2.1,2.1H164.95a2.107,2.107,0,0,0,2.105-2.1v-1.251a2.107,2.107,0,0,0-2.105-2.1h-6.3a1.067,1.067,0,0,1-.749-.307l-4.278-4.223a1.064,1.064,0,0,1-.317-.758v-5.828a1.066,1.066,0,1,1,2.132,0v5.382l3.649,3.6h5.859a4.241,4.241,0,0,1,4.237,4.236v1.251A4.241,4.241,0,0,1,164.95,216.163Z" transform="translate(-114.645 -196.391)" fill="#fff"/>
              </g>
            </g>
          </g>
          <g id="Grupo_901784" data-name="Grupo 901784" transform="translate(131.325 167.213)">
            <path id="Trazado_629543" data-name="Trazado 629543" d="M149.2,193.116a3.291,3.291,0,1,1,3.291-3.291A3.3,3.3,0,0,1,149.2,193.116Zm0-4.449a1.159,1.159,0,1,0,1.159,1.158A1.16,1.16,0,0,0,149.2,188.667Z" transform="translate(-145.907 -186.534)" fill="#fff"/>
          </g>
          <g id="Grupo_901791" data-name="Grupo 901791" transform="translate(90.181 147.52)">
            <g id="Grupo_901787" data-name="Grupo 901787" transform="translate(63.964)">
              <g id="Grupo_901785" data-name="Grupo 901785" transform="translate(10.543)">
                <path id="Trazado_629544" data-name="Trazado 629544" d="M202.187,163.137H190.224a1.066,1.066,0,0,1,0-2.132h11.963a1.066,1.066,0,1,1,0,2.132Z" transform="translate(-189.158 -161.005)" fill="#fff"/>
              </g>
              <g id="Grupo_901786" data-name="Grupo 901786" transform="translate(0 7.225)">
                <path id="Trazado_629545" data-name="Trazado 629545" d="M199.063,172.5H176.556a1.066,1.066,0,1,1,0-2.132h22.506a1.066,1.066,0,1,1,0,2.132Z" transform="translate(-175.49 -170.371)" fill="#fff"/>
              </g>
            </g>
            <g id="Grupo_901790" data-name="Grupo 901790">
              <g id="Grupo_901788" data-name="Grupo 901788">
                <path id="Trazado_629546" data-name="Trazado 629546" d="M105.6,163.137H93.634a1.066,1.066,0,1,1,0-2.132H105.6a1.066,1.066,0,1,1,0,2.132Z" transform="translate(-92.568 -161.005)" fill="#fff"/>
              </g>
              <g id="Grupo_901789" data-name="Grupo 901789" transform="translate(0 7.225)">
                <path id="Trazado_629547" data-name="Trazado 629547" d="M116.141,172.5H93.634a1.066,1.066,0,1,1,0-2.132h22.507a1.066,1.066,0,1,1,0,2.132Z" transform="translate(-92.568 -170.371)" fill="#fff"/>
              </g>
            </g>
          </g>
          <g id="Grupo_901798" data-name="Grupo 901798" transform="translate(90.181 111.806)">
            <g id="Grupo_901794" data-name="Grupo 901794">
              <g id="Grupo_901792" data-name="Grupo 901792" transform="translate(0 7.225)">
                <path id="Trazado_629548" data-name="Trazado 629548" d="M105.6,126.205H93.634a1.066,1.066,0,1,1,0-2.132H105.6a1.066,1.066,0,1,1,0,2.132Z" transform="translate(-92.568 -124.073)" fill="#fff"/>
              </g>
              <g id="Grupo_901793" data-name="Grupo 901793">
                <path id="Trazado_629549" data-name="Trazado 629549" d="M116.141,116.838H93.634a1.066,1.066,0,1,1,0-2.132h22.507a1.066,1.066,0,0,1,0,2.132Z" transform="translate(-92.568 -114.706)" fill="#fff"/>
              </g>
            </g>
            <g id="Grupo_901797" data-name="Grupo 901797" transform="translate(63.964)">
              <g id="Grupo_901795" data-name="Grupo 901795" transform="translate(10.543 7.225)">
                <path id="Trazado_629550" data-name="Trazado 629550" d="M202.187,126.205H190.224a1.066,1.066,0,0,1,0-2.132h11.963a1.066,1.066,0,1,1,0,2.132Z" transform="translate(-189.158 -124.073)" fill="#fff"/>
              </g>
              <g id="Grupo_901796" data-name="Grupo 901796">
                <path id="Trazado_629551" data-name="Trazado 629551" d="M199.063,116.838H176.556a1.066,1.066,0,0,1,0-2.132h22.506a1.066,1.066,0,1,1,0,2.132Z" transform="translate(-175.49 -114.706)" fill="#fff"/>
              </g>
            </g>
          </g>
          <g id="Grupo_901810" data-name="Grupo 901810" transform="translate(112.119 112.399)">
            <g id="Grupo_901799" data-name="Grupo 901799">
              <path id="Trazado_629552" data-name="Trazado 629552" d="M143.372,160.2a22.363,22.363,0,1,1,22.362-22.362A22.388,22.388,0,0,1,143.372,160.2Zm0-42.593a20.231,20.231,0,1,0,20.23,20.231A20.253,20.253,0,0,0,143.372,117.606Z" transform="translate(-121.009 -115.474)" fill="#fff"/>
            </g>
            <g id="Grupo_901809" data-name="Grupo 901809" transform="translate(7.8 7.938)">
              <g id="Grupo_901806" data-name="Grupo 901806">
                <g id="Grupo_901801" data-name="Grupo 901801" transform="translate(0 9.405)">
                  <g id="Grupo_901800" data-name="Grupo 901800">
                    <path id="Trazado_629553" data-name="Trazado 629553" d="M136.421,148.548h-.005a5.293,5.293,0,1,1,.005,0Zm0-8.459a3.163,3.163,0,0,0,0,6.327v1.066l0-1.066a3.163,3.163,0,0,0,0-6.327Z" transform="translate(-131.121 -137.957)" fill="#fff"/>
                  </g>
                </g>
                <g id="Grupo_901803" data-name="Grupo 901803" transform="translate(14.086)">
                  <g id="Grupo_901802" data-name="Grupo 901802">
                    <path id="Trazado_629554" data-name="Trazado 629554" d="M154.681,136.357h0a5.3,5.3,0,1,1,5.3-5.3A5.3,5.3,0,0,1,154.678,136.357Zm0-8.46a3.164,3.164,0,1,0,3.164,3.162A3.169,3.169,0,0,0,154.678,127.9Z" transform="translate(-149.382 -125.765)" fill="#fff"/>
                  </g>
                </g>
                <g id="Grupo_901805" data-name="Grupo 901805" transform="translate(14.101 18.787)">
                  <g id="Grupo_901804" data-name="Grupo 901804">
                    <path id="Trazado_629555" data-name="Trazado 629555" d="M154.7,160.712h0a5.295,5.295,0,1,1,3.748-1.554A5.3,5.3,0,0,1,154.7,160.712Zm0-8.46a3.164,3.164,0,0,0,0,6.328v1.066l0-1.066a3.164,3.164,0,0,0,0-6.328Z" transform="translate(-149.401 -150.12)" fill="#fff"/>
                  </g>
                </g>
              </g>
              <g id="Grupo_901807" data-name="Grupo 901807" transform="translate(8.242 6.909)">
                <path id="Trazado_629556" data-name="Trazado 629556" d="M142.873,140.85a1.067,1.067,0,0,1-.583-1.959l6.125-4a1.066,1.066,0,0,1,1.164,1.786l-6.124,3.995A1.056,1.056,0,0,1,142.873,140.85Z" transform="translate(-141.806 -134.722)" fill="#fff"/>
              </g>
              <g id="Grupo_901808" data-name="Grupo 901808" transform="translate(8.387 16.414)">
                <path id="Trazado_629557" data-name="Trazado 629557" d="M149.049,153.05a1.06,1.06,0,0,1-.578-.17L142.481,149a1.066,1.066,0,1,1,1.157-1.79l5.99,3.875a1.065,1.065,0,0,1-.579,1.961Z" transform="translate(-141.994 -147.043)" fill="#fff"/>
              </g>
            </g>
          </g>
          <g id="Grupo_901815" data-name="Grupo 901815" transform="translate(91.512 133.696)">
            <g id="Grupo_901811" data-name="Grupo 901811" transform="translate(8.76)">
              <path id="Trazado_629558" data-name="Trazado 629558" d="M113.213,145.215h-6.5a1.066,1.066,0,1,1,0-2.132h6.5a1.066,1.066,0,0,1,0,2.132Z" transform="translate(-105.65 -143.083)" fill="#fff"/>
            </g>
            <g id="Grupo_901812" data-name="Grupo 901812">
              <path id="Trazado_629559" data-name="Trazado 629559" d="M98.795,145.215H95.36a1.066,1.066,0,1,1,0-2.132h3.435a1.066,1.066,0,1,1,0,2.132Z" transform="translate(-94.294 -143.083)" fill="#fff"/>
            </g>
            <g id="Grupo_901813" data-name="Grupo 901813" transform="translate(68.551)">
              <path id="Trazado_629560" data-name="Trazado 629560" d="M190.725,145.215h-6.5a1.066,1.066,0,1,1,0-2.132h6.5a1.066,1.066,0,1,1,0,2.132Z" transform="translate(-183.162 -143.083)" fill="#fff"/>
            </g>
            <g id="Grupo_901814" data-name="Grupo 901814" transform="translate(80.373)">
              <path id="Trazado_629561" data-name="Trazado 629561" d="M202.99,145.215h-3.436a1.066,1.066,0,0,1,0-2.132h3.436a1.066,1.066,0,0,1,0,2.132Z" transform="translate(-198.488 -143.083)" fill="#fff"/>
            </g>
          </g>
        </g>
        <g id="Grupo_901925" data-name="Grupo 901925">
          <g id="Grupo_901779" data-name="Grupo 901779" transform="translate(-2366.829 7516.16)">
            <g id="Grupo_901775" data-name="Grupo 901775" transform="translate(2783.341 554.84)">
              <g id="Grupo_901762" data-name="Grupo 901762" transform="translate(15.855 0)">
                <g id="Grupo_901758" data-name="Grupo 901758" transform="translate(5.79)">
                  <g id="Grupo_901756" data-name="Grupo 901756" transform="translate(0.006 16.38)">
                    <path id="Trazado_629529" data-name="Trazado 629529" d="M2970.3,679.18a1.015,1.015,0,0,1-1.015-1.015v-3.529H2960.8a1.015,1.015,0,1,1,0-2.03h9.5a1.015,1.015,0,0,1,1.015,1.015v2.093l6.129-6.129-6.129-6.13v2.093a1.015,1.015,0,0,1-1.015,1.015h-46.955a1.015,1.015,0,1,1,0-2.03h45.939V661a1.015,1.015,0,0,1,1.732-.718l8.58,8.581a1.016,1.016,0,0,1,0,1.436l-8.58,8.58A1.014,1.014,0,0,1,2970.3,679.18Z" transform="translate(-2922.328 -659.99)" fill="#fff"/>
                  </g>
                  <g id="Grupo_901757" data-name="Grupo 901757">
                    <path id="Trazado_629530" data-name="Trazado 629530" d="M2951.571,574.03a1.015,1.015,0,0,1-1.015-1.015v-3.528h-27.25a1.015,1.015,0,0,1,0-2.03h28.265a1.015,1.015,0,0,1,1.015,1.015v2.093l6.129-6.129-6.129-6.13V560.4a1.015,1.015,0,0,1-1.015,1.015H2923.31a1.015,1.015,0,0,1,0-2.03h27.246v-3.528a1.015,1.015,0,0,1,1.733-.718l8.579,8.581a1.015,1.015,0,0,1,0,1.436l-8.579,8.58A1.015,1.015,0,0,1,2951.571,574.03Z" transform="translate(-2922.291 -554.84)" fill="#fff"/>
                  </g>
                </g>
                <g id="Grupo_901761" data-name="Grupo 901761" transform="translate(0 70.203)">
                  <g id="Grupo_901759" data-name="Grupo 901759">
                    <path id="Trazado_629531" data-name="Trazado 629531" d="M2894.716,1024.692a1.015,1.015,0,0,1-.718-.3l-8.579-8.581a1.015,1.015,0,0,1,0-1.435l8.579-8.58a1.015,1.015,0,0,1,1.733.718v3.529h8.485a1.015,1.015,0,1,1,0,2.03h-9.5a1.015,1.015,0,0,1-1.015-1.015v-2.093l-6.129,6.129,6.129,6.13v-2.093a1.015,1.015,0,0,1,1.015-1.015h46.954a1.015,1.015,0,1,1,0,2.03h-45.939v3.528a1.015,1.015,0,0,1-1.015,1.015Z" transform="translate(-2885.121 -1005.503)" fill="#fff"/>
                  </g>
                  <g id="Grupo_901760" data-name="Grupo 901760" transform="translate(18.695 16.38)">
                    <path id="Trazado_629532" data-name="Trazado 629532" d="M3014.73,1129.841a1.013,1.013,0,0,1-.718-.3l-8.58-8.581a1.015,1.015,0,0,1,0-1.436l8.58-8.58a1.015,1.015,0,0,1,1.732.718v3.528H3043a1.015,1.015,0,1,1,0,2.03H3014.73a1.015,1.015,0,0,1-1.015-1.015v-2.093l-6.129,6.129,6.129,6.13v-2.093a1.015,1.015,0,0,1,1.015-1.015h28.261a1.015,1.015,0,0,1,0,2.03h-27.246v3.528a1.015,1.015,0,0,1-1.015,1.015Z" transform="translate(-3005.135 -1110.651)" fill="#fff"/>
                  </g>
                </g>
              </g>
              <g id="Grupo_901771" data-name="Grupo 901771" transform="translate(0 42.925)">
                <g id="Grupo_901766" data-name="Grupo 901766">
                  <g id="Grupo_901765" data-name="Grupo 901765">
                    <g id="Grupo_901763" data-name="Grupo 901763">
                      <path id="Trazado_629533" data-name="Trazado 629533" d="M2793.3,850.317a9.961,9.961,0,1,1,9.962-9.961A9.972,9.972,0,0,1,2793.3,850.317Zm0-17.891a7.931,7.931,0,1,0,7.931,7.931A7.94,7.94,0,0,0,2793.3,832.425Z" transform="translate(-2783.341 -830.395)" fill="#fff"/>
                    </g>
                    <g id="Grupo_901764" data-name="Grupo 901764" transform="translate(5.572 5.572)">
                      <path id="Trazado_629534" data-name="Trazado 629534" d="M2823.5,874.942a4.389,4.389,0,1,1,4.389-4.388A4.394,4.394,0,0,1,2823.5,874.942Zm0-6.747a2.358,2.358,0,1,0,2.359,2.359A2.362,2.362,0,0,0,2823.5,868.2Z" transform="translate(-2819.111 -866.165)" fill="#fff"/>
                    </g>
                  </g>
                </g>
                <g id="Grupo_901770" data-name="Grupo 901770" transform="translate(75.149)">
                  <g id="Grupo_901769" data-name="Grupo 901769">
                    <g id="Grupo_901767" data-name="Grupo 901767">
                      <path id="Trazado_629535" data-name="Trazado 629535" d="M3275.716,850.317a9.961,9.961,0,1,1,9.96-9.961A9.972,9.972,0,0,1,3275.716,850.317Zm0-17.891a7.931,7.931,0,1,0,7.93,7.931A7.94,7.94,0,0,0,3275.716,832.425Z" transform="translate(-3265.755 -830.395)" fill="#fff"/>
                    </g>
                    <g id="Grupo_901768" data-name="Grupo 901768" transform="translate(5.572 5.572)">
                      <path id="Trazado_629536" data-name="Trazado 629536" d="M3305.913,874.942a4.389,4.389,0,1,1,4.389-4.388A4.394,4.394,0,0,1,3305.913,874.942Zm0-6.747a2.358,2.358,0,1,0,2.358,2.359A2.362,2.362,0,0,0,3305.913,868.2Z" transform="translate(-3301.525 -866.165)" fill="#fff"/>
                    </g>
                  </g>
                </g>
              </g>
              <g id="Grupo_901774" data-name="Grupo 901774" transform="translate(25.224 30.585)">
                <g id="Grupo_901773" data-name="Grupo 901773">
                  <g id="Grupo_901772" data-name="Grupo 901772">
                    <path id="Trazado_629537" data-name="Trazado 629537" d="M2971.114,795.779h-7.075a1.015,1.015,0,0,1-1.005-.874l-.583-4.147a16.223,16.223,0,0,1-3.46-1.434l-3.352,2.511a1.015,1.015,0,0,1-1.327-.095l-4.987-4.986a1.015,1.015,0,0,1-.094-1.326l2.51-3.352a16.22,16.22,0,0,1-1.434-3.463l-4.172-.6a1.015,1.015,0,0,1-.871-1.007l.021-7.053a1.016,1.016,0,0,1,.874-1l4.148-.584a16.121,16.121,0,0,1,1.434-3.461l-2.528-3.371a1.016,1.016,0,0,1,.094-1.327l4.986-4.985a1.015,1.015,0,0,1,1.327-.094l3.372,2.53a16.785,16.785,0,0,1,3.461-1.432l.6-4.174a1.015,1.015,0,0,1,1-.87l7.034,0a1.014,1.014,0,0,1,1,.87l.6,4.163a15.538,15.538,0,0,1,3.483,1.425l3.353-2.511a1.016,1.016,0,0,1,1.327.095l4.986,4.986a1.015,1.015,0,0,1,.094,1.326l-2.511,3.352a15.543,15.543,0,0,1,1.425,3.481l4.137.58a1.015,1.015,0,0,1,.874,1l.021,7.056a1.015,1.015,0,0,1-.874,1.008l-4.146.583a16.028,16.028,0,0,1-1.456,3.481l2.511,3.353a1.015,1.015,0,0,1-.095,1.326l-4.986,4.985a1.017,1.017,0,0,1-1.326.095l-3.352-2.511a15.617,15.617,0,0,1-3.463,1.442l-.583,4.141A1.016,1.016,0,0,1,2971.114,795.779Zm-6.193-2.031h5.31l.555-3.942a1.015,1.015,0,0,1,.779-.848,13.562,13.562,0,0,0,4.13-1.718,1.017,1.017,0,0,1,1.144.05l3.19,2.39,3.742-3.741-2.39-3.191a1.014,1.014,0,0,1-.05-1.144,14,14,0,0,0,1.738-4.157,1.016,1.016,0,0,1,.847-.771l3.939-.554-.016-5.291-3.942-.553a1.015,1.015,0,0,1-.848-.779,13.539,13.539,0,0,0-1.7-4.149,1.014,1.014,0,0,1,.05-1.144l2.389-3.19-3.742-3.742-3.19,2.389a1.013,1.013,0,0,1-1.145.05,13.544,13.544,0,0,0-4.147-1.7,1.014,1.014,0,0,1-.779-.844l-.572-3.966h-5.276l-.572,3.964a1.015,1.015,0,0,1-.756.839,14.7,14.7,0,0,0-4.153,1.723,1.014,1.014,0,0,1-1.143-.051l-3.209-2.407-3.74,3.741,2.407,3.209a1.014,1.014,0,0,1,.049,1.146,14.071,14.071,0,0,0-1.719,4.14,1.015,1.015,0,0,1-.845.766l-3.944.555-.016,5.292,3.963.572a1.015,1.015,0,0,1,.842.764,14.185,14.185,0,0,0,1.72,4.144,1.015,1.015,0,0,1-.05,1.144l-2.389,3.19,3.742,3.742,3.189-2.389a1.018,1.018,0,0,1,1.145-.049,14.19,14.19,0,0,0,4.143,1.719,1.015,1.015,0,0,1,.765.845Zm2.636-13.114a7.174,7.174,0,1,1,5.073-2.1A7.1,7.1,0,0,1,2967.557,780.634Zm.018-12.281a5.13,5.13,0,1,0,3.62,1.5A5.087,5.087,0,0,0,2967.574,768.352Z" transform="translate(-2945.266 -751.177)" fill="#fff"/>
                  </g>
                </g>
              </g>
            </g>
            <g id="Grupo_901778" data-name="Grupo 901778" transform="translate(2796.65 584.074)">
              <g id="Grupo_901776" data-name="Grupo 901776" transform="translate(0 0)">
                <path id="Trazado_629538" data-name="Trazado 629538" d="M2874.1,753.147a5.321,5.321,0,1,1,5.321-5.32A5.327,5.327,0,0,1,2874.1,753.147Zm0-8.611a3.291,3.291,0,1,0,3.291,3.291A3.294,3.294,0,0,0,2874.1,744.535Z" transform="translate(-2868.779 -742.505)" fill="#fff"/>
              </g>
              <g id="Grupo_901777" data-name="Grupo 901777" transform="translate(57.809 36.662)">
                <path id="Trazado_629539" data-name="Trazado 629539" d="M3245.205,988.5a5.321,5.321,0,1,1,5.321-5.321A5.327,5.327,0,0,1,3245.205,988.5Zm0-8.611a3.291,3.291,0,1,0,3.291,3.29A3.294,3.294,0,0,0,3245.205,979.888Z" transform="translate(-3239.884 -977.858)" fill="#fff"/>
              </g>
            </g>
          </g>
          <g id="Grupo_901912" data-name="Grupo 901912" transform="translate(954.553 7921.797)">
            <g id="Grupo_901872" data-name="Grupo 901872" transform="translate(128.88 147.203)">
              <g id="Grupo_901825" data-name="Grupo 901825" transform="translate(0 15.245)">
                <g id="Grupo_901820" data-name="Grupo 901820" transform="translate(0 0)">
                  <g id="tv-2" data-name="tv">
                    <g id="Grupo_901817" data-name="Grupo 901817">
                      <path id="Trazado_629562" data-name="Trazado 629562" d="M195.446,254.273a38.2,38.2,0,0,1-8.489-.951l-.945-.216a29.184,29.184,0,0,0-6.487-.731H148.8a5.757,5.757,0,0,1-5.751-5.75V184.075c0-3.333,2.763-5.751,6.57-5.751h19.764v1.309H149.623c-3.1,0-5.26,1.827-5.26,4.442v62.551a4.446,4.446,0,0,0,4.442,4.441h30.721a30.541,30.541,0,0,1,6.778.763l.945.216a37.045,37.045,0,0,0,16.388,0l.956-.218a30.5,30.5,0,0,1,6.774-.763h30.715a4.446,4.446,0,0,0,4.442-4.441V184.075a4.447,4.447,0,0,0-4.442-4.442H220.95v-1.309h21.131a5.757,5.757,0,0,1,5.751,5.751v62.551a5.757,5.757,0,0,1-5.751,5.75H211.366a29.183,29.183,0,0,0-6.483.73l-.956.218A38.155,38.155,0,0,1,195.446,254.273Z" transform="translate(-143.053 -178.324)" fill="#fff" stroke="#fff" stroke-width="1"/>
                    </g>
                    <g id="Grupo_901818" data-name="Grupo 901818" transform="translate(0.656 61.797)">
                      <rect id="Rectángulo_302961" data-name="Rectángulo 302961" width="103.469" height="1.309" fill="#fff" stroke="#fff" stroke-width="1"/>
                    </g>
                    <g id="Grupo_901819" data-name="Grupo 901819" transform="translate(25.303 74.078)">
                      <path id="Trazado_629563" data-name="Trazado 629563" d="M245.026,347.992H198.558a3.856,3.856,0,0,1-3.853-3.851V342.88a3.857,3.857,0,0,1,3.853-3.853h6.083l3.929-3.877v-5.6h1.309V335.7l-4.7,4.639h-6.62a2.546,2.546,0,0,0-2.543,2.543v1.261a2.546,2.546,0,0,0,2.543,2.542h46.468a2.546,2.546,0,0,0,2.543-2.542V342.88a2.547,2.547,0,0,0-2.543-2.543h-6.619l-4.7-4.639v-6.153h1.309v5.6l3.93,3.877h6.082a3.857,3.857,0,0,1,3.852,3.853v1.261A3.856,3.856,0,0,1,245.026,347.992Z" transform="translate(-194.705 -329.545)" fill="#fff" stroke="#fff" stroke-width="1"/>
                    </g>
                  </g>
                </g>
                <g id="Grupo_901821" data-name="Grupo 901821" transform="translate(49.626 65.755)">
                  <path id="Trazado_629564" data-name="Trazado 629564" d="M247.258,318.351a2.9,2.9,0,1,1,2.9-2.9A2.9,2.9,0,0,1,247.258,318.351Zm0-4.489a1.59,1.59,0,1,0,1.59,1.59A1.591,1.591,0,0,0,247.258,313.862Z" transform="translate(-244.359 -312.553)" fill="#fff" stroke="#fff" stroke-width="1"/>
                </g>
                <g id="Grupo_901824" data-name="Grupo 901824" transform="translate(38.088)">
                  <g id="Grupo_901822" data-name="Grupo 901822">
                    <rect id="Rectángulo_302962" data-name="Rectángulo 302962" width="10.87" height="1.309" fill="#fff" stroke="#fff" stroke-width="1"/>
                  </g>
                  <g id="Grupo_901823" data-name="Grupo 901823" transform="translate(17.733)">
                    <rect id="Rectángulo_302963" data-name="Rectángulo 302963" width="10.87" height="1.309" fill="#fff" stroke="#fff" stroke-width="1"/>
                  </g>
                </g>
              </g>
              <g id="Grupo_901871" data-name="Grupo 901871" transform="translate(24.717 0)">
                <g id="Grupo_901831" data-name="Grupo 901831" transform="translate(6.4 27.106)">
                  <g id="Grupo_901828" data-name="Grupo 901828" transform="translate(9.354 9.328)">
                    <g id="Grupo_901827" data-name="Grupo 901827">
                      <g id="Grupo_901826" data-name="Grupo 901826">
                        <path id="Trazado_629565" data-name="Trazado 629565" d="M237.615,245.469a11.946,11.946,0,1,1,0-23.892v1.309a10.637,10.637,0,1,0,10.636,10.637h1.309A11.959,11.959,0,0,1,237.615,245.469Z" transform="translate(-225.669 -221.577)" fill="#fff" stroke="#fff" stroke-width="1"/>
                      </g>
                    </g>
                  </g>
                  <g id="Grupo_901830" data-name="Grupo 901830">
                    <g id="Grupo_901829" data-name="Grupo 901829">
                      <path id="Trazado_629566" data-name="Trazado 629566" d="M231.214,245.082h-6.732l-.684-4.761a16.72,16.72,0,0,1-4.764-1.974l-3.848,2.884-4.76-4.76,2.884-3.848a16.737,16.737,0,0,1-1.975-4.768l-4.759-.68v-6.731l4.764-.681a16.609,16.609,0,0,1,1.969-4.769l-2.883-3.845,4.76-4.761,3.845,2.884a16.578,16.578,0,0,1,4.77-1.973l.68-4.762h6.733l.678,4.758a16.634,16.634,0,0,1,4.772,1.974l3.844-2.88,4.76,4.761-2.88,3.844a16.645,16.645,0,0,1,1.974,4.771l4.757.679v6.731l-4.763.681a16.526,16.526,0,0,1-1.973,4.77l2.885,3.845-4.761,4.762-3.845-2.885a16.581,16.581,0,0,1-4.768,1.97Zm-5.6-1.309h4.462l.648-4.541.448-.095A15.291,15.291,0,0,0,236.339,237l.384-.248,3.662,2.747,3.154-3.155-2.748-3.662.249-.384a15.268,15.268,0,0,0,2.137-5.166l.094-.448,4.539-.649v-4.461l-4.53-.647-.1-.446a15.357,15.357,0,0,0-2.139-5.169l-.249-.384,2.744-3.663-3.155-3.154-3.663,2.743-.383-.249a15.356,15.356,0,0,0-5.169-2.139l-.446-.1-.648-4.53h-4.46l-.649,4.538-.448.1a15.266,15.266,0,0,0-5.166,2.136l-.384.249-3.663-2.748-3.154,3.155,2.747,3.662-.249.384a15.3,15.3,0,0,0-2.133,5.166l-.1.448-4.54.649v4.461l4.575.654.058.464a15.437,15.437,0,0,0,2.134,5.143l.248.383-2.747,3.666,3.154,3.155,3.665-2.747.383.248a15.44,15.44,0,0,0,5.163,2.14l.445.1Z" transform="translate(-206.575 -202.536)" fill="#fff" stroke="#fff" stroke-width="1"/>
                    </g>
                  </g>
                </g>
                <g id="Grupo_901869" data-name="Grupo 901869">
                  <g id="Grupo_901843" data-name="Grupo 901843" transform="translate(22.027)">
                    <g id="Grupo_901842" data-name="Grupo 901842">
                      <g id="Grupo_901833" data-name="Grupo 901833" transform="translate(4.991 10.901)">
                        <g id="Grupo_901832" data-name="Grupo 901832">
                          <rect id="Rectángulo_302964" data-name="Rectángulo 302964" width="1.309" height="6.004" fill="#fff" stroke="#fff" stroke-width="1"/>
                        </g>
                      </g>
                      <g id="Grupo_901835" data-name="Grupo 901835" transform="translate(4.991 18.511)">
                        <g id="Grupo_901834" data-name="Grupo 901834">
                          <rect id="Rectángulo_302965" data-name="Rectángulo 302965" width="1.309" height="3.534" fill="#fff" stroke="#fff" stroke-width="1"/>
                        </g>
                      </g>
                      <g id="Grupo_901837" data-name="Grupo 901837" transform="translate(4.991 23.72)">
                        <g id="Grupo_901836" data-name="Grupo 901836">
                          <rect id="Rectángulo_302966" data-name="Rectángulo 302966" width="1.309" height="1.638" fill="#fff" stroke="#fff" stroke-width="1"/>
                        </g>
                      </g>
                      <g id="Grupo_901839" data-name="Grupo 901839">
                        <g id="Grupo_901838" data-name="Grupo 901838">
                          <path id="Trazado_629567" data-name="Trazado 629567" d="M244.121,158.494a5.646,5.646,0,1,1,5.645-5.645A5.652,5.652,0,0,1,244.121,158.494Zm0-9.982a4.336,4.336,0,1,0,4.336,4.337A4.342,4.342,0,0,0,244.121,148.512Z" transform="translate(-238.476 -147.203)" fill="#fff" stroke="#fff" stroke-width="1"/>
                        </g>
                      </g>
                      <g id="Grupo_901841" data-name="Grupo 901841" transform="translate(2.965 2.966)">
                        <g id="Grupo_901840" data-name="Grupo 901840">
                          <path id="Trazado_629568" data-name="Trazado 629568" d="M247.209,158.617a2.68,2.68,0,1,1,2.681-2.68A2.683,2.683,0,0,1,247.209,158.617Zm0-4.051a1.371,1.371,0,1,0,1.371,1.372A1.373,1.373,0,0,0,247.209,154.566Z" transform="translate(-244.528 -153.257)" fill="#fff" stroke="#fff" stroke-width="1"/>
                        </g>
                      </g>
                    </g>
                  </g>
                  <g id="Grupo_901868" data-name="Grupo 901868" transform="translate(0 6.903)">
                    <g id="Grupo_901855" data-name="Grupo 901855">
                      <g id="Grupo_901854" data-name="Grupo 901854">
                        <g id="Grupo_901845" data-name="Grupo 901845" transform="translate(4.991 10.901)">
                          <g id="Grupo_901844" data-name="Grupo 901844">
                            <rect id="Rectángulo_302967" data-name="Rectángulo 302967" width="1.309" height="6.647" fill="#fff" stroke="#fff" stroke-width="1"/>
                          </g>
                        </g>
                        <g id="Grupo_901847" data-name="Grupo 901847" transform="translate(5.644 19.251)">
                          <g id="Grupo_901846" data-name="Grupo 901846" transform="translate(0 0)">
                            <rect id="Rectángulo_302968" data-name="Rectángulo 302968" width="1.31" height="3.535" transform="translate(0 0.926) rotate(-45)" fill="#fff" stroke="#fff" stroke-width="1"/>
                          </g>
                        </g>
                        <g id="Grupo_901849" data-name="Grupo 901849" transform="translate(9.327 22.935)">
                          <g id="Grupo_901848" data-name="Grupo 901848" transform="translate(0 0)">
                            <rect id="Rectángulo_302969" data-name="Rectángulo 302969" width="1.31" height="1.638" transform="matrix(0.707, -0.707, 0.707, 0.707, 0, 0.926)" fill="#fff" stroke="#fff" stroke-width="1"/>
                          </g>
                        </g>
                        <g id="Grupo_901851" data-name="Grupo 901851">
                          <g id="Grupo_901850" data-name="Grupo 901850">
                            <path id="Trazado_629569" data-name="Trazado 629569" d="M199.155,172.586a5.645,5.645,0,1,1,5.646-5.646A5.652,5.652,0,0,1,199.155,172.586Zm0-9.982a4.336,4.336,0,1,0,4.336,4.336A4.341,4.341,0,0,0,199.155,162.6Z" transform="translate(-193.51 -161.295)" fill="#fff" stroke="#fff" stroke-width="1"/>
                          </g>
                        </g>
                        <g id="Grupo_901853" data-name="Grupo 901853" transform="translate(2.966 2.965)">
                          <g id="Grupo_901852" data-name="Grupo 901852">
                            <path id="Trazado_629570" data-name="Trazado 629570" d="M202.244,172.708a2.68,2.68,0,1,1,2.68-2.68A2.683,2.683,0,0,1,202.244,172.708Zm0-4.051a1.371,1.371,0,1,0,1.371,1.371A1.373,1.373,0,0,0,202.244,168.657Z" transform="translate(-199.564 -167.348)" fill="#fff" stroke="#fff" stroke-width="1"/>
                          </g>
                        </g>
                      </g>
                    </g>
                    <g id="Grupo_901867" data-name="Grupo 901867" transform="translate(43.934)">
                      <g id="Grupo_901866" data-name="Grupo 901866">
                        <g id="Grupo_901857" data-name="Grupo 901857" transform="translate(5.112 10.901)">
                          <g id="Grupo_901856" data-name="Grupo 901856">
                            <rect id="Rectángulo_302970" data-name="Rectángulo 302970" width="1.309" height="6.647" fill="#fff" stroke="#fff" stroke-width="1"/>
                          </g>
                        </g>
                        <g id="Grupo_901859" data-name="Grupo 901859" transform="translate(2.341 19.251)">
                          <g id="Grupo_901858" data-name="Grupo 901858" transform="translate(0 0)">
                            <rect id="Rectángulo_302971" data-name="Rectángulo 302971" width="3.535" height="1.31" transform="translate(0 2.498) rotate(-44.974)" fill="#fff" stroke="#fff" stroke-width="1"/>
                          </g>
                        </g>
                        <g id="Grupo_901861" data-name="Grupo 901861" transform="translate(0 22.935)">
                          <g id="Grupo_901860" data-name="Grupo 901860" transform="translate(0 0)">
                            <rect id="Rectángulo_302972" data-name="Rectángulo 302972" width="1.638" height="1.309" transform="translate(0 1.158) rotate(-45)" fill="#fff" stroke="#fff" stroke-width="1"/>
                          </g>
                        </g>
                        <g id="Grupo_901863" data-name="Grupo 901863" transform="translate(0.121)">
                          <g id="Grupo_901862" data-name="Grupo 901862">
                            <path id="Trazado_629571" data-name="Trazado 629571" d="M289.087,172.586a5.645,5.645,0,1,1,5.645-5.646A5.652,5.652,0,0,1,289.087,172.586Zm0-9.982a4.336,4.336,0,1,0,4.336,4.336A4.341,4.341,0,0,0,289.087,162.6Z" transform="translate(-283.441 -161.295)" fill="#fff" stroke="#fff" stroke-width="1"/>
                          </g>
                        </g>
                        <g id="Grupo_901865" data-name="Grupo 901865" transform="translate(3.086 2.965)">
                          <g id="Grupo_901864" data-name="Grupo 901864">
                            <path id="Trazado_629572" data-name="Trazado 629572" d="M292.175,172.708a2.68,2.68,0,1,1,2.68-2.68A2.683,2.683,0,0,1,292.175,172.708Zm0-4.051a1.371,1.371,0,1,0,1.371,1.371A1.373,1.373,0,0,0,292.175,168.657Z" transform="translate(-289.495 -167.348)" fill="#fff" stroke="#fff" stroke-width="1"/>
                          </g>
                        </g>
                      </g>
                    </g>
                  </g>
                </g>
                <g id="Grupo_901870" data-name="Grupo 901870" transform="translate(20.386 41.211)">
                  <path id="Trazado_629573" data-name="Trazado 629573" d="M242.02,243.338l-6.894-7.033.935-.917,5.894,6.012,8.632-10.071.994.852Z" transform="translate(-235.126 -231.33)" fill="#fff" stroke="#fff" stroke-width="1"/>
                </g>
              </g>
            </g>
            <g id="Grupo_901887" data-name="Grupo 901887" transform="translate(135.301 178.578)">
              <g id="Grupo_901879" data-name="Grupo 901879" transform="translate(0)">
                <g id="Grupo_901873" data-name="Grupo 901873">
                  <rect id="Rectángulo_302973" data-name="Rectángulo 302973" width="21.271" height="1.309" fill="#fff" stroke="#fff" stroke-width="1"/>
                </g>
                <g id="Grupo_901874" data-name="Grupo 901874" transform="translate(0 7.718)">
                  <rect id="Rectángulo_302974" data-name="Rectángulo 302974" width="13.905" height="1.309" fill="#fff" stroke="#fff" stroke-width="1"/>
                </g>
                <g id="Grupo_901875" data-name="Grupo 901875" transform="translate(0 15.435)">
                  <rect id="Rectángulo_302975" data-name="Rectángulo 302975" width="13.905" height="1.309" fill="#fff" stroke="#fff" stroke-width="1"/>
                </g>
                <g id="Grupo_901876" data-name="Grupo 901876" transform="translate(0 23.154)">
                  <rect id="Rectángulo_302976" data-name="Rectángulo 302976" width="13.905" height="1.309" fill="#fff" stroke="#fff" stroke-width="1"/>
                </g>
                <g id="Grupo_901877" data-name="Grupo 901877" transform="translate(0 30.871)">
                  <rect id="Rectángulo_302977" data-name="Rectángulo 302977" width="21.271" height="1.309" fill="#fff" stroke="#fff" stroke-width="1"/>
                </g>
                <g id="Grupo_901878" data-name="Grupo 901878" transform="translate(0 38.589)">
                  <rect id="Rectángulo_302978" data-name="Rectángulo 302978" width="30.552" height="1.309" fill="#fff" stroke="#fff" stroke-width="1"/>
                </g>
              </g>
              <g id="Grupo_901886" data-name="Grupo 901886" transform="translate(61.385)">
                <g id="Grupo_901880" data-name="Grupo 901880" transform="translate(9.281)">
                  <rect id="Rectángulo_302979" data-name="Rectángulo 302979" width="21.271" height="1.309" fill="#fff" stroke="#fff" stroke-width="1"/>
                </g>
                <g id="Grupo_901881" data-name="Grupo 901881" transform="translate(16.648 7.718)">
                  <rect id="Rectángulo_302980" data-name="Rectángulo 302980" width="13.905" height="1.309" fill="#fff" stroke="#fff" stroke-width="1"/>
                </g>
                <g id="Grupo_901882" data-name="Grupo 901882" transform="translate(16.648 15.435)">
                  <rect id="Rectángulo_302981" data-name="Rectángulo 302981" width="13.905" height="1.309" fill="#fff" stroke="#fff" stroke-width="1"/>
                </g>
                <g id="Grupo_901883" data-name="Grupo 901883" transform="translate(16.648 23.154)">
                  <rect id="Rectángulo_302982" data-name="Rectángulo 302982" width="13.905" height="1.309" fill="#fff" stroke="#fff" stroke-width="1"/>
                </g>
                <g id="Grupo_901884" data-name="Grupo 901884" transform="translate(9.281 30.871)">
                  <rect id="Rectángulo_302983" data-name="Rectángulo 302983" width="21.271" height="1.309" fill="#fff" stroke="#fff" stroke-width="1"/>
                </g>
                <g id="Grupo_901885" data-name="Grupo 901885" transform="translate(0 38.589)">
                  <rect id="Rectángulo_302984" data-name="Rectángulo 302984" width="30.553" height="1.309" fill="#fff" stroke="#fff" stroke-width="1"/>
                </g>
              </g>
            </g>
            <g id="Grupo_901902" data-name="Grupo 901902" transform="translate(115.27 178.578)">
              <g id="Grupo_901894" data-name="Grupo 901894" transform="translate(0)">
                <g id="Grupo_901888" data-name="Grupo 901888" transform="translate(4.092)">
                  <rect id="Rectángulo_302985" data-name="Rectángulo 302985" width="1.863" height="1.309" fill="#fff" stroke="#fff" stroke-width="1"/>
                </g>
                <g id="Grupo_901889" data-name="Grupo 901889" transform="translate(2.455 7.718)">
                  <rect id="Rectángulo_302986" data-name="Rectángulo 302986" width="3.5" height="1.309" fill="#fff" stroke="#fff" stroke-width="1"/>
                </g>
                <g id="Grupo_901890" data-name="Grupo 901890" transform="translate(0 15.435)">
                  <rect id="Rectángulo_302987" data-name="Rectángulo 302987" width="5.956" height="1.309" fill="#fff" stroke="#fff" stroke-width="1"/>
                </g>
                <g id="Grupo_901891" data-name="Grupo 901891" transform="translate(0 23.154)">
                  <rect id="Rectángulo_302988" data-name="Rectángulo 302988" width="5.956" height="1.309" fill="#fff" stroke="#fff" stroke-width="1"/>
                </g>
                <g id="Grupo_901892" data-name="Grupo 901892" transform="translate(2.455 30.871)">
                  <rect id="Rectángulo_302989" data-name="Rectángulo 302989" width="3.5" height="1.309" fill="#fff" stroke="#fff" stroke-width="1"/>
                </g>
                <g id="Grupo_901893" data-name="Grupo 901893" transform="translate(4.092 38.589)">
                  <rect id="Rectángulo_302990" data-name="Rectángulo 302990" width="1.863" height="1.309" fill="#fff" stroke="#fff" stroke-width="1"/>
                </g>
              </g>
              <g id="Grupo_901901" data-name="Grupo 901901" transform="translate(126.044)">
                <g id="Grupo_901895" data-name="Grupo 901895">
                  <rect id="Rectángulo_302991" data-name="Rectángulo 302991" width="1.863" height="1.309" fill="#fff" stroke="#fff" stroke-width="1"/>
                </g>
                <g id="Grupo_901896" data-name="Grupo 901896" transform="translate(0 7.718)">
                  <rect id="Rectángulo_302992" data-name="Rectángulo 302992" width="3.5" height="1.309" fill="#fff" stroke="#fff" stroke-width="1"/>
                </g>
                <g id="Grupo_901897" data-name="Grupo 901897" transform="translate(0 15.435)">
                  <rect id="Rectángulo_302993" data-name="Rectángulo 302993" width="5.956" height="1.309" fill="#fff" stroke="#fff" stroke-width="1"/>
                </g>
                <g id="Grupo_901898" data-name="Grupo 901898" transform="translate(0 23.154)">
                  <rect id="Rectángulo_302994" data-name="Rectángulo 302994" width="5.956" height="1.309" fill="#fff" stroke="#fff" stroke-width="1"/>
                </g>
                <g id="Grupo_901899" data-name="Grupo 901899" transform="translate(0 30.871)">
                  <rect id="Rectángulo_302995" data-name="Rectángulo 302995" width="3.5" height="1.309" fill="#fff" stroke="#fff" stroke-width="1"/>
                </g>
                <g id="Grupo_901900" data-name="Grupo 901900" transform="translate(0 38.589)">
                  <rect id="Rectángulo_302996" data-name="Rectángulo 302996" width="1.863" height="1.309" fill="#fff" stroke="#fff" stroke-width="1"/>
                </g>
              </g>
            </g>
            <g id="Grupo_901911" data-name="Grupo 901911" transform="translate(119.695 243.95)">
              <g id="Grupo_901906" data-name="Grupo 901906" transform="translate(0)">
                <g id="Grupo_901903" data-name="Grupo 901903" transform="translate(14.103)">
                  <rect id="Rectángulo_302997" data-name="Rectángulo 302997" width="17.377" height="1.309" fill="#fff" stroke="#fff" stroke-width="1"/>
                </g>
                <g id="Grupo_901904" data-name="Grupo 901904">
                  <rect id="Rectángulo_302998" data-name="Rectángulo 302998" width="9.211" height="1.309" fill="#fff" stroke="#fff" stroke-width="1"/>
                </g>
                <g id="Grupo_901905" data-name="Grupo 901905" transform="translate(5.184 4.47)">
                  <rect id="Rectángulo_302999" data-name="Rectángulo 302999" width="19.179" height="1.309" fill="#fff" stroke="#fff" stroke-width="1"/>
                </g>
              </g>
              <g id="Grupo_901910" data-name="Grupo 901910" transform="translate(91.669)">
                <g id="Grupo_901907" data-name="Grupo 901907">
                  <rect id="Rectángulo_303000" data-name="Rectángulo 303000" width="17.377" height="1.309" fill="#fff" stroke="#fff" stroke-width="1"/>
                </g>
                <g id="Grupo_901908" data-name="Grupo 901908" transform="translate(22.269)">
                  <rect id="Rectángulo_303001" data-name="Rectángulo 303001" width="9.211" height="1.309" fill="#fff" stroke="#fff" stroke-width="1"/>
                </g>
                <g id="Grupo_901909" data-name="Grupo 901909" transform="translate(7.117 4.47)">
                  <rect id="Rectángulo_303002" data-name="Rectángulo 303002" width="19.18" height="1.309" fill="#fff" stroke="#fff" stroke-width="1"/>
                </g>
              </g>
            </g>
          </g>
        </g>
      </g>
    </g>
    <path id="Trazado_633044" data-name="Trazado 633044" d="M44.579,14.658V19H41.494V6.2H46.6a5.948,5.948,0,0,1,2.6.541,4.074,4.074,0,0,1,1.749,1.538,4.2,4.2,0,0,1,.62,2.263,3.7,3.7,0,0,1-1.34,2.993,5.561,5.561,0,0,1-3.678,1.121Zm0-2.382H46.6a1.906,1.906,0,0,0,1.367-.448,1.665,1.665,0,0,0,.47-1.266,2.059,2.059,0,0,0-.483-1.433,1.712,1.712,0,0,0-1.318-.545H44.579Zm14.247-.105-.976-.07a1.752,1.752,0,0,0-1.793.879V19H53.1V9.49h2.777l.1,1.222a2.294,2.294,0,0,1,2.083-1.4,2.888,2.888,0,0,1,.826.105Zm6.732,5.8a3.054,3.054,0,0,1-2.54,1.2,3,3,0,0,1-2.369-.91,3.826,3.826,0,0,1-.8-2.615V9.49h2.962v6.179a1.065,1.065,0,0,0,1.187,1.222,1.548,1.548,0,0,0,1.45-.729V9.49h2.979V19H65.646Zm9.088,1.2A4.889,4.889,0,0,1,71.1,17.871a4.507,4.507,0,0,1-1.354-3.4v-.246a5.84,5.84,0,0,1,.541-2.575,3.955,3.955,0,0,1,1.578-1.727,4.763,4.763,0,0,1,2.461-.611,4.117,4.117,0,0,1,3.164,1.244,4.887,4.887,0,0,1,1.16,3.467v1.151H72.766a2.135,2.135,0,0,0,.694,1.257,2.066,2.066,0,0,0,1.389.457,2.662,2.662,0,0,0,2.2-.984l1.354,1.6a3.784,3.784,0,0,1-1.569,1.217A5.3,5.3,0,0,1,74.646,19.176ZM74.312,11.6q-1.3,0-1.547,1.723h2.988v-.229a1.467,1.467,0,0,0-.36-1.1A1.434,1.434,0,0,0,74.312,11.6Zm14.361,2.725a5.8,5.8,0,0,1-.967,3.595,3.238,3.238,0,0,1-2.725,1.257,2.81,2.81,0,0,1-2.338-1.151L82.521,19H79.867V5.5h2.962v4.755a2.711,2.711,0,0,1,2.136-.94,3.239,3.239,0,0,1,2.742,1.274,5.826,5.826,0,0,1,.967,3.586ZM85.7,14.135a3.866,3.866,0,0,0-.365-1.952,1.229,1.229,0,0,0-1.121-.584,1.418,1.418,0,0,0-1.389.763v3.773a1.426,1.426,0,0,0,1.406.755,1.258,1.258,0,0,0,1.327-1.018A7.309,7.309,0,0,0,85.7,14.135ZM95.336,19a3.344,3.344,0,0,1-.281-.853,2.754,2.754,0,0,1-2.285,1.028,3.374,3.374,0,0,1-2.285-.813,2.588,2.588,0,0,1-.94-2.043,2.66,2.66,0,0,1,1.143-2.338,5.821,5.821,0,0,1,3.322-.791h.914v-.5q0-1.316-1.134-1.316a.927.927,0,0,0-1.055,1.042H89.772a2.655,2.655,0,0,1,1.173-2.239,4.931,4.931,0,0,1,2.993-.86,4.323,4.323,0,0,1,2.874.888,3.086,3.086,0,0,1,1.081,2.435v4.21a4.311,4.311,0,0,0,.4,2V19Zm-1.854-1.934a1.652,1.652,0,0,0,.918-.237,1.487,1.487,0,0,0,.523-.536V14.772h-.861q-1.547,0-1.547,1.389a.848.848,0,0,0,.272.655A.986.986,0,0,0,93.481,17.066Zm11.03-.738a.684.684,0,0,0-.4-.606,6.016,6.016,0,0,0-1.5-.475,6.853,6.853,0,0,1-1.828-.646,3.062,3.062,0,0,1-1.1-.971,2.319,2.319,0,0,1-.378-1.31,2.628,2.628,0,0,1,1.081-2.158,4.453,4.453,0,0,1,2.83-.848,4.934,4.934,0,0,1,3.023.853,2.666,2.666,0,0,1,1.143,2.241h-2.971q0-1.143-1.2-1.143a1.194,1.194,0,0,0-.782.259.8.8,0,0,0-.316.646.737.737,0,0,0,.387.642,3.654,3.654,0,0,0,1.235.4,10.671,10.671,0,0,1,1.49.378,2.706,2.706,0,0,1,2.145,2.646,2.491,2.491,0,0,1-1.156,2.118,5.068,5.068,0,0,1-2.993.817,5.172,5.172,0,0,1-2.18-.439,3.645,3.645,0,0,1-1.494-1.2,2.707,2.707,0,0,1-.536-1.591h2.769a1.145,1.145,0,0,0,.439.962,1.808,1.808,0,0,0,1.081.3,1.422,1.422,0,0,0,.91-.246A.787.787,0,0,0,104.512,16.328ZM28.258,49V41.547h-1.38V39.49h1.38v-.756a3.286,3.286,0,0,1,.958-2.522,3.785,3.785,0,0,1,2.689-.9,5.889,5.889,0,0,1,1.389.185l.009,2.18a2.706,2.706,0,0,0-.729-.079q-1.345,0-1.345,1.16v.729h1.854v2.057H31.228V49Zm11.531-1.028a3.054,3.054,0,0,1-2.54,1.2,3,3,0,0,1-2.369-.91,3.826,3.826,0,0,1-.8-2.615V39.49h2.962v6.179a1.065,1.065,0,0,0,1.187,1.222,1.548,1.548,0,0,0,1.45-.729V39.49h2.979V49H39.877ZM47,39.49l.1,1.116a3.225,3.225,0,0,1,2.716-1.292,2.713,2.713,0,0,1,2.219.888,4.226,4.226,0,0,1,.76,2.672V49H49.817V43a1.6,1.6,0,0,0-.29-1.059,1.342,1.342,0,0,0-1.055-.338,1.413,1.413,0,0,0-1.292.686V49H44.219V39.49Zm11.452,7.4a1.317,1.317,0,0,0,.967-.338,1.241,1.241,0,0,0,.334-.945h2.777a3.288,3.288,0,0,1-1.121,2.566,4.168,4.168,0,0,1-2.887,1,4.22,4.22,0,0,1-3.27-1.3,5.125,5.125,0,0,1-1.2-3.6v-.123a5.792,5.792,0,0,1,.532-2.544,3.872,3.872,0,0,1,1.534-1.7,4.573,4.573,0,0,1,2.373-.593,4.116,4.116,0,0,1,2.944,1.028,3.647,3.647,0,0,1,1.09,2.786H59.749A1.626,1.626,0,0,0,59.389,42a1.244,1.244,0,0,0-.967-.4q-1.151,0-1.345,1.468a10.357,10.357,0,0,0-.062,1.283,4.068,4.068,0,0,0,.343,1.986A1.187,1.187,0,0,0,58.448,46.891ZM66.9,49H63.933V39.49H66.9ZM63.757,37.038A1.322,1.322,0,0,1,64.214,36a1.943,1.943,0,0,1,2.373,0,1.405,1.405,0,0,1,0,2.074,1.943,1.943,0,0,1-2.373,0A1.322,1.322,0,0,1,63.757,37.038Zm4.6,7.119a5.613,5.613,0,0,1,.554-2.536A3.96,3.96,0,0,1,70.5,39.912a4.791,4.791,0,0,1,2.435-.6A4.373,4.373,0,0,1,76.3,40.637a5.076,5.076,0,0,1,1.23,3.6v.105a4.925,4.925,0,0,1-1.235,3.529,4.384,4.384,0,0,1-3.344,1.305,4.434,4.434,0,0,1-3.261-1.217,4.761,4.761,0,0,1-1.327-3.3Zm2.962.185a3.538,3.538,0,0,0,.413,1.934,1.376,1.376,0,0,0,1.222.615q1.582,0,1.617-2.435v-.3q0-2.558-1.635-2.558-1.485,0-1.608,2.206ZM81.555,39.49l.1,1.116a3.225,3.225,0,0,1,2.716-1.292,2.713,2.713,0,0,1,2.219.888,4.226,4.226,0,0,1,.76,2.672V49H84.376V43a1.6,1.6,0,0,0-.29-1.059,1.342,1.342,0,0,0-1.055-.338,1.413,1.413,0,0,0-1.292.686V49H78.777V39.49ZM94.343,49a3.344,3.344,0,0,1-.281-.853,2.754,2.754,0,0,1-2.285,1.028,3.374,3.374,0,0,1-2.285-.813,2.588,2.588,0,0,1-.94-2.043,2.66,2.66,0,0,1,1.143-2.338,5.821,5.821,0,0,1,3.322-.791h.914v-.5q0-1.316-1.134-1.316a.927.927,0,0,0-1.055,1.042H88.779a2.655,2.655,0,0,1,1.173-2.239,4.931,4.931,0,0,1,2.993-.86,4.323,4.323,0,0,1,2.874.888A3.086,3.086,0,0,1,96.9,42.637v4.21a4.311,4.311,0,0,0,.4,2V49Zm-1.854-1.934a1.652,1.652,0,0,0,.918-.237,1.487,1.487,0,0,0,.523-.536V44.772h-.861q-1.547,0-1.547,1.389a.848.848,0,0,0,.272.655A.986.986,0,0,0,92.488,47.066ZM101.664,49H98.693V35.5h2.971Zm6.425.176a4.889,4.889,0,0,1-3.542-1.305,4.507,4.507,0,0,1-1.354-3.4v-.246a5.84,5.84,0,0,1,.541-2.575,3.955,3.955,0,0,1,1.578-1.727,4.763,4.763,0,0,1,2.461-.611,4.117,4.117,0,0,1,3.164,1.244,4.887,4.887,0,0,1,1.16,3.467v1.151h-5.889a2.135,2.135,0,0,0,.694,1.257,2.066,2.066,0,0,0,1.389.457,2.662,2.662,0,0,0,2.2-.984l1.354,1.6a3.784,3.784,0,0,1-1.569,1.217A5.3,5.3,0,0,1,108.089,49.176Zm-.334-7.576q-1.3,0-1.547,1.723H109.2v-.229a1.467,1.467,0,0,0-.36-1.1A1.434,1.434,0,0,0,107.755,41.6Zm10.512,4.729a.684.684,0,0,0-.4-.606,6.016,6.016,0,0,0-1.5-.475,6.853,6.853,0,0,1-1.828-.646,3.062,3.062,0,0,1-1.1-.971,2.319,2.319,0,0,1-.378-1.31,2.628,2.628,0,0,1,1.081-2.158,4.453,4.453,0,0,1,2.83-.848,4.934,4.934,0,0,1,3.023.853,2.666,2.666,0,0,1,1.143,2.241H118.17q0-1.143-1.2-1.143a1.194,1.194,0,0,0-.782.259.8.8,0,0,0-.316.646.737.737,0,0,0,.387.642,3.654,3.654,0,0,0,1.235.4,10.671,10.671,0,0,1,1.49.378,2.706,2.706,0,0,1,2.145,2.646,2.491,2.491,0,0,1-1.156,2.118,5.068,5.068,0,0,1-2.993.817,5.172,5.172,0,0,1-2.18-.439,3.645,3.645,0,0,1-1.494-1.2,2.707,2.707,0,0,1-.536-1.591h2.769a1.145,1.145,0,0,0,.439.962,1.808,1.808,0,0,0,1.081.3,1.422,1.422,0,0,0,.91-.246A.787.787,0,0,0,118.267,46.328Z" transform="translate(389.822 7949.435)" fill="#12263f"/>
    <path id="Trazado_633045" data-name="Trazado 633045" d="M32.208,14.658V19H29.123V6.2H34.23a5.948,5.948,0,0,1,2.6.541,4.074,4.074,0,0,1,1.749,1.538,4.2,4.2,0,0,1,.62,2.263,3.7,3.7,0,0,1-1.34,2.993,5.561,5.561,0,0,1-3.678,1.121Zm0-2.382H34.23a1.906,1.906,0,0,0,1.367-.448,1.665,1.665,0,0,0,.47-1.266,2.059,2.059,0,0,0-.483-1.433,1.712,1.712,0,0,0-1.318-.545H32.208Zm14.247-.105-.976-.07a1.752,1.752,0,0,0-1.793.879V19H40.725V9.49H43.5l.1,1.222a2.294,2.294,0,0,1,2.083-1.4,2.888,2.888,0,0,1,.826.105Zm6.732,5.8a3.054,3.054,0,0,1-2.54,1.2,3,3,0,0,1-2.369-.91,3.826,3.826,0,0,1-.8-2.615V9.49h2.962v6.179a1.065,1.065,0,0,0,1.187,1.222,1.548,1.548,0,0,0,1.45-.729V9.49h2.979V19H53.276Zm9.088,1.2a4.889,4.889,0,0,1-3.542-1.305,4.507,4.507,0,0,1-1.354-3.4v-.246a5.84,5.84,0,0,1,.541-2.575A3.955,3.955,0,0,1,59.5,9.925a4.763,4.763,0,0,1,2.461-.611,4.117,4.117,0,0,1,3.164,1.244,4.887,4.887,0,0,1,1.16,3.467v1.151H60.395a2.135,2.135,0,0,0,.694,1.257,2.066,2.066,0,0,0,1.389.457,2.662,2.662,0,0,0,2.2-.984l1.354,1.6a3.784,3.784,0,0,1-1.569,1.217A5.3,5.3,0,0,1,62.276,19.176ZM61.942,11.6q-1.3,0-1.547,1.723h2.988v-.229a1.467,1.467,0,0,0-.36-1.1A1.434,1.434,0,0,0,61.942,11.6ZM76.3,14.324a5.8,5.8,0,0,1-.967,3.595,3.238,3.238,0,0,1-2.725,1.257,2.81,2.81,0,0,1-2.338-1.151L70.151,19H67.5V5.5h2.962v4.755a2.711,2.711,0,0,1,2.136-.94,3.239,3.239,0,0,1,2.742,1.274,5.826,5.826,0,0,1,.967,3.586Zm-2.971-.189a3.866,3.866,0,0,0-.365-1.952,1.229,1.229,0,0,0-1.121-.584,1.418,1.418,0,0,0-1.389.763v3.773a1.426,1.426,0,0,0,1.406.755,1.258,1.258,0,0,0,1.327-1.018A7.309,7.309,0,0,0,73.332,14.135ZM82.965,19a3.344,3.344,0,0,1-.281-.853A2.754,2.754,0,0,1,80.4,19.176a3.374,3.374,0,0,1-2.285-.813,2.588,2.588,0,0,1-.94-2.043,2.66,2.66,0,0,1,1.143-2.338,5.821,5.821,0,0,1,3.322-.791h.914v-.5q0-1.316-1.134-1.316a.927.927,0,0,0-1.055,1.042H77.4a2.655,2.655,0,0,1,1.173-2.239,4.931,4.931,0,0,1,2.993-.86,4.323,4.323,0,0,1,2.874.888,3.086,3.086,0,0,1,1.081,2.435v4.21a4.311,4.311,0,0,0,.4,2V19Zm-1.854-1.934a1.652,1.652,0,0,0,.918-.237,1.487,1.487,0,0,0,.523-.536V14.772h-.861q-1.547,0-1.547,1.389a.848.848,0,0,0,.272.655A.986.986,0,0,0,81.111,17.066Zm11.03-.738a.684.684,0,0,0-.4-.606,6.016,6.016,0,0,0-1.5-.475,6.853,6.853,0,0,1-1.828-.646,3.062,3.062,0,0,1-1.1-.971,2.319,2.319,0,0,1-.378-1.31,2.628,2.628,0,0,1,1.081-2.158,4.453,4.453,0,0,1,2.83-.848,4.934,4.934,0,0,1,3.023.853,2.666,2.666,0,0,1,1.143,2.241H92.044q0-1.143-1.2-1.143a1.194,1.194,0,0,0-.782.259.8.8,0,0,0-.316.646.737.737,0,0,0,.387.642,3.654,3.654,0,0,0,1.235.4,10.671,10.671,0,0,1,1.49.378A2.706,2.706,0,0,1,95,16.24a2.491,2.491,0,0,1-1.156,2.118,5.068,5.068,0,0,1-2.993.817,5.172,5.172,0,0,1-2.18-.439,3.645,3.645,0,0,1-1.494-1.2,2.707,2.707,0,0,1-.536-1.591h2.769a1.145,1.145,0,0,0,.439.962,1.808,1.808,0,0,0,1.081.3,1.422,1.422,0,0,0,.91-.246A.787.787,0,0,0,92.141,16.328ZM103.584,9.49l.1,1.116A3.225,3.225,0,0,1,106.4,9.314a2.713,2.713,0,0,1,2.219.888,4.226,4.226,0,0,1,.76,2.672V19h-2.971V13a1.6,1.6,0,0,0-.29-1.059,1.342,1.342,0,0,0-1.055-.338,1.413,1.413,0,0,0-1.292.686V19h-2.962V9.49Zm7.058,4.667a5.613,5.613,0,0,1,.554-2.536,3.96,3.96,0,0,1,1.591-1.709,4.791,4.791,0,0,1,2.435-.6,4.373,4.373,0,0,1,3.366,1.323,5.076,5.076,0,0,1,1.23,3.6v.105a4.925,4.925,0,0,1-1.235,3.529,4.384,4.384,0,0,1-3.344,1.305,4.434,4.434,0,0,1-3.261-1.217,4.761,4.761,0,0,1-1.327-3.3Zm2.962.185a3.538,3.538,0,0,0,.413,1.934,1.376,1.376,0,0,0,1.222.615q1.582,0,1.617-2.435v-.3q0-2.558-1.635-2.558-1.485,0-1.608,2.206ZM28.258,49V41.547h-1.38V39.49h1.38v-.756a3.286,3.286,0,0,1,.958-2.522,3.785,3.785,0,0,1,2.689-.9,5.889,5.889,0,0,1,1.389.185l.009,2.18a2.706,2.706,0,0,0-.729-.079q-1.345,0-1.345,1.16v.729h1.854v2.057H31.228V49Zm11.531-1.028a3.054,3.054,0,0,1-2.54,1.2,3,3,0,0,1-2.369-.91,3.826,3.826,0,0,1-.8-2.615V39.49h2.962v6.179a1.065,1.065,0,0,0,1.187,1.222,1.548,1.548,0,0,0,1.45-.729V39.49h2.979V49H39.877ZM47,39.49l.1,1.116a3.225,3.225,0,0,1,2.716-1.292,2.713,2.713,0,0,1,2.219.888,4.226,4.226,0,0,1,.76,2.672V49H49.817V43a1.6,1.6,0,0,0-.29-1.059,1.342,1.342,0,0,0-1.055-.338,1.413,1.413,0,0,0-1.292.686V49H44.219V39.49Zm11.452,7.4a1.317,1.317,0,0,0,.967-.338,1.241,1.241,0,0,0,.334-.945h2.777a3.288,3.288,0,0,1-1.121,2.566,4.168,4.168,0,0,1-2.887,1,4.22,4.22,0,0,1-3.27-1.3,5.125,5.125,0,0,1-1.2-3.6v-.123a5.792,5.792,0,0,1,.532-2.544,3.872,3.872,0,0,1,1.534-1.7,4.573,4.573,0,0,1,2.373-.593,4.116,4.116,0,0,1,2.944,1.028,3.647,3.647,0,0,1,1.09,2.786H59.749A1.626,1.626,0,0,0,59.389,42a1.244,1.244,0,0,0-.967-.4q-1.151,0-1.345,1.468a10.357,10.357,0,0,0-.062,1.283,4.068,4.068,0,0,0,.343,1.986A1.187,1.187,0,0,0,58.448,46.891ZM66.9,49H63.933V39.49H66.9ZM63.757,37.038A1.322,1.322,0,0,1,64.214,36a1.943,1.943,0,0,1,2.373,0,1.405,1.405,0,0,1,0,2.074,1.943,1.943,0,0,1-2.373,0A1.322,1.322,0,0,1,63.757,37.038Zm4.6,7.119a5.613,5.613,0,0,1,.554-2.536A3.96,3.96,0,0,1,70.5,39.912a4.791,4.791,0,0,1,2.435-.6A4.373,4.373,0,0,1,76.3,40.637a5.076,5.076,0,0,1,1.23,3.6v.105a4.925,4.925,0,0,1-1.235,3.529,4.384,4.384,0,0,1-3.344,1.305,4.434,4.434,0,0,1-3.261-1.217,4.761,4.761,0,0,1-1.327-3.3Zm2.962.185a3.538,3.538,0,0,0,.413,1.934,1.376,1.376,0,0,0,1.222.615q1.582,0,1.617-2.435v-.3q0-2.558-1.635-2.558-1.485,0-1.608,2.206ZM81.555,39.49l.1,1.116a3.225,3.225,0,0,1,2.716-1.292,2.713,2.713,0,0,1,2.219.888,4.226,4.226,0,0,1,.76,2.672V49H84.376V43a1.6,1.6,0,0,0-.29-1.059,1.342,1.342,0,0,0-1.055-.338,1.413,1.413,0,0,0-1.292.686V49H78.777V39.49ZM94.343,49a3.344,3.344,0,0,1-.281-.853,2.754,2.754,0,0,1-2.285,1.028,3.374,3.374,0,0,1-2.285-.813,2.588,2.588,0,0,1-.94-2.043,2.66,2.66,0,0,1,1.143-2.338,5.821,5.821,0,0,1,3.322-.791h.914v-.5q0-1.316-1.134-1.316a.927.927,0,0,0-1.055,1.042H88.779a2.655,2.655,0,0,1,1.173-2.239,4.931,4.931,0,0,1,2.993-.86,4.323,4.323,0,0,1,2.874.888A3.086,3.086,0,0,1,96.9,42.637v4.21a4.311,4.311,0,0,0,.4,2V49Zm-1.854-1.934a1.652,1.652,0,0,0,.918-.237,1.487,1.487,0,0,0,.523-.536V44.772h-.861q-1.547,0-1.547,1.389a.848.848,0,0,0,.272.655A.986.986,0,0,0,92.488,47.066ZM101.664,49H98.693V35.5h2.971Zm6.425.176a4.889,4.889,0,0,1-3.542-1.305,4.507,4.507,0,0,1-1.354-3.4v-.246a5.84,5.84,0,0,1,.541-2.575,3.955,3.955,0,0,1,1.578-1.727,4.763,4.763,0,0,1,2.461-.611,4.117,4.117,0,0,1,3.164,1.244,4.887,4.887,0,0,1,1.16,3.467v1.151h-5.889a2.135,2.135,0,0,0,.694,1.257,2.066,2.066,0,0,0,1.389.457,2.662,2.662,0,0,0,2.2-.984l1.354,1.6a3.784,3.784,0,0,1-1.569,1.217A5.3,5.3,0,0,1,108.089,49.176Zm-.334-7.576q-1.3,0-1.547,1.723H109.2v-.229a1.467,1.467,0,0,0-.36-1.1A1.434,1.434,0,0,0,107.755,41.6Zm10.512,4.729a.684.684,0,0,0-.4-.606,6.016,6.016,0,0,0-1.5-.475,6.853,6.853,0,0,1-1.828-.646,3.062,3.062,0,0,1-1.1-.971,2.319,2.319,0,0,1-.378-1.31,2.628,2.628,0,0,1,1.081-2.158,4.453,4.453,0,0,1,2.83-.848,4.934,4.934,0,0,1,3.023.853,2.666,2.666,0,0,1,1.143,2.241H118.17q0-1.143-1.2-1.143a1.194,1.194,0,0,0-.782.259.8.8,0,0,0-.316.646.737.737,0,0,0,.387.642,3.654,3.654,0,0,0,1.235.4,10.671,10.671,0,0,1,1.49.378,2.706,2.706,0,0,1,2.145,2.646,2.491,2.491,0,0,1-1.156,2.118,5.068,5.068,0,0,1-2.993.817,5.172,5.172,0,0,1-2.18-.439,3.645,3.645,0,0,1-1.494-1.2,2.707,2.707,0,0,1-.536-1.591h2.769a1.145,1.145,0,0,0,.439.962,1.808,1.808,0,0,0,1.081.3,1.422,1.422,0,0,0,.91-.246A.787.787,0,0,0,118.267,46.328Z" transform="translate(727 7949.435)" fill="#12263f"/>
    <path id="Trazado_633046" data-name="Trazado 633046" d="M44.579,14.658V19H41.494V6.2H46.6a5.948,5.948,0,0,1,2.6.541,4.074,4.074,0,0,1,1.749,1.538,4.2,4.2,0,0,1,.62,2.263,3.7,3.7,0,0,1-1.34,2.993,5.561,5.561,0,0,1-3.678,1.121Zm0-2.382H46.6a1.906,1.906,0,0,0,1.367-.448,1.665,1.665,0,0,0,.47-1.266,2.059,2.059,0,0,0-.483-1.433,1.712,1.712,0,0,0-1.318-.545H44.579Zm14.247-.105-.976-.07a1.752,1.752,0,0,0-1.793.879V19H53.1V9.49h2.777l.1,1.222a2.294,2.294,0,0,1,2.083-1.4,2.888,2.888,0,0,1,.826.105Zm6.732,5.8a3.054,3.054,0,0,1-2.54,1.2,3,3,0,0,1-2.369-.91,3.826,3.826,0,0,1-.8-2.615V9.49h2.962v6.179a1.065,1.065,0,0,0,1.187,1.222,1.548,1.548,0,0,0,1.45-.729V9.49h2.979V19H65.646Zm9.088,1.2A4.889,4.889,0,0,1,71.1,17.871a4.507,4.507,0,0,1-1.354-3.4v-.246a5.84,5.84,0,0,1,.541-2.575,3.955,3.955,0,0,1,1.578-1.727,4.763,4.763,0,0,1,2.461-.611,4.117,4.117,0,0,1,3.164,1.244,4.887,4.887,0,0,1,1.16,3.467v1.151H72.766a2.135,2.135,0,0,0,.694,1.257,2.066,2.066,0,0,0,1.389.457,2.662,2.662,0,0,0,2.2-.984l1.354,1.6a3.784,3.784,0,0,1-1.569,1.217A5.3,5.3,0,0,1,74.646,19.176ZM74.312,11.6q-1.3,0-1.547,1.723h2.988v-.229a1.467,1.467,0,0,0-.36-1.1A1.434,1.434,0,0,0,74.312,11.6Zm14.361,2.725a5.8,5.8,0,0,1-.967,3.595,3.238,3.238,0,0,1-2.725,1.257,2.81,2.81,0,0,1-2.338-1.151L82.521,19H79.867V5.5h2.962v4.755a2.711,2.711,0,0,1,2.136-.94,3.239,3.239,0,0,1,2.742,1.274,5.826,5.826,0,0,1,.967,3.586ZM85.7,14.135a3.866,3.866,0,0,0-.365-1.952,1.229,1.229,0,0,0-1.121-.584,1.418,1.418,0,0,0-1.389.763v3.773a1.426,1.426,0,0,0,1.406.755,1.258,1.258,0,0,0,1.327-1.018A7.309,7.309,0,0,0,85.7,14.135ZM95.336,19a3.344,3.344,0,0,1-.281-.853,2.754,2.754,0,0,1-2.285,1.028,3.374,3.374,0,0,1-2.285-.813,2.588,2.588,0,0,1-.94-2.043,2.66,2.66,0,0,1,1.143-2.338,5.821,5.821,0,0,1,3.322-.791h.914v-.5q0-1.316-1.134-1.316a.927.927,0,0,0-1.055,1.042H89.772a2.655,2.655,0,0,1,1.173-2.239,4.931,4.931,0,0,1,2.993-.86,4.323,4.323,0,0,1,2.874.888,3.086,3.086,0,0,1,1.081,2.435v4.21a4.311,4.311,0,0,0,.4,2V19Zm-1.854-1.934a1.652,1.652,0,0,0,.918-.237,1.487,1.487,0,0,0,.523-.536V14.772h-.861q-1.547,0-1.547,1.389a.848.848,0,0,0,.272.655A.986.986,0,0,0,93.481,17.066Zm11.03-.738a.684.684,0,0,0-.4-.606,6.016,6.016,0,0,0-1.5-.475,6.853,6.853,0,0,1-1.828-.646,3.062,3.062,0,0,1-1.1-.971,2.319,2.319,0,0,1-.378-1.31,2.628,2.628,0,0,1,1.081-2.158,4.453,4.453,0,0,1,2.83-.848,4.934,4.934,0,0,1,3.023.853,2.666,2.666,0,0,1,1.143,2.241h-2.971q0-1.143-1.2-1.143a1.194,1.194,0,0,0-.782.259.8.8,0,0,0-.316.646.737.737,0,0,0,.387.642,3.654,3.654,0,0,0,1.235.4,10.671,10.671,0,0,1,1.49.378,2.706,2.706,0,0,1,2.145,2.646,2.491,2.491,0,0,1-1.156,2.118,5.068,5.068,0,0,1-2.993.817,5.172,5.172,0,0,1-2.18-.439,3.645,3.645,0,0,1-1.494-1.2,2.707,2.707,0,0,1-.536-1.591h2.769a1.145,1.145,0,0,0,.439.962,1.808,1.808,0,0,0,1.081.3,1.422,1.422,0,0,0,.91-.246A.787.787,0,0,0,104.512,16.328ZM25.691,49.176a4.889,4.889,0,0,1-3.542-1.305,4.507,4.507,0,0,1-1.354-3.4v-.246a5.84,5.84,0,0,1,.541-2.575,3.955,3.955,0,0,1,1.578-1.727,4.763,4.763,0,0,1,2.461-.611,4.117,4.117,0,0,1,3.164,1.244,4.887,4.887,0,0,1,1.16,3.467v1.151H23.81a2.135,2.135,0,0,0,.694,1.257,2.066,2.066,0,0,0,1.389.457,2.662,2.662,0,0,0,2.2-.984l1.354,1.6a3.784,3.784,0,0,1-1.569,1.217A5.3,5.3,0,0,1,25.691,49.176ZM25.357,41.6q-1.3,0-1.547,1.723H26.8v-.229a1.467,1.467,0,0,0-.36-1.1A1.434,1.434,0,0,0,25.357,41.6Zm10.512,4.729a.684.684,0,0,0-.4-.606,6.016,6.016,0,0,0-1.5-.475,6.853,6.853,0,0,1-1.828-.646,3.062,3.062,0,0,1-1.1-.971,2.319,2.319,0,0,1-.378-1.31,2.628,2.628,0,0,1,1.081-2.158,4.453,4.453,0,0,1,2.83-.848,4.934,4.934,0,0,1,3.023.853,2.666,2.666,0,0,1,1.143,2.241H35.772q0-1.143-1.2-1.143a1.194,1.194,0,0,0-.782.259.8.8,0,0,0-.316.646.737.737,0,0,0,.387.642,3.654,3.654,0,0,0,1.235.4,10.671,10.671,0,0,1,1.49.378,2.706,2.706,0,0,1,2.145,2.646,2.491,2.491,0,0,1-1.156,2.118,5.068,5.068,0,0,1-2.993.817,5.172,5.172,0,0,1-2.18-.439,3.645,3.645,0,0,1-1.494-1.2,2.707,2.707,0,0,1-.536-1.591h2.769a1.145,1.145,0,0,0,.439.962,1.808,1.808,0,0,0,1.081.3,1.422,1.422,0,0,0,.91-.246A.787.787,0,0,0,35.869,46.328Zm7.69-9.2V39.49h1.564v2.057H43.559V45.9a1.111,1.111,0,0,0,.193.747,1.037,1.037,0,0,0,.765.211,4.345,4.345,0,0,0,.738-.053v2.118a5.466,5.466,0,0,1-1.67.255,3.1,3.1,0,0,1-2.259-.721,2.954,2.954,0,0,1-.729-2.188v-4.72H39.385V39.49H40.6V37.126Zm8.481,5.045-.976-.07a1.752,1.752,0,0,0-1.793.879V49H46.31V39.49h2.777l.1,1.222a2.294,2.294,0,0,1,2.083-1.4,2.888,2.888,0,0,1,.826.105Zm6.732,5.8a3.054,3.054,0,0,1-2.54,1.2,3,3,0,0,1-2.369-.91,3.826,3.826,0,0,1-.8-2.615V39.49h2.962v6.179a1.065,1.065,0,0,0,1.187,1.222,1.548,1.548,0,0,0,1.45-.729V39.49h2.979V49H58.861Zm8.508-1.081a1.317,1.317,0,0,0,.967-.338,1.241,1.241,0,0,0,.334-.945h2.777a3.288,3.288,0,0,1-1.121,2.566,4.168,4.168,0,0,1-2.887,1,4.22,4.22,0,0,1-3.27-1.3,5.125,5.125,0,0,1-1.2-3.6v-.123a5.792,5.792,0,0,1,.532-2.544,3.872,3.872,0,0,1,1.534-1.7,4.573,4.573,0,0,1,2.373-.593,4.116,4.116,0,0,1,2.944,1.028,3.647,3.647,0,0,1,1.09,2.786H68.582A1.626,1.626,0,0,0,68.222,42a1.244,1.244,0,0,0-.967-.4q-1.151,0-1.345,1.468a10.357,10.357,0,0,0-.062,1.283,4.068,4.068,0,0,0,.343,1.986A1.187,1.187,0,0,0,67.281,46.891Zm8.78-9.765V39.49h1.564v2.057H76.061V45.9a1.111,1.111,0,0,0,.193.747,1.037,1.037,0,0,0,.765.211,4.345,4.345,0,0,0,.738-.053v2.118a5.466,5.466,0,0,1-1.67.255,3.1,3.1,0,0,1-2.259-.721,2.954,2.954,0,0,1-.729-2.188v-4.72H71.887V39.49H73.1V37.126Zm8.394,10.846a3.054,3.054,0,0,1-2.54,1.2,3,3,0,0,1-2.369-.91,3.826,3.826,0,0,1-.8-2.615V39.49H81.7v6.179a1.065,1.065,0,0,0,1.187,1.222,1.548,1.548,0,0,0,1.45-.729V39.49H87.32V49H84.543Zm10.239-5.8-.976-.07a1.752,1.752,0,0,0-1.793.879V49H88.964V39.49h2.777l.1,1.222a2.294,2.294,0,0,1,2.083-1.4,2.888,2.888,0,0,1,.826.105ZM100.855,49a3.344,3.344,0,0,1-.281-.853,2.754,2.754,0,0,1-2.285,1.028A3.374,3.374,0,0,1,96,48.363a2.588,2.588,0,0,1-.94-2.043,2.66,2.66,0,0,1,1.143-2.338,5.821,5.821,0,0,1,3.322-.791h.914v-.5q0-1.316-1.134-1.316a.927.927,0,0,0-1.055,1.042H95.292a2.655,2.655,0,0,1,1.173-2.239,4.931,4.931,0,0,1,2.993-.86,4.323,4.323,0,0,1,2.874.888,3.086,3.086,0,0,1,1.081,2.435v4.21a4.311,4.311,0,0,0,.4,2V49ZM99,47.066a1.652,1.652,0,0,0,.918-.237,1.487,1.487,0,0,0,.523-.536V44.772h-.861q-1.547,0-1.547,1.389a.848.848,0,0,0,.272.655A.986.986,0,0,0,99,47.066ZM108.177,49h-2.971V35.5h2.971Zm6.425.176a4.889,4.889,0,0,1-3.542-1.305,4.507,4.507,0,0,1-1.354-3.4v-.246a5.84,5.84,0,0,1,.541-2.575,3.955,3.955,0,0,1,1.578-1.727,4.763,4.763,0,0,1,2.461-.611,4.117,4.117,0,0,1,3.164,1.244,4.887,4.887,0,0,1,1.16,3.467v1.151h-5.889a2.135,2.135,0,0,0,.694,1.257,2.066,2.066,0,0,0,1.389.457,2.662,2.662,0,0,0,2.2-.984l1.354,1.6a3.784,3.784,0,0,1-1.569,1.217A5.3,5.3,0,0,1,114.6,49.176Zm-.334-7.576q-1.3,0-1.547,1.723h2.988v-.229a1.467,1.467,0,0,0-.36-1.1A1.434,1.434,0,0,0,114.267,41.6Zm10.512,4.729a.684.684,0,0,0-.4-.606,6.016,6.016,0,0,0-1.5-.475,6.853,6.853,0,0,1-1.828-.646,3.062,3.062,0,0,1-1.1-.971,2.319,2.319,0,0,1-.378-1.31,2.628,2.628,0,0,1,1.081-2.158,4.453,4.453,0,0,1,2.83-.848,4.934,4.934,0,0,1,3.023.853,2.666,2.666,0,0,1,1.143,2.241h-2.971q0-1.143-1.2-1.143a1.194,1.194,0,0,0-.782.259.8.8,0,0,0-.316.646.737.737,0,0,0,.387.642,3.654,3.654,0,0,0,1.235.4,10.671,10.671,0,0,1,1.49.378,2.706,2.706,0,0,1,2.145,2.646,2.491,2.491,0,0,1-1.156,2.118,5.068,5.068,0,0,1-2.993.817,5.172,5.172,0,0,1-2.18-.439,3.645,3.645,0,0,1-1.494-1.2,2.707,2.707,0,0,1-.536-1.591h2.769a1.145,1.145,0,0,0,.439.962,1.808,1.808,0,0,0,1.081.3,1.422,1.422,0,0,0,.91-.246A.787.787,0,0,0,124.779,46.328Z" transform="translate(1061.822 7949.435)" fill="#12263f"/>
  </g>
</svg>
