<svg xmlns="http://www.w3.org/2000/svg" width="150" height="150" viewBox="0 0 150 150">
  <g id="Grupo_904382" data-name="Grupo 904382" transform="translate(-724.822 -2267)">
    <g id="Elipse_6497" data-name="Elipse 6497" transform="translate(724.822 2267)" fill="#fff" stroke="#21cbae" stroke-width="3">
      <circle cx="75" cy="75" r="75" stroke="none"/>
      <circle cx="75" cy="75" r="73.5" fill="none"/>
    </g>
    <g id="Grupo_902284" data-name="Grupo 902284" transform="translate(81.386 1957.206)">
      <g id="Grupo_902294" data-name="Grupo 902294" transform="translate(663.436 330.794)">
        <g id="Grupo_902293" data-name="Grupo 902293" transform="translate(0 0)">
          <g id="Grupo_902292" data-name="Grupo 902292">
            <g id="Grupo_902291" data-name="Grupo 902291">
              <g id="Grupo_902290" data-name="Grupo 902290">
                <g id="Grupo_902289" data-name="Grupo 902289">
                  <g id="Grupo_902288" data-name="Grupo 902288">
                    <g id="Grupo_902287" data-name="Grupo 902287">
                      <g id="Grupo_902286" data-name="Grupo 902286">
                        <g id="Grupo_902285" data-name="Grupo 902285">
                          <g id="Grupo_902284-2" data-name="Grupo 902284">
                            <path id="Trazado_630105" data-name="Trazado 630105" d="M1184.277,785.257a49.934,49.934,0,0,1-58.252,59.074" transform="translate(-1081.551 -741.469)" fill="none" stroke="#0b0c0c" stroke-linecap="round" stroke-linejoin="round" stroke-width="2" stroke-dasharray="65.846"/>
                            <path id="Trazado_630106" data-name="Trazado 630106" d="M1328.884,382.371A50.014,50.014,0,0,1,1359.124,402" transform="translate(-1264.864 -377.402)" fill="none" stroke="#0b0c0c" stroke-linecap="round" stroke-linejoin="round" stroke-width="2" stroke-dasharray="65.846"/>
                            <path id="Trazado_630107" data-name="Trazado 630107" d="M718.791,621.369a49.82,49.82,0,0,1-1.782-66.474" transform="translate(-701.244 -533.303)" fill="none" stroke="#0b0c0c" stroke-linecap="round" stroke-linejoin="round" stroke-width="2" stroke-dasharray="65.846"/>
                            <circle id="Elipse_6526" data-name="Elipse 6526" cx="38.066" cy="38.066" r="38.066" transform="translate(0 53.833) rotate(-45)" fill="#e8e8e8" stroke="#0b0c0c" stroke-width="2"/>
                          </g>
                        </g>
                      </g>
                    </g>
                  </g>
                </g>
              </g>
            </g>
          </g>
        </g>
      </g>
      <g id="Grupo_902297" data-name="Grupo 902297" transform="translate(684.526 388.27)">
        <path id="Trazado_630108" data-name="Trazado 630108" d="M919.782,974.193v14.46l15.472-14.46h15.472v28.919l-15.472-14.459" transform="translate(-915.269 -969.678)" fill="none" stroke="#0b0c0c" stroke-linecap="round" stroke-linejoin="round" stroke-width="2"/>
        <ellipse id="Elipse_6527" data-name="Elipse 6527" cx="4.513" cy="4.515" rx="4.513" ry="4.515" transform="translate(0 0)" fill="#0b5999" stroke="#0b0c0c" stroke-linecap="round" stroke-linejoin="round" stroke-width="2"/>
        <ellipse id="Elipse_6528" data-name="Elipse 6528" cx="4.513" cy="4.515" rx="4.513" ry="4.515" transform="translate(15.472 0)" fill="#0b5999" stroke="#0b0c0c" stroke-linecap="round" stroke-linejoin="round" stroke-width="2"/>
        <ellipse id="Elipse_6529" data-name="Elipse 6529" cx="4.513" cy="4.515" rx="4.513" ry="4.515" transform="translate(30.944 0)" fill="#ef3c79" stroke="#0b0c0c" stroke-linecap="round" stroke-linejoin="round" stroke-width="2"/>
        <ellipse id="Elipse_6530" data-name="Elipse 6530" cx="4.513" cy="4.515" rx="4.513" ry="4.515" transform="translate(30.944 14.46)" fill="#21cbae" stroke="#0b0c0c" stroke-linecap="round" stroke-linejoin="round" stroke-width="2"/>
        <ellipse id="Elipse_6531" data-name="Elipse 6531" cx="4.513" cy="4.515" rx="4.513" ry="4.515" transform="translate(30.944 28.919)" fill="#21cbae" stroke="#0b0c0c" stroke-linecap="round" stroke-linejoin="round" stroke-width="2"/>
        <ellipse id="Elipse_6532" data-name="Elipse 6532" cx="1.101" cy="1.101" rx="1.101" ry="1.101" transform="translate(3.412 3.413)" fill="#fff" stroke="#0b0c0c" stroke-linecap="round" stroke-linejoin="round" stroke-width="2"/>
        <ellipse id="Elipse_6533" data-name="Elipse 6533" cx="1.101" cy="1.101" rx="1.101" ry="1.101" transform="translate(18.884 3.413)" fill="#fff" stroke="#0b0c0c" stroke-linecap="round" stroke-linejoin="round" stroke-width="2"/>
        <ellipse id="Elipse_6534" data-name="Elipse 6534" cx="1.101" cy="1.101" rx="1.101" ry="1.101" transform="translate(34.356 3.413)" fill="#fff" stroke="#0b0c0c" stroke-linecap="round" stroke-linejoin="round" stroke-width="2"/>
        <path id="Trazado_630118" data-name="Trazado 630118" d="M4.513,0A4.515,4.515,0,1,1,0,4.515,4.514,4.514,0,0,1,4.513,0Z" transform="translate(0 14.46)" fill="#ef3c79" stroke="#0b0c0c" stroke-linecap="round" stroke-width="2"/>
        <ellipse id="Elipse_6536" data-name="Elipse 6536" cx="4.513" cy="4.515" rx="4.513" ry="4.515" transform="translate(15.472 14.46)" fill="#fecb2f" stroke="#0b0c0c" stroke-linecap="round" stroke-linejoin="round" stroke-width="2"/>
        <ellipse id="Elipse_6537" data-name="Elipse 6537" cx="1.101" cy="1.101" rx="1.101" ry="1.101" transform="matrix(1, -0.002, 0.002, 1, 3.409, 17.875)" fill="#fff" stroke="#0b0c0c" stroke-linecap="round" stroke-linejoin="round" stroke-width="2"/>
        <ellipse id="Elipse_6538" data-name="Elipse 6538" cx="1.101" cy="1.101" rx="1.101" ry="1.101" transform="matrix(1, -0.002, 0.002, 1, 34.353, 17.875)" fill="#fff" stroke="#0b0c0c" stroke-linecap="round" stroke-linejoin="round" stroke-width="2"/>
        <ellipse id="Elipse_6539" data-name="Elipse 6539" cx="1.101" cy="1.101" rx="1.101" ry="1.101" transform="translate(3.409 34.533) rotate(-89.864)" fill="#fff" stroke="#0b0c0c" stroke-linecap="round" stroke-linejoin="round" stroke-width="2"/>
        <ellipse id="Elipse_6540" data-name="Elipse 6540" cx="1.101" cy="1.101" rx="1.101" ry="1.101" transform="translate(34.353 34.533) rotate(-89.865)" fill="#fff" stroke="#0b0c0c" stroke-linecap="round" stroke-linejoin="round" stroke-width="2"/>
        <g id="Grupo_902296" data-name="Grupo 902296" transform="translate(12.305 17.347)">
          <g id="Grupo_902295" data-name="Grupo 902295">
            <path id="Trazado_630109" data-name="Trazado 630109" d="M1005.479,1128.507c-2.859-3.7-4.653-9.763-4.653-9.763a1.813,1.813,0,1,1,3.286-1.533l2.278,4.888h0v-12.912a1.813,1.813,0,1,1,3.625,0v7.834a1.813,1.813,0,1,1,3.625,0v.363a1.813,1.813,0,1,1,3.625,0v.363a1.813,1.813,0,1,1,3.625,0v5.4a8.635,8.635,0,0,1-15.413,5.359" transform="translate(-1000.656 -1107.373)" fill="#f9e1c1" stroke="#0b0c0c" stroke-linecap="round" stroke-linejoin="round" stroke-width="2"/>
          </g>
          <line id="Línea_356" data-name="Línea 356" y1="0.907" transform="translate(12.985 9.647)" fill="#d0fdff" stroke="#0b0c0c" stroke-linecap="round" stroke-linejoin="round" stroke-width="2"/>
          <line id="Línea_357" data-name="Línea 357" y2="0.907" transform="translate(9.36 9.647)" fill="#d0fdff" stroke="#0b0c0c" stroke-linecap="round" stroke-linejoin="round" stroke-width="2"/>
          <line id="Línea_358" data-name="Línea 358" y2="0.544" transform="translate(16.61 10.01)" fill="#d0fdff" stroke="#0b0c0c" stroke-linecap="round" stroke-linejoin="round" stroke-width="2"/>
        </g>
      </g>
      <g id="Grupo_902299" data-name="Grupo 902299" transform="translate(731.727 357.804)">
        <g id="Grupo_902298" data-name="Grupo 902298" transform="translate(0)">
          <path id="Trazado_630110" data-name="Trazado 630110" d="M1512.663,661.607V614.153a1.1,1.1,0,0,1,.613-.986l4.089-2.017a.227.227,0,0,1,.327.2v50.23" transform="translate(-1498.228 -611.126)" fill="#fecb2f" stroke="#0b0c0c" stroke-miterlimit="10" stroke-width="2"/>
          <path id="Trazado_630111" data-name="Trazado 630111" d="M1396.065,691.692V685.7a1.114,1.114,0,0,1,1.114-1.114h23.215a1.114,1.114,0,0,1,.779.318l3.78,3.7a.134.134,0,0,1,0,.192l-3.78,3.7a1.114,1.114,0,0,1-.779.318h-23.215A1.114,1.114,0,0,1,1396.065,691.692Z" transform="translate(-1392.864 -677.508)" fill="#ef3c79" stroke="#0b0c0c" stroke-miterlimit="10" stroke-width="2"/>
          <path id="Trazado_630112" data-name="Trazado 630112" d="M1391.77,840.067v-5.992a1.114,1.114,0,0,0-1.114-1.114h-23.215a1.114,1.114,0,0,0-.779.318l-3.78,3.7a.134.134,0,0,0,0,.192l3.78,3.7a1.114,1.114,0,0,0,.779.318h23.215A1.114,1.114,0,0,0,1391.77,840.067Z" transform="translate(-1362.841 -811.587)" fill="#ef3c79" stroke="#0b0c0c" stroke-miterlimit="10" stroke-width="2"/>
          <path id="Trazado_630113" data-name="Trazado 630113" d="M1440.9,1135.958s11.611-3.4,18.858,1.34" transform="translate(-1433.383 -1084.323)" fill="none" stroke="#0b0c0c" stroke-linecap="round" stroke-miterlimit="10" stroke-width="2"/>
        </g>
      </g>
      <g id="Grupo_902301" data-name="Grupo 902301" transform="translate(687.503 337.639)">
        <path id="Trazado_630114" data-name="Trazado 630114" d="M1093,621.325v13.93a1.31,1.31,0,0,1-1.311,1.311h-15.241v-6.187h1.5a2.069,2.069,0,0,0,2.072-2.068v-.042a2.069,2.069,0,0,0-2.072-2.068h-1.5v-6.187h6.187v-1.178a2.068,2.068,0,0,1,2.068-2.068h.042a2.068,2.068,0,0,1,2.068,2.068v1.178h4.876A1.31,1.31,0,0,1,1093,621.325Z" transform="translate(-1059.822 -596.061)" fill="#ef3c79" stroke="#0b0c0c" stroke-linejoin="round" stroke-width="2"/>
        <line id="Línea_359" data-name="Línea 359" x1="6.129" y2="0.008" transform="translate(10.502 23.954)" fill="none" stroke="#0b0c0c" stroke-linecap="round" stroke-linejoin="round" stroke-width="2"/>
        <path id="Trazado_630115" data-name="Trazado 630115" d="M924.052,625.03v.042a2.069,2.069,0,0,1-2.072,2.068h-1.5v6.187H905.155a1.309,1.309,0,0,1-1.307-1.311V616.776h6.216v-1.51a2.081,2.081,0,0,1,2.08-2.08h.042a2.081,2.081,0,0,1,2.08,2.08v1.51h6.212v6.187h1.5A2.069,2.069,0,0,1,924.052,625.03Z" transform="translate(-903.848 -592.822)" fill="#fecb2f" stroke="#0b0c0c" stroke-linejoin="round" stroke-width="2"/>
        <path id="Trazado_630116" data-name="Trazado 630116" d="M923.745,486.1v.042a2.081,2.081,0,0,1-2.08,2.08h-1.182v6.216h-6.216v-1.51a2.081,2.081,0,0,0-2.08-2.08h-.042a2.081,2.081,0,0,0-2.08,2.08v1.51h-6.212s0,0,0-.008V479.118a1.315,1.315,0,0,1,1.315-1.315h15.32v6.216h1.182A2.081,2.081,0,0,1,923.745,486.1Z" transform="translate(-903.848 -470.484)" fill="#21cbae" stroke="#0b0c0c" stroke-linejoin="round" stroke-width="2"/>
        <g id="Grupo_902300" data-name="Grupo 902300" transform="translate(22.474 0)">
          <path id="Trazado_630117" data-name="Trazado 630117" d="M1137.1,408.058v-6.217h14.577a1.84,1.84,0,0,1,1.84,1.84v13.8a.992.992,0,0,1-.992.992h-5.033v-1.187a2.069,2.069,0,0,0-2.069-2.069h-.042a2.069,2.069,0,0,0-2.069,2.069v1.187H1137.1v-6.217h1.268a2.08,2.08,0,0,0,2.08-2.08v-.042a2.08,2.08,0,0,0-2.08-2.08h-1.182" transform="translate(-1137.102 -401.841)" fill="#0b5999" stroke="#0b0c0c" stroke-linecap="round" stroke-linejoin="round" stroke-width="2"/>
        </g>
      </g>
    </g>
  </g>
</svg>
