<svg xmlns="http://www.w3.org/2000/svg" width="150" height="150" viewBox="0 0 150 150">
  <g id="Grupo_902998" data-name="Grupo 902998" transform="translate(-337.303 -4837.712)">
    <g id="Elipse_6515" data-name="Elipse 6515" transform="translate(337.303 4837.712)" fill="#fff" stroke="#21cbae" stroke-width="3">
      <circle cx="75" cy="75" r="75" stroke="none"/>
      <circle cx="75" cy="75" r="73.5" fill="none"/>
    </g>
    <g id="Grupo_902997" data-name="Grupo 902997" transform="translate(366.574 4864.545)">
      <g id="Grupo_902994" data-name="Grupo 902994" transform="translate(0)">
        <g id="Grupo_902993" data-name="Grupo 902993">
          <g id="Grupo_902991" data-name="Grupo 902991">
            <path id="Trazado_631194" data-name="Trazado 631194" d="M3932.02,998.09a5.091,5.091,0,1,1-5.09,5.09A5.091,5.091,0,0,1,3932.02,998.09Z" transform="translate(-3886.291 -998.09)" fill="#ef3c79" stroke="#000" stroke-width="2"/>
            <path id="Trazado_631195" data-name="Trazado 631195" d="M3773.375,1066.785a5.091,5.091,0,1,1-7.2,0A5.093,5.093,0,0,1,3773.375,1066.785Z" transform="translate(-3752.782 -1053.392)" fill="#ef3c79" stroke="#000" stroke-width="2"/>
            <path id="Trazado_631196" data-name="Trazado 631196" d="M3702.57,1227.54a5.09,5.09,0,1,1-5.09,5.09A5.09,5.09,0,0,1,3702.57,1227.54Z" transform="translate(-3697.48 -1186.901)" fill="#ef3c79" stroke="#000" stroke-width="2"/>
            <path id="Trazado_631197" data-name="Trazado 631197" d="M3773.375,1391.265a5.091,5.091,0,1,1-7.2,0A5.093,5.093,0,0,1,3773.375,1391.265Z" transform="translate(-3752.782 -1320.401)" fill="#ef3c79" stroke="#000" stroke-width="2"/>
            <circle id="Elipse_6554" data-name="Elipse 6554" cx="5.09" cy="5.09" r="5.09" transform="translate(40.639 81.277)" fill="#ef3c79" stroke="#000" stroke-width="2"/>
            <path id="Trazado_631198" data-name="Trazado 631198" d="M4097.855,1391.265a5.091,5.091,0,1,1-7.2,0A5.093,5.093,0,0,1,4097.855,1391.265Z" transform="translate(-4019.791 -1320.401)" fill="#ef3c79" stroke="#000" stroke-width="2"/>
            <circle id="Elipse_6555" data-name="Elipse 6555" cx="5.09" cy="5.09" r="5.09" transform="translate(81.277 40.639)" fill="#ef3c79" stroke="#000" stroke-width="2"/>
            <path id="Trazado_631199" data-name="Trazado 631199" d="M4097.855,1066.785a5.091,5.091,0,1,1-7.2,0A5.093,5.093,0,0,1,4097.855,1066.785Z" transform="translate(-4019.791 -1053.392)" fill="#ef3c79" stroke="#000" stroke-width="2"/>
            <path id="Trazado_631200" data-name="Trazado 631200" d="M3915.986,1283.084l-10.882,8.658-10.884-8.658h4.9v-7.3h11.971v7.3Z" transform="translate(-3859.374 -1226.596)" fill="#fecb2f" stroke="#000" stroke-width="2"/>
            <path id="Trazado_631201" data-name="Trazado 631201" d="M3915.986,1155.316h-4.9v7.3h-11.971v-7.3h-4.9l10.884-8.656Z" transform="translate(-3859.374 -1120.346)" fill="#fecb2f" stroke="#000" stroke-width="2"/>
            <path id="Trazado_631202" data-name="Trazado 631202" d="M3848.91,1111.188a27.106,27.106,0,1,1-19.166-7.938A27.019,27.019,0,0,1,3848.91,1111.188Zm-13.181,8.406h4.9l-10.882-8.656-10.884,8.656h4.9v7.3h11.971Zm-5.984,30.176,10.882-8.657h-4.9v-7.3h-11.971v7.3h-4.9Z" transform="translate(-3784.014 -1084.624)" fill="#0b5999" stroke="#000" stroke-width="2"/>
          </g>
          <g id="Grupo_902992" data-name="Grupo 902992">
            <path id="Trazado_631203" data-name="Trazado 631203" d="M3856.848,1130.354a27.1,27.1,0,1,1-7.938-19.166A27.022,27.022,0,0,1,3856.848,1130.354Z" transform="translate(-3784.014 -1084.624)" fill="none" stroke="#000" stroke-linecap="round" stroke-linejoin="round" stroke-width="2"/>
            <path id="Trazado_631204" data-name="Trazado 631204" d="M3937.111,1003.18a5.09,5.09,0,1,1-5.091-5.09A5.091,5.091,0,0,1,3937.111,1003.18Z" transform="translate(-3886.291 -998.09)" fill="none" stroke="#000" stroke-linecap="round" stroke-linejoin="round" stroke-width="2"/>
            <line id="Línea_365" data-name="Línea 365" y2="8.443" transform="translate(45.73 10.182)" fill="none" stroke="#000" stroke-linecap="round" stroke-linejoin="round" stroke-width="2"/>
            <path id="Trazado_631205" data-name="Trazado 631205" d="M3773.375,1066.785a5.091,5.091,0,1,1-7.2,0A5.093,5.093,0,0,1,3773.375,1066.785Z" transform="translate(-3752.782 -1053.392)" fill="none" stroke="#000" stroke-linecap="round" stroke-linejoin="round" stroke-width="2"/>
            <line id="Línea_366" data-name="Línea 366" x2="5.971" y2="5.971" transform="translate(20.593 20.593)" fill="none" stroke="#000" stroke-linecap="round" stroke-linejoin="round" stroke-width="2"/>
            <path id="Trazado_631206" data-name="Trazado 631206" d="M3702.57,1227.54a5.09,5.09,0,1,1-5.09,5.09A5.09,5.09,0,0,1,3702.57,1227.54Z" transform="translate(-3697.48 -1186.901)" fill="none" stroke="#000" stroke-linecap="round" stroke-linejoin="round" stroke-width="2"/>
            <line id="Línea_367" data-name="Línea 367" x2="8.443" transform="translate(10.182 45.73)" fill="none" stroke="#000" stroke-linecap="round" stroke-linejoin="round" stroke-width="2"/>
            <path id="Trazado_631207" data-name="Trazado 631207" d="M3766.175,1391.265a5.091,5.091,0,1,1,0,7.2A5.093,5.093,0,0,1,3766.175,1391.265Z" transform="translate(-3752.782 -1320.401)" fill="none" stroke="#000" stroke-linecap="round" stroke-linejoin="round" stroke-width="2"/>
            <line id="Línea_368" data-name="Línea 368" y1="5.969" x2="5.971" transform="translate(20.593 64.896)" fill="none" stroke="#000" stroke-linecap="round" stroke-linejoin="round" stroke-width="2"/>
            <circle id="Elipse_6556" data-name="Elipse 6556" cx="5.09" cy="5.09" r="5.09" transform="translate(40.639 81.277)" fill="none" stroke="#000" stroke-linecap="round" stroke-linejoin="round" stroke-width="2"/>
            <line id="Línea_369" data-name="Línea 369" y1="8.443" transform="translate(45.73 72.834)" fill="none" stroke="#000" stroke-linecap="round" stroke-linejoin="round" stroke-width="2"/>
            <path id="Trazado_631208" data-name="Trazado 631208" d="M4090.655,1398.465a5.091,5.091,0,1,1,7.2,0A5.093,5.093,0,0,1,4090.655,1398.465Z" transform="translate(-4019.791 -1320.401)" fill="none" stroke="#000" stroke-linecap="round" stroke-linejoin="round" stroke-width="2"/>
            <line id="Línea_370" data-name="Línea 370" x1="5.969" y1="5.969" transform="translate(64.896 64.896)" fill="none" stroke="#000" stroke-linecap="round" stroke-linejoin="round" stroke-width="2"/>
            <circle id="Elipse_6557" data-name="Elipse 6557" cx="5.09" cy="5.09" r="5.09" transform="translate(81.277 40.639)" fill="none" stroke="#000" stroke-linecap="round" stroke-linejoin="round" stroke-width="2"/>
            <line id="Línea_371" data-name="Línea 371" x1="8.443" transform="translate(72.834 45.73)" fill="none" stroke="#000" stroke-linecap="round" stroke-linejoin="round" stroke-width="2"/>
            <path id="Trazado_631209" data-name="Trazado 631209" d="M4097.855,1073.985a5.091,5.091,0,1,1,0-7.2A5.092,5.092,0,0,1,4097.855,1073.985Z" transform="translate(-4019.791 -1053.392)" fill="none" stroke="#000" stroke-linecap="round" stroke-linejoin="round" stroke-width="2"/>
            <line id="Línea_372" data-name="Línea 372" x1="5.969" y2="5.971" transform="translate(64.896 20.593)" fill="none" stroke="#000" stroke-linecap="round" stroke-linejoin="round" stroke-width="2"/>
            <path id="Trazado_631210" data-name="Trazado 631210" d="M3905.1,1146.66l10.882,8.656h-4.9v7.3h-11.971v-7.3h-4.9Z" transform="translate(-3859.374 -1120.346)" fill="none" stroke="#000" stroke-linecap="round" stroke-linejoin="round" stroke-width="2"/>
            <path id="Trazado_631211" data-name="Trazado 631211" d="M3905.1,1291.742l10.882-8.658h-4.9v-7.3h-11.971v7.3h-4.9Z" transform="translate(-3859.374 -1226.596)" fill="none" stroke="#000" stroke-linecap="round" stroke-linejoin="round" stroke-width="2"/>
          </g>
        </g>
      </g>
    </g>
  </g>
</svg>
