<svg xmlns="http://www.w3.org/2000/svg" width="150" height="150" viewBox="0 0 150 150">
  <g id="Grupo_904375" data-name="Grupo 904375" transform="translate(-364.822 -1644)">
    <g id="Elipse_6491" data-name="Elipse 6491" transform="translate(364.822 1644)" fill="#fff" stroke="#21cbae" stroke-width="3">
      <circle cx="75" cy="75" r="75" stroke="none"/>
      <circle cx="75" cy="75" r="73.5" fill="none"/>
    </g>
    <g id="Grupo_902323" data-name="Grupo 902323" transform="translate(312.203 1588.235)">
      <g id="Grupo_902327" data-name="Grupo 902327" transform="translate(79.619 106.221)">
        <g id="Grupo_902326" data-name="Grupo 902326" transform="translate(0)">
          <g id="Grupo_902325" data-name="Grupo 902325">
            <path id="Trazado_630195" data-name="Trazado 630195" d="M132.707,414.058h-40.6V403.248a15.653,15.653,0,0,1,15.653-15.653h9.289a15.653,15.653,0,0,1,15.653,15.653v10.809Z" transform="translate(-89.238 -346.104)" fill="#0b5999" stroke="#020202" stroke-miterlimit="10" stroke-width="2"/>
            <path id="Trazado_630196" data-name="Trazado 630196" d="M92.112,489.463h40.6v3.031h-40.6Z" transform="translate(-89.238 -424.54)" fill="#12263f" stroke="#020202" stroke-miterlimit="10" stroke-width="2"/>
            <path id="Trazado_630197" data-name="Trazado 630197" d="M167.338,393.355h-4.71l-2.237-5.76h9.184Z" transform="translate(-141.812 -346.104)" fill="#ef3c79" stroke="#020202" stroke-miterlimit="10" stroke-width="2"/>
            <g id="Grupo_902323-2" data-name="Grupo 902323" transform="translate(18.646 47.252)">
              <path id="Trazado_630198" data-name="Trazado 630198" d="M162.852,412.637h4.71l2.17,11.893-4.524,4.571-4.525-4.571Z" transform="translate(-160.682 -412.637)" fill="#ef3c79" stroke="#020202" stroke-miterlimit="10" stroke-width="2"/>
              <path id="Trazado_630199" data-name="Trazado 630199" d="M162.852,412.637h4.71l2.17,11.893-4.524,4.571-4.525-4.571Z" transform="translate(-160.682 -412.637)" fill="#ef3c79" stroke="#020202" stroke-miterlimit="10" stroke-width="2"/>
              <path id="Trazado_630200" data-name="Trazado 630200" d="M162.852,412.637h4.71l2.17,11.893-4.524,4.571-4.525-4.571Z" transform="translate(-160.682 -412.637)" fill="#ef3c79" stroke="#020202" stroke-miterlimit="10" stroke-width="2"/>
            </g>
            <path id="Trazado_630201" data-name="Trazado 630201" d="M164.609,456.709l-3.46-3.495-.467,2.559,4.525,4.571,4.524-4.571-.467-2.559-3.459,3.494A.842.842,0,0,1,164.609,456.709Z" transform="translate(-142.036 -396.629)" fill="#fc2b3a" stroke="#020202" stroke-miterlimit="10" stroke-width="2"/>
            <path id="Trazado_630202" data-name="Trazado 630202" d="M119.751,233.282c6.389-24.866-9.874-22.251-9.874-22.251s-5.7-6.3-15-2.717c-8.971,3.463-9.465,10.279-15.257,13.13a6.4,6.4,0,0,0,5.112,2.168,32.2,32.2,0,0,0,1.1,9.669Z" transform="translate(-79.619 -207.211)" fill="#636363" stroke="#020202" stroke-miterlimit="10" stroke-width="2"/>
            <path id="Trazado_630203" data-name="Trazado 630203" d="M143.149,252.557c-5.225,6.936-18.026,8.487-18.026,8.487v9.87a12.7,12.7,0,0,0,25.409,0v-9.648S145.706,259.313,143.149,252.557Z" transform="translate(-114.656 -242.127)" fill="#ffc89f" stroke="#020202" stroke-miterlimit="10" stroke-width="2"/>
            <path id="Trazado_630204" data-name="Trazado 630204" d="M109.475,315.243v-5.092a4.321,4.321,0,0,0-.438-.022,4.236,4.236,0,1,0,.864,8.384,12.719,12.719,0,0,1-.426-3.27Z" transform="translate(-99.009 -286.456)" fill="#f4b184" stroke="#020202" stroke-miterlimit="10" stroke-width="2"/>
            <path id="Trazado_630205" data-name="Trazado 630205" d="M234.6,310.128a4.371,4.371,0,0,0-.438.022v5.092a12.729,12.729,0,0,1-.426,3.27,4.236,4.236,0,1,0,.863-8.384Z" transform="translate(-198.288 -286.455)" fill="#f4b184" stroke="#020202" stroke-miterlimit="10" stroke-width="2"/>
            <g id="Grupo_902324" data-name="Grupo 902324" transform="translate(5.792 26.393)">
              <path id="Trazado_630206" data-name="Trazado 630206" d="M109.037,324.676a4.237,4.237,0,0,1-3.956-2.72,4.238,4.238,0,0,0,4.82,5.663,12.7,12.7,0,0,1-.421-2.966A4.193,4.193,0,0,1,109.037,324.676Z" transform="translate(-104.801 -321.956)" fill="#eaa678" stroke="#020202" stroke-miterlimit="10" stroke-width="2"/>
              <path id="Trazado_630207" data-name="Trazado 630207" d="M234.6,324.676a4.256,4.256,0,0,1-.443-.023,12.706,12.706,0,0,1-.421,2.966,4.237,4.237,0,0,0,4.82-5.664A4.237,4.237,0,0,1,234.6,324.676Z" transform="translate(-204.079 -321.956)" fill="#eaa678" stroke="#020202" stroke-miterlimit="10" stroke-width="2"/>
            </g>
          </g>
        </g>
        <path id="Trazado_630208" data-name="Trazado 630208" d="M169.522,338.917a1.266,1.266,0,0,0-1.178.8c-.037.075-.4.733-1.631.733s-1.594-.658-1.631-.733a1.266,1.266,0,1,0-2.325,1,4.588,4.588,0,0,0,7.911,0,1.266,1.266,0,0,0-1.146-1.8Z" transform="translate(-143.542 -308.622)"/>
        <path id="Trazado_630209" data-name="Trazado 630209" d="M149.3,304.76a1.266,1.266,0,0,0-1.266,1.266v2.854a1.266,1.266,0,1,0,2.531,0v-2.854A1.265,1.265,0,0,0,149.3,304.76Z" transform="translate(-132.298 -282.322)"/>
        <path id="Trazado_630210" data-name="Trazado 630210" d="M202.933,304.76a1.266,1.266,0,0,0-1.266,1.266v2.854a1.266,1.266,0,0,0,2.531,0v-2.854A1.265,1.265,0,0,0,202.933,304.76Z" transform="translate(-173.594 -282.322)"/>
      </g>
      <g id="Grupo_902328" data-name="Grupo 902328" transform="translate(126.018 87.765)">
        <path id="Trazado_630211" data-name="Trazado 630211" d="M291.287,76.765H248.044a3.22,3.22,0,0,0-3.22,3.22V109.2a3.21,3.21,0,0,0,.943,2.277,3.29,3.29,0,0,0,2.277.943h13.924l.18-.01c.59.822-.971,7.019.5,5.81,4.071-3.354,5.839-5.266,7.793-5.773,8.206.445,14.543-.026,20.85-.026a3.22,3.22,0,0,0,3.22-3.22V79.985A3.22,3.22,0,0,0,291.287,76.765Z" transform="translate(-244.824 -76.765)" fill="#21cbae" stroke="#000" stroke-miterlimit="10" stroke-width="4"/>
        <path id="Trazado_630212" data-name="Trazado 630212" d="M341.695,111.211h16.561v3.68H341.695Z" transform="translate(-325.713 -103.288)"/>
        <path id="Trazado_630213" data-name="Trazado 630213" d="M301.695,175.211h25.762v3.68H301.695Z" transform="translate(-294.913 -149.417)"/>
        <path id="Trazado_630214" data-name="Trazado 630214" d="M301.695,143.211h25.762v3.68H301.695Z" transform="translate(-294.913 -126.877)"/>
        <g id="Grupo_902330" data-name="Grupo 902330" transform="translate(35.723 6.074)">
          <path id="Trazado_630069" data-name="Trazado 630069" d="M226.474,1026.524h-1.448a.194.194,0,0,1-.192-.167l-.153-1.071a4.317,4.317,0,0,1-1.211-.5l-.864.648a.194.194,0,0,1-.254-.018l-1.024-1.024a.194.194,0,0,1-.018-.254l.648-.864a4.306,4.306,0,0,1-.5-1.211l-1.07-.153a.194.194,0,0,1-.167-.192v-1.448a.194.194,0,0,1,.167-.192l1.069-.153a4.331,4.331,0,0,1,.5-1.212l-.647-.863a.194.194,0,0,1,.018-.254l1.024-1.024a.194.194,0,0,1,.254-.018l.863.647a4.324,4.324,0,0,1,1.212-.5l.153-1.069a.194.194,0,0,1,.192-.167h1.448a.194.194,0,0,1,.192.167l.153,1.07a4.3,4.3,0,0,1,1.211.5l.864-.648a.194.194,0,0,1,.254.018l1.024,1.024a.194.194,0,0,1,.018.254l-.648.864a4.312,4.312,0,0,1,.5,1.21l1.071.153a.194.194,0,0,1,.167.192v1.448a.194.194,0,0,1-.167.192l-1.07.153a4.352,4.352,0,0,1-.5,1.211l.648.864a.194.194,0,0,1-.018.254l-1.024,1.024a.194.194,0,0,1-.254.018l-.864-.649a4.354,4.354,0,0,1-1.211.5l-.153,1.069A.194.194,0,0,1,226.474,1026.524Z" transform="translate(-220.221 -1015.466)" fill="#070707" stroke="#000" stroke-linecap="round" stroke-linejoin="round" stroke-width="0.5"/>
          <path id="Trazado_630070" data-name="Trazado 630070" d="M234.52,1035.462h1.111l.148-1.035a.194.194,0,0,1,.131-.156l.022-.006a3.974,3.974,0,0,0,1.325-.548.2.2,0,0,1,.225.005l.836.628.786-.786-.627-.836a.194.194,0,0,1,0-.227,3.973,3.973,0,0,0,.547-1.323.178.178,0,0,1,.006-.021.2.2,0,0,1,.157-.132l1.035-.148v-1.111l-1.036-.148a.194.194,0,0,1-.162-.152,3.931,3.931,0,0,0-.549-1.328.194.194,0,0,1,.008-.222l.627-.836-.786-.786-.836.627a.194.194,0,0,1-.222.007,3.923,3.923,0,0,0-1.329-.55.194.194,0,0,1-.152-.162l-.148-1.036H234.52l-.148,1.034a.194.194,0,0,1-.151.163,3.946,3.946,0,0,0-1.329.55.192.192,0,0,1-.055.025.2.2,0,0,1-.168-.032l-.835-.626-.786.786.626.835a.194.194,0,0,1,.029.178.2.2,0,0,1-.022.045,3.949,3.949,0,0,0-.55,1.329.193.193,0,0,1-.162.151l-1.034.148v1.111l1.036.148a.194.194,0,0,1,.162.152,3.924,3.924,0,0,0,.549,1.328.194.194,0,0,1-.008.222l-.627.836.786.786.836-.627a.194.194,0,0,1,.222-.008,3.938,3.938,0,0,0,1.328.549.194.194,0,0,1,.152.162Z" transform="translate(-229.547 -1024.792)" fill="#fecb2f" stroke="#000" stroke-linecap="round" stroke-linejoin="round" stroke-width="0.5"/>
          <ellipse id="Elipse_6524" data-name="Elipse 6524" cx="2.52" cy="2.52" rx="2.52" ry="2.52" transform="translate(3.009 3.159)" fill="#fff"/>
          <g id="Grupo_902222" data-name="Grupo 902222" transform="translate(2.708 2.768)">
            <path id="Trazado_630071" data-name="Trazado 630071" d="M290.751,1090.255a2.761,2.761,0,1,1,2.761-2.761A2.764,2.764,0,0,1,290.751,1090.255Zm0-4.863a2.1,2.1,0,1,0,2.1,2.1A2.1,2.1,0,0,0,290.751,1085.391Z" transform="translate(-287.99 -1084.732)"/>
          </g>
        </g>
        <g id="Grupo_902331" data-name="Grupo 902331" transform="translate(35.723 18.963)">
          <path id="Trazado_630069-2" data-name="Trazado 630069" d="M226.474,1026.524h-1.448a.194.194,0,0,1-.192-.167l-.153-1.071a4.317,4.317,0,0,1-1.211-.5l-.864.648a.194.194,0,0,1-.254-.018l-1.024-1.024a.194.194,0,0,1-.018-.254l.648-.864a4.306,4.306,0,0,1-.5-1.211l-1.07-.153a.194.194,0,0,1-.167-.192v-1.448a.194.194,0,0,1,.167-.192l1.069-.153a4.331,4.331,0,0,1,.5-1.212l-.647-.863a.194.194,0,0,1,.018-.254l1.024-1.024a.194.194,0,0,1,.254-.018l.863.647a4.324,4.324,0,0,1,1.212-.5l.153-1.069a.194.194,0,0,1,.192-.167h1.448a.194.194,0,0,1,.192.167l.153,1.07a4.3,4.3,0,0,1,1.211.5l.864-.648a.194.194,0,0,1,.254.018l1.024,1.024a.194.194,0,0,1,.018.254l-.648.864a4.312,4.312,0,0,1,.5,1.21l1.071.153a.194.194,0,0,1,.167.192v1.448a.194.194,0,0,1-.167.192l-1.07.153a4.352,4.352,0,0,1-.5,1.211l.648.864a.194.194,0,0,1-.018.254l-1.024,1.024a.194.194,0,0,1-.254.018l-.864-.649a4.354,4.354,0,0,1-1.211.5l-.153,1.069A.194.194,0,0,1,226.474,1026.524Z" transform="translate(-220.221 -1015.466)" fill="#070707" stroke="#000" stroke-linecap="round" stroke-linejoin="round" stroke-width="0.5"/>
          <path id="Trazado_630070-2" data-name="Trazado 630070" d="M234.52,1035.462h1.111l.148-1.035a.194.194,0,0,1,.131-.156l.022-.006a3.974,3.974,0,0,0,1.325-.548.2.2,0,0,1,.225.005l.836.628.786-.786-.627-.836a.194.194,0,0,1,0-.227,3.973,3.973,0,0,0,.547-1.323.178.178,0,0,1,.006-.021.2.2,0,0,1,.157-.132l1.035-.148v-1.111l-1.036-.148a.194.194,0,0,1-.162-.152,3.931,3.931,0,0,0-.549-1.328.194.194,0,0,1,.008-.222l.627-.836-.786-.786-.836.627a.194.194,0,0,1-.222.007,3.923,3.923,0,0,0-1.329-.55.194.194,0,0,1-.152-.162l-.148-1.036H234.52l-.148,1.034a.194.194,0,0,1-.151.163,3.946,3.946,0,0,0-1.329.55.192.192,0,0,1-.055.025.2.2,0,0,1-.168-.032l-.835-.626-.786.786.626.835a.194.194,0,0,1,.029.178.2.2,0,0,1-.022.045,3.949,3.949,0,0,0-.55,1.329.193.193,0,0,1-.162.151l-1.034.148v1.111l1.036.148a.194.194,0,0,1,.162.152,3.924,3.924,0,0,0,.549,1.328.194.194,0,0,1-.008.222l-.627.836.786.786.836-.627a.194.194,0,0,1,.222-.008,3.938,3.938,0,0,0,1.328.549.194.194,0,0,1,.152.162Z" transform="translate(-229.547 -1024.792)" fill="#fecb2f" stroke="#000" stroke-linecap="round" stroke-linejoin="round" stroke-width="0.5"/>
          <ellipse id="Elipse_6524-2" data-name="Elipse 6524" cx="2.52" cy="2.52" rx="2.52" ry="2.52" transform="translate(3.009 3.159)" fill="#fff"/>
          <g id="Grupo_902222-2" data-name="Grupo 902222" transform="translate(2.708 2.768)">
            <path id="Trazado_630071-2" data-name="Trazado 630071" d="M290.751,1090.255a2.761,2.761,0,1,1,2.761-2.761A2.764,2.764,0,0,1,290.751,1090.255Zm0-4.863a2.1,2.1,0,1,0,2.1,2.1A2.1,2.1,0,0,0,290.751,1085.391Z" transform="translate(-287.99 -1084.732)"/>
          </g>
        </g>
      </g>
    </g>
  </g>
</svg>
