<svg xmlns="http://www.w3.org/2000/svg" width="150" height="150" viewBox="0 0 150 150">
  <g id="Grupo_904377" data-name="Grupo 904377" transform="translate(-1085.822 -1644)">
    <g id="Elipse_6498" data-name="Elipse 6498" transform="translate(1085.822 1644)" fill="#fff" stroke="#21cbae" stroke-width="3">
      <circle cx="75" cy="75" r="75" stroke="none"/>
      <circle cx="75" cy="75" r="73.5" fill="none"/>
    </g>
    <path id="ruptura" d="M65.755,72.529A12.242,12.242,0,0,1,68.707,73l2.9-6.047,11.406,5.46L80.1,78.482a27.644,27.644,0,0,1,6.082,6.772l6.352-2.238L96.74,94.948l-6.35,2.238a27.6,27.6,0,0,1,.127,4.557,27.932,27.932,0,0,1-.621,4.532l6.072,2.908-5.46,11.406-6.072-2.908A27.861,27.861,0,0,1,81.3,121a27.544,27.544,0,0,1-3.636,2.758l2.238,6.352L67.967,134.32l-2.238-6.35a27.606,27.606,0,0,1-4.557.127,27.932,27.932,0,0,1-4.532-.621l-2.908,6.072-11.406-5.46,2.908-6.072q-.8-.641-1.559-1.344a27.83,27.83,0,0,1-2.2-2.287l-.873-1.019,9.551-8.311.887,1.046A15.235,15.235,0,1,0,63.316,85.025l-1.631-.069,2.906-12.524Zm2.783-10.311a1.35,1.35,0,0,0-.344-1.878,1.273,1.273,0,0,0-.423-.194L61.784,58.56a1.35,1.35,0,0,0-1.649.963,1.48,1.48,0,0,0-.042.243h0L59.2,71.319a1.351,1.351,0,0,0,2.508.792ZM56.4,36.349a1.349,1.349,0,0,1,2.7,0V48.441a1.349,1.349,0,0,1-2.7,0ZM114.14,91.393a1.349,1.349,0,1,1,0,2.7H102.048a1.349,1.349,0,0,1,0-2.7ZM96.666,51.91a1.354,1.354,0,0,1,1.915,1.915L90.03,62.375a1.354,1.354,0,0,1-1.915-1.915ZM1.354,94.1a1.354,1.354,0,1,1,0-2.707H13.445a1.354,1.354,0,1,1,0,2.707ZM16.914,53.822a1.354,1.354,0,0,1,1.915-1.915l8.551,8.551a1.354,1.354,0,0,1,0,1.915c-.529.529-1.915,0-1.915,0ZM32.268,69.21l-1.162.686,3.423,5.8a27.817,27.817,0,0,0-5.472,7.271l-6.518-1.682-3.16,12.244L25.9,95.214a27.648,27.648,0,0,0,1.273,9.01l-5.8,3.425,6.428,10.9,5.8-3.423q.485.509.986.984c.6.568,1.236,1.118,1.9,1.647l1.069.845,7.759-9.985-1.046-.834a15.262,15.262,0,0,1-1.993-1.91,15.5,15.5,0,0,1-1.621-2.257,15.223,15.223,0,0,1,5.384-20.857,15.361,15.361,0,0,1,2.631-1.231,15.163,15.163,0,0,1,2.8-.707l1.441-.219L50.069,68.208l-1.266.229q-1.171.211-2.245.5c-.37.1-.748.21-1.132.333L42,63.468Z" transform="translate(1102.822 1630)" fill="#0b5999" stroke="#030303" stroke-width="1" fill-rule="evenodd"/>
  </g>
</svg>
