<svg xmlns="http://www.w3.org/2000/svg" width="150" height="150" viewBox="0 0 150 150">
  <g id="Grupo_904376" data-name="Grupo 904376" transform="translate(-724.822 -1644)">
    <g id="Elipse_6497" data-name="Elipse 6497" transform="translate(724.822 1644)" fill="#fff" stroke="#21cbae" stroke-width="3">
      <circle cx="75" cy="75" r="75" stroke="none"/>
      <circle cx="75" cy="75" r="73.5" fill="none"/>
    </g>
    <g id="investigacion" transform="translate(752.822 1663.724)">
      <g id="Grupo_902303" data-name="Grupo 902303" transform="translate(1.895 11.165)">
        <path id="Trazado_630119" data-name="Trazado 630119" d="M362.7,316.291l-.879.542a6.468,6.468,0,0,1-8.9-2.111l-18.048-29.27,11.89-7.331,18.048,29.27a6.468,6.468,0,0,1-2.111,8.9Z" transform="translate(-274.888 -230.329)" fill="#ef3c79"/>
        <path id="Trazado_630130" data-name="Trazado 630130" d="M22.77,0A22.77,22.77,0,1,1,0,22.77,22.77,22.77,0,0,1,22.77,0Z" transform="translate(25.475 0)" fill="#0b5999"/>
        <circle id="Elipse_6542" data-name="Elipse 6542" cx="14.766" cy="14.766" r="14.766" transform="translate(33.479 8.004)" fill="#dfedff"/>
        <g id="Grupo_902302" data-name="Grupo 902302" transform="translate(0 10.147)">
          <path id="Trazado_630120" data-name="Trazado 630120" d="M62.563,110.391v39.243H10.257V74.409H38.975s-5.772,15.716,1.1,25.63c5.433,7.834,11.357,10.47,22.484,10.353Z" transform="translate(-10.257 -74.409)" fill="#fecb2f"/>
          <path id="Trazado_630121" data-name="Trazado 630121" d="M317.959,238.561l5.4,9.477,7.3-4.359-5.876-9.382Z" transform="translate(-261.096 -204.749)" fill="#21cbae"/>
        </g>
      </g>
      <g id="Grupo_902304" data-name="Grupo 902304" transform="translate(0 9.276)">
        <circle id="Elipse_6543" data-name="Elipse 6543" cx="1.848" cy="1.848" r="1.848" transform="translate(25.447 85.318)"/>
        <path id="Trazado_630122" data-name="Trazado 630122" d="M93.349,87.092,75.388,57.963a1.9,1.9,0,0,0-2.608-.619l-.911.562-4.126-6.692a24.665,24.665,0,1,0-37.54-31.8H1.9a1.9,1.9,0,0,0-1.9,1.9V96.537a1.9,1.9,0,0,0,1.9,1.9H18.814a1.9,1.9,0,1,0,0-3.791H3.791V23.208H27.937A24.651,24.651,0,0,0,50.18,58.594c.708,0,1.417-.034,2.126-.1V94.642H35.824a1.9,1.9,0,1,0,0,3.791H54.2a1.9,1.9,0,0,0,1.9-1.9V57.871q.793-.2,1.578-.448L61.8,64.114l-.911.562a1.9,1.9,0,0,0-.618,2.608L78.232,96.414A8.535,8.535,0,0,0,89.969,99.2l.6-.368h0a8.54,8.54,0,0,0,2.783-11.737Zm-60.978-42.2A20.875,20.875,0,1,1,61.1,51.7a20.9,20.9,0,0,1-28.725-6.812ZM61.229,55.964c.628-.316,1.248-.659,1.857-1.034s1.194-.774,1.759-1.193l3.8,6.159-3.615,2.229Zm11.927,5.6L86.109,82.572l-8.664,5.342L64.493,66.908ZM88.576,95.6l-.6.368a4.744,4.744,0,0,1-6.52-1.546l-2.024-3.283L88.1,85.8l2.024,3.283A4.744,4.744,0,0,1,88.576,95.6Z" transform="translate(0 -9.276)"/>
        <path id="Trazado_630123" data-name="Trazado 630123" d="M214.055,73.079a16.65,16.65,0,1,0-7.467,10.337A16.55,16.55,0,0,0,214.055,73.079ZM204.6,80.19c-6.041,3.724-16.03,1.447-18.409-5.5h12.88a1.9,1.9,0,0,0,0-3.791H185.086a12.9,12.9,0,0,1,.073-3.791h13.91a1.9,1.9,0,0,0,0-3.791H186.418A12.868,12.868,0,1,1,204.6,80.19Z" transform="translate(-147.704 -44.575)"/>
        <path id="Trazado_630124" data-name="Trazado 630124" d="M43.275,155.011H53.51a1.9,1.9,0,1,0,0-3.791H43.275a1.9,1.9,0,1,0,0,3.791Z" transform="translate(-33.733 -124.989)"/>
        <path id="Trazado_630125" data-name="Trazado 630125" d="M43.275,196.037H53.51a1.9,1.9,0,0,0,0-3.791H43.275a1.9,1.9,0,0,0,0,3.791Z" transform="translate(-33.733 -158.434)"/>
        <path id="Trazado_630126" data-name="Trazado 630126" d="M43.275,237.062H59.512a1.9,1.9,0,1,0,0-3.791H43.275a1.9,1.9,0,1,0,0,3.791Z" transform="translate(-33.733 -191.877)"/>
        <path id="Trazado_630127" data-name="Trazado 630127" d="M43.275,278.088H69.936a1.9,1.9,0,0,0,0-3.791H43.275a1.9,1.9,0,1,0,0,3.791Z" transform="translate(-33.733 -225.322)"/>
        <path id="Trazado_630128" data-name="Trazado 630128" d="M43.275,319.113H80.362a1.9,1.9,0,0,0,0-3.791H43.275a1.9,1.9,0,0,0,0,3.791Z" transform="translate(-33.733 -258.765)"/>
        <path id="Trazado_630129" data-name="Trazado 630129" d="M43.275,360.138H80.362a1.9,1.9,0,1,0,0-3.791H43.275a1.9,1.9,0,1,0,0,3.791Z" transform="translate(-33.733 -292.21)"/>
      </g>
    </g>
  </g>
</svg>
