<svg xmlns="http://www.w3.org/2000/svg" width="180" height="180" viewBox="0 0 180 180">
  <g id="Grupo_902066" data-name="Grupo 902066" transform="translate(-443.822 -848)">
    <circle id="Elipse_6516" data-name="Elipse 6516" cx="90" cy="90" r="90" transform="translate(443.822 848)" fill="#fff"/>
    <g id="lista-de-verificacion_1_" data-name="lista-de-verificacion (1)" transform="translate(482.822 877)">
      <path id="Trazado_629219" data-name="Trazado 629219" d="M72.043,7h15.3A7.652,7.652,0,0,1,95,14.652V98.826a7.652,7.652,0,0,1-7.652,7.652h-72.7A7.652,7.652,0,0,1,7,98.826V14.652A7.652,7.652,0,0,1,14.652,7Z" transform="translate(0 5.478)" fill="#fecb2f"/>
      <path id="Trazado_629220" data-name="Trazado 629220" d="M28.826,1H40.3A3.826,3.826,0,0,1,44.13,4.826V8.652H25V4.826A3.826,3.826,0,0,1,28.826,1Z" transform="translate(16.435)" fill="#e21f61"/>
      <path id="Trazado_629221" data-name="Trazado 629221" d="M68.391,11H81.783A1.913,1.913,0,0,1,83.7,12.913V93.261a1.913,1.913,0,0,1-1.913,1.913H12.913A1.913,1.913,0,0,1,11,93.261V12.913A1.913,1.913,0,0,1,12.913,11Z" transform="translate(3.652 9.13)" fill="#ecf0f1"/>
      <path id="Trazado_629222" data-name="Trazado 629222" d="M43.739,32.478a1.913,1.913,0,0,1-1.352-.56l-3.826-3.826a1.913,1.913,0,1,1,2.705-2.705l2.473,2.474,6.3-6.3a1.913,1.913,0,1,1,2.705,2.705l-7.652,7.652A1.913,1.913,0,0,1,43.739,32.478Z" transform="translate(28.304 18.261)" fill="#21cbae"/>
      <g id="Grupo_901630" data-name="Grupo 901630" transform="translate(20.391 39.261)">
        <path id="Trazado_629223" data-name="Trazado 629223" d="M27.391,24.826H15.913a1.913,1.913,0,1,1,0-3.826H27.391a1.913,1.913,0,1,1,0,3.826Z" transform="translate(-14 -21)" fill="#0b5999"/>
        <path id="Trazado_629224" data-name="Trazado 629224" d="M43.13,24.826H25.913a1.913,1.913,0,1,1,0-3.826H43.13a1.913,1.913,0,0,1,0,3.826Z" transform="translate(-4.87 -21)" fill="#0b5999"/>
        <path id="Trazado_629225" data-name="Trazado 629225" d="M38.87,28.826H15.913a1.913,1.913,0,0,1,0-3.826H38.87a1.913,1.913,0,0,1,0,3.826Z" transform="translate(-14 -17.348)" fill="#0b5999"/>
      </g>
      <path id="Trazado_629226" data-name="Trazado 629226" d="M43.739,43.478a1.913,1.913,0,0,1-1.352-.56l-3.826-3.826a1.913,1.913,0,1,1,2.705-2.705l2.473,2.474,6.3-6.3a1.913,1.913,0,1,1,2.705,2.705l-7.652,7.652A1.913,1.913,0,0,1,43.739,43.478Z" transform="translate(28.304 28.304)" fill="#21cbae"/>
      <path id="Trazado_629227" data-name="Trazado 629227" d="M27.391,35.826H15.913a1.913,1.913,0,1,1,0-3.826H27.391a1.913,1.913,0,0,1,0,3.826Z" transform="translate(6.391 28.304)" fill="#0b5999"/>
      <path id="Trazado_629228" data-name="Trazado 629228" d="M43.13,35.826H25.913a1.913,1.913,0,1,1,0-3.826H43.13a1.913,1.913,0,0,1,0,3.826Z" transform="translate(15.522 28.304)" fill="#0b5999"/>
      <path id="Trazado_629229" data-name="Trazado 629229" d="M38.87,39.826H15.913a1.913,1.913,0,1,1,0-3.826H38.87a1.913,1.913,0,0,1,0,3.826Z" transform="translate(6.391 31.957)" fill="#0b5999"/>
      <path id="Trazado_629230" data-name="Trazado 629230" d="M43.739,54.478a1.913,1.913,0,0,1-1.352-.56l-3.826-3.826a1.913,1.913,0,1,1,2.705-2.705l2.473,2.474,6.3-6.3a1.913,1.913,0,1,1,2.705,2.705l-7.652,7.652A1.913,1.913,0,0,1,43.739,54.478Z" transform="translate(28.304 38.348)" fill="#21cbae"/>
      <path id="Trazado_629231" data-name="Trazado 629231" d="M27.391,46.826H15.913a1.913,1.913,0,1,1,0-3.826H27.391a1.913,1.913,0,1,1,0,3.826Z" transform="translate(6.391 38.348)" fill="#0b5999"/>
      <path id="Trazado_629232" data-name="Trazado 629232" d="M43.13,46.826H25.913a1.913,1.913,0,1,1,0-3.826H43.13a1.913,1.913,0,0,1,0,3.826Z" transform="translate(15.522 38.348)" fill="#0b5999"/>
      <path id="Trazado_629233" data-name="Trazado 629233" d="M38.87,50.826H15.913a1.913,1.913,0,1,1,0-3.826H38.87a1.913,1.913,0,1,1,0,3.826Z" transform="translate(6.391 42)" fill="#0b5999"/>
      <path id="Trazado_629234" data-name="Trazado 629234" d="M22.826,5H57.261a3.826,3.826,0,0,1,3.826,3.826v7.652a7.652,7.652,0,0,1-7.652,7.652H26.652A7.652,7.652,0,0,1,19,16.478V8.826A3.826,3.826,0,0,1,22.826,5Z" transform="translate(10.957 3.652)" fill="#ef3c79"/>
      <path id="Trazado_629235" data-name="Trazado 629235" d="M42.217,13.826h-15.3a1.913,1.913,0,1,1,0-3.826h15.3a1.913,1.913,0,0,1,0,3.826Z" transform="translate(16.435 8.217)" fill="#8b0f39"/>
    </g>
  </g>
</svg>
