<svg xmlns="http://www.w3.org/2000/svg" width="150" height="150" viewBox="0 0 150 150">
  <g id="Grupo_904375" data-name="Grupo 904375" transform="translate(-725.376 -1332)">
    <g id="Grupo_152410" data-name="Grupo 152410" transform="translate(-1.624 -2120)">
      <g id="Grupo_119596" data-name="Grupo 119596" transform="translate(-0.701 208.372)">
        <circle id="Elipse_5677" data-name="Elipse 5677" cx="75" cy="75" r="75" transform="translate(727.701 3243.628)" fill="#fff"/>
      </g>
    </g>
    <g id="metodo-de-pago" transform="translate(741.008 1342.85)">
      <g id="Grupo_901627" data-name="Grupo 901627" transform="translate(9.645 17.645)">
        <path id="Trazado_629193" data-name="Trazado 629193" d="M120,24h69.084V63.477H120Z" transform="translate(-98.617 -24)" fill="#48ab9a"/>
        <path id="Trazado_629194" data-name="Trazado 629194" d="M203.215,56.224V69.383a8.224,8.224,0,0,0-8.224,8.224H152.224A8.224,8.224,0,0,0,144,69.383V56.224A8.224,8.224,0,0,0,152.224,48h42.767A8.224,8.224,0,0,0,203.215,56.224Z" transform="translate(-117.682 -43.065)" fill="#21cbae"/>
        <circle id="Elipse_6486" data-name="Elipse 6486" cx="8.224" cy="8.224" r="8.224" transform="translate(47.701 11.514)" fill="#fecb2f"/>
        <path id="Trazado_629195" data-name="Trazado 629195" d="M121.681,335.522l6.633,2.086,15.7,4.9-4.9,15.7-3.423-1.069a3.288,3.288,0,0,0-2.486.215l-14.284,7.35a3.293,3.293,0,0,1-2.478.211L81.806,354.1a3.29,3.29,0,0,1-2.159-4.121l.981-3.14a3.29,3.29,0,0,1,4.121-2.159l15.546,4.854a3.291,3.291,0,0,1,1.633-3.835l17.122-9.891A3.282,3.282,0,0,1,121.681,335.522Z" transform="translate(-66.442 -271.35)" fill="#ffdaaa"/>
        <path id="Trazado_629196" data-name="Trazado 629196" d="M0,0H6.579V23.028H0Z" transform="translate(78.59 68.04) rotate(17.33)" fill="#ef3c79"/>
        <rect id="Rectángulo_302948" data-name="Rectángulo 302948" width="42.767" height="29.608" rx="7" transform="translate(0 27.963)" fill="#0b5999"/>
        <path id="Trazado_629197" data-name="Trazado 629197" d="M16,192H58.767v6.579H16Z" transform="translate(-16 -157.458)" fill="#3e3d42"/>
        <circle id="Elipse_6487" data-name="Elipse 6487" cx="16.449" cy="16.449" r="16.449" transform="translate(65.795 31.252)" fill="#fecb2f"/>
      </g>
      <g id="Grupo_901628" data-name="Grupo 901628" transform="translate(8 16)">
        <path id="Trazado_629198" data-name="Trazado 629198" d="M146.37,334.207a1.645,1.645,0,0,0-.968-.806l-6.279-1.962a1.645,1.645,0,0,0-2.06,1.079l-.493,1.577-14.121-4.41-6.633-2.085a4.93,4.93,0,0,0-3.948.434l-17.1,9.875a4.955,4.955,0,0,0-2.434,3.051l-13.457-4.2A4.935,4.935,0,0,0,72.7,340l-.981,3.14a4.936,4.936,0,0,0,3.238,6.183l34.635,10.815a4.911,4.911,0,0,0,3.721-.319l14.286-7.35a1.658,1.658,0,0,1,1.242-.107l1.846.578L130.2,354.5a1.647,1.647,0,0,0,1.079,2.06l6.281,1.961a1.628,1.628,0,0,0,.491.074,1.645,1.645,0,0,0,1.569-1.153l6.865-21.982a1.652,1.652,0,0,0-.113-1.254ZM129.82,349.22a4.9,4.9,0,0,0-3.73.323l-14.277,7.346a1.641,1.641,0,0,1-1.242.1L75.936,346.179a1.645,1.645,0,0,1-1.079-2.06l.981-3.14A1.64,1.64,0,0,1,77.9,339.9l14.81,4.624a.205.205,0,0,1,.014.031l1.528,2.911a4.936,4.936,0,0,0,6.662,2.081l13.112-6.871a1.645,1.645,0,1,0-1.528-2.913l-13.112,6.871a1.648,1.648,0,0,1-2.221-.693l-1.526-2.913a1.714,1.714,0,0,1-.125-.306,1.646,1.646,0,0,1,.818-1.914c.021-.01.039-.023.06-.033l17.123-9.892a1.641,1.641,0,0,1,1.314-.144l6.637,2.087,14.123,4.41L131.666,349.8Zm7.147,5.671-3.14-.981.444-1.425c.018-.045.037-.088.051-.136l4.9-15.7c.014-.047.027-.095.037-.14l.45-1.439,3.14.981Z" transform="translate(-58.437 -263.352)"/>
        <path id="Trazado_629199" data-name="Trazado 629199" d="M249.869,72a9.869,9.869,0,1,0,9.869,9.869A9.869,9.869,0,0,0,249.869,72Zm0,16.449a6.579,6.579,0,1,1,6.579-6.579,6.579,6.579,0,0,1-6.579,6.579Z" transform="translate(-192.299 -60.486)"/>
        <path id="Trazado_629200" data-name="Trazado 629200" d="M388.935,212.935h6.579a1.645,1.645,0,1,0,0-3.29h-3.29a1.645,1.645,0,1,0-3.29,0,4.935,4.935,0,0,0,0,9.869h3.084a1.827,1.827,0,0,1,1.85,1.645,1.647,1.647,0,0,1-1.645,1.645h-6.579a1.645,1.645,0,0,0,0,3.29h3.29a1.645,1.645,0,0,0,3.29,0,4.94,4.94,0,0,0,4.935-4.935,5.108,5.108,0,0,0-5.14-4.935h-3.084a1.645,1.645,0,0,1,0-3.29Z" transform="translate(-306.691 -168.523)"/>
        <path id="Trazado_629201" data-name="Trazado 629201" d="M101.757,50.189V17.645A1.645,1.645,0,0,0,100.112,16H31.028a1.645,1.645,0,0,0-1.645,1.645V43.963H12.935A4.941,4.941,0,0,0,8,48.9V71.925a4.941,4.941,0,0,0,4.935,4.935H49.122a4.941,4.941,0,0,0,4.935-4.935V58.767H75.032a18.1,18.1,0,1,0,26.725-8.578ZM32.673,19.29H98.468v29.2a18.032,18.032,0,0,0-6.579-1.238c-.368,0-.734.012-1.1.035a6.578,6.578,0,0,1,4.386-1.68,1.645,1.645,0,0,0,1.645-1.645V30.8a1.645,1.645,0,0,0-1.645-1.645A6.588,6.588,0,0,1,88.6,22.579a1.645,1.645,0,0,0-1.645-1.645H44.187a1.645,1.645,0,0,0-1.645,1.645,6.588,6.588,0,0,1-6.579,6.579A1.645,1.645,0,0,0,34.318,30.8V43.963H32.673ZM50.767,71.925a1.647,1.647,0,0,1-1.645,1.645H12.935a1.647,1.647,0,0,1-1.645-1.645V60.411H50.767Zm0-14.8H11.29v-3.29H50.767Zm0-6.579H11.29V48.9a1.647,1.647,0,0,1,1.645-1.645H49.122A1.647,1.647,0,0,1,50.767,48.9Zm-1.645-6.579h-7.7a9.76,9.76,0,0,0-3.81-1.509V32.311a9.893,9.893,0,0,0,8.087-8.087H85.446a9.893,9.893,0,0,0,8.087,8.087V42.456a9.869,9.869,0,0,0-7.373,5.726,18.061,18.061,0,0,0-4.663,2.36H54.056V48.9a4.941,4.941,0,0,0-4.935-4.935Zm4.935,11.514V53.832H77.942a18.3,18.3,0,0,0-1.211,1.645ZM91.888,80.15a14.8,14.8,0,1,1,14.8-14.8A14.8,14.8,0,0,1,91.888,80.15Z" transform="translate(-8 -16)"/>
      </g>
    </g>
  </g>
</svg>
