<svg xmlns="http://www.w3.org/2000/svg" width="150" height="150" viewBox="0 0 150 150">
  <g id="Grupo_904374" data-name="Grupo 904374" transform="translate(-365.376 -1332)">
    <g id="Grupo_152409" data-name="Grupo 152409" transform="translate(3.376 -2120)">
      <g id="Grupo_119595" data-name="Grupo 119595" transform="translate(-0.701 208.372)">
        <circle id="Elipse_5676" data-name="Elipse 5676" cx="75" cy="75" r="75" transform="translate(362.701 3243.628)" fill="#fff"/>
      </g>
    </g>
    <g id="XMLID_1364_" transform="translate(342.78 1352.312)">
      <path id="XMLID_326_" d="M101.276,307.01l-19.5,33.783-3.785-14.126-14.178,3.8L83.332,296.65Z" transform="translate(-7.849 -232.857)" fill="#0b5999"/>
      <path id="XMLID_324_" d="M291.828,296.65l19.524,33.816-14.178-3.8-3.785,14.126-19.5-33.783Z" transform="translate(-172.749 -232.857)" fill="#0b5999"/>
      <path id="XMLID_1369_" d="M115.641,10.74a10.3,10.3,0,0,1,12.048,3.228,10.3,10.3,0,0,0,6.758,3.9,10.3,10.3,0,0,1,8.82,8.82,10.3,10.3,0,0,0,3.9,6.758A10.3,10.3,0,0,1,150.4,45.495a10.3,10.3,0,0,0,0,7.8,10.3,10.3,0,0,1-3.228,12.048,10.3,10.3,0,0,0-3.9,6.758,10.3,10.3,0,0,1-8.82,8.82,10.3,10.3,0,0,0-6.758,3.9,10.3,10.3,0,0,1-12.048,3.228,10.3,10.3,0,0,0-7.8,0,10.3,10.3,0,0,1-12.048-3.228,10.3,10.3,0,0,0-6.758-3.9,10.3,10.3,0,0,1-8.82-8.82,10.3,10.3,0,0,0-3.9-6.758A10.3,10.3,0,0,1,73.082,53.3a10.3,10.3,0,0,0,0-7.8A10.3,10.3,0,0,1,76.31,33.447a10.3,10.3,0,0,0,3.9-6.758,10.3,10.3,0,0,1,8.82-8.82,10.3,10.3,0,0,0,6.758-3.9,10.3,10.3,0,0,1,12.048-3.228,10.3,10.3,0,0,0,7.8,0Z" transform="translate(-14.526 -7.828)" fill="#fecb2f"/>
      <circle id="XMLID_1366_" cx="25.806" cy="25.806" r="25.806" transform="translate(71.475 16.487)" fill="#21cbae"/>
      <g id="XMLID_320_" transform="translate(82.27 30.211)">
        <path id="XMLID_322_" d="M198.708,164.651,186.159,152.1l6.691-6.691,5.858,5.858,10.782-10.782,6.691,6.691Z" transform="translate(-186.159 -140.488)" fill="#ef3c79"/>
      </g>
      <g id="XMLID_141_" transform="translate(53.808 -0.001)">
        <path id="XMLID_162_" d="M140.465,96.534,126.539,72.413a12.457,12.457,0,0,0,4.333-7.846,8.1,8.1,0,0,1,3.087-5.347,12.488,12.488,0,0,0,3.9-14.563,8.1,8.1,0,0,1,0-6.174,12.488,12.488,0,0,0-3.9-14.563,8.1,8.1,0,0,1-3.087-5.347A12.488,12.488,0,0,0,120.21,7.911a8.1,8.1,0,0,1-5.347-3.087A12.488,12.488,0,0,0,100.3.921a8.1,8.1,0,0,1-6.174,0,12.488,12.488,0,0,0-14.563,3.9,8.1,8.1,0,0,1-5.347,3.087A12.487,12.487,0,0,0,63.555,18.572a8.1,8.1,0,0,1-3.087,5.347,12.488,12.488,0,0,0-3.9,14.563,8.1,8.1,0,0,1,0,6.174,12.487,12.487,0,0,0,3.9,14.563,8.1,8.1,0,0,1,3.087,5.347,12.457,12.457,0,0,0,4.424,7.922L54.1,96.534a2.151,2.151,0,0,0,2.419,3.152l12.1-3.243,3.229,12.049a2.15,2.15,0,0,0,3.939.519L90.765,83.064a12.352,12.352,0,0,0,3.361-.848,8.1,8.1,0,0,1,6.174,0,12.357,12.357,0,0,0,3.506.865l14.971,25.93a2.151,2.151,0,0,0,3.94-.519l3.229-12.049,12.1,3.242a2.15,2.15,0,0,0,2.419-3.152Zm-65.81,5.831-2.441-9.111a2.15,2.15,0,0,0-2.634-1.521l-9.163,2.455,11.3-19.571a12.368,12.368,0,0,0,2.5.61,8.1,8.1,0,0,1,5.347,3.087,12.43,12.43,0,0,0,6.466,4.351ZM92.5,78.236a8.174,8.174,0,0,1-9.533-2.554,12.38,12.38,0,0,0-8.169-4.716,8.174,8.174,0,0,1-6.978-6.979A12.382,12.382,0,0,0,63.1,55.818a8.174,8.174,0,0,1-2.554-9.533,12.379,12.379,0,0,0,0-9.433A8.174,8.174,0,0,1,63.1,27.32a12.381,12.381,0,0,0,4.716-8.169,8.175,8.175,0,0,1,6.978-6.979,12.38,12.38,0,0,0,8.169-4.716A8.167,8.167,0,0,1,92.5,4.9a12.381,12.381,0,0,0,9.433,0,8.174,8.174,0,0,1,9.533,2.554,12.38,12.38,0,0,0,8.169,4.716,8.175,8.175,0,0,1,6.979,6.979,12.381,12.381,0,0,0,4.716,8.169,8.174,8.174,0,0,1,2.554,9.533,12.381,12.381,0,0,0,0,9.433,8.175,8.175,0,0,1-2.554,9.533,12.381,12.381,0,0,0-4.716,8.169,8.174,8.174,0,0,1-6.978,6.979,12.379,12.379,0,0,0-8.169,4.716,8.173,8.173,0,0,1-9.532,2.554,12.382,12.382,0,0,0-9.433,0Zm32.485,13.5a2.15,2.15,0,0,0-2.634,1.521l-2.442,9.111L108.513,82.631a12.43,12.43,0,0,0,6.351-4.317,8.1,8.1,0,0,1,5.347-3.087,12.357,12.357,0,0,0,2.611-.652l11.324,19.613Z" transform="translate(-53.808 0.001)"/>
        <path id="XMLID_1190_" d="M183.481,136.042l-6.691,6.691a2.15,2.15,0,0,0,0,3.041l12.549,12.549a2.15,2.15,0,0,0,3.041,0l17.473-17.473a2.151,2.151,0,0,0,0-3.041l-6.691-6.691a2.15,2.15,0,0,0-3.041,0l-9.261,9.261-4.337-4.337a2.151,2.151,0,0,0-3.042,0Zm5.858,8.9a2.15,2.15,0,0,0,3.041,0l9.261-9.261,3.65,3.65-14.431,14.431-9.507-9.507L185,140.6Z" transform="translate(-149.849 -102.427)"/>
        <path id="XMLID_1191_" d="M181.874,101.223a27.965,27.965,0,0,0-17.655-26,2.151,2.151,0,0,0-1.586,4,23.655,23.655,0,1,1-17.43,0,2.151,2.151,0,0,0-1.585-4,27.959,27.959,0,1,0,38.257,26Z" transform="translate(-110.445 -58.929)"/>
        <path id="XMLID_1218_" d="M248.111,70.967a2.151,2.151,0,1,0-1.52-.63A2.157,2.157,0,0,0,248.111,70.967Z" transform="translate(-204.639 -52.329)"/>
      </g>
    </g>
  </g>
</svg>
