<svg xmlns="http://www.w3.org/2000/svg" width="150" height="150" viewBox="0 0 150 150">
  <g id="Grupo_904376" data-name="Grupo 904376" transform="translate(-1090.376 -1332)">
    <g id="Grupo_152411" data-name="Grupo 152411" transform="translate(-1.624 -2120)">
      <g id="Grupo_119597" data-name="Grupo 119597" transform="translate(-0.701 208.372)">
        <g id="Grupo_118165" data-name="Grupo 118165">
          <circle id="Elipse_5678" data-name="Elipse 5678" cx="75" cy="75" r="75" transform="translate(1092.701 3243.628)" fill="#fff"/>
        </g>
      </g>
    </g>
    <g id="Rectángulo_302951" data-name="Rectángulo 302951" transform="translate(1127.376 1360)" fill="#e8e8e8" stroke="#707070" stroke-width="1">
      <rect width="69" height="94" stroke="none"/>
      <rect x="0.5" y="0.5" width="68" height="93" fill="none"/>
    </g>
    <g id="falla_1_" data-name="falla (1)" transform="translate(1124 1357.141)">
      <path id="Trazado_629180" data-name="Trazado 629180" d="M48.327,22.425a17.157,17.157,0,0,0-2.058-4.965l1.939-3.229L43.748,9.772,40.519,11.71a17.157,17.157,0,0,0-4.965-2.058L34.642,6h-6.3l-.913,3.652A17.157,17.157,0,0,0,22.46,11.71L19.23,9.772,14.772,14.23,16.71,17.46a17.157,17.157,0,0,0-2.058,4.965L11,23.337v6.3l3.652.913a17.157,17.157,0,0,0,2.058,4.965l-1.939,3.229,4.459,4.459,3.229-1.939a17.158,17.158,0,0,0,4.965,2.058l.913,3.652h6.3l.913-3.652a17.158,17.158,0,0,0,4.965-2.058l3.229,1.939,4.459-4.459-1.939-3.229a17.157,17.157,0,0,0,2.058-4.965l3.652-.913v-6.3ZM31.489,35.946a9.457,9.457,0,1,1,9.457-9.457,9.457,9.457,0,0,1-9.457,9.457Z" transform="translate(5.761 2.881)" fill="#ef3c79"/>
      <path id="Trazado_629181" data-name="Trazado 629181" d="M56.489,23A20.489,20.489,0,1,0,76.979,43.489,20.489,20.489,0,0,0,56.489,23Zm0,34.674a3.152,3.152,0,1,1,3.152-3.152A3.152,3.152,0,0,1,56.489,57.674ZM59.446,35.6l-1.185,9.482a1.786,1.786,0,0,1-3.543,0L53.533,35.6a25.193,25.193,0,0,1-.2-3.14,3.152,3.152,0,0,1,6.3,0,25.19,25.19,0,0,1-.2,3.14Z" transform="translate(20.164 12.674)" fill="#fecb2f"/>
      <g id="Grupo_901626" data-name="Grupo 901626" transform="translate(1 1)">
        <path id="Trazado_629182" data-name="Trazado 629182" d="M27.384,47.938a1.576,1.576,0,0,0,1.529,1.193h6.3a1.576,1.576,0,0,0,1.529-1.193l.687-2.753a18.781,18.781,0,0,0,3.647-1.511l2.434,1.461a1.576,1.576,0,0,0,1.924-.238L49.9,40.439a1.576,1.576,0,0,0,.238-1.924l-1.461-2.435a18.756,18.756,0,0,0,1.513-3.644l2.75-.689a1.576,1.576,0,0,0,1.195-1.529v-6.3a1.576,1.576,0,0,0-1.195-1.529L50.191,21.7a18.755,18.755,0,0,0-1.513-3.644l1.461-2.435a1.576,1.576,0,0,0-.238-1.924L45.439,9.235A1.576,1.576,0,0,0,43.514,9l-2.434,1.459A18.978,18.978,0,0,0,37.434,8.94l-.687-2.747A1.576,1.576,0,0,0,35.218,5h-6.3a1.576,1.576,0,0,0-1.529,1.193L26.7,8.94a18.978,18.978,0,0,0-3.647,1.511L20.617,8.992a1.576,1.576,0,0,0-1.924.238l-4.457,4.457A1.576,1.576,0,0,0,14,15.612l1.461,2.435a18.756,18.756,0,0,0-1.513,3.644l-2.75.689A1.576,1.576,0,0,0,10,23.913v6.3a1.576,1.576,0,0,0,1.195,1.529l2.75.689a18.756,18.756,0,0,0,1.513,3.644L14,38.514a1.576,1.576,0,0,0,.238,1.924L18.692,44.9a1.576,1.576,0,0,0,1.924.238l2.434-1.461A18.781,18.781,0,0,0,26.7,45.184Zm-5.16-7.444-2.173,1.3L17.332,39.08l1.305-2.173a1.576,1.576,0,0,0,0-1.634,15.593,15.593,0,0,1-1.871-4.511,1.576,1.576,0,0,0-1.151-1.16l-2.463-.615V25.144l2.457-.615a1.576,1.576,0,0,0,1.151-1.16,15.592,15.592,0,0,1,1.871-4.511,1.576,1.576,0,0,0,0-1.634l-1.305-2.173,2.719-2.717,2.173,1.3a1.576,1.576,0,0,0,1.633,0,15.663,15.663,0,0,1,4.512-1.871,1.576,1.576,0,0,0,1.16-1.151l.621-2.463h3.843l.615,2.457a1.576,1.576,0,0,0,1.16,1.151,15.663,15.663,0,0,1,4.512,1.871,1.576,1.576,0,0,0,1.633,0l2.173-1.3L46.8,15.045l-1.305,2.173a1.576,1.576,0,0,0,0,1.634,15.592,15.592,0,0,1,1.871,4.511,1.576,1.576,0,0,0,1.151,1.16l2.457.615V28.98l-2.457.615a1.576,1.576,0,0,0-1.151,1.16,15.592,15.592,0,0,1-1.871,4.511,1.576,1.576,0,0,0,0,1.634L46.8,39.074,44.08,41.791l-2.173-1.3a1.576,1.576,0,0,0-1.633,0,15.673,15.673,0,0,1-4.511,1.871A1.576,1.576,0,0,0,34.6,43.507l-.615,2.471H30.144L29.53,43.52a1.576,1.576,0,0,0-1.162-1.149A15.673,15.673,0,0,1,23.857,40.5a1.576,1.576,0,0,0-1.633-.006Z" transform="translate(4.185 1.304)"/>
        <path id="Trazado_629183" data-name="Trazado 629183" d="M39.065,23.033A11.033,11.033,0,1,0,28.033,34.065,11.033,11.033,0,0,0,39.065,23.033Zm-18.913,0a7.881,7.881,0,1,1,7.881,7.881,7.881,7.881,0,0,1-7.881-7.881Z" transform="translate(8.218 5.337)"/>
        <path id="Trazado_629184" data-name="Trazado 629184" d="M76.653,34.1a21.883,21.883,0,0,0-3.152.252V2.576A1.576,1.576,0,0,0,71.925,1H2.576A1.576,1.576,0,0,0,1,2.576V97.142a1.576,1.576,0,0,0,1.576,1.576H71.925A1.576,1.576,0,0,0,73.5,97.142V77.977A22.053,22.053,0,1,0,76.653,34.1Zm-6.3,61.468H4.152V4.152h66.2V35.028A22.1,22.1,0,0,0,54.588,56.164c0,.533.043,1.053.08,1.576H29.37v3.152H55.111a21.884,21.884,0,0,0,.957,3.152H29.37V67.2h28.2A22.143,22.143,0,0,0,70.349,77.3Zm6.3-20.489A18.913,18.913,0,1,1,95.566,56.164,18.913,18.913,0,0,1,76.653,75.077Z" transform="translate(-1 -1)"/>
        <path id="Trazado_629185" data-name="Trazado 629185" d="M50.728,40a4.728,4.728,0,1,0,4.728,4.728A4.728,4.728,0,0,0,50.728,40Zm0,6.3A1.576,1.576,0,1,1,52.3,44.728,1.576,1.576,0,0,1,50.728,46.3Z" transform="translate(24.925 21.468)"/>
        <path id="Trazado_629186" data-name="Trazado 629186" d="M50.728,26A4.728,4.728,0,0,0,46,30.728a26.666,26.666,0,0,0,.208,3.335l1.185,9.482a3.362,3.362,0,0,0,6.67,0l1.185-9.48a26.711,26.711,0,0,0,.208-3.337A4.728,4.728,0,0,0,50.728,26Zm1.393,7.672-1.185,9.48a.216.216,0,0,1-.416,0l-1.185-9.48a23.758,23.758,0,0,1-.183-2.944,1.576,1.576,0,0,1,3.152,0,23.766,23.766,0,0,1-.183,2.947Z" transform="translate(24.925 13.403)"/>
        <path id="Trazado_629187" data-name="Trazado 629187" d="M22.337,33H6.576A1.576,1.576,0,0,0,5,34.576V50.337a1.576,1.576,0,0,0,1.576,1.576H22.337a1.576,1.576,0,0,0,1.576-1.576V34.576A1.576,1.576,0,0,0,22.337,33ZM20.761,48.761H8.152V36.152H20.761Z" transform="translate(1.304 17.435)" fill="#21cbae" stroke="#000" stroke-width="1"/>
        <path id="Trazado_629188" data-name="Trazado 629188" d="M10.522,44.826l2.038-2.038L14.6,44.826,16.826,42.6,14.788,40.56l2.038-2.038L14.6,36.293,12.56,38.331l-2.038-2.038L8.293,38.522l2.038,2.038L8.293,42.6Z" transform="translate(3.202 19.332)" fill="#21cbae" stroke="#000" stroke-width="1"/>
        <path id="Trazado_629189" data-name="Trazado 629189" d="M22.337,47H6.576A1.576,1.576,0,0,0,5,48.576V64.337a1.576,1.576,0,0,0,1.576,1.576H22.337a1.576,1.576,0,0,0,1.576-1.576V48.576A1.576,1.576,0,0,0,22.337,47ZM20.761,62.761H8.152V50.152H20.761Z" transform="translate(1.304 25.501)" fill="#0b5999" stroke="#000" stroke-width="1"/>
        <path id="Trazado_629190" data-name="Trazado 629190" d="M10.522,58.826l2.038-2.038L14.6,58.826,16.826,56.6,14.788,54.56l2.038-2.038L14.6,50.293,12.56,52.331l-2.038-2.038L8.293,52.522l2.038,2.038L8.293,56.6Z" transform="translate(3.202 27.398)" fill="#0b5999" stroke="#000" stroke-width="1"/>
        <path id="Trazado_629191" data-name="Trazado 629191" d="M19,55H56.827v3.152H19Z" transform="translate(9.37 30.11)"/>
        <path id="Trazado_629192" data-name="Trazado 629192" d="M19,51H56.827v3.152H19Z" transform="translate(9.37 27.805)"/>
      </g>
    </g>
  </g>
</svg>
