<svg xmlns="http://www.w3.org/2000/svg" width="150" height="150" viewBox="0 0 150 150">
  <g id="Grupo_904378" data-name="Grupo 904378" transform="translate(-364.822 -1957)">
    <g id="Elipse_6491" data-name="Elipse 6491" transform="translate(364.822 1957)" fill="#fff" stroke="#21cbae" stroke-width="3">
      <circle cx="75" cy="75" r="75" stroke="none"/>
      <circle cx="75" cy="75" r="73.5" fill="none"/>
    </g>
    <g id="Grupo_902312" data-name="Grupo 902312" transform="translate(6385.088 11797.699)">
      <g id="Grupo_902313" data-name="Grupo 902313" transform="translate(-5990.266 -9808.699)">
        <g id="Color" transform="translate(0 0)">
          <path id="Trazado_630152" data-name="Trazado 630152" d="M745.462-503.45h67.664v47.07H745.462Z" transform="translate(-736.636 509.334)" fill="#f6f6f6" stroke="#000" stroke-width="1"/>
          <path id="Trazado_630153" data-name="Trazado 630153" d="M813.125-534.641v2.942H745.462v-2.942a2.951,2.951,0,0,1,2.942-2.942h61.78A2.951,2.951,0,0,1,813.125-534.641Z" transform="translate(-736.636 537.583)" fill="#0b5999" stroke="#000" stroke-width="1"/>
          <path id="Trazado_630154" data-name="Trazado 630154" d="M779.912-206.848H694.774a7.734,7.734,0,0,1,.28-1l8.458-22.535h67.664l8.458,22.535a7.734,7.734,0,0,1,.28,1Z" transform="translate(-694.686 283.337)" fill="#afafaf" stroke="#000" stroke-width="1"/>
          <path id="Trazado_630155" data-name="Trazado 630155" d="M779.577-92.776v4.81a2.951,2.951,0,0,1-2.942,2.942H697.2a2.951,2.951,0,0,1-2.942-2.942v-4.81a6.614,6.614,0,0,1,.088-1.074h85.138a6.614,6.614,0,0,1,.088,1.074Z" transform="translate(-694.262 170.339)" fill="#0b5999" stroke="#000" stroke-width="1"/>
        </g>
        <g id="Icons" transform="translate(7.355 57.367)">
          <path id="Trazado_630156" data-name="Trazado 630156" d="M764-201.841h4.413a1.471,1.471,0,0,0,1.471-1.471,1.471,1.471,0,0,0-1.471-1.471H764a1.471,1.471,0,0,0-1.471,1.471A1.471,1.471,0,0,0,764-201.841Z" transform="translate(-758.116 204.783)" fill="#12263f" stroke="#000" stroke-width="1"/>
          <path id="Trazado_630157" data-name="Trazado 630157" d="M823.733-201.841h2.942a1.471,1.471,0,0,0,1.471-1.471,1.471,1.471,0,0,0-1.471-1.471h-2.942a1.471,1.471,0,0,0-1.471,1.471A1.471,1.471,0,0,0,823.733-201.841Z" transform="translate(-807.553 204.783)" fill="#12263f" stroke="#000" stroke-width="1"/>
          <path id="Trazado_630158" data-name="Trazado 630158" d="M847.862-169.179a1.471,1.471,0,0,0,1.471,1.471h2.942a1.471,1.471,0,0,0,1.471-1.471,1.471,1.471,0,0,0-1.471-1.471h-2.942A1.471,1.471,0,0,0,847.862-169.179Z" transform="translate(-828.74 176.534)" fill="#12263f" stroke="#000" stroke-width="1"/>
          <path id="Trazado_630159" data-name="Trazado 630159" d="M899.062-169.179a1.471,1.471,0,0,0,1.471,1.471h2.942a1.471,1.471,0,0,0,1.471-1.471,1.471,1.471,0,0,0-1.471-1.471h-2.942A1.471,1.471,0,0,0,899.062-169.179Z" transform="translate(-871.114 176.534)" fill="#12263f" stroke="#000" stroke-width="1"/>
          <path id="Trazado_630160" data-name="Trazado 630160" d="M950.262-169.179a1.471,1.471,0,0,0,1.471,1.471h2.942a1.471,1.471,0,0,0,1.471-1.471,1.471,1.471,0,0,0-1.471-1.471h-2.942A1.471,1.471,0,0,0,950.262-169.179Z" transform="translate(-913.488 176.534)" fill="#12263f" stroke="#000" stroke-width="1"/>
          <path id="Trazado_630161" data-name="Trazado 630161" d="M1001.462-169.179a1.471,1.471,0,0,0,1.471,1.471h2.942a1.471,1.471,0,0,0,1.471-1.471,1.471,1.471,0,0,0-1.471-1.471h-2.942A1.471,1.471,0,0,0,1001.462-169.179Z" transform="translate(-955.863 176.534)" fill="#12263f" stroke="#000" stroke-width="1"/>
          <path id="Trazado_630162" data-name="Trazado 630162" d="M874.933-201.841h2.942a1.471,1.471,0,0,0,1.471-1.471,1.471,1.471,0,0,0-1.471-1.471h-2.942a1.471,1.471,0,0,0-1.471,1.471A1.471,1.471,0,0,0,874.933-201.841Z" transform="translate(-849.927 204.783)" fill="#12263f" stroke="#000" stroke-width="1"/>
          <path id="Trazado_630163" data-name="Trazado 630163" d="M926.133-201.841h2.942a1.471,1.471,0,0,0,1.471-1.471,1.471,1.471,0,0,0-1.471-1.471h-2.942a1.471,1.471,0,0,0-1.471,1.471A1.471,1.471,0,0,0,926.133-201.841Z" transform="translate(-892.301 204.783)" fill="#12263f" stroke="#000" stroke-width="1"/>
          <path id="Trazado_630164" data-name="Trazado 630164" d="M977.333-201.841h2.942a1.471,1.471,0,0,0,1.471-1.471,1.471,1.471,0,0,0-1.471-1.471h-2.942a1.471,1.471,0,0,0-1.471,1.471A1.471,1.471,0,0,0,977.333-201.841Z" transform="translate(-934.676 204.783)" fill="#12263f" stroke="#000" stroke-width="1"/>
          <path id="Trazado_630165" data-name="Trazado 630165" d="M1028.533-201.841h2.942a1.471,1.471,0,0,0,1.471-1.471,1.471,1.471,0,0,0-1.471-1.471h-2.942a1.471,1.471,0,0,0-1.471,1.471A1.471,1.471,0,0,0,1028.533-201.841Z" transform="translate(-977.05 204.783)" fill="#12263f" stroke="#000" stroke-width="1"/>
          <path id="Trazado_630166" data-name="Trazado 630166" d="M826.675-136.516h-2.942a1.471,1.471,0,0,0-1.471,1.471,1.471,1.471,0,0,0,1.471,1.471h2.942a1.471,1.471,0,0,0,1.471-1.471A1.471,1.471,0,0,0,826.675-136.516Z" transform="translate(-807.553 148.284)" fill="#12263f" stroke="#000" stroke-width="1"/>
          <path id="Trazado_630167" data-name="Trazado 630167" d="M782.538-136.516h-1.471a1.471,1.471,0,0,0-1.471,1.471,1.471,1.471,0,0,0,1.471,1.471h1.471a1.471,1.471,0,0,0,1.471-1.471A1.471,1.471,0,0,0,782.538-136.516Z" transform="translate(-772.241 148.284)" fill="#12263f" stroke="#000" stroke-width="1"/>
          <path id="Trazado_630168" data-name="Trazado 630168" d="M877.875-136.516h-2.942a1.471,1.471,0,0,0-1.471,1.471,1.471,1.471,0,0,0,1.471,1.471h2.942a1.471,1.471,0,0,0,1.471-1.471A1.471,1.471,0,0,0,877.875-136.516Z" transform="translate(-849.927 148.284)" fill="#12263f" stroke="#000" stroke-width="1"/>
          <path id="Trazado_630169" data-name="Trazado 630169" d="M929.075-136.516h-2.942a1.471,1.471,0,0,0-1.471,1.471,1.471,1.471,0,0,0,1.471,1.471h2.942a1.471,1.471,0,0,0,1.471-1.471A1.471,1.471,0,0,0,929.075-136.516Z" transform="translate(-892.301 148.284)" fill="#12263f" stroke="#000" stroke-width="1"/>
          <path id="Trazado_630170" data-name="Trazado 630170" d="M980.275-136.516h-2.942a1.471,1.471,0,0,0-1.471,1.471,1.471,1.471,0,0,0,1.471,1.471h2.942a1.471,1.471,0,0,0,1.471-1.471A1.471,1.471,0,0,0,980.275-136.516Z" transform="translate(-934.676 148.284)" fill="#12263f" stroke="#000" stroke-width="1"/>
          <path id="Trazado_630171" data-name="Trazado 630171" d="M1031.475-136.516h-2.942a1.471,1.471,0,0,0-1.471,1.471,1.471,1.471,0,0,0,1.471,1.471h2.942a1.471,1.471,0,0,0,1.471-1.471A1.471,1.471,0,0,0,1031.475-136.516Z" transform="translate(-977.05 148.284)" fill="#12263f" stroke="#000" stroke-width="1"/>
          <path id="Trazado_630172" data-name="Trazado 630172" d="M738.4-133.574h1.471a1.471,1.471,0,0,0,1.471-1.471,1.471,1.471,0,0,0-1.471-1.471H738.4a1.471,1.471,0,0,0-1.471,1.471A1.471,1.471,0,0,0,738.4-133.574Z" transform="translate(-736.929 148.284)" fill="#12263f" stroke="#000" stroke-width="1"/>
          <path id="Trazado_630173" data-name="Trazado 630173" d="M1122.4-136.516a1.471,1.471,0,0,0-1.471,1.471,1.471,1.471,0,0,0,1.471,1.471h1.471a1.471,1.471,0,0,0,1.471-1.471,1.471,1.471,0,0,0-1.471-1.471Z" transform="translate(-1054.737 148.284)" fill="#12263f" stroke="#000" stroke-width="1"/>
          <path id="Trazado_630174" data-name="Trazado 630174" d="M1081.2-136.516h-1.471a1.471,1.471,0,0,0-1.471,1.471,1.471,1.471,0,0,0,1.471,1.471h1.471a1.471,1.471,0,0,0,1.471-1.471A1.471,1.471,0,0,0,1081.2-136.516Z" transform="translate(-1019.424 148.284)" fill="#12263f" stroke="#000" stroke-width="1"/>
          <path id="Trazado_630175" data-name="Trazado 630175" d="M746.933-167.708H758.7a1.471,1.471,0,0,0,1.471-1.471,1.471,1.471,0,0,0-1.471-1.471H746.933a1.471,1.471,0,0,0-1.471,1.471A1.471,1.471,0,0,0,746.933-167.708Z" transform="translate(-743.991 176.534)" fill="#12263f" stroke="#000" stroke-width="1"/>
          <path id="Trazado_630176" data-name="Trazado 630176" d="M1079.733-201.841h4.413a1.471,1.471,0,0,0,1.471-1.471,1.471,1.471,0,0,0-1.471-1.471h-4.413a1.471,1.471,0,0,0-1.471,1.471A1.471,1.471,0,0,0,1079.733-201.841Z" transform="translate(-1019.424 204.783)" fill="#12263f" stroke="#000" stroke-width="1"/>
          <path id="Trazado_630177" data-name="Trazado 630177" d="M1052.662-169.179a1.471,1.471,0,0,0,1.471,1.471H1065.9a1.471,1.471,0,0,0,1.471-1.471,1.471,1.471,0,0,0-1.471-1.471h-11.767A1.471,1.471,0,0,0,1052.662-169.179Z" transform="translate(-998.237 176.534)" fill="#12263f" stroke="#000" stroke-width="1"/>
        </g>
      </g>
      <g id="Grupo_902312-2" data-name="Grupo 902312" transform="translate(-5967.823 -9808.699)">
        <g id="Color-2" data-name="Color" transform="translate(1.136 1.136)">
          <path id="Trazado_630180" data-name="Trazado 630180" d="M117.692,88.682a20.446,20.446,0,0,1-40.892,0,20.031,20.031,0,0,1,.534-4.623,1.38,1.38,0,0,0,.432.079h2.613a1.136,1.136,0,0,0,1.125-.954l.239-1.443A1.136,1.136,0,0,1,83.524,81l1.193.852a1.136,1.136,0,0,0,1.465-.114l1.852-1.851a1.136,1.136,0,0,0,.114-1.465L87.3,77.232a1.136,1.136,0,0,1,.738-1.783l1.443-.239a1.136,1.136,0,0,0,.954-1.125V71.473a1.136,1.136,0,0,0-.954-1.125l-.943-.159a20.438,20.438,0,0,1,29.158,18.492Z" transform="translate(-67.713 -61.42)" fill="#f6f6f6"/>
          <path id="Trazado_630181" data-name="Trazado 630181" d="M218.941,68.267c-.593,0-1.178.033-1.759.083a20.429,20.429,0,0,1,.056,40.723c.568.047,1.129.086,1.7.086a20.446,20.446,0,1,0,0-40.892Z" transform="translate(-189.408 -61.452)" fill="#e8e8e8"/>
          <path id="Trazado_630182" data-name="Trazado 630182" d="M86.384,51.695a26.126,26.126,0,0,1-52.251,0,25.473,25.473,0,0,1,.932-6.872,1.108,1.108,0,0,0,1.374.045l1.193-.852a1.136,1.136,0,0,1,1.783.738l.239,1.443a1.151,1.151,0,0,0,.693.875,20.03,20.03,0,0,0-.534,4.623A20.459,20.459,0,1,0,51.546,33.2l-.5-.079a1.136,1.136,0,0,1-.738-1.783l.852-1.193a1.136,1.136,0,0,0-.114-1.465l-1.022-1.022a26.126,26.126,0,0,1,36.36,24.036Z" transform="translate(-30.725 -24.433)" fill="#21cbae"/>
          <path id="Trazado_630183" data-name="Trazado 630183" d="M218.883,25.6c-.568,0-1.136.025-1.7.061a26.114,26.114,0,0,1-.065,52.123c.585.04,1.173.067,1.767.067a26.126,26.126,0,1,0,0-52.251Z" transform="translate(-189.349 -24.464)" fill="#00838f"/>
          <path id="Trazado_630184" data-name="Trazado 630184" d="M365.661,357.127a5.281,5.281,0,0,1-7.468,0q-.139-.139-.267-.288l-11.643-13.438v-.011a26.087,26.087,0,0,0,5.645-5.645h.011l13.438,11.643a5.281,5.281,0,0,1,.551,7.448Q365.8,356.988,365.661,357.127Z" transform="translate(-301.324 -295.062)" fill="#21cbae"/>
          <path id="Trazado_630185" data-name="Trazado 630185" d="M393.051,349.392l-13.438-11.643H379.6c-.438.6-.909,1.175-1.4,1.733l11.437,9.91a5.26,5.26,0,0,1-1.73,8.98,5.267,5.267,0,0,0,5.138-8.98Z" transform="translate(-328.998 -295.062)" fill="#545c60"/>
          <path id="Trazado_630186" data-name="Trazado 630186" d="M31.251,27.12v2.612a1.136,1.136,0,0,1-.954,1.125l-1.443.239a1.136,1.136,0,0,0-.738,1.783l.852,1.193a1.136,1.136,0,0,1-.114,1.465L27,37.388a1.136,1.136,0,0,1-1.465.114l-1.193-.852a1.136,1.136,0,0,0-1.783.738l-.239,1.443a1.136,1.136,0,0,1-1.125.954H18.586a1.38,1.38,0,0,1-.432-.079,1.151,1.151,0,0,1-.693-.875l-.239-1.443a1.136,1.136,0,0,0-1.783-.738l-1.193.852a1.108,1.108,0,0,1-1.374-.045.272.272,0,0,1-.091-.068L10.93,35.537a1.136,1.136,0,0,1-.114-1.465l.852-1.193A1.136,1.136,0,0,0,10.93,31.1l-1.443-.239a1.136,1.136,0,0,1-.954-1.125V27.12A1.136,1.136,0,0,1,9.487,26l1.443-.239a1.136,1.136,0,0,0,.738-1.783l-.852-1.193a1.136,1.136,0,0,1,.114-1.465l1.851-1.851a1.136,1.136,0,0,1,1.465-.114l1.193.852a1.136,1.136,0,0,0,1.783-.738l.239-1.443a1.136,1.136,0,0,1,1.125-.954H21.2a1.136,1.136,0,0,1,1.125.954l.239,1.443a1.136,1.136,0,0,0,1.783.738l1.193-.852A1.136,1.136,0,0,1,27,19.464l1.852,1.851a1.136,1.136,0,0,1,.114,1.465l-.852,1.193a1.136,1.136,0,0,0,.738,1.783l.5.079L30.3,26a1.136,1.136,0,0,1,.954,1.125Z" transform="translate(-8.533 -17.067)" fill="#fecb2f"/>
          <circle id="Elipse_6544" data-name="Elipse 6544" cx="4.544" cy="4.544" r="4.544" transform="translate(6.815 6.815)" fill="#f5f5f5"/>
          <path id="Trazado_630187" data-name="Trazado 630187" d="M82.771,68.267a4.524,4.524,0,0,0-1.7.341,4.535,4.535,0,0,1,0,8.412,4.544,4.544,0,1,0,1.7-8.753Z" transform="translate(-71.412 -61.452)" fill="#cfd8dc"/>
          <path id="Trazado_630188" data-name="Trazado 630188" d="M193.385,155.116v2.619a1.136,1.136,0,0,1-.951,1.121l-1.444.237a1.136,1.136,0,0,0-.741,1.78l.852,1.2a1.136,1.136,0,0,1-.114,1.465l-1.851,1.851a1.136,1.136,0,0,1-1.465.114l-1.2-.852a1.136,1.136,0,0,0-1.78.741l-.237,1.444a1.136,1.136,0,0,1-1.121.951h-2.619a1.136,1.136,0,0,1-1.121-.951l-.237-1.444a1.136,1.136,0,0,0-1.78-.741l-1.2.852a1.136,1.136,0,0,1-1.465-.114l-1.851-1.851a1.136,1.136,0,0,1-.114-1.465l.852-1.2a1.136,1.136,0,0,0-.741-1.78l-1.444-.237a1.136,1.136,0,0,1-.951-1.121v-2.619a1.136,1.136,0,0,1,.951-1.121l1.445-.237a1.136,1.136,0,0,0,.74-1.78l-.852-1.2a1.136,1.136,0,0,1,.114-1.465l1.851-1.851a1.136,1.136,0,0,1,1.465-.114l1.2.852a1.136,1.136,0,0,0,1.78-.741l.237-1.444a1.136,1.136,0,0,1,1.121-.951h2.619a1.136,1.136,0,0,1,1.121.951l.237,1.444a1.136,1.136,0,0,0,1.78.741l1.2-.852a1.136,1.136,0,0,1,1.465.114l1.851,1.851a1.136,1.136,0,0,1,.114,1.465l-.852,1.2a1.136,1.136,0,0,0,.74,1.78l1.445.237a1.136,1.136,0,0,1,.951,1.121Z" transform="translate(-149.085 -128.029)" fill="#ef3c79"/>
          <circle id="Elipse_6545" data-name="Elipse 6545" cx="4.544" cy="4.544" r="4.544" transform="translate(28.397 23.854)" fill="#f5f5f5"/>
          <path id="Trazado_630189" data-name="Trazado 630189" d="M244.9,196.267a4.524,4.524,0,0,0-1.7.341,4.534,4.534,0,0,1,0,8.412,4.544,4.544,0,1,0,1.7-8.753Z" transform="translate(-211.963 -172.413)" fill="#cfd8dc"/>
        </g>
        <g id="Icons-2" data-name="Icons" transform="translate(0 0)">
          <path id="Trazado_630190" data-name="Trazado 630190" d="M1.9,24.579l1.444.239L2.5,26.007a2.272,2.272,0,0,0,.227,2.935L4.213,30.43a26.719,26.719,0,0,0-.805,6.5,27.249,27.249,0,0,0,42.5,22.6L56.878,72.188A6.44,6.44,0,0,0,61.5,74.415h.227a6.42,6.42,0,0,0,4.2-11.278L53.273,52.163a27.243,27.243,0,0,0-32.563-40.6l-.313-.312a2.272,2.272,0,0,0-2.916-.227l-1.2.853-.239-1.444a2.265,2.265,0,0,0-2.241-1.9H11.185a2.265,2.265,0,0,0-2.241,1.9l-.239,1.444-1.189-.847a2.28,2.28,0,0,0-2.935.227L2.718,13.122a2.272,2.272,0,0,0-.227,2.916l.853,1.2L1.9,17.474A2.265,2.265,0,0,0,0,19.718v2.619a2.265,2.265,0,0,0,1.9,2.241ZM64.446,64.855a4.146,4.146,0,0,1,.436,5.847q-.1.117-.209.225a4.169,4.169,0,0,1-3.088,1.215A4.107,4.107,0,0,1,58.6,70.705L47.735,58.172a27.519,27.519,0,0,0,4.175-4.179ZM55.659,36.93a24.99,24.99,0,1,1-49.979,0,24.478,24.478,0,0,1,.627-5.485,2.232,2.232,0,0,0,1.2-.416l1.2-.853.239,1.444A2.257,2.257,0,0,0,9.5,32.772a21.312,21.312,0,0,0-.416,4.159A21.615,21.615,0,1,0,21.809,17.265l-.161-.026.843-1.189a2.265,2.265,0,0,0-.032-2.691,24.916,24.916,0,0,1,33.2,23.572ZM22.5,26.014l-.853-1.2,1.444-.239a2.265,2.265,0,0,0,1.9-2.241V19.718a2.28,2.28,0,0,0-.3-1.136A19.3,19.3,0,1,1,11.359,36.93a19.027,19.027,0,0,1,.341-3.408h2.109a2.265,2.265,0,0,0,2.241-1.9l.239-1.444,1.19.849a2.279,2.279,0,0,0,2.934-.227l1.863-1.863A2.272,2.272,0,0,0,22.5,26.014Zm-20.225-6.3,1.444-.237A2.272,2.272,0,0,0,5.2,15.916l-.861-1.2,1.855-1.843,1.193.853a2.272,2.272,0,0,0,3.56-1.477l.242-1.448H13.8l.237,1.444a2.272,2.272,0,0,0,3.56,1.477l1.2-.861,1.844,1.859-.853,1.193a2.272,2.272,0,0,0,1.477,3.56l1.444.239v2.613l-1.444.237a2.272,2.272,0,0,0-1.477,3.56l.861,1.2L18.8,29.179l-1.193-.853a2.272,2.272,0,0,0-3.56,1.477L13.8,31.251H11.185l-.237-1.444a2.272,2.272,0,0,0-3.56-1.477l-1.2.861L4.343,27.332,5.2,26.139A2.272,2.272,0,0,0,3.72,22.58l-1.448-.242Z" transform="translate(0 -8.533)"/>
          <path id="Trazado_630191" data-name="Trazado 630191" d="M56.88,71.092a5.68,5.68,0,1,0-5.68-5.68A5.679,5.679,0,0,0,56.88,71.092Zm0-9.087a3.408,3.408,0,1,1-3.408,3.408A3.408,3.408,0,0,1,56.88,62Z" transform="translate(-44.385 -52.918)"/>
          <path id="Trazado_630192" data-name="Trazado 630192" d="M162.133,147.718v2.619a2.265,2.265,0,0,0,1.9,2.241l1.444.239-.847,1.189a2.272,2.272,0,0,0,.227,2.935l1.863,1.863a2.272,2.272,0,0,0,2.916.227l1.2-.853.239,1.444a2.265,2.265,0,0,0,2.245,1.9h2.619a2.265,2.265,0,0,0,2.241-1.9l.239-1.444,1.19.849a2.279,2.279,0,0,0,2.934-.227l1.863-1.863a2.272,2.272,0,0,0,.227-2.916l-.853-1.2,1.444-.239a2.265,2.265,0,0,0,1.9-2.246v-2.619a2.265,2.265,0,0,0-1.9-2.241l-1.444-.239.847-1.189a2.272,2.272,0,0,0-.227-2.935l-1.863-1.863a2.272,2.272,0,0,0-2.916-.227l-1.2.853-.239-1.444a2.265,2.265,0,0,0-2.245-1.9h-2.619a2.265,2.265,0,0,0-2.241,1.9l-.239,1.444-1.189-.847a2.28,2.28,0,0,0-2.935.227l-1.863,1.863a2.272,2.272,0,0,0-.227,2.916l.853,1.2-1.444.239a2.265,2.265,0,0,0-1.9,2.245Zm2.272,0,1.444-.237a2.272,2.272,0,0,0,1.477-3.56l-.861-1.2,1.855-1.843,1.2.853a2.272,2.272,0,0,0,3.56-1.477l.242-1.448h2.619l.237,1.444a2.272,2.272,0,0,0,3.56,1.477l1.2-.861,1.843,1.855-.853,1.2a2.272,2.272,0,0,0,1.477,3.56l1.444.238v2.613l-1.444.237a2.272,2.272,0,0,0-1.477,3.56l.861,1.2-1.855,1.854-1.193-.853a2.272,2.272,0,0,0-3.56,1.477l-.242,1.448h-2.619l-.237-1.444a2.272,2.272,0,0,0-3.56-1.477l-1.2.861-1.843-1.859.853-1.2a2.272,2.272,0,0,0-1.477-3.56l-1.448-.237Z" transform="translate(-140.551 -119.494)"/>
          <path id="Trazado_630193" data-name="Trazado 630193" d="M219.013,199.092a5.68,5.68,0,1,0-5.68-5.68A5.68,5.68,0,0,0,219.013,199.092Zm0-9.087a3.408,3.408,0,1,1-3.408,3.408A3.408,3.408,0,0,1,219.013,190Z" transform="translate(-184.936 -163.879)"/>
        </g>
      </g>
    </g>
  </g>
</svg>
