<svg xmlns="http://www.w3.org/2000/svg" width="1069.33" height="866.182" viewBox="0 0 1069.33 866.182">
  <g id="Grupo_901587" data-name="Grupo 901587" transform="translate(-148.221 -619.913)">
    <rect id="Rectángulo_302888" data-name="Rectángulo 302888" width="221.916" height="74.183" rx="17" transform="translate(717.634 1411.913)" fill="#21cbae"/>
    <g id="Grupo_901575" data-name="Grupo 901575" transform="translate(-0.365 -233.414)">
      <rect id="Rectángulo_302890" data-name="Rectángulo 302890" width="221.916" height="74.183" rx="17" transform="translate(718 1324.913)" fill="#21cbae"/>
      <rect id="Rectángulo_302889" data-name="Rectángulo 302889" width="221.916" height="74.183" rx="17" transform="translate(718 1411.913)" fill="#21cbae"/>
      <rect id="Rectángulo_302891" data-name="Rectángulo 302891" width="221.916" height="74.183" rx="17" transform="translate(718 1498.913)" fill="#21cbae"/>
      <path id="Trazado_633087" data-name="Trazado 633087" d="M43.315,21V6.781h4.58a6.737,6.737,0,0,1,3.389.854,6.006,6.006,0,0,1,2.349,2.412,7.283,7.283,0,0,1,.854,3.491v.654a7.325,7.325,0,0,1-.825,3.5,6.032,6.032,0,0,1-2.324,2.422A6.589,6.589,0,0,1,47.993,21ZM46.743,9.428v8.936h1.191a2.666,2.666,0,0,0,2.266-1.05,5.145,5.145,0,0,0,.791-3.12v-.615a5.1,5.1,0,0,0-.791-3.105,2.713,2.713,0,0,0-2.3-1.045ZM61.205,21.2a5.432,5.432,0,0,1-3.936-1.45,5.008,5.008,0,0,1-1.5-3.774V15.7a6.489,6.489,0,0,1,.6-2.861,4.395,4.395,0,0,1,1.753-1.919,5.292,5.292,0,0,1,2.734-.679A4.574,4.574,0,0,1,64.37,11.62a5.43,5.43,0,0,1,1.289,3.853v1.279H59.116a2.372,2.372,0,0,0,.771,1.4,2.3,2.3,0,0,0,1.543.508,2.958,2.958,0,0,0,2.441-1.094l1.5,1.777a4.2,4.2,0,0,1-1.743,1.353A5.891,5.891,0,0,1,61.205,21.2Zm-.371-8.418q-1.445,0-1.719,1.914h3.32v-.254a1.63,1.63,0,0,0-.4-1.226A1.593,1.593,0,0,0,60.834,12.777Zm11.68,5.254a.76.76,0,0,0-.439-.674,6.684,6.684,0,0,0-1.67-.527,7.615,7.615,0,0,1-2.031-.718,3.4,3.4,0,0,1-1.221-1.079,2.577,2.577,0,0,1-.42-1.455,2.92,2.92,0,0,1,1.2-2.4,4.948,4.948,0,0,1,3.145-.942,5.482,5.482,0,0,1,3.359.947,2.962,2.962,0,0,1,1.27,2.49h-3.3q0-1.27-1.338-1.27a1.326,1.326,0,0,0-.869.288.892.892,0,0,0-.352.718.819.819,0,0,0,.43.713,4.06,4.06,0,0,0,1.372.449,11.857,11.857,0,0,1,1.655.42,3.007,3.007,0,0,1,2.383,2.939A2.767,2.767,0,0,1,74.4,20.287a5.631,5.631,0,0,1-3.325.908,5.747,5.747,0,0,1-2.422-.488A4.05,4.05,0,0,1,67,19.379a3.007,3.007,0,0,1-.6-1.768h3.076a1.272,1.272,0,0,0,.488,1.069,2.009,2.009,0,0,0,1.2.337,1.58,1.58,0,0,0,1.011-.273A.875.875,0,0,0,72.514,18.031Zm9.18.625a1.464,1.464,0,0,0,1.074-.376,1.379,1.379,0,0,0,.371-1.05h3.086a3.653,3.653,0,0,1-1.245,2.852A4.631,4.631,0,0,1,81.772,21.2a4.689,4.689,0,0,1-3.633-1.445,5.7,5.7,0,0,1-1.328-4v-.137a6.436,6.436,0,0,1,.591-2.827,4.3,4.3,0,0,1,1.7-1.885,5.081,5.081,0,0,1,2.637-.659,4.573,4.573,0,0,1,3.271,1.143,4.053,4.053,0,0,1,1.211,3.1H83.139a1.806,1.806,0,0,0-.4-1.26,1.382,1.382,0,0,0-1.074-.439q-1.279,0-1.494,1.631a11.508,11.508,0,0,0-.068,1.426,4.52,4.52,0,0,0,.381,2.207A1.319,1.319,0,0,0,81.694,18.656Zm12.314-5.244-1.084-.078a1.947,1.947,0,0,0-1.992.977V21H87.641V10.434h3.086l.107,1.357a2.548,2.548,0,0,1,2.314-1.553,3.209,3.209,0,0,1,.918.117ZM98.666,21h-3.3V10.434h3.3ZM95.17,7.709a1.469,1.469,0,0,1,.508-1.152,2.159,2.159,0,0,1,2.637,0,1.469,1.469,0,0,1,.508,1.152,1.469,1.469,0,0,1-.508,1.152,2.159,2.159,0,0,1-2.637,0A1.469,1.469,0,0,1,95.17,7.709ZM110.5,15.795a6.372,6.372,0,0,1-1.108,3.931A3.554,3.554,0,0,1,106.4,21.2a3.046,3.046,0,0,1-2.393-1.064v4.932h-3.291V10.434h3.076l.1.977a3.046,3.046,0,0,1,2.49-1.172,3.582,3.582,0,0,1,3.037,1.44,6.45,6.45,0,0,1,1.084,3.96Zm-3.291-.205q0-2.812-1.641-2.812a1.549,1.549,0,0,0-1.562.84v4.16a1.6,1.6,0,0,0,1.582.879q1.572,0,1.621-2.715Zm9.209,3.066a1.464,1.464,0,0,0,1.074-.376,1.379,1.379,0,0,0,.371-1.05h3.086a3.653,3.653,0,0,1-1.245,2.852A4.631,4.631,0,0,1,116.5,21.2a4.689,4.689,0,0,1-3.633-1.445,5.7,5.7,0,0,1-1.328-4v-.137a6.436,6.436,0,0,1,.591-2.827,4.3,4.3,0,0,1,1.7-1.885,5.081,5.081,0,0,1,2.637-.659,4.573,4.573,0,0,1,3.271,1.143,4.053,4.053,0,0,1,1.211,3.1h-3.086a1.806,1.806,0,0,0-.4-1.26,1.382,1.382,0,0,0-1.074-.439q-1.279,0-1.494,1.631a11.508,11.508,0,0,0-.068,1.426,4.52,4.52,0,0,0,.381,2.207A1.319,1.319,0,0,0,116.42,18.656ZM125.815,21h-3.3V10.434h3.3Zm-3.5-13.291a1.469,1.469,0,0,1,.508-1.152,2.159,2.159,0,0,1,2.637,0,1.469,1.469,0,0,1,.508,1.152,1.469,1.469,0,0,1-.508,1.152,2.159,2.159,0,0,1-2.637,0A1.469,1.469,0,0,1,122.319,7.709Zm5.107,7.91a6.236,6.236,0,0,1,.615-2.817,4.4,4.4,0,0,1,1.768-1.9,5.323,5.323,0,0,1,2.705-.664,4.858,4.858,0,0,1,3.74,1.47,5.64,5.64,0,0,1,1.367,4v.117a5.472,5.472,0,0,1-1.372,3.921,4.871,4.871,0,0,1-3.716,1.45,4.927,4.927,0,0,1-3.623-1.353,5.29,5.29,0,0,1-1.475-3.667Zm3.291.205a3.932,3.932,0,0,0,.459,2.148,1.529,1.529,0,0,0,1.357.684q1.758,0,1.8-2.705v-.332q0-2.842-1.816-2.842-1.65,0-1.787,2.451ZM132.963,6h3.477l-2.715,3.066-2.686,0Zm9.131,4.434.107,1.24a3.583,3.583,0,0,1,3.018-1.436,3.015,3.015,0,0,1,2.466.986,4.7,4.7,0,0,1,.845,2.969V21h-3.3V14.33a1.783,1.783,0,0,0-.322-1.177,1.491,1.491,0,0,0-1.172-.376,1.569,1.569,0,0,0-1.436.762V21h-3.291V10.434Z" transform="translate(733 1349.913)" fill="#12263f"/>
      <path id="Trazado_633086" data-name="Trazado 633086" d="M52.455,16.186a5.193,5.193,0,0,1-.8,2.622A4.833,4.833,0,0,1,49.6,20.57a7,7,0,0,1-3.022.625,5.584,5.584,0,0,1-4.414-1.826,7.54,7.54,0,0,1-1.611-5.156v-.7a8.607,8.607,0,0,1,.728-3.657,5.513,5.513,0,0,1,2.095-2.422,5.844,5.844,0,0,1,3.164-.854A6.129,6.129,0,0,1,50.7,7.938a5.383,5.383,0,0,1,1.787,3.755H49.067a2.547,2.547,0,0,0-.654-1.865,2.691,2.691,0,0,0-1.875-.566,2.048,2.048,0,0,0-1.875.957,6.151,6.151,0,0,0-.625,3.057v1.006a6.806,6.806,0,0,0,.571,3.252,2.091,2.091,0,0,0,1.968.977,2.632,2.632,0,0,0,1.807-.557,2.363,2.363,0,0,0,.664-1.768Zm1.055-.566a6.236,6.236,0,0,1,.615-2.817,4.4,4.4,0,0,1,1.768-1.9,5.323,5.323,0,0,1,2.705-.664,4.858,4.858,0,0,1,3.74,1.47,5.64,5.64,0,0,1,1.367,4v.117a5.472,5.472,0,0,1-1.372,3.921,4.871,4.871,0,0,1-3.716,1.45,4.927,4.927,0,0,1-3.623-1.353,5.29,5.29,0,0,1-1.475-3.667Zm3.291.205a3.932,3.932,0,0,0,.459,2.148,1.529,1.529,0,0,0,1.357.684q1.758,0,1.8-2.705v-.332q0-2.842-1.816-2.842-1.65,0-1.787,2.451Zm11.377-5.391.107,1.24A3.583,3.583,0,0,1,71.3,10.238a3.015,3.015,0,0,1,2.466.986,4.7,4.7,0,0,1,.845,2.969V21h-3.3V14.33a1.783,1.783,0,0,0-.322-1.177,1.491,1.491,0,0,0-1.172-.376,1.569,1.569,0,0,0-1.436.762V21H65.092V10.434Zm7.842,5.205A6.455,6.455,0,0,1,77.1,11.684a3.568,3.568,0,0,1,3.027-1.445,3.035,3.035,0,0,1,2.383,1.113V6h3.3V21H82.856l-.166-1.133A3.116,3.116,0,0,1,80.112,21.2a3.562,3.562,0,0,1-2.988-1.445A6.659,6.659,0,0,1,76.02,15.639Zm3.291.205q0,2.813,1.641,2.813a1.62,1.62,0,0,0,1.563-.918V13.715a1.576,1.576,0,0,0-1.543-.937q-1.523,0-1.65,2.461ZM91.157,21h-3.3V10.434h3.3Zm-3.5-13.291a1.469,1.469,0,0,1,.508-1.152,2.159,2.159,0,0,1,2.637,0,1.469,1.469,0,0,1,.508,1.152,1.469,1.469,0,0,1-.508,1.152,2.159,2.159,0,0,1-2.637,0A1.469,1.469,0,0,1,87.661,7.709Zm9.99,10.947a1.464,1.464,0,0,0,1.074-.376,1.379,1.379,0,0,0,.371-1.05h3.086a3.653,3.653,0,0,1-1.245,2.852A4.631,4.631,0,0,1,97.729,21.2,4.689,4.689,0,0,1,94.1,19.75a5.7,5.7,0,0,1-1.328-4v-.137a6.436,6.436,0,0,1,.591-2.827,4.3,4.3,0,0,1,1.7-1.885,5.081,5.081,0,0,1,2.637-.659,4.573,4.573,0,0,1,3.271,1.143,4.053,4.053,0,0,1,1.211,3.1H99.1a1.806,1.806,0,0,0-.4-1.26,1.382,1.382,0,0,0-1.074-.439q-1.279,0-1.494,1.631a11.508,11.508,0,0,0-.068,1.426,4.52,4.52,0,0,0,.381,2.207A1.319,1.319,0,0,0,97.651,18.656ZM107.045,21h-3.3V10.434h3.3Zm-3.5-13.291a1.469,1.469,0,0,1,.508-1.152,2.159,2.159,0,0,1,2.637,0,1.469,1.469,0,0,1,.508,1.152,1.469,1.469,0,0,1-.508,1.152,2.159,2.159,0,0,1-2.637,0A1.469,1.469,0,0,1,103.549,7.709Zm5.107,7.91a6.236,6.236,0,0,1,.615-2.817,4.4,4.4,0,0,1,1.768-1.9,5.323,5.323,0,0,1,2.705-.664,4.858,4.858,0,0,1,3.74,1.47,5.64,5.64,0,0,1,1.367,4v.117a5.472,5.472,0,0,1-1.372,3.921,4.871,4.871,0,0,1-3.716,1.45,4.927,4.927,0,0,1-3.623-1.353,5.29,5.29,0,0,1-1.475-3.667Zm3.291.205a3.932,3.932,0,0,0,.459,2.148,1.529,1.529,0,0,0,1.357.684q1.758,0,1.8-2.705v-.332q0-2.842-1.816-2.842-1.65,0-1.787,2.451Zm11.377-5.391.107,1.24a3.583,3.583,0,0,1,3.018-1.436,3.015,3.015,0,0,1,2.466.986,4.7,4.7,0,0,1,.845,2.969V21h-3.3V14.33a1.783,1.783,0,0,0-.322-1.177,1.491,1.491,0,0,0-1.172-.376,1.569,1.569,0,0,0-1.436.762V21h-3.291V10.434ZM136.694,21.2a5.432,5.432,0,0,1-3.936-1.45,5.008,5.008,0,0,1-1.5-3.774V15.7a6.489,6.489,0,0,1,.6-2.861,4.395,4.395,0,0,1,1.753-1.919,5.292,5.292,0,0,1,2.734-.679,4.574,4.574,0,0,1,3.516,1.382,5.43,5.43,0,0,1,1.289,3.853v1.279H134.6a2.372,2.372,0,0,0,.771,1.4,2.3,2.3,0,0,0,1.543.508,2.958,2.958,0,0,0,2.441-1.094l1.5,1.777a4.2,4.2,0,0,1-1.743,1.353A5.891,5.891,0,0,1,136.694,21.2Zm-.371-8.418q-1.445,0-1.719,1.914h3.32v-.254a1.63,1.63,0,0,0-.4-1.226A1.593,1.593,0,0,0,136.323,12.777ZM148,18.031a.76.76,0,0,0-.439-.674,6.684,6.684,0,0,0-1.67-.527,7.615,7.615,0,0,1-2.031-.718,3.4,3.4,0,0,1-1.221-1.079,2.577,2.577,0,0,1-.42-1.455,2.92,2.92,0,0,1,1.2-2.4,4.948,4.948,0,0,1,3.145-.942,5.482,5.482,0,0,1,3.359.947,2.962,2.962,0,0,1,1.27,2.49h-3.3q0-1.27-1.338-1.27a1.326,1.326,0,0,0-.869.288.892.892,0,0,0-.352.718.819.819,0,0,0,.43.713,4.06,4.06,0,0,0,1.372.449,11.857,11.857,0,0,1,1.655.42,3.007,3.007,0,0,1,2.383,2.939,2.767,2.767,0,0,1-1.284,2.354,5.632,5.632,0,0,1-3.325.908,5.747,5.747,0,0,1-2.422-.488,4.05,4.05,0,0,1-1.66-1.328,3.007,3.007,0,0,1-.6-1.768h3.076a1.272,1.272,0,0,0,.488,1.069,2.009,2.009,0,0,0,1.2.337,1.58,1.58,0,0,0,1.011-.273A.875.875,0,0,0,148,18.031Z" transform="translate(733 1436.913)" fill="#12263f"/>
      <path id="Trazado_633088" data-name="Trazado 633088" d="M55.6,16.186a5.193,5.193,0,0,1-.8,2.622,4.833,4.833,0,0,1-2.056,1.763,7,7,0,0,1-3.022.625,5.584,5.584,0,0,1-4.414-1.826A7.54,7.54,0,0,1,43.7,14.213v-.7a8.607,8.607,0,0,1,.728-3.657,5.513,5.513,0,0,1,2.095-2.422,5.844,5.844,0,0,1,3.164-.854,6.129,6.129,0,0,1,4.16,1.362,5.383,5.383,0,0,1,1.787,3.755H52.211a2.547,2.547,0,0,0-.654-1.865,2.691,2.691,0,0,0-1.875-.566,2.048,2.048,0,0,0-1.875.957,6.151,6.151,0,0,0-.625,3.057v1.006a6.806,6.806,0,0,0,.571,3.252,2.091,2.091,0,0,0,1.968.977,2.632,2.632,0,0,0,1.807-.557,2.363,2.363,0,0,0,.664-1.768Zm7.861-2.773-1.084-.078a1.947,1.947,0,0,0-1.992.977V21H57.094V10.434H60.18l.107,1.357A2.548,2.548,0,0,1,62.6,10.238a3.209,3.209,0,0,1,.918.117ZM68.12,21h-3.3V10.434h3.3Zm-3.5-13.291a1.469,1.469,0,0,1,.508-1.152,2.159,2.159,0,0,1,2.637,0,1.469,1.469,0,0,1,.508,1.152,1.469,1.469,0,0,1-.508,1.152,2.159,2.159,0,0,1-2.637,0A1.469,1.469,0,0,1,64.623,7.709Zm9.355.1v2.627h1.738v2.285H73.979v4.834a1.234,1.234,0,0,0,.215.83,1.152,1.152,0,0,0,.85.234,4.828,4.828,0,0,0,.82-.059v2.354a6.074,6.074,0,0,1-1.855.283,3.448,3.448,0,0,1-2.51-.8,3.282,3.282,0,0,1-.811-2.432V12.719H69.34V10.434h1.348V7.807ZM82.123,21.2a5.432,5.432,0,0,1-3.936-1.45,5.008,5.008,0,0,1-1.5-3.774V15.7a6.489,6.489,0,0,1,.6-2.861,4.395,4.395,0,0,1,1.753-1.919,5.292,5.292,0,0,1,2.734-.679,4.574,4.574,0,0,1,3.516,1.382,5.43,5.43,0,0,1,1.289,3.853v1.279H80.034a2.372,2.372,0,0,0,.771,1.4,2.3,2.3,0,0,0,1.543.508,2.958,2.958,0,0,0,2.441-1.094l1.5,1.777a4.2,4.2,0,0,1-1.743,1.353A5.891,5.891,0,0,1,82.123,21.2Zm-.371-8.418q-1.445,0-1.719,1.914h3.32v-.254a1.63,1.63,0,0,0-.4-1.226A1.593,1.593,0,0,0,81.752,12.777Zm12.539.635-1.084-.078a1.947,1.947,0,0,0-1.992.977V21H87.924V10.434H91.01l.107,1.357a2.548,2.548,0,0,1,2.314-1.553,3.209,3.209,0,0,1,.918.117ZM98.95,21h-3.3V10.434h3.3Zm-3.5-13.291a1.469,1.469,0,0,1,.508-1.152,2.159,2.159,0,0,1,2.637,0,1.469,1.469,0,0,1,.508,1.152A1.469,1.469,0,0,1,98.6,8.861a2.159,2.159,0,0,1-2.637,0A1.469,1.469,0,0,1,95.454,7.709Zm5.107,7.91a6.236,6.236,0,0,1,.615-2.817,4.4,4.4,0,0,1,1.768-1.9,5.323,5.323,0,0,1,2.705-.664,4.858,4.858,0,0,1,3.74,1.47,5.64,5.64,0,0,1,1.367,4v.117a5.472,5.472,0,0,1-1.372,3.921,4.871,4.871,0,0,1-3.716,1.45,4.927,4.927,0,0,1-3.623-1.353,5.29,5.29,0,0,1-1.475-3.667Zm3.291.205a3.932,3.932,0,0,0,.459,2.148,1.529,1.529,0,0,0,1.357.684q1.758,0,1.8-2.705v-.332q0-2.842-1.816-2.842-1.65,0-1.787,2.451Zm13.887,2.207a.76.76,0,0,0-.439-.674,6.684,6.684,0,0,0-1.67-.527,7.615,7.615,0,0,1-2.031-.718,3.4,3.4,0,0,1-1.221-1.079,2.577,2.577,0,0,1-.42-1.455,2.92,2.92,0,0,1,1.2-2.4,4.948,4.948,0,0,1,3.145-.942,5.482,5.482,0,0,1,3.359.947,2.962,2.962,0,0,1,1.27,2.49h-3.3q0-1.27-1.338-1.27a1.326,1.326,0,0,0-.869.288.892.892,0,0,0-.352.718.819.819,0,0,0,.43.713,4.06,4.06,0,0,0,1.372.449,11.857,11.857,0,0,1,1.655.42,3.007,3.007,0,0,1,2.383,2.939,2.767,2.767,0,0,1-1.284,2.354,5.631,5.631,0,0,1-3.325.908,5.747,5.747,0,0,1-2.422-.488,4.05,4.05,0,0,1-1.66-1.328,3.007,3.007,0,0,1-.6-1.768H114.7a1.272,1.272,0,0,0,.488,1.069,2.009,2.009,0,0,0,1.2.337,1.58,1.58,0,0,0,1.011-.273A.875.875,0,0,0,117.739,18.031Zm9.277-2.393a6.455,6.455,0,0,1,1.084-3.955,3.568,3.568,0,0,1,3.027-1.445,3.035,3.035,0,0,1,2.383,1.113V6h3.3V21h-2.959l-.166-1.133a3.116,3.116,0,0,1-2.578,1.328,3.562,3.562,0,0,1-2.988-1.445A6.659,6.659,0,0,1,127.016,15.639Zm3.291.205q0,2.813,1.641,2.813a1.62,1.62,0,0,0,1.563-.918V13.715a1.576,1.576,0,0,0-1.543-.937q-1.523,0-1.65,2.461ZM143.793,21.2a5.432,5.432,0,0,1-3.936-1.45,5.008,5.008,0,0,1-1.5-3.774V15.7a6.489,6.489,0,0,1,.6-2.861,4.395,4.395,0,0,1,1.753-1.919,5.292,5.292,0,0,1,2.734-.679,4.574,4.574,0,0,1,3.516,1.382,5.43,5.43,0,0,1,1.289,3.853v1.279H141.7a2.372,2.372,0,0,0,.771,1.4,2.3,2.3,0,0,0,1.543.508,2.958,2.958,0,0,0,2.441-1.094l1.5,1.777a4.2,4.2,0,0,1-1.743,1.353A5.891,5.891,0,0,1,143.793,21.2Zm-.371-8.418q-1.445,0-1.719,1.914h3.32v-.254a1.63,1.63,0,0,0-.4-1.226A1.593,1.593,0,0,0,143.422,12.777ZM45.068,48V39.719H43.535V37.434h1.533v-.352a4.034,4.034,0,0,1,1.387-3.232,5.541,5.541,0,0,1,3.6-1.055,12.787,12.787,0,0,1,3.438.566l-.449,2.6-.547-.146a8.7,8.7,0,0,0-2.246-.283q-1.885,0-1.885,1.719v.186h2.07v2.285h-2.07V48Zm9.941,0H51.7V37.434h3.311Zm5.029-10.566.107,1.24a3.583,3.583,0,0,1,3.018-1.436,3.015,3.015,0,0,1,2.466.986,4.7,4.7,0,0,1,.845,2.969V48h-3.3V41.33a1.783,1.783,0,0,0-.322-1.177,1.491,1.491,0,0,0-1.172-.376,1.569,1.569,0,0,0-1.436.762V48H56.953V37.434ZM74.247,48a3.716,3.716,0,0,1-.312-.947A3.06,3.06,0,0,1,71.4,48.2a3.749,3.749,0,0,1-2.539-.9,2.875,2.875,0,0,1-1.045-2.271,2.955,2.955,0,0,1,1.27-2.6,6.468,6.468,0,0,1,3.691-.879h1.016v-.559q0-1.462-1.26-1.462a1.03,1.03,0,0,0-1.172,1.158H68.066a2.95,2.95,0,0,1,1.3-2.487,5.479,5.479,0,0,1,3.325-.956,4.8,4.8,0,0,1,3.193.986,3.429,3.429,0,0,1,1.2,2.705v4.678a4.79,4.79,0,0,0,.449,2.227V48Zm-2.061-2.148a1.836,1.836,0,0,0,1.021-.264,1.653,1.653,0,0,0,.581-.6V43.3h-.957q-1.719,0-1.719,1.543a.942.942,0,0,0,.3.728A1.1,1.1,0,0,0,72.187,45.852ZM82.382,48h-3.3V33h3.3Zm5.5,0h-3.3V37.434h3.3Zm-3.5-13.291a1.469,1.469,0,0,1,.508-1.152,2.159,2.159,0,0,1,2.637,0,1.561,1.561,0,0,1,0,2.3,2.159,2.159,0,0,1-2.637,0A1.469,1.469,0,0,1,84.384,34.709Zm9.4,10.752H98.6V48H89.628V46.164l4.688-6.191H89.833V37.434H98.5v1.777ZM106.152,48a3.716,3.716,0,0,1-.312-.947A3.06,3.06,0,0,1,103.3,48.2a3.749,3.749,0,0,1-2.539-.9,2.875,2.875,0,0,1-1.045-2.271,2.955,2.955,0,0,1,1.27-2.6,6.468,6.468,0,0,1,3.691-.879h1.016v-.559q0-1.462-1.26-1.462a1.03,1.03,0,0,0-1.172,1.158H99.97a2.95,2.95,0,0,1,1.3-2.487,5.479,5.479,0,0,1,3.325-.956,4.8,4.8,0,0,1,3.193.986,3.429,3.429,0,0,1,1.2,2.705v4.678a4.79,4.79,0,0,0,.449,2.227V48Zm-2.061-2.148a1.836,1.836,0,0,0,1.021-.264,1.653,1.653,0,0,0,.581-.6V43.3h-.957q-1.719,0-1.719,1.543a.942.942,0,0,0,.3.728A1.1,1.1,0,0,0,104.091,45.852Zm11.191-.2a1.464,1.464,0,0,0,1.074-.376,1.379,1.379,0,0,0,.371-1.05h3.086a3.653,3.653,0,0,1-1.245,2.852,4.631,4.631,0,0,1-3.208,1.113,4.689,4.689,0,0,1-3.633-1.445,5.7,5.7,0,0,1-1.328-4v-.137a6.436,6.436,0,0,1,.591-2.827,4.3,4.3,0,0,1,1.7-1.885,5.081,5.081,0,0,1,2.637-.659,4.573,4.573,0,0,1,3.271,1.143,4.053,4.053,0,0,1,1.211,3.1h-3.086a1.806,1.806,0,0,0-.4-1.26,1.382,1.382,0,0,0-1.074-.439q-1.279,0-1.494,1.631a11.508,11.508,0,0,0-.068,1.426,4.52,4.52,0,0,0,.381,2.207A1.319,1.319,0,0,0,115.283,45.656ZM124.677,48h-3.3V37.434h3.3Zm-3.5-13.291a1.469,1.469,0,0,1,.508-1.152,2.159,2.159,0,0,1,2.637,0,1.561,1.561,0,0,1,0,2.3,2.159,2.159,0,0,1-2.637,0A1.469,1.469,0,0,1,121.181,34.709Zm5.107,7.91A6.236,6.236,0,0,1,126.9,39.8a4.4,4.4,0,0,1,1.768-1.9,5.323,5.323,0,0,1,2.705-.664,4.858,4.858,0,0,1,3.74,1.47,5.64,5.64,0,0,1,1.367,4v.117a5.472,5.472,0,0,1-1.372,3.921A4.871,4.871,0,0,1,131.4,48.2a4.927,4.927,0,0,1-3.623-1.353,5.29,5.29,0,0,1-1.475-3.667Zm3.291.205a3.932,3.932,0,0,0,.459,2.148,1.529,1.529,0,0,0,1.357.684q1.758,0,1.8-2.705v-.332q0-2.842-1.816-2.842-1.65,0-1.787,2.451ZM131.826,33H135.3l-2.715,3.066-2.686,0Zm9.131,4.434.107,1.24a3.583,3.583,0,0,1,3.018-1.436,3.015,3.015,0,0,1,2.466.986,4.7,4.7,0,0,1,.845,2.969V48h-3.3V41.33a1.783,1.783,0,0,0-.322-1.177,1.491,1.491,0,0,0-1.172-.376,1.569,1.569,0,0,0-1.436.762V48h-3.291V37.434Z" transform="translate(733 1511.913)" fill="#12263f"/>
    </g>
    <path id="Trazado_633079" data-name="Trazado 633079" d="M27.519,16.176V21H24.091V6.781h5.674a6.608,6.608,0,0,1,2.886.6,4.526,4.526,0,0,1,1.943,1.709,4.667,4.667,0,0,1,.688,2.515,4.114,4.114,0,0,1-1.489,3.325,6.179,6.179,0,0,1-4.087,1.245Zm0-2.646h2.246a2.118,2.118,0,0,0,1.519-.5,1.85,1.85,0,0,0,.522-1.406,2.287,2.287,0,0,0-.537-1.592A1.9,1.9,0,0,0,29.8,9.428H27.519ZM40.429,21h-3.3V6h3.3Zm7.979,0a3.716,3.716,0,0,1-.312-.947A3.06,3.06,0,0,1,45.556,21.2a3.749,3.749,0,0,1-2.539-.9,2.875,2.875,0,0,1-1.045-2.271,2.955,2.955,0,0,1,1.27-2.6,6.468,6.468,0,0,1,3.691-.879h1.016v-.559q0-1.462-1.26-1.462a1.03,1.03,0,0,0-1.172,1.158H42.226a2.95,2.95,0,0,1,1.3-2.487,5.479,5.479,0,0,1,3.325-.956,4.8,4.8,0,0,1,3.193.986,3.429,3.429,0,0,1,1.2,2.705v4.678a4.79,4.79,0,0,0,.449,2.227V21Zm-2.061-2.148a1.836,1.836,0,0,0,1.021-.264,1.653,1.653,0,0,0,.581-.6V16.3h-.957q-1.719,0-1.719,1.543a.942.942,0,0,0,.3.728A1.1,1.1,0,0,0,46.347,18.852Zm9.746-8.418.107,1.24a3.583,3.583,0,0,1,3.018-1.436,3.015,3.015,0,0,1,2.466.986,4.7,4.7,0,0,1,.845,2.969V21h-3.3V14.33a1.783,1.783,0,0,0-.322-1.177,1.491,1.491,0,0,0-1.172-.376,1.569,1.569,0,0,0-1.436.762V21H53.007V10.434Zm12.822,5.205A6.455,6.455,0,0,1,70,11.684a3.568,3.568,0,0,1,3.027-1.445,3.035,3.035,0,0,1,2.383,1.113V6h3.3V21H75.751l-.166-1.133A3.116,3.116,0,0,1,73.007,21.2a3.562,3.562,0,0,1-2.988-1.445A6.659,6.659,0,0,1,68.915,15.639Zm3.291.205q0,2.813,1.641,2.813a1.62,1.62,0,0,0,1.563-.918V13.715a1.576,1.576,0,0,0-1.543-.937q-1.523,0-1.65,2.461ZM85.693,21.2a5.432,5.432,0,0,1-3.936-1.45,5.008,5.008,0,0,1-1.5-3.774V15.7a6.489,6.489,0,0,1,.6-2.861,4.395,4.395,0,0,1,1.753-1.919,5.292,5.292,0,0,1,2.734-.679,4.574,4.574,0,0,1,3.516,1.382,5.43,5.43,0,0,1,1.289,3.853v1.279H83.6a2.372,2.372,0,0,0,.771,1.4,2.3,2.3,0,0,0,1.543.508,2.958,2.958,0,0,0,2.441-1.094l1.5,1.777a4.2,4.2,0,0,1-1.743,1.353A5.891,5.891,0,0,1,85.693,21.2Zm-.371-8.418q-1.445,0-1.719,1.914h3.32v-.254a1.63,1.63,0,0,0-.4-1.226A1.593,1.593,0,0,0,85.322,12.777Zm20.937,3.018a6.372,6.372,0,0,1-1.108,3.931,3.554,3.554,0,0,1-2.993,1.47,3.046,3.046,0,0,1-2.393-1.064v4.932H96.474V10.434H99.55l.1.977a3.046,3.046,0,0,1,2.49-1.172,3.582,3.582,0,0,1,3.037,1.44,6.45,6.45,0,0,1,1.084,3.96Zm-3.291-.205q0-2.812-1.641-2.812a1.549,1.549,0,0,0-1.562.84v4.16a1.6,1.6,0,0,0,1.582.879q1.572,0,1.621-2.715ZM114.1,13.412l-1.084-.078a1.947,1.947,0,0,0-1.992.977V21h-3.291V10.434h3.086l.107,1.357a2.548,2.548,0,0,1,2.314-1.553,3.209,3.209,0,0,1,.918.117Zm7.48,6.445a3.393,3.393,0,0,1-2.822,1.338,3.328,3.328,0,0,1-2.632-1.011,4.251,4.251,0,0,1-.894-2.905V10.434h3.291V17.3a1.183,1.183,0,0,0,1.318,1.357,1.72,1.72,0,0,0,1.611-.811V10.434h3.311V21h-3.086Zm10.1,1.338a5.432,5.432,0,0,1-3.936-1.45,5.008,5.008,0,0,1-1.5-3.774V15.7a6.489,6.489,0,0,1,.6-2.861,4.395,4.395,0,0,1,1.753-1.919,5.292,5.292,0,0,1,2.734-.679,4.574,4.574,0,0,1,3.516,1.382,5.43,5.43,0,0,1,1.289,3.853v1.279h-6.543a2.372,2.372,0,0,0,.771,1.4,2.3,2.3,0,0,0,1.543.508,2.958,2.958,0,0,0,2.441-1.094l1.5,1.777a4.2,4.2,0,0,1-1.743,1.353A5.891,5.891,0,0,1,131.679,21.2Zm-.371-8.418q-1.445,0-1.719,1.914h3.32v-.254a1.63,1.63,0,0,0-.4-1.226A1.593,1.593,0,0,0,131.308,12.777ZM147.265,15.8a6.44,6.44,0,0,1-1.074,3.994,3.6,3.6,0,0,1-3.027,1.4,3.122,3.122,0,0,1-2.6-1.279L140.429,21H137.48V6h3.291v5.283a3.013,3.013,0,0,1,2.373-1.045,3.6,3.6,0,0,1,3.047,1.416,6.473,6.473,0,0,1,1.074,3.984Zm-3.3-.21a4.3,4.3,0,0,0-.405-2.169,1.366,1.366,0,0,0-1.245-.648,1.576,1.576,0,0,0-1.543.848v4.192a1.585,1.585,0,0,0,1.563.838,1.4,1.4,0,0,0,1.475-1.131A8.121,8.121,0,0,0,143.964,15.595ZM154.667,21a3.716,3.716,0,0,1-.312-.947,3.06,3.06,0,0,1-2.539,1.143,3.749,3.749,0,0,1-2.539-.9,2.875,2.875,0,0,1-1.045-2.271,2.955,2.955,0,0,1,1.27-2.6,6.468,6.468,0,0,1,3.691-.879h1.016v-.559q0-1.462-1.26-1.462a1.03,1.03,0,0,0-1.172,1.158h-3.291a2.95,2.95,0,0,1,1.3-2.487,5.479,5.479,0,0,1,3.325-.956,4.8,4.8,0,0,1,3.193.986,3.429,3.429,0,0,1,1.2,2.705v4.678a4.79,4.79,0,0,0,.449,2.227V21Zm-2.061-2.148a1.836,1.836,0,0,0,1.021-.264,1.653,1.653,0,0,0,.581-.6V16.3h-.957q-1.719,0-1.719,1.543a.942.942,0,0,0,.3.728A1.1,1.1,0,0,0,152.607,18.852Zm12.256-.82a.76.76,0,0,0-.439-.674,6.684,6.684,0,0,0-1.67-.527,7.615,7.615,0,0,1-2.031-.718,3.4,3.4,0,0,1-1.221-1.079,2.577,2.577,0,0,1-.42-1.455,2.92,2.92,0,0,1,1.2-2.4,4.948,4.948,0,0,1,3.145-.942,5.482,5.482,0,0,1,3.359.947,2.962,2.962,0,0,1,1.27,2.49h-3.3q0-1.27-1.338-1.27a1.326,1.326,0,0,0-.869.288.892.892,0,0,0-.352.718.819.819,0,0,0,.43.713,4.06,4.06,0,0,0,1.372.449,11.857,11.857,0,0,1,1.655.42,3.007,3.007,0,0,1,2.383,2.939,2.767,2.767,0,0,1-1.284,2.354,5.632,5.632,0,0,1-3.325.908,5.747,5.747,0,0,1-2.422-.488,4.05,4.05,0,0,1-1.66-1.328,3.007,3.007,0,0,1-.6-1.768h3.076a1.272,1.272,0,0,0,.488,1.069,2.009,2.009,0,0,0,1.2.337,1.58,1.58,0,0,0,1.011-.273A.875.875,0,0,0,164.863,18.031Z" transform="translate(732.778 1437.004)" fill="#12263f"/>
    <g id="Grupo_901573" data-name="Grupo 901573" transform="translate(0.635 -237.092)">
      <rect id="Rectángulo_302892" data-name="Rectángulo 302892" width="221.916" height="74.183" rx="17" transform="translate(995 943.005)" fill="#fecb2f"/>
      <rect id="Rectángulo_302893" data-name="Rectángulo 302893" width="221.916" height="74.183" rx="17" transform="translate(994.042 857.005)" fill="#fecb2f"/>
      <path id="Trazado_633082" data-name="Trazado 633082" d="M54.477,16.609H50.25L49.512,19h-3.3L50.909,6.2h2.9L58.538,19H55.225Zm-3.489-2.382h2.751l-1.38-4.438ZM62.458,19H59.487V5.5h2.971ZM68.3,16.891a1.317,1.317,0,0,0,.967-.338,1.241,1.241,0,0,0,.334-.945h2.777a3.288,3.288,0,0,1-1.121,2.566,4.168,4.168,0,0,1-2.887,1,4.22,4.22,0,0,1-3.27-1.3,5.125,5.125,0,0,1-1.2-3.6v-.123A5.792,5.792,0,0,1,64.44,11.6a3.872,3.872,0,0,1,1.534-1.7,4.573,4.573,0,0,1,2.373-.593,4.116,4.116,0,0,1,2.944,1.028,3.647,3.647,0,0,1,1.09,2.786H69.6A1.626,1.626,0,0,0,69.243,12a1.244,1.244,0,0,0-.967-.4q-1.151,0-1.345,1.468a10.357,10.357,0,0,0-.062,1.283,4.068,4.068,0,0,0,.343,1.986A1.187,1.187,0,0,0,68.3,16.891ZM78.99,19a3.344,3.344,0,0,1-.281-.853,2.754,2.754,0,0,1-2.285,1.028,3.374,3.374,0,0,1-2.285-.813,2.588,2.588,0,0,1-.94-2.043,2.66,2.66,0,0,1,1.143-2.338,5.821,5.821,0,0,1,3.322-.791h.914v-.5q0-1.316-1.134-1.316a.927.927,0,0,0-1.055,1.042H73.427A2.655,2.655,0,0,1,74.6,10.175a4.931,4.931,0,0,1,2.993-.86,4.323,4.323,0,0,1,2.874.888,3.086,3.086,0,0,1,1.081,2.435v4.21a4.311,4.311,0,0,0,.4,2V19Zm-1.854-1.934a1.652,1.652,0,0,0,.918-.237,1.487,1.487,0,0,0,.523-.536V14.772h-.861q-1.547,0-1.547,1.389a.848.848,0,0,0,.272.655A.986.986,0,0,0,77.136,17.066ZM85.907,9.49l.1,1.116A3.225,3.225,0,0,1,88.72,9.314a2.713,2.713,0,0,1,2.219.888,4.226,4.226,0,0,1,.76,2.672V19H88.728V13a1.6,1.6,0,0,0-.29-1.059,1.342,1.342,0,0,0-1.055-.338,1.413,1.413,0,0,0-1.292.686V19H83.13V9.49Zm10.925,7.225h4.333V19H93.088V17.348l4.219-5.572H93.272V9.49h7.8v1.6ZM107.959,19a3.344,3.344,0,0,1-.281-.853,2.754,2.754,0,0,1-2.285,1.028,3.374,3.374,0,0,1-2.285-.813,2.588,2.588,0,0,1-.94-2.043,2.66,2.66,0,0,1,1.143-2.338,5.821,5.821,0,0,1,3.322-.791h.914v-.5q0-1.316-1.134-1.316a.927.927,0,0,0-1.055,1.042H102.4a2.655,2.655,0,0,1,1.173-2.239,4.931,4.931,0,0,1,2.993-.86,4.323,4.323,0,0,1,2.874.888,3.086,3.086,0,0,1,1.081,2.435v4.21a4.311,4.311,0,0,0,.4,2V19ZM106.1,17.066a1.652,1.652,0,0,0,.918-.237,1.487,1.487,0,0,0,.523-.536V14.772h-.861q-1.547,0-1.547,1.389a.848.848,0,0,0,.272.655A.986.986,0,0,0,106.1,17.066Zm14.88-2.742a5.8,5.8,0,0,1-.967,3.595,3.238,3.238,0,0,1-2.725,1.257,2.81,2.81,0,0,1-2.338-1.151l-.123.976h-2.654V5.5h2.962v4.755a2.711,2.711,0,0,1,2.136-.94,3.239,3.239,0,0,1,2.742,1.274,5.826,5.826,0,0,1,.967,3.586Zm-2.971-.189a3.866,3.866,0,0,0-.365-1.952,1.229,1.229,0,0,0-1.121-.584,1.418,1.418,0,0,0-1.389.763v3.773a1.426,1.426,0,0,0,1.406.755,1.258,1.258,0,0,0,1.327-1.018A7.309,7.309,0,0,0,118.014,14.135Zm7.4,4.865h-2.971V5.5h2.971Zm6.425.176a4.889,4.889,0,0,1-3.542-1.305,4.507,4.507,0,0,1-1.354-3.4v-.246a5.84,5.84,0,0,1,.541-2.575,3.955,3.955,0,0,1,1.578-1.727,4.763,4.763,0,0,1,2.461-.611,4.117,4.117,0,0,1,3.164,1.244,4.887,4.887,0,0,1,1.16,3.467v1.151h-5.889a2.135,2.135,0,0,0,.694,1.257,2.066,2.066,0,0,0,1.389.457,2.662,2.662,0,0,0,2.2-.984l1.354,1.6a3.784,3.784,0,0,1-1.569,1.217A5.3,5.3,0,0,1,131.839,19.176ZM131.5,11.6q-1.3,0-1.547,1.723h2.988v-.229a1.467,1.467,0,0,0-.36-1.1A1.434,1.434,0,0,0,131.5,11.6Zm10.512,4.729a.684.684,0,0,0-.4-.606,6.016,6.016,0,0,0-1.5-.475,6.853,6.853,0,0,1-1.828-.646,3.062,3.062,0,0,1-1.1-.971,2.319,2.319,0,0,1-.378-1.31,2.628,2.628,0,0,1,1.081-2.158,4.453,4.453,0,0,1,2.83-.848,4.934,4.934,0,0,1,3.023.853,2.666,2.666,0,0,1,1.143,2.241H141.92q0-1.143-1.2-1.143a1.194,1.194,0,0,0-.782.259.8.8,0,0,0-.316.646.737.737,0,0,0,.387.642,3.654,3.654,0,0,0,1.235.4,10.671,10.671,0,0,1,1.49.378,2.706,2.706,0,0,1,2.145,2.646,2.491,2.491,0,0,1-1.156,2.118,5.068,5.068,0,0,1-2.993.817,5.172,5.172,0,0,1-2.18-.439,3.645,3.645,0,0,1-1.494-1.2,2.707,2.707,0,0,1-.536-1.591h2.769a1.145,1.145,0,0,0,.439.962,1.808,1.808,0,0,0,1.081.3,1.422,1.422,0,0,0,.91-.246A.787.787,0,0,0,142.017,16.328Z" transform="translate(1010 969.004)" fill="#12263f"/>
      <path id="Trazado_633081" data-name="Trazado 633081" d="M63.477,6.2l2.856,8.9,2.848-8.9h4.061V19H70.148V16.012l.3-6.117L67.353,19H65.314l-3.1-9.114.3,6.126V19H59.426V6.2ZM79.667,19.176a4.889,4.889,0,0,1-3.542-1.305,4.507,4.507,0,0,1-1.354-3.4v-.246a5.84,5.84,0,0,1,.541-2.575A3.955,3.955,0,0,1,76.89,9.925a4.763,4.763,0,0,1,2.461-.611,4.117,4.117,0,0,1,3.164,1.244,4.887,4.887,0,0,1,1.16,3.467v1.151H77.786a2.135,2.135,0,0,0,.694,1.257,2.066,2.066,0,0,0,1.389.457,2.662,2.662,0,0,0,2.2-.984l1.354,1.6a3.784,3.784,0,0,1-1.569,1.217A5.3,5.3,0,0,1,79.667,19.176ZM79.333,11.6q-1.3,0-1.547,1.723h2.988v-.229a1.467,1.467,0,0,0-.36-1.1A1.434,1.434,0,0,0,79.333,11.6Zm5.159,2.575a5.809,5.809,0,0,1,.976-3.56,3.211,3.211,0,0,1,2.725-1.3,2.731,2.731,0,0,1,2.145,1V5.5h2.971V19H90.644L90.5,17.98a2.8,2.8,0,0,1-2.32,1.2,3.205,3.205,0,0,1-2.689-1.3A5.993,5.993,0,0,1,84.492,14.175Zm2.962.185q0,2.531,1.477,2.531a1.458,1.458,0,0,0,1.406-.826V12.443a1.419,1.419,0,0,0-1.389-.844q-1.371,0-1.485,2.215ZM98.115,19H95.144V9.49h2.971ZM94.969,7.038A1.322,1.322,0,0,1,95.426,6,1.943,1.943,0,0,1,97.8,6a1.322,1.322,0,0,1,.457,1.037A1.322,1.322,0,0,1,97.8,8.075a1.943,1.943,0,0,1-2.373,0A1.322,1.322,0,0,1,94.969,7.038Zm13.8,7.286a5.8,5.8,0,0,1-.967,3.595,3.238,3.238,0,0,1-2.725,1.257,2.81,2.81,0,0,1-2.338-1.151l-.123.976H99.961V5.5h2.962v4.755a2.711,2.711,0,0,1,2.136-.94,3.239,3.239,0,0,1,2.742,1.274,5.826,5.826,0,0,1,.967,3.586Zm-2.971-.189a3.866,3.866,0,0,0-.365-1.952,1.229,1.229,0,0,0-1.121-.584,1.418,1.418,0,0,0-1.389.763v3.773a1.426,1.426,0,0,0,1.406.755,1.258,1.258,0,0,0,1.327-1.018A7.309,7.309,0,0,0,105.8,14.135ZM113.2,19h-2.971V5.5H113.2Zm6.425.176a4.889,4.889,0,0,1-3.542-1.305,4.507,4.507,0,0,1-1.354-3.4v-.246a5.84,5.84,0,0,1,.541-2.575,3.955,3.955,0,0,1,1.578-1.727,4.763,4.763,0,0,1,2.461-.611,4.117,4.117,0,0,1,3.164,1.244,4.887,4.887,0,0,1,1.16,3.467v1.151h-5.889a2.135,2.135,0,0,0,.694,1.257,2.066,2.066,0,0,0,1.389.457,2.662,2.662,0,0,0,2.2-.984l1.354,1.6a3.784,3.784,0,0,1-1.569,1.217A5.3,5.3,0,0,1,119.622,19.176Zm-.334-7.576q-1.3,0-1.547,1.723h2.988v-.229a1.467,1.467,0,0,0-.36-1.1A1.434,1.434,0,0,0,119.288,11.6ZM129.8,16.328a.684.684,0,0,0-.4-.606,6.016,6.016,0,0,0-1.5-.475,6.853,6.853,0,0,1-1.828-.646,3.062,3.062,0,0,1-1.1-.971,2.319,2.319,0,0,1-.378-1.31,2.628,2.628,0,0,1,1.081-2.158,4.453,4.453,0,0,1,2.83-.848,4.934,4.934,0,0,1,3.023.853,2.666,2.666,0,0,1,1.143,2.241H129.7q0-1.143-1.2-1.143a1.194,1.194,0,0,0-.782.259.8.8,0,0,0-.316.646.737.737,0,0,0,.387.642,3.654,3.654,0,0,0,1.235.4,10.671,10.671,0,0,1,1.49.378,2.706,2.706,0,0,1,2.145,2.646,2.491,2.491,0,0,1-1.156,2.118,5.068,5.068,0,0,1-2.993.817,5.172,5.172,0,0,1-2.18-.439,3.645,3.645,0,0,1-1.494-1.2,2.707,2.707,0,0,1-.536-1.591h2.769a1.145,1.145,0,0,0,.439.962,1.808,1.808,0,0,0,1.081.3,1.422,1.422,0,0,0,.91-.246A.787.787,0,0,0,129.8,16.328Z" transform="translate(1009.042 883.004)" fill="#12263f"/>
    </g>
    <g id="Grupo_904297" data-name="Grupo 904297" transform="translate(-0.222 260.333)">
      <rect id="Rectángulo_302894" data-name="Rectángulo 302894" width="221.916" height="74.183" rx="17" transform="translate(994 737.821)" fill="#fecb2f"/>
      <rect id="Rectángulo_302895" data-name="Rectángulo 302895" width="221.916" height="74.183" rx="17" transform="translate(994 647.821)" fill="#fecb2f"/>
      <rect id="Rectángulo_302896" data-name="Rectángulo 302896" width="221.916" height="74.183" rx="17" transform="translate(994 557.821)" fill="#fecb2f"/>
      <path id="Trazado_633085" data-name="Trazado 633085" d="M85.419,12.865a7.546,7.546,0,0,1-.694,3.313A5.132,5.132,0,0,1,82.752,18.4a5.494,5.494,0,0,1-2.914.778,5.572,5.572,0,0,1-2.9-.751,5.123,5.123,0,0,1-1.973-2.149,7.329,7.329,0,0,1-.743-3.208v-.721a7.58,7.58,0,0,1,.69-3.318A5.119,5.119,0,0,1,76.89,6.81,5.854,5.854,0,0,1,82.721,6.8,5.211,5.211,0,0,1,84.7,9a7.362,7.362,0,0,1,.716,3.274Zm-3.138-.536a5.381,5.381,0,0,0-.637-2.9,2.044,2.044,0,0,0-1.824-.989q-2.32,0-2.452,3.48l-.009.94a5.535,5.535,0,0,0,.624,2.892,2.041,2.041,0,0,0,1.854,1.011,2.016,2.016,0,0,0,1.8-.993,5.383,5.383,0,0,0,.642-2.856Zm8.042-5.2V9.49h1.564v2.057H90.324V15.9a1.111,1.111,0,0,0,.193.747,1.037,1.037,0,0,0,.765.211,4.345,4.345,0,0,0,.738-.053v2.118a5.466,5.466,0,0,1-1.67.255,3.1,3.1,0,0,1-2.259-.721,2.954,2.954,0,0,1-.729-2.188v-4.72H86.149V9.49h1.213V7.126Zm8.481,5.045-.976-.07a1.752,1.752,0,0,0-1.793.879V19H93.075V9.49h2.777l.1,1.222a2.294,2.294,0,0,1,2.083-1.4,2.888,2.888,0,0,1,.826.105Zm.378,1.986a5.613,5.613,0,0,1,.554-2.536,3.96,3.96,0,0,1,1.591-1.709,4.791,4.791,0,0,1,2.435-.6,4.373,4.373,0,0,1,3.366,1.323,5.076,5.076,0,0,1,1.23,3.6v.105a4.925,4.925,0,0,1-1.235,3.529,4.384,4.384,0,0,1-3.344,1.305,4.434,4.434,0,0,1-3.261-1.217,4.761,4.761,0,0,1-1.327-3.3Zm2.962.185a3.538,3.538,0,0,0,.413,1.934,1.376,1.376,0,0,0,1.222.615q1.582,0,1.617-2.435v-.3q0-2.558-1.635-2.558-1.485,0-1.608,2.206Zm12.5,1.986a.684.684,0,0,0-.4-.606,6.016,6.016,0,0,0-1.5-.475,6.853,6.853,0,0,1-1.828-.646,3.062,3.062,0,0,1-1.1-.971,2.319,2.319,0,0,1-.378-1.31,2.628,2.628,0,0,1,1.081-2.158,4.453,4.453,0,0,1,2.83-.848,4.934,4.934,0,0,1,3.023.853,2.666,2.666,0,0,1,1.143,2.241h-2.971q0-1.143-1.2-1.143a1.194,1.194,0,0,0-.782.259.8.8,0,0,0-.316.646.737.737,0,0,0,.387.642,3.654,3.654,0,0,0,1.235.4,10.671,10.671,0,0,1,1.49.378A2.706,2.706,0,0,1,117.5,16.24a2.491,2.491,0,0,1-1.156,2.118,5.068,5.068,0,0,1-2.993.817,5.172,5.172,0,0,1-2.18-.439,3.645,3.645,0,0,1-1.494-1.2,2.707,2.707,0,0,1-.536-1.591h2.769a1.145,1.145,0,0,0,.439.962,1.808,1.808,0,0,0,1.081.3,1.422,1.422,0,0,0,.91-.246A.787.787,0,0,0,114.643,16.328Z" transform="translate(1009 763.82)" fill="#12263f"/>
      <path id="Trazado_633084" data-name="Trazado 633084" d="M60.177,14.667a4.673,4.673,0,0,1-.721,2.36,4.35,4.35,0,0,1-1.85,1.586,6.3,6.3,0,0,1-2.72.563,5.025,5.025,0,0,1-3.973-1.644,6.786,6.786,0,0,1-1.45-4.641v-.633a7.746,7.746,0,0,1,.655-3.292A4.961,4.961,0,0,1,52,6.788a5.26,5.26,0,0,1,2.848-.769A5.516,5.516,0,0,1,58.6,7.245,4.844,4.844,0,0,1,60.2,10.624H57.127a2.292,2.292,0,0,0-.589-1.679,2.422,2.422,0,0,0-1.687-.51,1.843,1.843,0,0,0-1.687.861,5.536,5.536,0,0,0-.562,2.751v.905a6.126,6.126,0,0,0,.514,2.927,1.882,1.882,0,0,0,1.771.879,2.369,2.369,0,0,0,1.626-.5,2.126,2.126,0,0,0,.6-1.591ZM66.857,19a3.344,3.344,0,0,1-.281-.853,2.754,2.754,0,0,1-2.285,1.028,3.374,3.374,0,0,1-2.285-.813,2.588,2.588,0,0,1-.94-2.043,2.66,2.66,0,0,1,1.143-2.338,5.821,5.821,0,0,1,3.322-.791h.914v-.5q0-1.316-1.134-1.316a.927.927,0,0,0-1.055,1.042H61.293a2.655,2.655,0,0,1,1.173-2.239,4.931,4.931,0,0,1,2.993-.86,4.323,4.323,0,0,1,2.874.888,3.086,3.086,0,0,1,1.081,2.435v4.21a4.311,4.311,0,0,0,.4,2V19ZM65,17.066a1.652,1.652,0,0,0,.918-.237,1.487,1.487,0,0,0,.523-.536V14.772h-.861q-1.547,0-1.547,1.389a.848.848,0,0,0,.272.655A.986.986,0,0,0,65,17.066ZM74.24,9.49v9.835a3.452,3.452,0,0,1-.967,2.6,3.714,3.714,0,0,1-2.672.914,6.308,6.308,0,0,1-1.4-.149V20.45a5.667,5.667,0,0,0,.835.079,1.084,1.084,0,0,0,1.23-1.222V9.49Zm-3.19-2.452A1.322,1.322,0,0,1,71.506,6a1.943,1.943,0,0,1,2.373,0,1.322,1.322,0,0,1,.457,1.037,1.322,1.322,0,0,1-.457,1.037,1.943,1.943,0,0,1-2.373,0A1.322,1.322,0,0,1,71.049,7.038ZM81.271,19a3.344,3.344,0,0,1-.281-.853A2.754,2.754,0,0,1,78.7,19.176a3.374,3.374,0,0,1-2.285-.813,2.588,2.588,0,0,1-.94-2.043,2.66,2.66,0,0,1,1.143-2.338,5.821,5.821,0,0,1,3.322-.791h.914v-.5q0-1.316-1.134-1.316a.927.927,0,0,0-1.055,1.042H75.707a2.655,2.655,0,0,1,1.173-2.239,4.931,4.931,0,0,1,2.993-.86,4.323,4.323,0,0,1,2.874.888,3.086,3.086,0,0,1,1.081,2.435v4.21a4.311,4.311,0,0,0,.4,2V19Zm-1.854-1.934a1.652,1.652,0,0,0,.918-.237,1.487,1.487,0,0,0,.523-.536V14.772H80q-1.547,0-1.547,1.389a.848.848,0,0,0,.272.655A.986.986,0,0,0,79.416,17.066Zm19.362-2.742a5.8,5.8,0,0,1-.967,3.595,3.238,3.238,0,0,1-2.725,1.257,2.81,2.81,0,0,1-2.338-1.151L92.626,19H89.972V5.5h2.962v4.755a2.711,2.711,0,0,1,2.136-.94,3.239,3.239,0,0,1,2.742,1.274,5.826,5.826,0,0,1,.967,3.586Zm-2.971-.189a3.866,3.866,0,0,0-.365-1.952,1.229,1.229,0,0,0-1.121-.584,1.418,1.418,0,0,0-1.389.763v3.773a1.426,1.426,0,0,0,1.406.755,1.258,1.258,0,0,0,1.327-1.018A7.309,7.309,0,0,0,95.808,14.135Zm7.4,4.865h-2.971V5.5h2.971Zm7.181,0a3.344,3.344,0,0,1-.281-.853,2.754,2.754,0,0,1-2.285,1.028,3.374,3.374,0,0,1-2.285-.813,2.588,2.588,0,0,1-.94-2.043,2.66,2.66,0,0,1,1.143-2.338,5.821,5.821,0,0,1,3.322-.791h.914v-.5q0-1.316-1.134-1.316a.927.927,0,0,0-1.055,1.042h-2.962A2.655,2.655,0,0,1,106,10.175a4.931,4.931,0,0,1,2.993-.86,4.323,4.323,0,0,1,2.874.888,3.086,3.086,0,0,1,1.081,2.435v4.21a4.311,4.311,0,0,0,.4,2V19Zm-1.854-1.934a1.652,1.652,0,0,0,.918-.237,1.487,1.487,0,0,0,.523-.536V14.772h-.861q-1.547,0-1.547,1.389a.848.848,0,0,0,.272.655A.986.986,0,0,0,108.535,17.066Zm8.771-7.576.1,1.116a3.225,3.225,0,0,1,2.716-1.292,2.713,2.713,0,0,1,2.219.888,4.226,4.226,0,0,1,.76,2.672V19h-2.971V13a1.6,1.6,0,0,0-.29-1.059,1.342,1.342,0,0,0-1.055-.338,1.413,1.413,0,0,0-1.292.686V19h-2.962V9.49Zm11.452,7.4a1.317,1.317,0,0,0,.967-.338,1.241,1.241,0,0,0,.334-.945h2.777a3.288,3.288,0,0,1-1.121,2.566,4.168,4.168,0,0,1-2.887,1,4.22,4.22,0,0,1-3.27-1.3,5.125,5.125,0,0,1-1.2-3.6v-.123A5.792,5.792,0,0,1,124.9,11.6a3.872,3.872,0,0,1,1.534-1.7,4.573,4.573,0,0,1,2.373-.593,4.116,4.116,0,0,1,2.944,1.028,3.647,3.647,0,0,1,1.09,2.786h-2.777A1.626,1.626,0,0,0,129.7,12a1.244,1.244,0,0,0-.967-.4q-1.151,0-1.345,1.468a10.357,10.357,0,0,0-.062,1.283,4.068,4.068,0,0,0,.343,1.986A1.187,1.187,0,0,0,128.758,16.891ZM139.446,19a3.344,3.344,0,0,1-.281-.853,2.754,2.754,0,0,1-2.285,1.028,3.374,3.374,0,0,1-2.285-.813,2.588,2.588,0,0,1-.94-2.043,2.66,2.66,0,0,1,1.143-2.338,5.821,5.821,0,0,1,3.322-.791h.914v-.5q0-1.316-1.134-1.316a.927.927,0,0,0-1.055,1.042h-2.962a2.655,2.655,0,0,1,1.173-2.239,4.931,4.931,0,0,1,2.993-.86,4.323,4.323,0,0,1,2.874.888A3.086,3.086,0,0,1,142,12.637v4.21a4.311,4.311,0,0,0,.4,2V19Zm-1.854-1.934a1.652,1.652,0,0,0,.918-.237,1.487,1.487,0,0,0,.523-.536V14.772h-.861q-1.547,0-1.547,1.389a.848.848,0,0,0,.272.655A.986.986,0,0,0,137.591,17.066Z" transform="translate(1009 673.82)" fill="#12263f"/>
      <path id="Trazado_633083" data-name="Trazado 633083" d="M63.816,14.667a4.673,4.673,0,0,1-.721,2.36,4.35,4.35,0,0,1-1.85,1.586,6.3,6.3,0,0,1-2.72.563,5.025,5.025,0,0,1-3.973-1.644,6.786,6.786,0,0,1-1.45-4.641v-.633a7.746,7.746,0,0,1,.655-3.292,4.961,4.961,0,0,1,1.885-2.18,5.26,5.26,0,0,1,2.848-.769,5.516,5.516,0,0,1,3.744,1.226,4.844,4.844,0,0,1,1.608,3.379H60.766a2.292,2.292,0,0,0-.589-1.679,2.422,2.422,0,0,0-1.687-.51A1.843,1.843,0,0,0,56.8,9.3a5.536,5.536,0,0,0-.562,2.751v.905a6.126,6.126,0,0,0,.514,2.927,1.882,1.882,0,0,0,1.771.879,2.369,2.369,0,0,0,1.626-.5,2.126,2.126,0,0,0,.6-1.591ZM70.5,19a3.344,3.344,0,0,1-.281-.853,2.754,2.754,0,0,1-2.285,1.028,3.374,3.374,0,0,1-2.285-.813,2.588,2.588,0,0,1-.94-2.043,2.66,2.66,0,0,1,1.143-2.338,5.821,5.821,0,0,1,3.322-.791h.914v-.5q0-1.316-1.134-1.316a.927.927,0,0,0-1.055,1.042H64.932a2.655,2.655,0,0,1,1.173-2.239,4.931,4.931,0,0,1,2.993-.86,4.323,4.323,0,0,1,2.874.888,3.086,3.086,0,0,1,1.081,2.435v4.21a4.311,4.311,0,0,0,.4,2V19Zm-1.854-1.934a1.652,1.652,0,0,0,.918-.237,1.487,1.487,0,0,0,.523-.536V14.772h-.861q-1.547,0-1.547,1.389a.848.848,0,0,0,.272.655A.986.986,0,0,0,68.641,17.066ZM77.878,9.49v9.835a3.452,3.452,0,0,1-.967,2.6,3.714,3.714,0,0,1-2.672.914,6.308,6.308,0,0,1-1.4-.149V20.45a5.667,5.667,0,0,0,.835.079,1.084,1.084,0,0,0,1.23-1.222V9.49Zm-3.19-2.452A1.322,1.322,0,0,1,75.145,6a1.943,1.943,0,0,1,2.373,0,1.322,1.322,0,0,1,.457,1.037,1.322,1.322,0,0,1-.457,1.037,1.943,1.943,0,0,1-2.373,0A1.322,1.322,0,0,1,74.688,7.038ZM84.91,19a3.344,3.344,0,0,1-.281-.853,2.754,2.754,0,0,1-2.285,1.028,3.374,3.374,0,0,1-2.285-.813,2.588,2.588,0,0,1-.94-2.043,2.66,2.66,0,0,1,1.143-2.338,5.821,5.821,0,0,1,3.322-.791H84.5v-.5q0-1.316-1.134-1.316a.927.927,0,0,0-1.055,1.042H79.346a2.655,2.655,0,0,1,1.173-2.239,4.931,4.931,0,0,1,2.993-.86,4.323,4.323,0,0,1,2.874.888,3.086,3.086,0,0,1,1.081,2.435v4.21a4.311,4.311,0,0,0,.4,2V19Zm-1.854-1.934a1.652,1.652,0,0,0,.918-.237,1.487,1.487,0,0,0,.523-.536V14.772h-.861q-1.547,0-1.547,1.389a.848.848,0,0,0,.272.655A.986.986,0,0,0,83.055,17.066ZM96.309,9.49l.1,1.116a3.225,3.225,0,0,1,2.716-1.292,2.713,2.713,0,0,1,2.219.888,4.226,4.226,0,0,1,.76,2.672V19H99.13V13a1.6,1.6,0,0,0-.29-1.059,1.342,1.342,0,0,0-1.055-.338,1.413,1.413,0,0,0-1.292.686V19H93.532V9.49Zm12.032,9.686a4.889,4.889,0,0,1-3.542-1.305,4.507,4.507,0,0,1-1.354-3.4v-.246a5.84,5.84,0,0,1,.541-2.575,3.955,3.955,0,0,1,1.578-1.727,4.763,4.763,0,0,1,2.461-.611,4.117,4.117,0,0,1,3.164,1.244,4.887,4.887,0,0,1,1.16,3.467v1.151H106.46a2.135,2.135,0,0,0,.694,1.257,2.066,2.066,0,0,0,1.389.457,2.662,2.662,0,0,0,2.2-.984l1.354,1.6a3.784,3.784,0,0,1-1.569,1.217A5.3,5.3,0,0,1,108.341,19.176Zm-.334-7.576q-1.3,0-1.547,1.723h2.988v-.229a1.467,1.467,0,0,0-.36-1.1A1.434,1.434,0,0,0,108.007,11.6Zm5.186,2.575a6.421,6.421,0,0,1,.475-2.549,3.821,3.821,0,0,1,1.362-1.709,3.591,3.591,0,0,1,2.065-.6,2.855,2.855,0,0,1,2.32,1l.105-.826h2.689V18.64a4.009,4.009,0,0,1-.584,2.184,3.75,3.75,0,0,1-1.692,1.424,6.219,6.219,0,0,1-2.566.5,5.365,5.365,0,0,1-2.026-.4,3.657,3.657,0,0,1-1.5-1.028l1.239-1.74a2.716,2.716,0,0,0,2.18.976,1.764,1.764,0,0,0,1.969-2.021v-.3a2.781,2.781,0,0,1-2.153.94,3.437,3.437,0,0,1-2.812-1.332,5.517,5.517,0,0,1-1.072-3.564Zm2.971.185a3.383,3.383,0,0,0,.439,1.85,1.387,1.387,0,0,0,1.23.681,1.573,1.573,0,0,0,1.4-.642v-4a1.534,1.534,0,0,0-1.38-.65,1.4,1.4,0,0,0-1.239.708A3.858,3.858,0,0,0,116.163,14.359Zm13.482-2.188-.976-.07a1.752,1.752,0,0,0-1.793.879V19h-2.962V9.49h2.777l.1,1.222a2.294,2.294,0,0,1,2.083-1.4,2.888,2.888,0,0,1,.826.105ZM135.807,19a3.344,3.344,0,0,1-.281-.853,2.754,2.754,0,0,1-2.285,1.028,3.374,3.374,0,0,1-2.285-.813,2.588,2.588,0,0,1-.94-2.043,2.66,2.66,0,0,1,1.143-2.338,5.821,5.821,0,0,1,3.322-.791h.914v-.5q0-1.316-1.134-1.316a.927.927,0,0,0-1.055,1.042h-2.962a2.655,2.655,0,0,1,1.173-2.239,4.931,4.931,0,0,1,2.993-.86,4.323,4.323,0,0,1,2.874.888,3.086,3.086,0,0,1,1.081,2.435v4.21a4.311,4.311,0,0,0,.4,2V19Zm-1.854-1.934a1.652,1.652,0,0,0,.918-.237,1.487,1.487,0,0,0,.523-.536V14.772h-.861q-1.547,0-1.547,1.389a.848.848,0,0,0,.272.655A.986.986,0,0,0,133.953,17.066Z" transform="translate(1009 583.82)" fill="#12263f"/>
    </g>
    <g id="Grupo_897588" data-name="Grupo 897588" transform="translate(687.185 692.502)">
      <path id="Trazado_183765" data-name="Trazado 183765" d="M0,0V22.707H234.773V0" transform="translate(22.707 8.092) rotate(90)" fill="none" stroke="#707070" stroke-width="1"/>
      <g id="Polígono_26" data-name="Polígono 26" transform="translate(29.815) rotate(90)" fill="#707070">
        <path d="M 15.3069896697998 13.12977981567383 L 0.8783723711967468 13.12977981567383 L 8.092680931091309 0.9793622493743896 L 15.3069896697998 13.12977981567383 Z" stroke="none"/>
        <path d="M 8.092680931091309 1.958707809448242 L 1.756733894348145 12.62977981567383 L 14.42862796783447 12.62977981567383 L 8.092680931091309 1.958707809448242 M 8.092680931091309 -9.5367431640625e-07 L 16.18536186218262 13.62977981567383 L 0 13.62977981567383 L 8.092680931091309 -9.5367431640625e-07 Z" stroke="none" fill="#707070"/>
      </g>
      <g id="Polígono_27" data-name="Polígono 27" transform="translate(29.815 235.559) rotate(90)" fill="#707070">
        <path d="M 15.3069896697998 13.12977981567383 L 0.8783723711967468 13.12977981567383 L 8.092680931091309 0.9793622493743896 L 15.3069896697998 13.12977981567383 Z" stroke="none"/>
        <path d="M 8.092680931091309 1.958707809448242 L 1.756733894348145 12.62977981567383 L 14.42862796783447 12.62977981567383 L 8.092680931091309 1.958707809448242 M 8.092680931091309 -9.5367431640625e-07 L 16.18536186218262 13.62977981567383 L 0 13.62977981567383 L 8.092680931091309 -9.5367431640625e-07 Z" stroke="none" fill="#707070"/>
      </g>
    </g>
    <g id="Grupo_901585" data-name="Grupo 901585" transform="translate(964.861 650.707)">
      <path id="Trazado_183765-2" data-name="Trazado 183765" d="M0,0V22.707H90.44V0" transform="translate(22.707 8.092) rotate(90)" fill="none" stroke="#707070" stroke-width="1"/>
      <g id="Polígono_26-2" data-name="Polígono 26" transform="translate(29.815) rotate(90)" fill="#707070">
        <path d="M 15.3069896697998 13.12977981567383 L 0.8783723711967468 13.12977981567383 L 8.092680931091309 0.9793622493743896 L 15.3069896697998 13.12977981567383 Z" stroke="none"/>
        <path d="M 8.092680931091309 1.958707809448242 L 1.756733894348145 12.62977981567383 L 14.42862796783447 12.62977981567383 L 8.092680931091309 1.958707809448242 M 8.092680931091309 -9.5367431640625e-07 L 16.18536186218262 13.62977981567383 L 0 13.62977981567383 L 8.092680931091309 -9.5367431640625e-07 Z" stroke="none" fill="#707070"/>
      </g>
      <g id="Polígono_27-2" data-name="Polígono 27" transform="translate(29.815 91.226) rotate(90)" fill="#707070">
        <path d="M 15.3069896697998 13.12977981567383 L 0.8783723711967468 13.12977981567383 L 8.092680931091309 0.9793622493743896 L 15.3069896697998 13.12977981567383 Z" stroke="none"/>
        <path d="M 8.092680931091309 1.958707809448242 L 1.756733894348145 12.62977981567383 L 14.42862796783447 12.62977981567383 L 8.092680931091309 1.958707809448242 M 8.092680931091309 -9.5367431640625e-07 L 16.18536186218262 13.62977981567383 L 0 13.62977981567383 L 8.092680931091309 -9.5367431640625e-07 Z" stroke="none" fill="#707070"/>
      </g>
    </g>
    <g id="Grupo_901580" data-name="Grupo 901580" transform="translate(687.819 1120.088)">
      <path id="Trazado_183765-3" data-name="Trazado 183765" d="M0,0V22.707H176.44V0" transform="translate(22.707 8.092) rotate(90)" fill="none" stroke="#707070" stroke-width="1"/>
      <g id="Polígono_26-3" data-name="Polígono 26" transform="translate(29.815) rotate(90)" fill="#707070">
        <path d="M 15.3069896697998 13.12977981567383 L 0.8783723711967468 13.12977981567383 L 8.092680931091309 0.9793622493743896 L 15.3069896697998 13.12977981567383 Z" stroke="none"/>
        <path d="M 8.092680931091309 1.958707809448242 L 1.756733894348145 12.62977981567383 L 14.42862796783447 12.62977981567383 L 8.092680931091309 1.958707809448242 M 8.092680931091309 -9.5367431640625e-07 L 16.18536186218262 13.62977981567383 L 0 13.62977981567383 L 8.092680931091309 -9.5367431640625e-07 Z" stroke="none" fill="#707070"/>
      </g>
      <g id="Polígono_27-3" data-name="Polígono 27" transform="translate(29.815 177.226) rotate(90)" fill="#707070">
        <path d="M 15.3069896697998 13.12977981567383 L 0.8783723711967468 13.12977981567383 L 8.092680931091309 0.9793622493743896 L 15.3069896697998 13.12977981567383 Z" stroke="none"/>
        <path d="M 8.092680931091309 1.958707809448242 L 1.756733894348145 12.62977981567383 L 14.42862796783447 12.62977981567383 L 8.092680931091309 1.958707809448242 M 8.092680931091309 -9.5367431640625e-07 L 16.18536186218262 13.62977981567383 L 0 13.62977981567383 L 8.092680931091309 -9.5367431640625e-07 Z" stroke="none" fill="#707070"/>
      </g>
    </g>
    <g id="Grupo_904298" data-name="Grupo 904298" transform="translate(963.963 848.45)">
      <path id="Trazado_183765-4" data-name="Trazado 183765" d="M0,0V22.707H176.44V0" transform="translate(22.707 8.092) rotate(90)" fill="none" stroke="#707070" stroke-width="1"/>
      <g id="Polígono_26-4" data-name="Polígono 26" transform="translate(29.815) rotate(90)" fill="#707070">
        <path d="M 15.3069896697998 13.12977981567383 L 0.8783723711967468 13.12977981567383 L 8.092680931091309 0.9793622493743896 L 15.3069896697998 13.12977981567383 Z" stroke="none"/>
        <path d="M 8.092680931091309 1.958707809448242 L 1.756733894348145 12.62977981567383 L 14.42862796783447 12.62977981567383 L 8.092680931091309 1.958707809448242 M 8.092680931091309 -9.5367431640625e-07 L 16.18536186218262 13.62977981567383 L 0 13.62977981567383 L 8.092680931091309 -9.5367431640625e-07 Z" stroke="none" fill="#707070"/>
      </g>
      <g id="Polígono_27-4" data-name="Polígono 27" transform="translate(29.815 177.226) rotate(90)" fill="#707070">
        <path d="M 15.3069896697998 13.12977981567383 L 0.8783723711967468 13.12977981567383 L 8.092680931091309 0.9793622493743896 L 15.3069896697998 13.12977981567383 Z" stroke="none"/>
        <path d="M 8.092680931091309 1.958707809448242 L 1.756733894348145 12.62977981567383 L 14.42862796783447 12.62977981567383 L 8.092680931091309 1.958707809448242 M 8.092680931091309 -9.5367431640625e-07 L 16.18536186218262 13.62977981567383 L 0 13.62977981567383 L 8.092680931091309 -9.5367431640625e-07 Z" stroke="none" fill="#707070"/>
      </g>
    </g>
    <g id="Grupo_897588-2" data-name="Grupo 897588" transform="translate(410.406 850.774)">
      <path id="Trazado_183765-5" data-name="Trazado 183765" d="M0,0H242.846V.039" transform="translate(0 8.093) rotate(90)" fill="none" stroke="#707070" stroke-width="1"/>
    </g>
    <path id="Trazado_183774" data-name="Trazado 183774" d="M0,0V170.908" transform="translate(410.406 1098.005)" fill="none" stroke="#707070" stroke-width="1"/>
    <g id="Grupo_897588-3" data-name="Grupo 897588" transform="translate(410.368 1207.115)">
      <path id="Trazado_183765-6" data-name="Trazado 183765" d="M0,0V22.707H239.161V0" transform="translate(22.707 8.092) rotate(90)" fill="none" stroke="#707070" stroke-width="1"/>
      <g id="Polígono_26-5" data-name="Polígono 26" transform="translate(30.631) rotate(90)" fill="#707070">
        <path d="M 15.3069896697998 13.12977981567383 L 0.8783723711967468 13.12977981567383 L 8.092680931091309 0.9793622493743896 L 15.3069896697998 13.12977981567383 Z" stroke="none"/>
        <path d="M 8.092680931091309 1.958707809448242 L 1.756733894348145 12.62977981567383 L 14.42862796783447 12.62977981567383 L 8.092680931091309 1.958707809448242 M 8.092680931091309 -9.5367431640625e-07 L 16.18536186218262 13.62977981567383 L 0 13.62977981567383 L 8.092680931091309 -9.5367431640625e-07 Z" stroke="none" fill="#707070"/>
      </g>
      <g id="Polígono_27-5" data-name="Polígono 27" transform="translate(30.631 239.946) rotate(90)" fill="#707070">
        <path d="M 15.3069896697998 13.12977981567383 L 0.8783723711967468 13.12977981567383 L 8.092680931091309 0.9793622493743896 L 15.3069896697998 13.12977981567383 Z" stroke="none"/>
        <path d="M 8.092680931091309 1.958707809448242 L 1.756733894348145 12.62977981567383 L 14.42862796783447 12.62977981567383 L 8.092680931091309 1.958707809448242 M 8.092680931091309 -9.5367431640625e-07 L 16.18536186218262 13.62977981567383 L 0 13.62977981567383 L 8.092680931091309 -9.5367431640625e-07 Z" stroke="none" fill="#707070"/>
      </g>
    </g>
    <g id="Grupo_897602" data-name="Grupo 897602" transform="translate(381.017 1146.321)">
      <g id="Polígono_28" data-name="Polígono 28" transform="translate(29.389) rotate(90)" fill="#707070">
        <path d="M 15.3069896697998 13.12977981567383 L 0.8783723711967468 13.12977981567383 L 8.092680931091309 0.9793622493743896 L 15.3069896697998 13.12977981567383 Z" stroke="none"/>
        <path d="M 8.092680931091309 1.958707809448242 L 1.756733894348145 12.62977981567383 L 14.42862796783447 12.62977981567383 L 8.092680931091309 1.958707809448242 M 8.092680931091309 -9.5367431640625e-07 L 16.18536186218262 13.62977981567383 L 0 13.62977981567383 L 8.092680931091309 -9.5367431640625e-07 Z" stroke="none" fill="#707070"/>
      </g>
      <path id="Trazado_183774-2" data-name="Trazado 183774" d="M0,0V64.48" transform="translate(-39.35 8.093) rotate(-90)" fill="none" stroke="#707070" stroke-width="1"/>
    </g>
    <rect id="Rectángulo_302233" data-name="Rectángulo 302233" width="204.916" height="82.879" rx="13" transform="translate(148.221 1089.913)" fill="#ef3c79"/>
    <path id="Trazado_633074" data-name="Trazado 633074" d="M16.522,18.344h-4.7L11,21H7.343L12.557,6.781H15.78L21.034,21H17.352ZM12.645,15.7H15.7l-1.533-4.932Zm11.826-5.264.107,1.24A3.583,3.583,0,0,1,27.6,10.238a3.015,3.015,0,0,1,2.466.986,4.7,4.7,0,0,1,.845,2.969V21h-3.3V14.33a1.783,1.783,0,0,0-.322-1.177,1.491,1.491,0,0,0-1.172-.376,1.569,1.569,0,0,0-1.436.762V21H21.386V10.434ZM38.68,21a3.716,3.716,0,0,1-.312-.947A3.06,3.06,0,0,1,35.829,21.2a3.749,3.749,0,0,1-2.539-.9,2.875,2.875,0,0,1-1.045-2.271,2.955,2.955,0,0,1,1.27-2.6,6.468,6.468,0,0,1,3.691-.879h1.016v-.559q0-1.462-1.26-1.462a1.03,1.03,0,0,0-1.172,1.158H32.5a2.95,2.95,0,0,1,1.3-2.487,5.479,5.479,0,0,1,3.325-.956,4.8,4.8,0,0,1,3.193.986,3.429,3.429,0,0,1,1.2,2.705v4.678a4.79,4.79,0,0,0,.449,2.227V21ZM36.62,18.852a1.836,1.836,0,0,0,1.021-.264,1.653,1.653,0,0,0,.581-.6V16.3h-.957q-1.719,0-1.719,1.543a.942.942,0,0,0,.3.728A1.1,1.1,0,0,0,36.62,18.852ZM37.44,6h3.477L38.2,9.066l-2.686,0Zm9.375,15h-3.3V6h3.3Zm5.5,0h-3.3V10.434h3.3Zm-3.5-13.291a1.469,1.469,0,0,1,.508-1.152,2.159,2.159,0,0,1,2.637,0,1.469,1.469,0,0,1,.508,1.152,1.469,1.469,0,0,1-.508,1.152,2.159,2.159,0,0,1-2.637,0A1.469,1.469,0,0,1,48.817,7.709ZM59.872,18.031a.76.76,0,0,0-.439-.674,6.684,6.684,0,0,0-1.67-.527,7.615,7.615,0,0,1-2.031-.718,3.4,3.4,0,0,1-1.221-1.079,2.577,2.577,0,0,1-.42-1.455,2.92,2.92,0,0,1,1.2-2.4,4.948,4.948,0,0,1,3.145-.942,5.482,5.482,0,0,1,3.359.947,2.962,2.962,0,0,1,1.27,2.49h-3.3q0-1.27-1.338-1.27a1.326,1.326,0,0,0-.869.288.892.892,0,0,0-.352.718.819.819,0,0,0,.43.713,4.06,4.06,0,0,0,1.372.449,11.857,11.857,0,0,1,1.655.42,3.007,3.007,0,0,1,2.383,2.939,2.767,2.767,0,0,1-1.284,2.354,5.632,5.632,0,0,1-3.325.908,5.747,5.747,0,0,1-2.422-.488,4.05,4.05,0,0,1-1.66-1.328,3.007,3.007,0,0,1-.6-1.768h3.076a1.272,1.272,0,0,0,.488,1.069,2.009,2.009,0,0,0,1.2.337,1.58,1.58,0,0,0,1.011-.273A.875.875,0,0,0,59.872,18.031ZM68.055,21h-3.3V10.434h3.3Zm-3.5-13.291a1.469,1.469,0,0,1,.508-1.152,2.159,2.159,0,0,1,2.637,0,1.469,1.469,0,0,1,.508,1.152A1.469,1.469,0,0,1,67.7,8.861a2.159,2.159,0,0,1-2.637,0A1.469,1.469,0,0,1,64.559,7.709ZM75.614,18.031a.76.76,0,0,0-.439-.674,6.684,6.684,0,0,0-1.67-.527,7.615,7.615,0,0,1-2.031-.718,3.4,3.4,0,0,1-1.221-1.079,2.577,2.577,0,0,1-.42-1.455,2.92,2.92,0,0,1,1.2-2.4,4.948,4.948,0,0,1,3.145-.942,5.482,5.482,0,0,1,3.359.947,2.962,2.962,0,0,1,1.27,2.49h-3.3q0-1.27-1.338-1.27a1.326,1.326,0,0,0-.869.288.892.892,0,0,0-.352.718.819.819,0,0,0,.43.713,4.06,4.06,0,0,0,1.372.449,11.857,11.857,0,0,1,1.655.42,3.007,3.007,0,0,1,2.383,2.939A2.767,2.767,0,0,1,77.5,20.287a5.631,5.631,0,0,1-3.325.908,5.747,5.747,0,0,1-2.422-.488,4.05,4.05,0,0,1-1.66-1.328,3.007,3.007,0,0,1-.6-1.768h3.076a1.272,1.272,0,0,0,.488,1.069,2.009,2.009,0,0,0,1.2.337,1.58,1.58,0,0,0,1.011-.273A.875.875,0,0,0,75.614,18.031Zm9.277-2.393a6.455,6.455,0,0,1,1.084-3.955A3.568,3.568,0,0,1,89,10.238a3.035,3.035,0,0,1,2.383,1.113V6h3.3V21H91.727l-.166-1.133A3.116,3.116,0,0,1,88.983,21.2a3.562,3.562,0,0,1-2.988-1.445A6.659,6.659,0,0,1,84.891,15.639Zm3.291.205q0,2.813,1.641,2.813a1.62,1.62,0,0,0,1.563-.918V13.715a1.576,1.576,0,0,0-1.543-.937q-1.523,0-1.65,2.461ZM101.669,21.2a5.432,5.432,0,0,1-3.936-1.45,5.008,5.008,0,0,1-1.5-3.774V15.7a6.489,6.489,0,0,1,.6-2.861,4.395,4.395,0,0,1,1.753-1.919,5.292,5.292,0,0,1,2.734-.679,4.574,4.574,0,0,1,3.516,1.382,5.43,5.43,0,0,1,1.289,3.853v1.279H99.579a2.372,2.372,0,0,0,.771,1.4,2.3,2.3,0,0,0,1.543.508,2.958,2.958,0,0,0,2.441-1.094l1.5,1.777a4.2,4.2,0,0,1-1.743,1.353A5.891,5.891,0,0,1,101.669,21.2Zm-.371-8.418q-1.445,0-1.719,1.914h3.32v-.254a1.63,1.63,0,0,0-.4-1.226A1.593,1.593,0,0,0,101.3,12.777Zm20.938,3.018a6.372,6.372,0,0,1-1.108,3.931,3.554,3.554,0,0,1-2.993,1.47,3.046,3.046,0,0,1-2.393-1.064v4.932H112.45V10.434h3.076l.1.977a3.046,3.046,0,0,1,2.49-1.172,3.582,3.582,0,0,1,3.037,1.44,6.45,6.45,0,0,1,1.084,3.96Zm-3.291-.205q0-2.812-1.641-2.812a1.549,1.549,0,0,0-1.562.84v4.16a1.6,1.6,0,0,0,1.582.879q1.572,0,1.621-2.715Zm11.133-2.178-1.084-.078a1.947,1.947,0,0,0-1.992.977V21H123.71V10.434H126.8l.107,1.357a2.548,2.548,0,0,1,2.314-1.553,3.209,3.209,0,0,1,.918.117Zm7.48,6.445a3.393,3.393,0,0,1-2.822,1.338,3.328,3.328,0,0,1-2.632-1.011,4.251,4.251,0,0,1-.894-2.905V10.434H134.5V17.3a1.183,1.183,0,0,0,1.318,1.357,1.72,1.72,0,0,0,1.611-.811V10.434h3.311V21h-3.086Zm10.1,1.338a5.432,5.432,0,0,1-3.936-1.45,5.008,5.008,0,0,1-1.5-3.774V15.7a6.489,6.489,0,0,1,.6-2.861,4.395,4.395,0,0,1,1.753-1.919,5.292,5.292,0,0,1,2.734-.679,4.574,4.574,0,0,1,3.516,1.382,5.43,5.43,0,0,1,1.289,3.853v1.279h-6.543a2.372,2.372,0,0,0,.771,1.4,2.3,2.3,0,0,0,1.543.508,2.958,2.958,0,0,0,2.441-1.094l1.5,1.777a4.2,4.2,0,0,1-1.743,1.353A5.891,5.891,0,0,1,147.655,21.2Zm-.371-8.418q-1.445,0-1.719,1.914h3.32v-.254a1.63,1.63,0,0,0-.4-1.226A1.593,1.593,0,0,0,147.284,12.777ZM163.241,15.8a6.44,6.44,0,0,1-1.074,3.994,3.6,3.6,0,0,1-3.027,1.4,3.122,3.122,0,0,1-2.6-1.279L156.405,21h-2.949V6h3.291v5.283a3.013,3.013,0,0,1,2.373-1.045,3.6,3.6,0,0,1,3.047,1.416,6.473,6.473,0,0,1,1.074,3.984Zm-3.3-.21a4.3,4.3,0,0,0-.405-2.169,1.366,1.366,0,0,0-1.245-.648,1.576,1.576,0,0,0-1.543.848v4.192a1.585,1.585,0,0,0,1.563.838,1.4,1.4,0,0,0,1.475-1.131A8.121,8.121,0,0,0,159.94,15.595ZM170.643,21a3.716,3.716,0,0,1-.312-.947,3.06,3.06,0,0,1-2.539,1.143,3.749,3.749,0,0,1-2.539-.9,2.875,2.875,0,0,1-1.045-2.271,2.955,2.955,0,0,1,1.27-2.6,6.468,6.468,0,0,1,3.691-.879h1.016v-.559q0-1.462-1.26-1.462a1.03,1.03,0,0,0-1.172,1.158h-3.291a2.95,2.95,0,0,1,1.3-2.487,5.479,5.479,0,0,1,3.325-.956,4.8,4.8,0,0,1,3.193.986,3.429,3.429,0,0,1,1.2,2.705v4.678a4.79,4.79,0,0,0,.449,2.227V21Zm-2.061-2.148a1.836,1.836,0,0,0,1.021-.264,1.653,1.653,0,0,0,.581-.6V16.3h-.957q-1.719,0-1.719,1.543a.942.942,0,0,0,.3.728A1.1,1.1,0,0,0,168.583,18.852Zm12.256-.82a.76.76,0,0,0-.439-.674,6.684,6.684,0,0,0-1.67-.527,7.615,7.615,0,0,1-2.031-.718,3.4,3.4,0,0,1-1.221-1.079,2.577,2.577,0,0,1-.42-1.455,2.92,2.92,0,0,1,1.2-2.4,4.948,4.948,0,0,1,3.145-.942,5.482,5.482,0,0,1,3.359.947,2.962,2.962,0,0,1,1.27,2.49h-3.3q0-1.27-1.338-1.27a1.326,1.326,0,0,0-.869.288.892.892,0,0,0-.352.718.819.819,0,0,0,.43.713,4.06,4.06,0,0,0,1.372.449,11.857,11.857,0,0,1,1.655.42,3.007,3.007,0,0,1,2.383,2.939,2.767,2.767,0,0,1-1.284,2.354,5.632,5.632,0,0,1-3.325.908,5.747,5.747,0,0,1-2.422-.488,4.05,4.05,0,0,1-1.66-1.328,3.007,3.007,0,0,1-.6-1.768H177.8a1.272,1.272,0,0,0,.488,1.069,2.009,2.009,0,0,0,1.2.337,1.58,1.58,0,0,0,1.011-.273A.875.875,0,0,0,180.839,18.031Z" transform="translate(154.406 1112.913)" fill="#fff"/>
    <g id="Grupo_901576" data-name="Grupo 901576" transform="translate(657.795 848.82)">
      <g id="Polígono_28-2" data-name="Polígono 28" transform="translate(29.389) rotate(90)" fill="#707070">
        <path d="M 15.3069896697998 13.12977981567383 L 0.8783723711967468 13.12977981567383 L 8.092680931091309 0.9793622493743896 L 15.3069896697998 13.12977981567383 Z" stroke="none"/>
        <path d="M 8.092680931091309 1.958707809448242 L 1.756733894348145 12.62977981567383 L 14.42862796783447 12.62977981567383 L 8.092680931091309 1.958707809448242 M 8.092680931091309 -9.5367431640625e-07 L 16.18536186218262 13.62977981567383 L 0 13.62977981567383 L 8.092680931091309 -9.5367431640625e-07 Z" stroke="none" fill="#707070"/>
      </g>
      <path id="Trazado_183774-3" data-name="Trazado 183774" d="M0,0V64.48" transform="translate(-39.35 8.093) rotate(-90)" fill="none" stroke="#707070" stroke-width="1"/>
    </g>
    <g id="Grupo_901584" data-name="Grupo 901584" transform="translate(935.472 696.319)">
      <g id="Polígono_28-3" data-name="Polígono 28" transform="translate(29.389) rotate(90)" fill="#707070">
        <path d="M 15.3069896697998 13.12977981567383 L 0.8783723711967468 13.12977981567383 L 8.092680931091309 0.9793622493743896 L 15.3069896697998 13.12977981567383 Z" stroke="none"/>
        <path d="M 8.092680931091309 1.958707809448242 L 1.756733894348145 12.62977981567383 L 14.42862796783447 12.62977981567383 L 8.092680931091309 1.958707809448242 M 8.092680931091309 -9.5367431640625e-07 L 16.18536186218262 13.62977981567383 L 0 13.62977981567383 L 8.092680931091309 -9.5367431640625e-07 Z" stroke="none" fill="#707070"/>
      </g>
      <path id="Trazado_183774-4" data-name="Trazado 183774" d="M0,0V64.48" transform="translate(-39.35 8.093) rotate(-90)" fill="none" stroke="#707070" stroke-width="1"/>
    </g>
    <g id="Grupo_901579" data-name="Grupo 901579" transform="translate(686.984 1440.821)">
      <g id="Polígono_28-4" data-name="Polígono 28" transform="translate(29.389) rotate(90)" fill="#707070">
        <path d="M 15.3069896697998 13.12977981567383 L 0.8783723711967468 13.12977981567383 L 8.092680931091309 0.9793622493743896 L 15.3069896697998 13.12977981567383 Z" stroke="none"/>
        <path d="M 8.092680931091309 1.958707809448242 L 1.756733894348145 12.62977981567383 L 14.42862796783447 12.62977981567383 L 8.092680931091309 1.958707809448242 M 8.092680931091309 -9.5367431640625e-07 L 16.18536186218262 13.62977981567383 L 0 13.62977981567383 L 8.092680931091309 -9.5367431640625e-07 Z" stroke="none" fill="#707070"/>
      </g>
      <path id="Trazado_183774-5" data-name="Trazado 183774" d="M0,0V64.48" transform="translate(-39.35 8.093) rotate(-90)" fill="none" stroke="#707070" stroke-width="1"/>
    </g>
    <g id="Grupo_901581" data-name="Grupo 901581" transform="translate(686.984 1207.499)">
      <g id="Polígono_28-5" data-name="Polígono 28" transform="translate(29.389) rotate(90)" fill="#707070">
        <path d="M 15.3069896697998 13.12977981567383 L 0.8783723711967468 13.12977981567383 L 8.092680931091309 0.9793622493743896 L 15.3069896697998 13.12977981567383 Z" stroke="none"/>
        <path d="M 8.092680931091309 1.958707809448242 L 1.756733894348145 12.62977981567383 L 14.42862796783447 12.62977981567383 L 8.092680931091309 1.958707809448242 M 8.092680931091309 -9.5367431640625e-07 L 16.18536186218262 13.62977981567383 L 0 13.62977981567383 L 8.092680931091309 -9.5367431640625e-07 Z" stroke="none" fill="#707070"/>
      </g>
      <g id="Trazado_629072" data-name="Trazado 629072" transform="translate(1.389) rotate(90)" fill="#707070">
        <path d="M16.185,13.63h0Z" stroke="none"/>
        <path d="M 0 13.62977886199951 L 16.18536186218262 13.62977886199951 L 0 13.62977886199951 Z" stroke="none" fill="#707070"/>
      </g>
      <path id="Trazado_183774-6" data-name="Trazado 183774" d="M0,0V64.48" transform="translate(-39.35 8.093) rotate(-90)" fill="none" stroke="#707070" stroke-width="1"/>
    </g>
    <g id="Grupo_904296" data-name="Grupo 904296" transform="translate(428.203 852.728)">
      <g id="Polígono_28-6" data-name="Polígono 28" transform="translate(12.796) rotate(90)" fill="#707070">
        <path d="M 11.3999490737915 9.839639663696289 L 0.8783716559410095 9.839639663696289 L 6.13916015625 0.9793621301651001 L 11.3999490737915 9.839639663696289 Z" stroke="none"/>
        <path d="M 6.13916015625 1.958707809448242 L 1.756732940673828 9.339639663696289 L 10.52158737182617 9.339639663696289 L 6.13916015625 1.958707809448242 M 6.13916015625 -9.5367431640625e-07 L 12.2783203125 10.33963966369629 L 0 10.33963966369629 L 6.13916015625 -9.5367431640625e-07 Z" stroke="none" fill="#707070"/>
      </g>
      <g id="Trazado_629072-2" data-name="Trazado 629072" transform="translate(-18.785) rotate(90)" fill="#707070">
        <path d="M12.278,0h0Z" stroke="none"/>
        <path d="M 0 0 L 12.2783203125 0 L 0 0 Z" stroke="none" fill="#707070"/>
      </g>
      <path id="Trazado_183774-7" data-name="Trazado 183774" d="M0,0V28.349" transform="translate(-18.784 6.139) rotate(-90)" fill="none" stroke="#707070" stroke-width="1"/>
    </g>
    <g id="Grupo_904299" data-name="Grupo 904299" transform="translate(963.128 935.861)">
      <g id="Polígono_28-7" data-name="Polígono 28" transform="translate(29.389) rotate(90)" fill="#707070">
        <path d="M 15.3069896697998 13.12977981567383 L 0.8783723711967468 13.12977981567383 L 8.092680931091309 0.9793622493743896 L 15.3069896697998 13.12977981567383 Z" stroke="none"/>
        <path d="M 8.092680931091309 1.958707809448242 L 1.756733894348145 12.62977981567383 L 14.42862796783447 12.62977981567383 L 8.092680931091309 1.958707809448242 M 8.092680931091309 -9.5367431640625e-07 L 16.18536186218262 13.62977981567383 L 0 13.62977981567383 L 8.092680931091309 -9.5367431640625e-07 Z" stroke="none" fill="#707070"/>
      </g>
      <path id="Trazado_183774-8" data-name="Trazado 183774" d="M0,0V64.48" transform="translate(-39.35 8.093) rotate(-90)" fill="none" stroke="#707070" stroke-width="1"/>
    </g>
    <rect id="Rectángulo_302880" data-name="Rectángulo 302880" width="221.916" height="74.183" rx="17" transform="translate(441 819.913)" fill="#0b5999"/>
    <path id="Trazado_633075" data-name="Trazado 633075" d="M70,17.477H65.539L64.76,20H61.281L66.235,6.492H69.3L74.288,20h-3.5Zm-3.683-2.514h2.9l-1.457-4.685ZM78.425,20H75.29V5.75h3.136Zm6.169-2.227a1.391,1.391,0,0,0,1.021-.357,1.31,1.31,0,0,0,.353-1H88.9a3.47,3.47,0,0,1-1.183,2.709,4.4,4.4,0,0,1-3.048,1.058,4.455,4.455,0,0,1-3.451-1.373,5.41,5.41,0,0,1-1.262-3.8v-.13a6.114,6.114,0,0,1,.561-2.686A4.087,4.087,0,0,1,82.136,10.4a4.827,4.827,0,0,1,2.5-.626,4.344,4.344,0,0,1,3.108,1.085A3.85,3.85,0,0,1,88.9,13.8H85.968a1.716,1.716,0,0,0-.38-1.2,1.313,1.313,0,0,0-1.021-.417q-1.215,0-1.419,1.549a10.932,10.932,0,0,0-.065,1.354,4.294,4.294,0,0,0,.362,2.1A1.253,1.253,0,0,0,84.595,17.773ZM95.876,20a3.53,3.53,0,0,1-.3-.9,2.907,2.907,0,0,1-2.412,1.085,3.562,3.562,0,0,1-2.412-.858,2.732,2.732,0,0,1-.993-2.157A2.807,2.807,0,0,1,90.968,14.7a6.144,6.144,0,0,1,3.507-.835h.965v-.531q0-1.389-1.2-1.389a.978.978,0,0,0-1.113,1.1H90a2.8,2.8,0,0,1,1.239-2.363A5.2,5.2,0,0,1,94.4,9.776a4.563,4.563,0,0,1,3.034.937,3.258,3.258,0,0,1,1.141,2.57v4.444A4.551,4.551,0,0,0,99,19.842V20Zm-1.958-2.041a1.744,1.744,0,0,0,.969-.25,1.57,1.57,0,0,0,.552-.566v-1.6h-.909Q92.9,15.538,92.9,17a.9.9,0,0,0,.288.691A1.041,1.041,0,0,0,93.919,17.959Zm9.259-8,.1,1.178a3.4,3.4,0,0,1,2.867-1.364,2.864,2.864,0,0,1,2.343.937,4.461,4.461,0,0,1,.8,2.82V20h-3.136V13.664a1.694,1.694,0,0,0-.306-1.118,1.416,1.416,0,0,0-1.113-.357,1.491,1.491,0,0,0-1.364.724V20h-3.126V9.962Zm12.088,7.812a1.391,1.391,0,0,0,1.021-.357,1.31,1.31,0,0,0,.353-1h2.932a3.47,3.47,0,0,1-1.183,2.709,4.4,4.4,0,0,1-3.048,1.058,4.455,4.455,0,0,1-3.451-1.373,5.41,5.41,0,0,1-1.262-3.8v-.13a6.114,6.114,0,0,1,.561-2.686,4.087,4.087,0,0,1,1.619-1.791,4.827,4.827,0,0,1,2.5-.626,4.344,4.344,0,0,1,3.108,1.085,3.85,3.85,0,0,1,1.15,2.941h-2.932a1.716,1.716,0,0,0-.38-1.2,1.313,1.313,0,0,0-1.021-.417q-1.215,0-1.419,1.549a10.932,10.932,0,0,0-.065,1.354,4.294,4.294,0,0,0,.362,2.1A1.253,1.253,0,0,0,115.266,17.773Zm10.483,2.412a5.16,5.16,0,0,1-3.739-1.378,4.757,4.757,0,0,1-1.429-3.586v-.26a6.165,6.165,0,0,1,.571-2.718,4.175,4.175,0,0,1,1.665-1.823,5.027,5.027,0,0,1,2.6-.645,4.345,4.345,0,0,1,3.34,1.313,5.159,5.159,0,0,1,1.225,3.66v1.215h-6.216a2.253,2.253,0,0,0,.733,1.327,2.181,2.181,0,0,0,1.466.482,2.81,2.81,0,0,0,2.319-1.039l1.429,1.688a3.994,3.994,0,0,1-1.656,1.285A5.6,5.6,0,0,1,125.749,20.186Zm-.353-8q-1.373,0-1.633,1.818h3.154v-.241a1.549,1.549,0,0,0-.38-1.164A1.514,1.514,0,0,0,125.4,12.188Z" transform="translate(456 845.913)" fill="#fff"/>
    <rect id="Rectángulo_302882" data-name="Rectángulo 302882" width="221.916" height="74.183" rx="17" transform="translate(440.634 1411.913)" fill="#0b5999"/>
    <path id="Trazado_633078" data-name="Trazado 633078" d="M16.4,14.267H11.276V17.5h6.049V20H8.02V6.492h9.324V9.006H11.276v2.848H16.4ZM22.27,16.28l1.586-6.318H27.15L23.875,20H20.683L17.408,9.962h3.3ZM33.6,20a3.53,3.53,0,0,1-.3-.9,2.907,2.907,0,0,1-2.412,1.085,3.562,3.562,0,0,1-2.412-.858,2.731,2.731,0,0,1-.993-2.157A2.807,2.807,0,0,1,28.69,14.7a6.144,6.144,0,0,1,3.507-.835h.965v-.531q0-1.389-1.2-1.389a.978.978,0,0,0-1.113,1.1H27.725a2.8,2.8,0,0,1,1.239-2.363,5.2,5.2,0,0,1,3.159-.908,4.563,4.563,0,0,1,3.034.937,3.258,3.258,0,0,1,1.141,2.57v4.444a4.551,4.551,0,0,0,.427,2.115V20ZM31.64,17.959a1.744,1.744,0,0,0,.969-.25,1.57,1.57,0,0,0,.552-.566v-1.6h-.909q-1.633,0-1.633,1.466a.9.9,0,0,0,.288.691A1.041,1.041,0,0,0,31.64,17.959ZM41.325,20H38.19V5.75h3.136Zm7.9-1.085a3.223,3.223,0,0,1-2.681,1.271,3.161,3.161,0,0,1-2.5-.96,4.038,4.038,0,0,1-.849-2.76v-6.5h3.126v6.522a1.124,1.124,0,0,0,1.252,1.29A1.634,1.634,0,0,0,49.109,17V9.962h3.145V20H49.322ZM59.62,20a3.53,3.53,0,0,1-.3-.9,2.907,2.907,0,0,1-2.412,1.085,3.562,3.562,0,0,1-2.412-.858,2.731,2.731,0,0,1-.993-2.157A2.807,2.807,0,0,1,54.713,14.7a6.144,6.144,0,0,1,3.507-.835h.965v-.531q0-1.389-1.2-1.389a.978.978,0,0,0-1.113,1.1H53.748a2.8,2.8,0,0,1,1.239-2.363,5.2,5.2,0,0,1,3.159-.908,4.563,4.563,0,0,1,3.034.937,3.258,3.258,0,0,1,1.141,2.57v4.444a4.551,4.551,0,0,0,.427,2.115V20Zm-1.958-2.041a1.744,1.744,0,0,0,.969-.25,1.57,1.57,0,0,0,.552-.566v-1.6h-.909q-1.633,0-1.633,1.466a.9.9,0,0,0,.288.691A1.041,1.041,0,0,0,57.663,17.959Zm10.632-.186a1.391,1.391,0,0,0,1.021-.357,1.31,1.31,0,0,0,.353-1H72.6a3.47,3.47,0,0,1-1.183,2.709,4.4,4.4,0,0,1-3.048,1.058,4.455,4.455,0,0,1-3.451-1.373,5.41,5.41,0,0,1-1.262-3.8v-.13a6.114,6.114,0,0,1,.561-2.686A4.087,4.087,0,0,1,65.836,10.4a4.827,4.827,0,0,1,2.5-.626,4.344,4.344,0,0,1,3.108,1.085A3.85,3.85,0,0,1,72.6,13.8H69.668a1.716,1.716,0,0,0-.38-1.2,1.313,1.313,0,0,0-1.021-.417q-1.215,0-1.419,1.549a10.932,10.932,0,0,0-.065,1.354,4.294,4.294,0,0,0,.362,2.1A1.253,1.253,0,0,0,68.295,17.773ZM77.219,20H74.084V9.962h3.136ZM73.9,7.374a1.4,1.4,0,0,1,.482-1.095,2.051,2.051,0,0,1,2.5,0,1.4,1.4,0,0,1,.482,1.095,1.4,1.4,0,0,1-.482,1.095,2.051,2.051,0,0,1-2.5,0A1.4,1.4,0,0,1,73.9,7.374Zm4.852,7.515a5.925,5.925,0,0,1,.584-2.677,4.18,4.18,0,0,1,1.679-1.8,5.057,5.057,0,0,1,2.57-.631,4.616,4.616,0,0,1,3.553,1.4,5.358,5.358,0,0,1,1.3,3.8v.111a5.2,5.2,0,0,1-1.3,3.725,4.628,4.628,0,0,1-3.53,1.378A4.681,4.681,0,0,1,80.16,18.9a5.026,5.026,0,0,1-1.4-3.484Zm3.126.195a3.735,3.735,0,0,0,.436,2.041,1.453,1.453,0,0,0,1.29.649q1.67,0,1.707-2.57v-.315q0-2.7-1.726-2.7-1.568,0-1.7,2.329ZM84.01,5.75h3.3L84.734,8.663l-2.551,0Zm8.674,4.212.1,1.178a3.4,3.4,0,0,1,2.867-1.364A2.864,2.864,0,0,1,98,10.713a4.461,4.461,0,0,1,.8,2.82V20H95.663V13.664a1.694,1.694,0,0,0-.306-1.118,1.416,1.416,0,0,0-1.113-.357,1.491,1.491,0,0,0-1.364.724V20H89.753V9.962Zm15.53,0,.1,1.178a3.451,3.451,0,0,1,2.867-1.364,2.541,2.541,0,0,1,2.57,1.512,3.341,3.341,0,0,1,2.95-1.512q3.052,0,3.136,3.692V20H116.7V13.664a1.914,1.914,0,0,0-.26-1.123,1.106,1.106,0,0,0-.946-.353,1.481,1.481,0,0,0-1.382.826l.009.13V20h-3.136V13.682a2.011,2.011,0,0,0-.25-1.141,1.1,1.1,0,0,0-.956-.353,1.5,1.5,0,0,0-1.373.826V20h-3.126V9.962Zm18.267,10.224a5.16,5.16,0,0,1-3.739-1.378,4.757,4.757,0,0,1-1.429-3.586v-.26a6.165,6.165,0,0,1,.571-2.718,4.175,4.175,0,0,1,1.665-1.823,5.027,5.027,0,0,1,2.6-.645,4.345,4.345,0,0,1,3.34,1.313,5.159,5.159,0,0,1,1.225,3.66v1.215H124.5a2.253,2.253,0,0,0,.733,1.327,2.181,2.181,0,0,0,1.466.482,2.81,2.81,0,0,0,2.319-1.039l1.429,1.688a3.994,3.994,0,0,1-1.656,1.285A5.6,5.6,0,0,1,126.482,20.186Zm-.353-8q-1.373,0-1.633,1.818h3.154v-.241a1.549,1.549,0,0,0-.38-1.164A1.514,1.514,0,0,0,126.13,12.188Zm5.446,2.718a6.132,6.132,0,0,1,1.03-3.757,3.39,3.39,0,0,1,2.876-1.373,2.883,2.883,0,0,1,2.264,1.058V5.75h3.136V20h-2.811l-.158-1.076a2.96,2.96,0,0,1-2.449,1.262,3.383,3.383,0,0,1-2.839-1.373A6.326,6.326,0,0,1,131.575,14.907Zm3.126.195q0,2.672,1.559,2.672a1.539,1.539,0,0,0,1.484-.872V13.079a1.5,1.5,0,0,0-1.466-.891q-1.447,0-1.568,2.338ZM145.955,20h-3.136V9.962h3.136ZM142.634,7.374a1.4,1.4,0,0,1,.482-1.095,2.051,2.051,0,0,1,2.5,0,1.4,1.4,0,0,1,.482,1.095,1.4,1.4,0,0,1-.482,1.095,2.051,2.051,0,0,1-2.5,0A1.4,1.4,0,0,1,142.634,7.374ZM153.535,20a3.53,3.53,0,0,1-.3-.9,2.907,2.907,0,0,1-2.412,1.085,3.562,3.562,0,0,1-2.412-.858,2.731,2.731,0,0,1-.993-2.157,2.807,2.807,0,0,1,1.206-2.468,6.144,6.144,0,0,1,3.507-.835h.965v-.531q0-1.389-1.2-1.389a.978.978,0,0,0-1.113,1.1h-3.126a2.8,2.8,0,0,1,1.239-2.363,5.2,5.2,0,0,1,3.159-.908,4.563,4.563,0,0,1,3.034.937,3.258,3.258,0,0,1,1.141,2.57v4.444a4.551,4.551,0,0,0,.427,2.115V20Zm-1.958-2.041a1.744,1.744,0,0,0,.969-.25,1.57,1.57,0,0,0,.552-.566v-1.6h-.909q-1.633,0-1.633,1.466a.9.9,0,0,0,.288.691A1.041,1.041,0,0,0,151.577,17.959Zm9.259-8,.1,1.178A3.4,3.4,0,0,1,163.8,9.776a2.864,2.864,0,0,1,2.343.937,4.461,4.461,0,0,1,.8,2.82V20h-3.136V13.664a1.694,1.694,0,0,0-.306-1.118,1.416,1.416,0,0,0-1.113-.357,1.491,1.491,0,0,0-1.364.724V20H157.9V9.962Zm11.485-2.5v2.5h1.651v2.171h-1.651v4.592a1.173,1.173,0,0,0,.2.789,1.1,1.1,0,0,0,.807.223,4.586,4.586,0,0,0,.779-.056v2.236a5.77,5.77,0,0,1-1.763.269,3.275,3.275,0,0,1-2.384-.761,3.118,3.118,0,0,1-.77-2.31V12.133h-1.28V9.962h1.28v-2.5Zm7.737,12.719a5.16,5.16,0,0,1-3.739-1.378,4.758,4.758,0,0,1-1.429-3.586v-.26a6.165,6.165,0,0,1,.571-2.718,4.175,4.175,0,0,1,1.665-1.823,5.027,5.027,0,0,1,2.6-.645,4.345,4.345,0,0,1,3.34,1.313,5.159,5.159,0,0,1,1.225,3.66v1.215h-6.216a2.253,2.253,0,0,0,.733,1.327,2.181,2.181,0,0,0,1.466.482,2.81,2.81,0,0,0,2.319-1.039l1.429,1.688a3.994,3.994,0,0,1-1.656,1.285A5.6,5.6,0,0,1,180.059,20.186Zm-.353-8q-1.373,0-1.633,1.818h3.154v-.241a1.549,1.549,0,0,0-.38-1.164A1.514,1.514,0,0,0,179.706,12.188ZM71.3,42.055a6.053,6.053,0,0,1-1.053,3.734,3.376,3.376,0,0,1-2.844,1.4,2.894,2.894,0,0,1-2.273-1.011v4.685H62v-13.9h2.922l.093.928a2.894,2.894,0,0,1,2.366-1.113,3.4,3.4,0,0,1,2.885,1.368,6.128,6.128,0,0,1,1.03,3.762Zm-3.126-.195q0-2.672-1.559-2.672a1.471,1.471,0,0,0-1.484.8v3.952a1.519,1.519,0,0,0,1.5.835q1.494,0,1.54-2.579Zm10.576-2.069-1.03-.074a1.85,1.85,0,0,0-1.893.928V47H72.7V36.962h2.932l.1,1.29a2.421,2.421,0,0,1,2.2-1.475,3.049,3.049,0,0,1,.872.111Zm7.106,6.123a3.223,3.223,0,0,1-2.681,1.271,3.161,3.161,0,0,1-2.5-.96,4.038,4.038,0,0,1-.849-2.76v-6.5h3.126v6.522a1.124,1.124,0,0,0,1.252,1.29A1.634,1.634,0,0,0,85.731,44V36.962h3.145V47H85.945Zm9.593,1.271a5.16,5.16,0,0,1-3.739-1.378,4.757,4.757,0,0,1-1.429-3.586v-.26a6.165,6.165,0,0,1,.571-2.718,4.175,4.175,0,0,1,1.665-1.823,5.027,5.027,0,0,1,2.6-.645,4.345,4.345,0,0,1,3.34,1.313,5.159,5.159,0,0,1,1.225,3.66v1.215H93.459a2.253,2.253,0,0,0,.733,1.327,2.181,2.181,0,0,0,1.466.482,2.81,2.81,0,0,0,2.319-1.039l1.429,1.688a3.994,3.994,0,0,1-1.656,1.285A5.6,5.6,0,0,1,95.445,47.186Zm-.353-8q-1.373,0-1.633,1.818h3.154v-.241a1.549,1.549,0,0,0-.38-1.164A1.514,1.514,0,0,0,95.092,39.188Zm15.159,2.876a6.118,6.118,0,0,1-1.021,3.794,3.418,3.418,0,0,1-2.876,1.327,2.966,2.966,0,0,1-2.468-1.215l-.13,1.03h-2.8V32.75h3.126v5.019a2.862,2.862,0,0,1,2.254-.993,3.419,3.419,0,0,1,2.895,1.345,6.15,6.15,0,0,1,1.021,3.785Zm-3.136-.2a4.081,4.081,0,0,0-.385-2.061,1.3,1.3,0,0,0-1.183-.616,1.5,1.5,0,0,0-1.466.806v3.983a1.505,1.505,0,0,0,1.484.8,1.328,1.328,0,0,0,1.4-1.074A7.715,7.715,0,0,0,107.116,41.865ZM117.284,47a3.53,3.53,0,0,1-.3-.9,2.907,2.907,0,0,1-2.412,1.085,3.562,3.562,0,0,1-2.412-.858,2.731,2.731,0,0,1-.993-2.157,2.807,2.807,0,0,1,1.206-2.468,6.144,6.144,0,0,1,3.507-.835h.965v-.531q0-1.389-1.2-1.389a.978.978,0,0,0-1.113,1.1h-3.126a2.8,2.8,0,0,1,1.239-2.363,5.2,5.2,0,0,1,3.159-.908,4.563,4.563,0,0,1,3.034.937,3.258,3.258,0,0,1,1.141,2.57v4.444a4.551,4.551,0,0,0,.427,2.115V47Zm-1.958-2.041a1.744,1.744,0,0,0,.969-.25,1.57,1.57,0,0,0,.552-.566v-1.6h-.909q-1.633,0-1.633,1.466a.9.9,0,0,0,.288.691A1.041,1.041,0,0,0,115.326,44.959Zm11.643-.779a.722.722,0,0,0-.417-.64,6.35,6.35,0,0,0-1.586-.5,7.234,7.234,0,0,1-1.93-.682,3.232,3.232,0,0,1-1.16-1.025,2.448,2.448,0,0,1-.4-1.382,2.774,2.774,0,0,1,1.141-2.278,4.7,4.7,0,0,1,2.987-.9,5.208,5.208,0,0,1,3.191.9A2.814,2.814,0,0,1,130,40.042h-3.136q0-1.206-1.271-1.206a1.26,1.26,0,0,0-.826.274.847.847,0,0,0-.334.682.778.778,0,0,0,.408.677,3.857,3.857,0,0,0,1.3.427,11.264,11.264,0,0,1,1.573.4,2.857,2.857,0,0,1,2.264,2.792,2.629,2.629,0,0,1-1.22,2.236,5.35,5.35,0,0,1-3.159.863,5.46,5.46,0,0,1-2.3-.464,3.847,3.847,0,0,1-1.577-1.262,2.857,2.857,0,0,1-.566-1.679h2.922a1.208,1.208,0,0,0,.464,1.016,1.908,1.908,0,0,0,1.141.32,1.5,1.5,0,0,0,.96-.26A.831.831,0,0,0,126.969,44.18Z" transform="translate(455.634 1423.913)" fill="#fff"/>
    <rect id="Rectángulo_302883" data-name="Rectángulo 302883" width="221.916" height="74.183" rx="17" transform="translate(440.635 1178.499)" fill="#0b5999"/>
    <path id="Trazado_633077" data-name="Trazado 633077" d="M58.131,14.267H53.01V17.5h6.049V20H49.754V6.492h9.324V9.006H53.01v2.848h5.121ZM65.5,17.18a.722.722,0,0,0-.417-.64,6.35,6.35,0,0,0-1.586-.5,7.234,7.234,0,0,1-1.93-.682,3.232,3.232,0,0,1-1.16-1.025,2.448,2.448,0,0,1-.4-1.382,2.774,2.774,0,0,1,1.141-2.278,4.7,4.7,0,0,1,2.987-.9,5.208,5.208,0,0,1,3.191.9,2.814,2.814,0,0,1,1.206,2.366H65.4q0-1.206-1.271-1.206a1.26,1.26,0,0,0-.826.274.847.847,0,0,0-.334.682.778.778,0,0,0,.408.677,3.857,3.857,0,0,0,1.3.427,11.264,11.264,0,0,1,1.573.4,2.857,2.857,0,0,1,2.264,2.792,2.629,2.629,0,0,1-1.22,2.236,5.35,5.35,0,0,1-3.159.863,5.46,5.46,0,0,1-2.3-.464,3.847,3.847,0,0,1-1.577-1.262,2.857,2.857,0,0,1-.566-1.679h2.922a1.208,1.208,0,0,0,.464,1.016,1.908,1.908,0,0,0,1.141.32,1.5,1.5,0,0,0,.96-.26A.831.831,0,0,0,65.5,17.18Zm8.721.594a1.391,1.391,0,0,0,1.021-.357,1.31,1.31,0,0,0,.353-1h2.932a3.47,3.47,0,0,1-1.183,2.709,4.4,4.4,0,0,1-3.048,1.058,4.455,4.455,0,0,1-3.451-1.373,5.41,5.41,0,0,1-1.262-3.8v-.13a6.114,6.114,0,0,1,.561-2.686A4.087,4.087,0,0,1,71.76,10.4a4.827,4.827,0,0,1,2.5-.626,4.344,4.344,0,0,1,3.108,1.085,3.85,3.85,0,0,1,1.15,2.941H75.591a1.716,1.716,0,0,0-.38-1.2,1.313,1.313,0,0,0-1.021-.417q-1.215,0-1.419,1.549a10.932,10.932,0,0,0-.065,1.354,4.294,4.294,0,0,0,.362,2.1A1.253,1.253,0,0,0,74.218,17.773ZM84.7,20.186a5.16,5.16,0,0,1-3.739-1.378,4.757,4.757,0,0,1-1.429-3.586v-.26a6.165,6.165,0,0,1,.571-2.718,4.175,4.175,0,0,1,1.665-1.823,5.027,5.027,0,0,1,2.6-.645,4.345,4.345,0,0,1,3.34,1.313,5.159,5.159,0,0,1,1.225,3.66v1.215H82.716a2.253,2.253,0,0,0,.733,1.327,2.181,2.181,0,0,0,1.466.482,2.81,2.81,0,0,0,2.319-1.039l1.429,1.688a3.994,3.994,0,0,1-1.656,1.285A5.6,5.6,0,0,1,84.7,20.186Zm-.353-8q-1.373,0-1.633,1.818h3.154v-.241a1.549,1.549,0,0,0-.38-1.164A1.514,1.514,0,0,0,84.349,12.188ZM93.06,9.962l.1,1.178a3.4,3.4,0,0,1,2.867-1.364,2.864,2.864,0,0,1,2.343.937,4.461,4.461,0,0,1,.8,2.82V20H96.038V13.664a1.694,1.694,0,0,0-.306-1.118,1.416,1.416,0,0,0-1.113-.357,1.491,1.491,0,0,0-1.364.724V20H90.129V9.962ZM106.559,20a3.53,3.53,0,0,1-.3-.9,2.907,2.907,0,0,1-2.412,1.085,3.562,3.562,0,0,1-2.412-.858,2.732,2.732,0,0,1-.993-2.157,2.807,2.807,0,0,1,1.206-2.468,6.144,6.144,0,0,1,3.507-.835h.965v-.531q0-1.389-1.2-1.389a.978.978,0,0,0-1.113,1.1h-3.126a2.8,2.8,0,0,1,1.239-2.363,5.2,5.2,0,0,1,3.159-.908,4.563,4.563,0,0,1,3.034.937,3.258,3.258,0,0,1,1.141,2.57v4.444a4.551,4.551,0,0,0,.427,2.115V20ZM104.6,17.959a1.744,1.744,0,0,0,.969-.25,1.57,1.57,0,0,0,.552-.566v-1.6h-.909q-1.633,0-1.633,1.466a.9.9,0,0,0,.288.691A1.041,1.041,0,0,0,104.6,17.959Zm12.459-5.167-1.03-.074a1.85,1.85,0,0,0-1.893.928V20h-3.126V9.962h2.932l.1,1.29a2.421,2.421,0,0,1,2.2-1.475,3.049,3.049,0,0,1,.872.111ZM121.486,20H118.35V9.962h3.136ZM118.165,7.374a1.4,1.4,0,0,1,.482-1.095,2.051,2.051,0,0,1,2.5,0,1.4,1.4,0,0,1,.482,1.095,1.4,1.4,0,0,1-.482,1.095,2.051,2.051,0,0,1-2.5,0A1.4,1.4,0,0,1,118.165,7.374Zm4.852,7.515a5.925,5.925,0,0,1,.584-2.677,4.18,4.18,0,0,1,1.679-1.8,5.057,5.057,0,0,1,2.57-.631,4.616,4.616,0,0,1,3.553,1.4,5.358,5.358,0,0,1,1.3,3.8v.111a5.2,5.2,0,0,1-1.3,3.725,4.628,4.628,0,0,1-3.53,1.378,4.681,4.681,0,0,1-3.442-1.285,5.026,5.026,0,0,1-1.4-3.484Zm3.126.195a3.735,3.735,0,0,0,.436,2.041,1.453,1.453,0,0,0,1.29.649q1.67,0,1.707-2.57v-.315q0-2.7-1.726-2.7-1.568,0-1.7,2.329Zm13.192,2.1a.722.722,0,0,0-.417-.64,6.35,6.35,0,0,0-1.586-.5,7.234,7.234,0,0,1-1.93-.682,3.232,3.232,0,0,1-1.16-1.025,2.448,2.448,0,0,1-.4-1.382,2.774,2.774,0,0,1,1.141-2.278,4.7,4.7,0,0,1,2.987-.9,5.208,5.208,0,0,1,3.191.9,2.814,2.814,0,0,1,1.206,2.366h-3.136q0-1.206-1.271-1.206a1.26,1.26,0,0,0-.826.274.847.847,0,0,0-.334.682.778.778,0,0,0,.408.677,3.857,3.857,0,0,0,1.3.427,11.264,11.264,0,0,1,1.573.4,2.857,2.857,0,0,1,2.264,2.792,2.629,2.629,0,0,1-1.22,2.236,5.35,5.35,0,0,1-3.159.863,5.46,5.46,0,0,1-2.3-.464,3.847,3.847,0,0,1-1.577-1.262,2.857,2.857,0,0,1-.566-1.679h2.922a1.208,1.208,0,0,0,.464,1.016,1.908,1.908,0,0,0,1.141.32,1.5,1.5,0,0,0,.96-.26A.831.831,0,0,0,139.336,17.18Z" transform="translate(455.635 1204.499)" fill="#fff"/>
    <rect id="Rectángulo_303309" data-name="Rectángulo 303309" width="221.916" height="74.183" rx="17" transform="translate(717.778 908.155)" fill="#21cbae"/>
    <path id="Trazado_633076" data-name="Trazado 633076" d="M56.147,14.965H50.756v3.4h6.367V21H47.329V6.781h9.814V9.428H50.756v3h5.391ZM63.9,18.031a.76.76,0,0,0-.439-.674,6.684,6.684,0,0,0-1.67-.527,7.615,7.615,0,0,1-2.031-.718,3.4,3.4,0,0,1-1.221-1.079,2.577,2.577,0,0,1-.42-1.455,2.92,2.92,0,0,1,1.2-2.4,4.948,4.948,0,0,1,3.145-.942,5.482,5.482,0,0,1,3.359.947,2.962,2.962,0,0,1,1.27,2.49h-3.3q0-1.27-1.338-1.27a1.326,1.326,0,0,0-.869.288.892.892,0,0,0-.352.718.819.819,0,0,0,.43.713,4.06,4.06,0,0,0,1.372.449,11.857,11.857,0,0,1,1.655.42,3.007,3.007,0,0,1,2.383,2.939,2.767,2.767,0,0,1-1.284,2.354,5.631,5.631,0,0,1-3.325.908,5.747,5.747,0,0,1-2.422-.488,4.05,4.05,0,0,1-1.66-1.328,3.007,3.007,0,0,1-.6-1.768h3.076a1.272,1.272,0,0,0,.488,1.069,2.009,2.009,0,0,0,1.2.337,1.58,1.58,0,0,0,1.011-.273A.875.875,0,0,0,63.9,18.031Zm9.18.625a1.464,1.464,0,0,0,1.074-.376,1.379,1.379,0,0,0,.371-1.05h3.086a3.653,3.653,0,0,1-1.245,2.852A4.631,4.631,0,0,1,73.159,21.2a4.689,4.689,0,0,1-3.633-1.445,5.7,5.7,0,0,1-1.328-4v-.137a6.436,6.436,0,0,1,.591-2.827,4.3,4.3,0,0,1,1.7-1.885,5.081,5.081,0,0,1,2.637-.659A4.573,4.573,0,0,1,76.4,11.381a4.053,4.053,0,0,1,1.211,3.1H74.526a1.806,1.806,0,0,0-.4-1.26,1.382,1.382,0,0,0-1.074-.439q-1.279,0-1.494,1.631a11.508,11.508,0,0,0-.068,1.426,4.52,4.52,0,0,0,.381,2.207A1.319,1.319,0,0,0,73.08,18.656ZM84.116,21.2a5.432,5.432,0,0,1-3.936-1.45,5.008,5.008,0,0,1-1.5-3.774V15.7a6.489,6.489,0,0,1,.6-2.861,4.395,4.395,0,0,1,1.753-1.919,5.292,5.292,0,0,1,2.734-.679A4.574,4.574,0,0,1,87.28,11.62a5.43,5.43,0,0,1,1.289,3.853v1.279H82.026a2.372,2.372,0,0,0,.771,1.4,2.3,2.3,0,0,0,1.543.508,2.958,2.958,0,0,0,2.441-1.094l1.5,1.777a4.2,4.2,0,0,1-1.743,1.353A5.891,5.891,0,0,1,84.116,21.2Zm-.371-8.418q-1.445,0-1.719,1.914h3.32v-.254a1.63,1.63,0,0,0-.4-1.226A1.593,1.593,0,0,0,83.745,12.777Zm9.17-2.344.107,1.24a3.583,3.583,0,0,1,3.018-1.436,3.015,3.015,0,0,1,2.466.986,4.7,4.7,0,0,1,.845,2.969V21h-3.3V14.33a1.783,1.783,0,0,0-.322-1.177,1.491,1.491,0,0,0-1.172-.376,1.569,1.569,0,0,0-1.436.762V21H89.829V10.434ZM107.123,21a3.716,3.716,0,0,1-.312-.947,3.06,3.06,0,0,1-2.539,1.143,3.749,3.749,0,0,1-2.539-.9,2.875,2.875,0,0,1-1.045-2.271,2.955,2.955,0,0,1,1.27-2.6,6.468,6.468,0,0,1,3.691-.879h1.016v-.559q0-1.462-1.26-1.462a1.03,1.03,0,0,0-1.172,1.158h-3.291a2.95,2.95,0,0,1,1.3-2.487,5.479,5.479,0,0,1,3.325-.956,4.8,4.8,0,0,1,3.193.986,3.429,3.429,0,0,1,1.2,2.705v4.678a4.79,4.79,0,0,0,.449,2.227V21Zm-2.061-2.148a1.836,1.836,0,0,0,1.021-.264,1.653,1.653,0,0,0,.581-.6V16.3h-.957q-1.719,0-1.719,1.543a.942.942,0,0,0,.3.728A1.1,1.1,0,0,0,105.063,18.852Zm13.115-5.439-1.084-.078a1.947,1.947,0,0,0-1.992.977V21h-3.291V10.434H114.9L115,11.791a2.548,2.548,0,0,1,2.314-1.553,3.209,3.209,0,0,1,.918.117ZM122.836,21h-3.3V10.434h3.3Zm-3.5-13.291a1.469,1.469,0,0,1,.508-1.152,2.159,2.159,0,0,1,2.637,0,1.469,1.469,0,0,1,.508,1.152,1.469,1.469,0,0,1-.508,1.152,2.159,2.159,0,0,1-2.637,0A1.469,1.469,0,0,1,119.34,7.709Zm5.107,7.91a6.236,6.236,0,0,1,.615-2.817,4.4,4.4,0,0,1,1.768-1.9,5.323,5.323,0,0,1,2.705-.664,4.858,4.858,0,0,1,3.74,1.47,5.64,5.64,0,0,1,1.367,4v.117a5.472,5.472,0,0,1-1.372,3.921,4.871,4.871,0,0,1-3.716,1.45,4.927,4.927,0,0,1-3.623-1.353,5.29,5.29,0,0,1-1.475-3.667Zm3.291.205a3.932,3.932,0,0,0,.459,2.148,1.529,1.529,0,0,0,1.357.684q1.758,0,1.8-2.705v-.332q0-2.842-1.816-2.842-1.65,0-1.787,2.451Zm13.887,2.207a.76.76,0,0,0-.439-.674,6.684,6.684,0,0,0-1.67-.527,7.615,7.615,0,0,1-2.031-.718,3.4,3.4,0,0,1-1.221-1.079,2.577,2.577,0,0,1-.42-1.455,2.92,2.92,0,0,1,1.2-2.4,4.948,4.948,0,0,1,3.145-.942,5.482,5.482,0,0,1,3.359.947,2.962,2.962,0,0,1,1.27,2.49h-3.3q0-1.27-1.338-1.27a1.326,1.326,0,0,0-.869.288.892.892,0,0,0-.352.718.819.819,0,0,0,.43.713,4.06,4.06,0,0,0,1.372.449,11.857,11.857,0,0,1,1.655.42,3.007,3.007,0,0,1,2.383,2.939,2.767,2.767,0,0,1-1.284,2.354,5.632,5.632,0,0,1-3.325.908,5.747,5.747,0,0,1-2.422-.488,4.05,4.05,0,0,1-1.66-1.328,3.007,3.007,0,0,1-.6-1.768h3.076a1.272,1.272,0,0,0,.488,1.069,2.009,2.009,0,0,0,1.2.337,1.58,1.58,0,0,0,1.011-.273A.875.875,0,0,0,141.625,18.031Z" transform="translate(732.778 933.155)" fill="#12263f"/>
    <rect id="Rectángulo_302885" data-name="Rectángulo 302885" width="221.916" height="74.183" rx="17" transform="translate(717.635 662.913)" fill="#21cbae"/>
    <path id="Trazado_633080" data-name="Trazado 633080" d="M69.217,12.865a7.546,7.546,0,0,1-.694,3.313A5.132,5.132,0,0,1,66.549,18.4a5.494,5.494,0,0,1-2.914.778,5.572,5.572,0,0,1-2.9-.751,5.123,5.123,0,0,1-1.973-2.149,7.329,7.329,0,0,1-.743-3.208v-.721a7.58,7.58,0,0,1,.69-3.318A5.119,5.119,0,0,1,60.687,6.81,5.854,5.854,0,0,1,66.518,6.8,5.211,5.211,0,0,1,68.5,9a7.362,7.362,0,0,1,.716,3.274Zm-3.138-.536a5.381,5.381,0,0,0-.637-2.9,2.044,2.044,0,0,0-1.824-.989q-2.32,0-2.452,3.48l-.009.94a5.535,5.535,0,0,0,.624,2.892,2.041,2.041,0,0,0,1.854,1.011,2.016,2.016,0,0,0,1.8-.993,5.383,5.383,0,0,0,.642-2.856Zm13.421,2a5.8,5.8,0,0,1-.967,3.595,3.238,3.238,0,0,1-2.725,1.257,2.81,2.81,0,0,1-2.338-1.151L73.348,19H70.693V5.5h2.962v4.755a2.711,2.711,0,0,1,2.136-.94,3.239,3.239,0,0,1,2.742,1.274,5.826,5.826,0,0,1,.967,3.586Zm-2.971-.189a3.866,3.866,0,0,0-.365-1.952,1.229,1.229,0,0,0-1.121-.584,1.418,1.418,0,0,0-1.389.763v3.773a1.426,1.426,0,0,0,1.406.755,1.258,1.258,0,0,0,1.327-1.018A7.309,7.309,0,0,0,76.529,14.135ZM83.991,9.49v9.835a3.452,3.452,0,0,1-.967,2.6,3.714,3.714,0,0,1-2.672.914,6.308,6.308,0,0,1-1.4-.149V20.45a5.667,5.667,0,0,0,.835.079,1.084,1.084,0,0,0,1.23-1.222V9.49ZM80.8,7.038A1.322,1.322,0,0,1,81.258,6a1.943,1.943,0,0,1,2.373,0,1.322,1.322,0,0,1,.457,1.037,1.322,1.322,0,0,1-.457,1.037,1.943,1.943,0,0,1-2.373,0A1.322,1.322,0,0,1,80.8,7.038Zm9.466,12.138a4.889,4.889,0,0,1-3.542-1.305,4.507,4.507,0,0,1-1.354-3.4v-.246a5.84,5.84,0,0,1,.541-2.575,3.955,3.955,0,0,1,1.578-1.727,4.763,4.763,0,0,1,2.461-.611,4.117,4.117,0,0,1,3.164,1.244,4.887,4.887,0,0,1,1.16,3.467v1.151H88.386a2.135,2.135,0,0,0,.694,1.257,2.066,2.066,0,0,0,1.389.457,2.662,2.662,0,0,0,2.2-.984l1.354,1.6a3.784,3.784,0,0,1-1.569,1.217A5.3,5.3,0,0,1,90.267,19.176ZM89.933,11.6q-1.3,0-1.547,1.723h2.988v-.229a1.467,1.467,0,0,0-.36-1.1A1.434,1.434,0,0,0,89.933,11.6Zm8.982-4.474V9.49h1.564v2.057H98.915V15.9a1.111,1.111,0,0,0,.193.747,1.037,1.037,0,0,0,.765.211,4.345,4.345,0,0,0,.738-.053v2.118a5.466,5.466,0,0,1-1.67.255,3.1,3.1,0,0,1-2.259-.721,2.954,2.954,0,0,1-.729-2.188v-4.72H94.74V9.49h1.213V7.126ZM104.768,19H101.8V9.49h2.971ZM101.622,7.038A1.322,1.322,0,0,1,102.079,6a1.943,1.943,0,0,1,2.373,0,1.322,1.322,0,0,1,.457,1.037,1.322,1.322,0,0,1-.457,1.037,1.943,1.943,0,0,1-2.373,0A1.322,1.322,0,0,1,101.622,7.038Zm8.763,8.438,1.5-5.985h3.12l-3.1,9.51h-3.023l-3.1-9.51h3.129Zm5-1.318a5.613,5.613,0,0,1,.554-2.536,3.96,3.96,0,0,1,1.591-1.709,4.791,4.791,0,0,1,2.435-.6,4.373,4.373,0,0,1,3.366,1.323,5.076,5.076,0,0,1,1.23,3.6v.105a4.925,4.925,0,0,1-1.235,3.529,4.384,4.384,0,0,1-3.344,1.305,4.434,4.434,0,0,1-3.261-1.217,4.761,4.761,0,0,1-1.327-3.3Zm2.962.185a3.538,3.538,0,0,0,.413,1.934,1.376,1.376,0,0,0,1.222.615q1.582,0,1.617-2.435v-.3q0-2.558-1.635-2.558-1.485,0-1.608,2.206Zm12.5,1.986a.684.684,0,0,0-.4-.606,6.016,6.016,0,0,0-1.5-.475,6.853,6.853,0,0,1-1.828-.646,3.062,3.062,0,0,1-1.1-.971,2.319,2.319,0,0,1-.378-1.31,2.628,2.628,0,0,1,1.081-2.158,4.453,4.453,0,0,1,2.83-.848,4.934,4.934,0,0,1,3.023.853,2.666,2.666,0,0,1,1.143,2.241h-2.971q0-1.143-1.2-1.143a1.194,1.194,0,0,0-.782.259.8.8,0,0,0-.316.646.737.737,0,0,0,.387.642,3.654,3.654,0,0,0,1.235.4,10.671,10.671,0,0,1,1.49.378A2.706,2.706,0,0,1,133.7,16.24a2.491,2.491,0,0,1-1.156,2.118,5.068,5.068,0,0,1-2.993.817,5.172,5.172,0,0,1-2.18-.439,3.645,3.645,0,0,1-1.494-1.2,2.707,2.707,0,0,1-.536-1.591h2.769a1.145,1.145,0,0,0,.439.962,1.808,1.808,0,0,0,1.081.3,1.422,1.422,0,0,0,.91-.246A.787.787,0,0,0,130.846,16.328Z" transform="translate(732.593 690.505)" fill="#12263f"/>
  </g>
</svg>
